<?xml version="1.0" encoding="UTF-8" standalone="no"?>
<svg
   viewBox="0 0 723 1721"
   width="723"
   height="1721"
   version="1.1"
   id="svg18"
   sodipodi:docname="april_right.svg"
   inkscape:version="1.4.2 (f4327f4, 2025-05-13)"
   xmlns:inkscape="http://www.inkscape.org/namespaces/inkscape"
   xmlns:sodipodi="http://sodipodi.sourceforge.net/DTD/sodipodi-0.dtd"
   xmlns="http://www.w3.org/2000/svg"
   xmlns:svg="http://www.w3.org/2000/svg">
  <defs
     id="defs18" />
  <sodipodi:namedview
     id="namedview18"
     pagecolor="#ffffff"
     bordercolor="#000000"
     borderopacity="0.25"
     inkscape:showpageshadow="2"
     inkscape:pageopacity="0.0"
     inkscape:pagecheckerboard="0"
     inkscape:deskcolor="#d1d1d1"
     inkscape:zoom="1.8756537"
     inkscape:cx="97.032838"
     inkscape:cy="782.3939"
     inkscape:window-width="1920"
     inkscape:window-height="1009"
     inkscape:window-x="1912"
     inkscape:window-y="-8"
     inkscape:window-maximized="1"
     inkscape:current-layer="svg18" />
  <path
     d="m 146.75398,317.37699 c 6.63895,6.97692 12.07052,13.38084 16.08317,18.50798 C 172.3386,348.02536 174.49669,350.97261 179,360 c 2.83,6.17 7.37699,17.83 9.37699,24 4.769,14.71235 3.18277,27.89134 2.62301,32 -0.5,3.67 -1.5,2.67 -3,3 -1.5,0.33 -3,1.17 -6,-1 -3,-2.17 -6.32036,-7.97016 -12,-12 -12.1122,-8.59388 -10.59623,-8.72978 -22.49203,-14.75398 -4.53827,-2.29825 -8.55752,-3.88752 -14.05752,-5.05752 -5.5,-1.17 -14.21496,-2.08399 -19.88496,-1.75399 -5.67,0.33 -9.93707,0.42654 -17.696467,2.81151"
     fill="none"
     stroke="#000000"
     stroke-width="12.17"
     stroke-linecap="round"
     stroke-linejoin="round"
     id="path1"
     sodipodi:nodetypes="cssssssssssc"
     style="stroke-width:8;stroke-dasharray:none" />
  <path
     d="m 49,432 c -0.33,1.17 -2.17,4.17 -2,7 0.17,2.83 0.33,7 3,10 2.67,3 10,5.67 13,8 3,2.33 5.5,1.17 5,6 -0.5,4.83 -7,18 -8,23 -1,5 0.83,4.83 2,7 1.17,2.17 3.67,2.83 5,6 1.33,3.17 3.33,10.5 3,13 -0.33,2.5 -3.17,2.33 -5,2 -1.83,-0.33 -3,-3.33 -6,-4 -3,-0.67 -9.5,-0.67 -12,0 -2.5,0.67 -2.5,2.5 -3,4 -0.5,1.5 -0.67,3.33 0,5 0.67,1.67 1.33,4.17 4,5 2.67,0.83 9,0.83 12,0 3,-0.83 4.5,-4.83 6,-5 1.5,-0.17 2.17,0.83 3,4 0.83,3.17 3.17,9.83 2,15 -1.17,5.17 -7.33,12 -9,16 -1.67,4 -1.5,5.83 -1,8 0.5,2.17 0.83,3.5 4,5 3.17,1.5 11.33,2.17 15,4 3.67,1.83 4.83,3.33 7,7 2.17,3.67 4.83,10.33 6,15 1.950062,15.22703 8.67092,20.69889 2.666434,36.53384 C 89.871209,644.81694 71,687.5 65,703 c -8.205554,21.19768 -5.654439,16.44732 -10.132241,31.19958 -1.509647,4.97358 -1.794993,6.09313 -4.001046,15.33426 C 49.28643,756.15363 48.17,757.67 45,773 c -3.17,15.33 -9.67,45.33 -13,70 -3.33,24.67 -5.83,45.33 -7,78 -1.17,32.67 -1,70.5 0,118 1,47.5 2.5,82.83 6,167 3.5,84.17 10.83,255.33 15,338 4.17,82.67 8.33,131.67 10,158"
     fill="none"
     stroke="#000000"
     stroke-width="10.20"
     stroke-linecap="round"
     stroke-linejoin="round"
     id="path2"
     style="stroke-width:8;stroke-dasharray:none"
     sodipodi:nodetypes="cssssssssssssssssssssssssssssssssssc" />
  <path
     d="M414.00,442.00 C407.00,439.00 385.67,428.33 372.00,424.00 C358.33,419.67 344.00,417.33 332.00,416.00 C320.00,414.67 311.67,414.67 300.00,416.00 C288.33,417.33 273.50,420.33 262.00,424.00 C250.50,427.67 237.67,433.83 231.00,438.00 C224.33,442.17 225.00,447.00 222.00,449.00 C219.00,451.00 215.00,450.50 213.00,450.00 C211.00,449.50 210.50,448.50 210.00,446.00 C209.50,443.50 209.50,439.50 210.00,435.00 C210.50,430.50 211.33,423.67 213.00,419.00 C214.67,414.33 217.17,409.50 220.00,407.00 C222.83,404.50 224.50,408.17 230.00,404.00 C235.50,399.83 243.83,389.83 253.00,382.00 C262.17,374.17 273.50,364.83 285.00,357.00 C296.50,349.17 310.50,340.83 322.00,335.00 C333.50,329.17 343.33,325.33 354.00,322.00 C364.67,318.67 375.17,316.33 386.00,315.00 C396.83,313.67 409.83,313.67 419.00,314.00 C428.17,314.33 434.83,315.83 441.00,317.00 C447.17,318.17 450.00,318.33 456.00,321.00 C462.00,323.67 471.00,327.83 477.00,333.00 C483.00,338.17 488.33,345.33 492.00,352.00 C495.67,358.67 497.67,364.33 499.00,373.00 C500.33,381.67 500.17,396.50 500.00,404.00 C499.83,411.50 500.83,410.17 498.00,418.00 C495.17,425.83 486.33,442.67 483.00,451.00 C479.67,459.33 478.67,462.67 478.00,468.00 C477.33,473.33 478.17,478.17 479.00,483.00 C479.83,487.83 480.33,494.33 483.00,497.00 C485.67,499.67 488.00,496.83 495.00,499.00 C502.00,501.17 513.83,507.00 525.00,510.00 C536.17,513.00 551.00,515.83 562.00,517.00 C573.00,518.17 583.00,518.00 591.00,517.00 C599.00,516.00 603.83,514.50 610.00,511.00 C616.17,507.50 624.17,500.33 628.00,496.00 C631.83,491.67 632.33,492.17 633.00,485.00 C633.67,477.83 629.00,462.00 632.00,453.00 C635.00,444.00 646.83,436.67 651.00,431.00 C655.17,425.33 656.00,423.50 657.00,419.00 C658.00,414.50 658.17,412.67 657.00,404.00 C655.83,395.33 651.17,379.00 650.00,367.00 C648.83,355.00 649.67,339.67 650.00,332.00 C650.33,324.33 650.50,326.83 652.00,321.00 C653.50,315.17 653.83,307.67 659.00,297.00 C664.17,286.33 677.83,268.67 683.00,257.00 C688.17,245.33 686.83,236.00 690.00,227.00 C693.17,218.00 699.83,210.50 702.00,203.00 C704.17,195.50 703.83,189.33 703.00,182.00 C702.17,174.67 699.50,164.67 697.00,159.00 C694.50,153.33 691.83,150.33 688.00,148.00 C684.17,145.67 676.50,146.00 674.00,145.00 C671.50,144.00 674.00,142.83 673.00,142.00 C672.00,141.17 673.00,140.50 668.00,140.00 C663.00,139.50 650.00,138.50 643.00,139.00 C636.00,139.50 634.83,139.00 626.00,143.00 C617.17,147.00 599.00,158.67 590.00,163.00 C581.00,167.33 591.17,166.83 572.00,169.00 C552.83,171.17 497.17,173.50 475.00,176.00 C452.83,178.50 450.83,180.33 439.00,184.00 C427.17,187.67 411.50,195.67 404.00,198.00 C396.50,200.33 395.67,198.00 394.00,198.00"
     fill="none"
     stroke="black"
     stroke-width="10.77"
     stroke-linecap="round"
     stroke-linejoin="round"
     id="path3"
     style="stroke-width:8;stroke-dasharray:none" />
  <path
     d="M348.00,471.00 C344.17,469.17 334.83,463.33 325.00,460.00 C315.17,456.67 301.67,452.67 289.00,451.00 C276.33,449.33 259.17,449.67 249.00,450.00 C238.83,450.33 232.50,453.17 228.00,453.00 C223.50,452.83 223.00,449.67 222.00,449.00"
     fill="none"
     stroke="black"
     stroke-width="10.77"
     stroke-linecap="round"
     stroke-linejoin="round"
     id="path4"
     style="stroke-width:8;stroke-dasharray:none" />
  <path
     d="m 294.1961,624.13398 c 0,-7.67 -4.03463,-26.6051 -9.06351,-40.13537 -5.03298,-13.54131 -6.51408,-17.63376 -10.01408,-24.96376 -3.5,-7.33 -7.49376,-13.23248 -11.37076,-19.18293 -12.10832,-18.58399 -24.18608,-24.01455 -30.34928,-32.65234 -1.82916,-2.56358 -2.23562,-5.3986 -6.62855,-8.69161 C 223.72632,496.22644 226.83,488 223,484 c -6.38171,-6.66497 -11.04301,-4.08793 -25,-21 -2.71377,-3.28835 12.5,-10 15,-12"
     fill="none"
     stroke="#000000"
     stroke-width="14.56"
     stroke-linecap="round"
     stroke-linejoin="round"
     id="path5"
     sodipodi:nodetypes="csssssssc"
     style="stroke-width:8;stroke-dasharray:none" />
  <path
     d="m 236,881 c -1.5,-0.67 -5.33,-1 -9,-4 -3.67,-3 -8.68053,-10.23549 -11.68053,-14.56549 -3,-4.33 -4.18849,-6.38752 -6.31947,-11.43451 -1.8577,-4.39976 -2.99744,-8.50256 -3.82744,-13.17256 -0.83,-4.67 -2.33502,-13.58594 -0.31762,-17.27627 2.0343,-3.72123 0.53239,0.60699 4.20489,-6.46039 2.29863,-4.42348 12.36785,-9.74691 16.01385,-10.07023 4.103,-0.36384 6.18205,-0.596 8.52507,0.77847 2.67,1.5663 6.52449,5.41694 5.86601,12.79694 -0.37112,4.15935 -4.04621,10.31088 -7.92053,11.75516 -6.65889,2.4823 -6.83011,2.34247 -12.89927,2.41303 -4.03183,0.0469 -7.53811,-1.50808 -12.93371,-4.8734"
     fill="none"
     stroke="#000000"
     stroke-width="10.77"
     stroke-linecap="round"
     stroke-linejoin="round"
     id="path6"
     sodipodi:nodetypes="csssssssssssc"
     style="stroke-width:8;stroke-dasharray:none" />
  <path
     d="M88.00,156.00 C87.50,155.33 85.50,155.17 85.00,152.00 C84.50,148.83 84.33,142.00 85.00,137.00 C85.67,132.00 87.50,126.00 89.00,122.00 C90.50,118.00 91.17,117.33 94.00,113.00 C96.83,108.67 101.33,101.67 106.00,96.00 C110.67,90.33 114.17,85.50 122.00,79.00 C129.83,72.50 142.83,63.00 153.00,57.00 C163.17,51.00 171.00,47.33 183.00,43.00 C195.00,38.67 209.33,34.33 225.00,31.00 C240.67,27.67 259.50,24.83 277.00,23.00 C294.50,21.17 313.67,20.33 330.00,20.00 C346.33,19.67 363.00,19.67 375.00,21.00 C387.00,22.33 394.83,24.67 402.00,28.00 C409.17,31.33 415.17,37.00 418.00,41.00 C420.83,45.00 418.17,49.17 419.00,52.00 C419.83,54.83 423.33,49.00 423.00,58.00 C422.67,67.00 419.67,91.17 417.00,106.00 C414.33,120.83 410.67,134.00 407.00,147.00 C403.33,160.00 397.17,175.33 395.00,184.00 C392.83,192.67 395.50,195.00 394.00,199.00 C392.50,203.00 394.17,202.17 386.00,208.00 C377.83,213.83 352.83,228.00 345.00,234.00 C337.17,240.00 340.17,241.83 339.00,244.00 C337.83,246.17 337.83,246.17 338.00,247.00 C338.17,247.83 332.67,249.50 340.00,249.00 C347.33,248.50 368.83,244.67 382.00,244.00 C395.17,243.33 405.83,243.33 419.00,245.00 C432.17,246.67 443.83,248.83 461.00,254.00 C478.17,259.17 506.50,272.17 522.00,276.00 C537.50,279.83 547.33,277.17 554.00,277.00 C560.67,276.83 557.17,276.83 562.00,275.00 C566.83,273.17 577.50,268.83 583.00,266.00 C588.50,263.17 588.17,264.00 595.00,258.00 C601.83,252.00 613.83,242.50 624.00,230.00 C634.17,217.50 647.67,197.17 656.00,183.00 C664.33,168.83 671.00,151.33 674.00,145.00"
     fill="none"
     stroke="black"
     stroke-width="10.77"
     stroke-linecap="round"
     stroke-linejoin="round"
     id="path7"
     style="stroke-width:8;stroke-dasharray:none" />
  <path
     d="M419.00,52.00 C416.67,52.50 411.17,52.33 405.00,55.00 C398.83,57.67 388.50,63.00 382.00,68.00 C375.50,73.00 371.83,76.17 366.00,85.00 C360.17,93.83 351.83,113.17 347.00,121.00 C342.17,128.83 346.33,126.67 337.00,132.00 C327.67,137.33 300.67,149.33 291.00,153.00 C281.33,156.67 284.67,154.83 279.00,154.00 C273.33,153.17 262.33,148.50 257.00,148.00 C251.67,147.50 251.83,148.17 247.00,151.00 C242.17,153.83 233.17,162.33 228.00,165.00 C222.83,167.67 220.17,167.17 216.00,167.00 C211.83,166.83 210.33,167.50 203.00,164.00 C195.67,160.50 180.67,149.83 172.00,146.00 C163.33,142.17 156.50,141.83 151.00,141.00 C145.50,140.17 145.50,140.00 139.00,141.00 C132.50,142.00 120.50,144.50 112.00,147.00 C103.50,149.50 91.83,152.50 88.00,156.00 C84.17,159.50 85.67,161.17 89.00,168.00 C92.33,174.83 97.17,184.67 108.00,197.00 C118.83,209.33 140.67,230.00 154.00,242.00 C167.33,254.00 180.33,262.00 188.00,269.00 C195.67,276.00 196.00,277.00 200.00,284.00 C204.00,291.00 209.17,301.83 212.00,311.00 C214.83,320.17 216.17,331.00 217.00,339.00 C217.83,347.00 216.33,354.67 217.00,359.00 C217.67,363.33 218.50,365.00 221.00,365.00 C223.50,365.00 227.67,365.00 232.00,359.00 C236.33,353.00 240.17,339.67 247.00,329.00 C253.83,318.33 262.17,306.67 273.00,295.00 C283.83,283.33 301.17,267.00 312.00,259.00 C322.83,251.00 333.67,249.00 338.00,247.00"
     fill="none"
     stroke="black"
     stroke-width="10.77"
     stroke-linecap="round"
     stroke-linejoin="round"
     id="path8"
     style="stroke-width:8;stroke-dasharray:none" />
  <path
     d="m 146.24949,316.65836 c 2,0.5 26.47222,11.51925 35.75051,20.34164 5.99762,5.70292 10.26195,11.31691 14.26195,16.14691 4,4.83 5.56805,9.18309 9.73805,12.85309 4.17,3.67 10.33,5.17 13,5 2.67,-0.17 2.5,-5 3,-6"
     fill="none"
     stroke="#000000"
     stroke-width="11.31"
     stroke-linecap="round"
     stroke-linejoin="round"
     id="path9"
     sodipodi:nodetypes="cssssc"
     style="stroke-width:8;stroke-dasharray:none" />
  <path
     d="M217.00,371.00 C217.33,371.00 218.83,364.67 219.00,371.00 C219.17,377.33 218.17,402.67 218.00,409.00"
     fill="none"
     stroke="black"
     stroke-width="16.49"
     stroke-linecap="round"
     stroke-linejoin="round"
     id="path10"
     style="stroke-width:8;stroke-dasharray:none" />
  <path
     d="m 94.706436,388.12775 c 18.801214,4.5793 32.371884,16.34339 52.041314,26.92977 C 154.84222,419.41408 176.33,445.5 178,454 c 1.67,8.5 -6.83,8.17 -9,13 -2.17,4.83 -4,8.67 -4,16 0,7.33 3.33,23.33 4,28"
     fill="none"
     stroke="#000000"
     stroke-width="10.77"
     stroke-linecap="round"
     stroke-linejoin="round"
     id="path11"
     sodipodi:nodetypes="cssssc"
     style="stroke-width:8;stroke-dasharray:none" />
  <path
     d="M178.00,454.00 C179.33,454.33 182.83,454.50 186.00,456.00 C189.17,457.50 195.17,461.83 197.00,463.00"
     fill="none"
     stroke="black"
     stroke-width="10.77"
     stroke-linecap="round"
     stroke-linejoin="round"
     id="path12"
     style="stroke-width:8;stroke-dasharray:none" />
  <path
     d="m 221,484 c 2.17,0.17 8,-0.5 13,1 5,1.5 11.17,3.67 17,8 17.12428,12.71838 32.14104,20.25616 37,24 18.17,14 80.83,63.5 103,80 22.17,16.5 22.5,14.83 30,19 7.5,4.17 11.17,5 15,6 3.83,1 5.67,0.5 8,0 2.33,-0.5 3.67,-0.83 6,-3 2.33,-2.17 5.83,-6.5 8,-10 2.17,-3.5 3.33,-5.33 5,-11 1.67,-5.67 4.5,-14 5,-23 0.5,-9 -2.17,-23.83 -2,-31 0.17,-7.17 0.5,-6.67 3,-12 2.5,-5.33 9.67,-14.17 12,-20 2.33,-5.83 1.67,-12.5 2,-15"
     fill="none"
     stroke="#000000"
     stroke-width="10.77"
     stroke-linecap="round"
     stroke-linejoin="round"
     id="path13"
     sodipodi:nodetypes="cssssssssssssssc"
     style="stroke-width:8;stroke-dasharray:none" />
  <path
     d="m 230,506 c -1.83,2.17 -6.83,9.83 -11,13 -4.17,3.17 -8.67,5.33 -14,6 -5.33,0.67 -12.5,0.17 -18,-2 -5.5,-2.17 -11.5,-9.33 -15,-11 -3.5,-1.67 0.33,-6.83 -6,1 -6.33,7.83 -22.33,30.5 -32,46 -9.67,15.5 -20.30329,37.13042 -26.13329,45.80042 -5.83,8.67 -8.166431,16.03253 -10.866013,21.261"
     fill="none"
     stroke="#000000"
     stroke-width="10.77"
     stroke-linecap="round"
     stroke-linejoin="round"
     id="path14"
     style="stroke-width:8;stroke-dasharray:none"
     sodipodi:nodetypes="csssssssc" />
  <path
     d="m 267.70502,505.84687 c 15.22498,15.9324 21.68218,31.11872 27.13672,52.90036 4.71456,18.82667 7.12627,38.63856 -0.71679,65.10686"
     fill="none"
     stroke="#000000"
     stroke-width="13.03"
     stroke-linecap="round"
     stroke-linejoin="round"
     id="path15"
     sodipodi:nodetypes="csc"
     style="stroke-width:8;stroke-dasharray:none" />
  <path
     d="M65.00,514.00 C65.33,514.00 66.83,513.17 67.00,514.00 C67.17,514.83 66.17,518.17 66.00,519.00"
     fill="none"
     stroke="black"
     stroke-width="18.44"
     stroke-linecap="round"
     stroke-linejoin="round"
     id="path16"
     style="stroke-width:8;stroke-dasharray:none" />
  <path
     d="M 181.26449,756.99548 C 181.09449,754.82548 175.5,734.83 174,731 c -1.5,-3.83 -4.5,-6.83 -8,-10 -3.5,-3.17 -7.83,-6.5 -13,-9 -5.17,-2.5 -12.17,-5 -18,-6 -5.83,-1 -12,-0.5 -17,0 -5,0.5 -8.17,1.17 -13,3 -4.83,1.83 -10.17,4.17 -16,8 -5.83,3.83 -14,11.83 -19,15 -5,3.17 -13.168606,7.19532 -14.998606,7.86532"
     fill="none"
     stroke="#000000"
     stroke-width="10.77"
     stroke-linecap="round"
     stroke-linejoin="round"
     id="path17"
     sodipodi:nodetypes="cssssssssc"
     style="stroke-width:8;stroke-dasharray:none" />
  <path
     d="m 179.39916,753.26413 c -1.93575,-3.76745 -5.31598,-6.6687 -8.39847,-8.0649 -3.02787,-1.37146 -9.41349,-5.1208 -13.40055,-4.79937 -4.13329,0.33322 -7.03315,1.63329 -9.53315,3.13329 -2.5,1.5 -4.26335,2.76335 -5.93335,5.93335 C 140.46364,752.6365 139,757.5 139,762 c 0,4.5 1.5,10.17 4,14 2.5,3.83 6.62952,5.63811 10.73343,6.60084 4.53314,1.06342 9.1365,0.40412 13.4665,-3.26588 4.33,-3.67 15.0104,-17.44104 13.59978,-21.933 -1.25271,-3.98916 6.29023,10.98528 7.46756,13.59769 2.16629,4.80686 3.56802,10.75274 5.87584,17.49387 2.46098,7.1885 8.68214,28.66668 10.18214,34.33668"
     fill="none"
     stroke="#000000"
     stroke-width="10.77"
     stroke-linecap="round"
     stroke-linejoin="round"
     id="path18"
     sodipodi:nodetypes="csssssssssssc"
     style="stroke-width:8;stroke-dasharray:none" />
</svg>
