<?xml version="1.0" encoding="UTF-8" standalone="no"?>
<svg
   viewBox="0 0 723 1721"
   width="723"
   height="1721"
   version="1.1"
   id="svg18"
   sodipodi:docname="april_left.svg"
   inkscape:version="1.4.2 (f4327f4, 2025-05-13)"
   xmlns:inkscape="http://www.inkscape.org/namespaces/inkscape"
   xmlns:sodipodi="http://sodipodi.sourceforge.net/DTD/sodipodi-0.dtd"
   xmlns="http://www.w3.org/2000/svg"
   xmlns:svg="http://www.w3.org/2000/svg">
  <defs
     id="defs18" />
  <sodipodi:namedview
     id="namedview18"
     pagecolor="#ffffff"
     bordercolor="#000000"
     borderopacity="0.25"
     inkscape:showpageshadow="2"
     inkscape:pageopacity="0.0"
     inkscape:pagecheckerboard="0"
     inkscape:deskcolor="#d1d1d1"
     inkscape:zoom="0.66314372"
     inkscape:cx="852.00234"
     inkscape:cy="763.78617"
     inkscape:window-width="1920"
     inkscape:window-height="1009"
     inkscape:window-x="1912"
     inkscape:window-y="-8"
     inkscape:window-maximized="1"
     inkscape:current-layer="svg18" />
  <path
     d="m 572.40125,318.86602 c -2.80041,4.42944 -3.29891,5.59505 -6.98176,11.15824 -3.15693,4.76875 -8.08482,10.36961 -11.27258,16.09078 -3.29697,5.91719 -6.30097,9.13894 -9.50796,15.63894 -3.13676,6.35765 -7.75399,15.86903 -9.75399,24.86903 -2,9 -4.88496,23.04699 -4.88496,28.37699 0,5.33 1.33,3.5 3,4 1.67,0.5 3.83,1.17 7,-1 3.17,-2.17 8.56549,-9.3115 12,-12 3.71433,-2.90753 8.07349,-5.04768 11.62301,-6.95842 4.06549,-2.1885 4.90094,-3.24903 9.75398,-5.41857 5.06549,-2.26451 12.1885,-3.67256 18.1885,-5.17256 6,-1.5 12.07601,-0.79301 17.24601,-0.62301 5.17,0.17 29.86811,4.12045 32.03811,4.45045"
     fill="none"
     stroke="#000000"
     stroke-width="12.17"
     stroke-linecap="round"
     stroke-linejoin="round"
     id="path1"
     sodipodi:nodetypes="cssssssssssssc"
     style="stroke-width:8;stroke-dasharray:none" />
  <path
     d="m 673,432 c 0.17,2 1.33,9 1,12 -0.33,3 -0.5,3.83 -3,6 -2.5,2.17 -9.17,4.67 -12,7 -2.83,2.33 -5.33,3.17 -5,7 0.33,3.83 5.83,11.83 7,16 1.17,4.17 1.17,5.67 0,9 -1.17,3.33 -5.5,7.17 -7,11 -1.5,3.83 -2.33,9.33 -2,12 0.33,2.67 2.17,4.33 4,4 1.83,-0.33 3.83,-5 7,-6 3.17,-1 9.5,-0.5 12,0 2.5,0.5 2.5,1.33 3,3 0.5,1.67 0.67,5.17 0,7 -0.67,1.83 -1.33,3.33 -4,4 -2.67,0.67 -9,0.83 -12,0 -3,-0.83 -4.5,-4.67 -6,-5 -1.5,-0.33 -2.17,0 -3,3 -0.83,3 -3.17,9.5 -2,15 1.17,5.5 7.33,13.67 9,18 1.67,4.33 1.5,6 1,8 -0.5,2 -0.83,2.67 -4,4 -3.17,1.33 -11.17,2 -15,4 -3.83,2 -5.83,4.33 -8,8 -2.17,3.67 -5.25745,11.3815 -7.39916,15.86602 -8.2136,17.19843 2.69568,34.8287 -10.46825,8.73482 C 608.67805,588.82425 577.33,544.17 568,529 c -9.33,-15.17 -7.17,-11.17 -10,-14 -2.83,-2.83 -5.83,-2.5 -7,-3"
     fill="none"
     stroke="#000000"
     stroke-width="10.77"
     stroke-linecap="round"
     stroke-linejoin="round"
     id="path2"
     style="stroke-width:8;stroke-dasharray:none"
     sodipodi:nodetypes="csssssssssssssssssssssssssssc" />
  <path
     d="M308.00,442.00 C312.50,439.83 325.33,432.67 335.00,429.00 C344.67,425.33 356.83,422.17 366.00,420.00 C375.17,417.83 380.67,416.67 390.00,416.00 C399.33,415.33 412.83,415.33 422.00,416.00 C431.17,416.67 436.83,418.00 445.00,420.00 C453.17,422.00 462.83,424.67 471.00,428.00 C479.17,431.33 489.17,436.50 494.00,440.00 C498.83,443.50 500.00,446.83 500.00,449.00 C500.00,451.17 498.50,452.83 494.00,453.00 C489.50,453.17 483.17,450.33 473.00,450.00 C462.83,449.67 445.67,449.33 433.00,451.00 C420.33,452.67 406.83,456.67 397.00,460.00 C387.17,463.33 377.83,469.17 374.00,471.00"
     fill="none"
     stroke="black"
     stroke-width="10.77"
     stroke-linecap="round"
     stroke-linejoin="round"
     id="path3"
     style="stroke-width:8;stroke-dasharray:none" />
  <path
     d="m 435.06769,615.20307 c -0.17,-5.33 -0.1985,2.38648 3.74148,-8.5951 3.84941,-10.72912 12.75805,-28.22535 15.6542,-36.68054 2.96972,-8.67 5.86646,-14.214 7.39916,-17.66504 2.5,-5.62903 4.97757,-10.11167 7.20098,-14.26309 3.99643,-7.46189 2.52948,-4.79119 5.60153,-10.13537 3.77253,-6.56273 4.91239,-8.81184 8.33496,-11.93371 3.8677,-3.52789 5.69949,-4.77779 7.80112,-4.59875 C 498.66574,512.00147 493.5,508.83 495,511 c 1.5,2.17 4.33,5.67 8,8 3.67,2.33 8.67,5.33 14,6 5.33,0.67 12,0.5 18,-2 6,-2.5 14.5,-8.5 18,-13 3.5,-4.5 2.5,-8.83 3,-14 0.5,-5.17 0.67,-12 0,-17 -0.67,-5 -2.17,-8.83 -4,-13 -1.83,-4.17 -5.83,-10 -7,-12"
     fill="none"
     stroke="#000000"
     stroke-width="11.31"
     stroke-linecap="round"
     stroke-linejoin="round"
     id="path4"
     sodipodi:nodetypes="csssssssssssssssc"
     style="stroke-width:8;stroke-dasharray:none" />
  <path
     d="m 486,881 c 0.0898,-0.64651 13.98878,-3.43381 20.59944,-17.19888 4.2117,-8.76983 4.86435,-7.69551 7.40056,-17.60084 3.55577,-13.88728 7.76386,-21.68724 -1.59944,-20.86323 -16.98443,1.4947 -15.19436,3.41981 -24.53036,-1.33426 -5.42031,-2.76013 -10.14252,-10.55395 -3.53594,-17.9351 4.69489,-5.24533 11.18297,-6.65164 17.53315,-4.66713 9.32958,3.5405 15.51788,14.56402 16.13259,16.59944 0.67,4 -0.13111,6.73622 -0.80111,9.73622"
     fill="none"
     stroke="#000000"
     stroke-width="10.77"
     stroke-linecap="round"
     stroke-linejoin="round"
     id="path5"
     sodipodi:nodetypes="csssssssc"
     style="stroke-width:8;stroke-dasharray:none" />
  <path
     d="m 667,1702 c 3.83,-81.17 18,-373 23,-487 5,-114 5.83,-150.83 7,-197 1.17,-46.17 1.17,-51.33 0,-80 -1.17,-28.67 -3.67,-64.5 -7,-92 -3.33,-27.5 -10.07139,-56.58972 -13,-71.40056 -4.91106,-18.72241 -9.91958,-34.96741 -14.39986,-53.33217 C 661.10706,715.76539 660.83,713.67 655,699 649.17,684.33 628.07784,625.29765 620.2421,611.42737"
     fill="none"
     stroke="#000000"
     stroke-width="10.2"
     stroke-linecap="round"
     stroke-linejoin="round"
     id="path6"
     sodipodi:nodetypes="csssssssc"
     style="stroke-width:8;stroke-dasharray:none" />
  <path
     d="m 301,52 c 0.5,-1.83 0.5,-7.33 3,-11 2.5,-3.67 6.67,-8 12,-11 5.33,-3 13.17,-5.33 20,-7 6.83,-1.67 2.83,-3 21,-3 18.17,0 64.67,1.17 88,3 23.33,1.83 39.33,5.67 52,8 12.67,2.33 12,1.67 24,6 12,4.33 34.83,13 48,20 13.17,7 23.33,15.67 31,22 7.67,6.33 9.83,9.33 15,16 5.17,6.67 12.5,17.67 16,24 3.5,6.33 4,8.67 5,14 1,5.33 1.33,14.17 1,18 -0.33,3.83 2.67,6 -3,5 -5.67,-1 -20.5,-8.5 -31,-11 -10.5,-2.5 -23.17,-4.17 -32,-4 -8.83,0.17 -12.33,1.17 -21,5 -8.67,3.83 -23.67,14.5 -31,18 -7.33,3.5 -8.83,2.83 -13,3 -4.17,0.17 -6.83,0.67 -12,-2 -5.17,-2.67 -14.17,-11.17 -19,-14 -4.83,-2.83 -4.67,-3.5 -10,-3 -5.33,0.5 -16.33,5.17 -22,6 -5.67,0.83 -2.33,2.67 -12,-1 -9.67,-3.67 -36.5,-15.5 -46,-21 -9.5,-5.5 -6,-4 -11,-12 -5,-8 -13.33,-27.33 -19,-36 -5.67,-8.67 -8.67,-11.17 -15,-16 -6.33,-4.83 -16.67,-10.17 -23,-13 -6.33,-2.83 -12,-4 -15,-4 -3,0 -2.67,-0.83 -3,4 -0.33,4.83 -1.5,10.17 1,25 2.5,14.83 9.5,46.33 14,64 4.5,17.67 10.67,32.83 13,42 2.33,9.17 2.5,11 1,13 -1.5,2 -2.5,1.5 -10,-1 -7.5,-2.5 -24.17,-10.5 -35,-14 -10.83,-3.5 -20,-5.17 -30,-7 -10,-1.83 -12.83,-2.67 -30,-4 -17.17,-1.33 -57.83,-2.33 -73,-4 -15.17,-1.67 -9,-1.67 -18,-6 -9,-4.33 -28.17,-16.17 -36,-20 -7.83,-3.83 -4.83,-2.33 -11,-3 -6.17,-0.67 -20.33,-1.17 -26,-1 -5.67,0.17 -6.17,1 -8,2 -1.83,1 -0.67,3.17 -3,4 -2.33,0.83 -7,-1.5 -11,1 -4,2.5 -9.83,7.5 -13,14 -3.17,6.5 -5,19.33 -6,25 -1,5.67 -0.33,5.83 0,9 0.33,3.17 -0.67,3.17 2,10 2.67,6.83 11,22.33 14,31 3,8.67 2.17,15.17 4,21 1.83,5.83 3.83,9 7,14 3.17,5 8,8.17 12,16 4,7.83 9.5,19 12,31 2.5,12 3.83,24.67 3,41 -0.83,16.33 -7.67,45 -8,57 -0.33,12 1.83,8.83 6,15 4.17,6.17 15.5,16.33 19,22 3.5,5.67 2.17,7.17 2,12 -0.17,4.83 -3.33,11.83 -3,17 0.33,5.17 2.5,10 5,14 2.5,4 6.17,7 10,10 3.83,3 6,5.83 13,8 7,2.17 17.5,5 29,5 11.5,0 24.33,-1.5 40,-5 15.67,-3.5 44.33,-10.83 54,-16 9.67,-5.17 3.33,-9.5 4,-15 0.67,-5.5 2.5,-9.5 0,-18 -2.5,-8.5 -11.67,-24.67 -15,-33 -3.33,-8.33 -4,-8.33 -5,-17 -1,-8.67 -1.83,-25.17 -1,-35 0.83,-9.83 3.5,-17.67 6,-24 2.5,-6.33 5.5,-9.83 9,-14 3.5,-4.17 7.17,-7.67 12,-11 4.83,-3.33 9.67,-6.5 17,-9 7.33,-2.5 16.67,-4.83 27,-6 10.33,-1.17 21,-2.67 35,-1 14,1.67 32.83,5.17 49,11 16.17,5.83 34.67,16.17 48,24 13.33,7.83 20.83,13.83 32,23 11.17,9.17 27.17,25.83 35,32 7.83,6.17 10,10.5 12,5 2,-5.5 -1.83,-30.83 0,-38 1.83,-7.17 5,0.67 11,-5 6,-5.67 18.67,-23.83 25,-29 6.33,-5.17 31.56457,-19.01164 33.73457,-19.34164"
     fill="none"
     stroke="#000000"
     stroke-width="10.77"
     stroke-linecap="round"
     stroke-linejoin="round"
     id="path7"
     sodipodi:nodetypes="csssssssssssssssssssssssssssssssssssssssssssssssssssssssssssssssssssssssssssssssssssssssc"
     style="stroke-width:8;stroke-dasharray:none" />
  <path
     d="M48.00,145.00 C48.33,146.33 47.17,146.83 50.00,153.00 C52.83,159.17 57.17,169.33 65.00,182.00 C72.83,194.67 87.33,216.83 97.00,229.00 C106.67,241.17 114.33,248.00 123.00,255.00 C131.67,262.00 141.50,267.33 149.00,271.00 C156.50,274.67 160.33,276.00 168.00,277.00 C175.67,278.00 186.83,278.00 195.00,277.00 C203.17,276.00 206.00,274.83 217.00,271.00 C228.00,267.17 247.83,258.17 261.00,254.00 C274.17,249.83 282.83,247.67 296.00,246.00 C309.17,244.33 326.67,243.50 340.00,244.00 C353.33,244.50 369.00,248.17 376.00,249.00 C383.00,249.83 380.67,249.50 382.00,249.00 C383.33,248.50 379.50,244.50 384.00,246.00 C388.50,247.50 398.33,250.00 409.00,258.00 C419.67,266.00 437.17,282.33 448.00,294.00 C458.83,305.67 467.00,317.17 474.00,328.00 C481.00,338.83 485.67,352.83 490.00,359.00 C494.33,365.17 497.67,362.83 500.00,365.00 C502.33,367.17 503.33,370.83 504.00,372.00"
     fill="none"
     stroke="black"
     stroke-width="10.77"
     stroke-linecap="round"
     stroke-linejoin="round"
     id="path8"
     style="stroke-width:8;stroke-dasharray:none" />
  <path
     d="M635.00,155.00 C634.67,157.00 634.33,163.00 633.00,167.00 C631.67,171.00 630.33,173.83 627.00,179.00 C623.67,184.17 622.83,187.50 613.00,198.00 C603.17,208.50 581.17,230.17 568.00,242.00 C554.83,253.83 541.83,261.83 534.00,269.00 C526.17,276.17 525.00,278.17 521.00,285.00 C517.00,291.83 512.83,300.50 510.00,310.00 C507.17,319.50 505.00,333.50 504.00,342.00 C503.00,350.50 504.67,357.00 504.00,361.00 C503.33,365.00 500.67,365.17 500.00,366.00"
     fill="none"
     stroke="black"
     stroke-width="10.77"
     stroke-linecap="round"
     stroke-linejoin="round"
     id="path9"
     style="stroke-width:8;stroke-dasharray:none" />
  <path
     d="M327.00,199.00 C328.33,200.33 326.67,201.17 335.00,207.00 C343.33,212.83 368.67,227.33 377.00,234.00 C385.33,240.67 383.67,244.83 385.00,247.00"
     fill="none"
     stroke="black"
     stroke-width="10.77"
     stroke-linecap="round"
     stroke-linejoin="round"
     id="path10"
     style="stroke-width:8;stroke-dasharray:none" />
  <path
     d="m 634.68604,393.95218 c 12.80214,-4.95876 -2.37827,0.75098 -21.7921,4.5752 -11.94561,2.3531 -25.3769,5.9953 -33.53013,12.01941 C 574.82263,413.90209 546.67,453.83 545,455 c -1.67,1.17 -5.5,-0.33 -9,1 -3.5,1.33 -8.83,6.5 -12,7 -3.17,0.5 -4.33,-1.67 -7,-4 -2.67,-2.33 -7.5,-8.33 -9,-10"
     fill="none"
     stroke="#000000"
     stroke-width="10.77"
     stroke-linecap="round"
     stroke-linejoin="round"
     id="path11"
     sodipodi:nodetypes="cssssssc"
     style="stroke-width:8;stroke-dasharray:none" />
  <path
     d="M504.00,409.00 C505.00,411.67 508.67,419.00 510.00,425.00 C511.33,431.00 512.33,440.83 512.00,445.00 C511.67,449.17 510.00,449.33 508.00,450.00 C506.00,450.67 501.33,449.17 500.00,449.00"
     fill="none"
     stroke="black"
     stroke-width="14.00"
     stroke-linecap="round"
     stroke-linejoin="round"
     id="path12"
     style="stroke-width:8;stroke-dasharray:none" />
  <path
     d="m 524,463 c -0.67,2 -0.17,8.5 -4,12 -3.83,3.5 -13.67,7.33 -19,9 -5.33,1.67 -8,-0.5 -13,1 -5,1.5 -11,3.83 -17,8 -6,4.17 -15.17,10.17 -19,17 -3.83,6.83 -14.33295,61.48179 -14.66295,66.65179 -0.33,5.17 -2.86175,35.68626 -2.53175,36.85626"
     fill="none"
     stroke="#000000"
     stroke-width="13.42"
     stroke-linecap="round"
     stroke-linejoin="round"
     id="path13"
     sodipodi:nodetypes="cssssssc"
     style="stroke-width:8;stroke-dasharray:none" />
  <path
     d="M499.00,484.00 C499.33,484.00 501.00,482.17 501.00,484.00 C501.00,485.83 500.33,491.33 499.00,495.00 C497.67,498.67 494.00,504.17 493.00,506.00"
     fill="none"
     stroke="black"
     stroke-width="10.77"
     stroke-linecap="round"
     stroke-linejoin="round"
     id="path14"
     style="stroke-width:8;stroke-dasharray:none" />
  <path
     d="M238.00,498.00 C238.50,500.50 238.17,506.17 241.00,513.00 C243.83,519.83 252.83,528.00 255.00,539.00 C257.17,550.00 253.67,569.83 254.00,579.00 C254.33,588.17 254.83,588.17 257.00,594.00 C259.17,599.83 263.50,609.33 267.00,614.00 C270.50,618.67 273.83,621.00 278.00,622.00 C282.17,623.00 286.17,622.17 292.00,620.00 C297.83,617.83 301.33,616.67 313.00,609.00 C324.67,601.33 341.83,589.33 362.00,574.00 C382.17,558.67 419.17,527.67 434.00,517.00 C448.83,506.33 448.17,511.17 451.00,510.00"
     fill="none"
     stroke="black"
     stroke-width="10.77"
     stroke-linecap="round"
     stroke-linejoin="round"
     id="path15"
     style="stroke-width:8;stroke-dasharray:none" />
  <path
     d="M656.00,516.00 C655.83,516.67 654.83,519.33 655.00,520.00 C655.17,520.67 656.67,520.00 657.00,520.00"
     fill="none"
     stroke="black"
     stroke-width="18.11"
     stroke-linecap="round"
     stroke-linejoin="round"
     id="path16"
     style="stroke-width:8;stroke-dasharray:none" />
  <path
     d="m 665.16771,737.1885 c -7.67,-4.67 -37.58373,-20.00256 -47.41373,-25.17256 -9.83,-5.17 -8.03211,-4.07028 -13.75398,-6.01594 -4.15571,-1.41311 -11.30329,-1.93301 -17.79972,-0.53315 C 580.41786,706.71286 574.17,709.5 569,712 c -5.17,2.5 -9.5,6 -13,9 -3.5,3 -6.33,5 -8,9 -1.67,4 -3.00287,19.83078 -3.33287,22.33078"
     fill="none"
     stroke="#000000"
     stroke-width="10.77"
     stroke-linecap="round"
     stroke-linejoin="round"
     id="path17"
     sodipodi:nodetypes="cssssssc"
     style="stroke-width:8;stroke-dasharray:none" />
  <path
     d="m 541.66643,758.53524 c 3.66848,11.57431 9.26202,24.63675 26.067,24.46546 12.0469,-0.1228 20.8352,-6.94023 19.19818,-18.27006 -0.52001,-3.59903 -4.36245,-9.66217 -7.33217,-12.73203 -4.4546,-4.60481 -11.59772,-5.21043 -17.73203,-4.40126 -3.67,0.5 -13.11268,1.33092 -16.06699,3.73343 -3.05027,2.48053 5.65269,-3.48171 -3.33427,2.53941 C 541.6199,754.43717 533.06008,765.86605 530,773 c -5.62817,11.94622 -12.46501,44.77873 -12,45"
     fill="none"
     stroke="#000000"
     stroke-width="10.77"
     stroke-linecap="round"
     stroke-linejoin="round"
     id="path18"
     sodipodi:nodetypes="csssssssc"
     style="stroke-width:8;stroke-dasharray:none" />
</svg>
