<?xml version="1.0" encoding="UTF-8" standalone="no"?>
<svg
   viewBox="0 0 874 2200"
   width="874"
   height="2200"
   version="1.1"
   id="svg60"
   sodipodi:docname="august_left.svg"
   inkscape:version="1.4.2 (f4327f4, 2025-05-13)"
   xmlns:inkscape="http://www.inkscape.org/namespaces/inkscape"
   xmlns:sodipodi="http://sodipodi.sourceforge.net/DTD/sodipodi-0.dtd"
   xmlns="http://www.w3.org/2000/svg"
   xmlns:svg="http://www.w3.org/2000/svg">
  <defs
     id="defs60" />
  <sodipodi:namedview
     id="namedview60"
     pagecolor="#ffffff"
     bordercolor="#000000"
     borderopacity="0.25"
     inkscape:showpageshadow="2"
     inkscape:pageopacity="0.0"
     inkscape:pagecheckerboard="0"
     inkscape:deskcolor="#d1d1d1"
     inkscape:zoom="0.25937962"
     inkscape:cx="156.14179"
     inkscape:cy="888.65886"
     inkscape:window-width="1920"
     inkscape:window-height="1009"
     inkscape:window-x="1912"
     inkscape:window-y="-8"
     inkscape:window-maximized="1"
     inkscape:current-layer="svg60" />
  <path
     d="M429.00,123.00 C427.17,118.67 421.50,104.17 418.00,97.00 C414.50,89.83 413.33,86.50 408.00,80.00 C402.67,73.50 390.67,62.17 386.00,58.00 C381.33,53.83 382.33,57.17 380.00,55.00 C377.67,52.83 372.33,47.50 372.00,45.00 C371.67,42.50 373.67,41.83 378.00,40.00 C382.33,38.17 385.50,36.83 398.00,34.00 C410.50,31.17 436.17,24.83 453.00,23.00 C469.83,21.17 487.83,21.83 499.00,23.00 C510.17,24.17 512.50,18.67 520.00,30.00 C527.50,41.33 539.83,78.83 544.00,91.00 C548.17,103.17 543.67,96.83 545.00,103.00 C546.33,109.17 550.17,116.17 552.00,128.00 C553.83,139.83 555.33,159.67 556.00,174.00 C556.67,188.33 556.33,206.67 556.00,214.00 C555.67,221.33 554.33,217.33 554.00,218.00"
     fill="none"
     stroke="black"
     stroke-width="8.00"
     stroke-linecap="round"
     stroke-linejoin="round"
     id="path1"
     style="stroke-width:8;stroke-dasharray:none" />
  <path
     d="M717.00,222.00 C717.33,214.50 719.50,188.83 719.00,177.00 C718.50,165.17 716.67,159.00 714.00,151.00 C711.33,143.00 708.50,136.00 703.00,129.00 C697.50,122.00 690.33,115.00 681.00,109.00 C671.67,103.00 655.00,97.17 647.00,93.00 C639.00,88.83 636.00,84.67 633.00,84.00 C630.00,83.33 629.67,87.50 629.00,89.00 C628.33,90.50 627.17,80.67 629.00,93.00 C630.83,105.33 638.17,143.67 640.00,163.00 C641.83,182.33 641.33,193.17 640.00,209.00 C638.67,224.83 634.33,247.33 632.00,258.00 C629.67,268.67 627.00,270.50 626.00,273.00"
     fill="none"
     stroke="black"
     stroke-width="8.00"
     stroke-linecap="round"
     stroke-linejoin="round"
     id="path2"
     style="stroke-width:8;stroke-dasharray:none" />
  <path
     d="M712.00,227.00 C712.33,234.67 712.83,264.33 714.00,273.00 C715.17,281.67 717.33,278.33 719.00,279.00 C720.67,279.67 721.17,280.00 724.00,277.00 C726.83,274.00 732.33,265.00 736.00,261.00 C739.67,257.00 742.00,255.50 746.00,253.00 C750.00,250.50 753.33,247.33 760.00,246.00 C766.67,244.67 777.00,242.67 786.00,245.00 C795.00,247.33 804.50,252.50 814.00,260.00 C823.50,267.50 838.17,283.50 843.00,290.00 C847.83,296.50 846.67,297.17 843.00,299.00 C839.33,300.83 824.67,300.67 821.00,301.00"
     fill="none"
     stroke="black"
     stroke-width="10.00"
     stroke-linecap="round"
     stroke-linejoin="round"
     id="path3"
     style="stroke-width:8;stroke-dasharray:none" />
  <path
     d="M239.00,257.00 C238.17,257.00 239.17,260.00 234.00,257.00 C228.83,254.00 214.17,243.67 208.00,239.00 C201.83,234.33 199.33,231.33 197.00,229.00 C194.67,226.67 194.33,226.00 194.00,225.00 C193.67,224.00 193.83,224.33 195.00,223.00 C196.17,221.67 195.67,218.33 201.00,217.00 C206.33,215.67 215.67,214.83 227.00,215.00 C238.33,215.17 261.00,215.33 269.00,218.00 C277.00,220.67 273.33,225.67 275.00,231.00 C276.67,236.33 277.83,246.33 279.00,250.00 C280.17,253.67 281.33,250.67 282.00,253.00 C282.67,255.33 282.33,261.67 283.00,264.00 C283.67,266.33 284.50,263.67 286.00,267.00 C287.50,270.33 288.50,278.00 292.00,284.00 C295.50,290.00 298.17,293.50 307.00,303.00 C315.83,312.50 338.67,334.67 345.00,341.00"
     fill="none"
     stroke="black"
     stroke-width="8.49"
     stroke-linecap="round"
     stroke-linejoin="round"
     id="path4"
     style="stroke-width:8;stroke-dasharray:none" />
  <path
     d="M373.00,266.00 C367.00,255.33 344.67,217.00 337.00,202.00 C329.33,187.00 329.67,184.50 327.00,176.00 C324.33,167.50 324.00,157.17 321.00,151.00 C318.00,144.83 312.33,140.17 309.00,139.00 C305.67,137.83 305.67,137.83 301.00,144.00 C296.33,150.17 285.67,167.00 281.00,176.00 C276.33,185.00 274.83,190.83 273.00,198.00 C271.17,205.17 270.50,215.50 270.00,219.00"
     fill="none"
     stroke="black"
     stroke-width="10.00"
     stroke-linecap="round"
     stroke-linejoin="round"
     id="path5"
     style="stroke-width:8;stroke-dasharray:none" />
  <path
     d="M643.00,321.00 C642.33,321.50 640.83,321.33 639.00,324.00 C637.17,326.67 639.83,327.67 632.00,337.00 C624.17,346.33 601.17,372.33 592.00,380.00 C582.83,387.67 583.17,382.83 577.00,383.00 C570.83,383.17 562.00,378.00 555.00,381.00 C548.00,384.00 540.50,398.50 535.00,401.00 C529.50,403.50 526.50,397.17 522.00,396.00 C517.50,394.83 513.17,396.00 508.00,394.00 C502.83,392.00 486.50,393.00 491.00,384.00 C495.50,375.00 527.50,348.17 535.00,340.00 C542.50,331.83 535.83,335.83 536.00,335.00"
     fill="none"
     stroke="black"
     stroke-width="33.94"
     stroke-linecap="round"
     stroke-linejoin="round"
     id="path6"
     style="stroke-width:8;stroke-dasharray:none" />
  <path
     d="M492.00,322.00 C491.50,323.17 489.67,326.00 489.00,329.00 C488.33,332.00 487.83,338.17 488.00,340.00 C488.17,341.83 490.33,339.50 490.00,340.00 C489.67,340.50 488.33,338.67 486.00,343.00 C483.67,347.33 477.67,361.17 476.00,366.00 C474.33,370.83 474.00,369.00 476.00,372.00 C478.00,375.00 496.67,379.67 488.00,384.00 C479.33,388.33 436.00,395.17 424.00,398.00 C412.00,400.83 418.00,399.67 416.00,401.00 C414.00,402.33 407.50,400.00 412.00,406.00 C416.50,412.00 437.50,429.67 443.00,437.00 C448.50,444.33 444.67,447.83 445.00,450.00"
     fill="none"
     stroke="black"
     stroke-width="33.94"
     stroke-linecap="round"
     stroke-linejoin="round"
     id="path7"
     style="stroke-width:8;stroke-dasharray:none" />
  <path
     d="M677.00,334.00 C676.33,335.00 675.67,338.00 673.00,340.00 C670.33,342.00 665.67,342.83 661.00,346.00 C656.33,349.17 652.83,351.50 645.00,359.00 C637.17,366.50 621.67,383.00 614.00,391.00 C606.33,399.00 602.17,402.17 599.00,407.00 C595.83,411.83 597.00,416.50 595.00,420.00 C593.00,423.50 585.33,426.50 587.00,428.00 C588.67,429.50 599.83,429.17 605.00,429.00 C610.17,428.83 614.50,425.83 618.00,427.00 C621.50,428.17 623.00,433.83 626.00,436.00 C629.00,438.17 634.33,439.33 636.00,440.00"
     fill="none"
     stroke="black"
     stroke-width="8.00"
     stroke-linecap="round"
     stroke-linejoin="round"
     id="path8"
     style="stroke-width:8;stroke-dasharray:none" />
  <path
     d="M169.00,337.00 C168.67,337.17 171.50,339.83 167.00,338.00 C162.50,336.17 148.17,328.33 142.00,326.00 C135.83,323.67 133.33,325.17 130.00,324.00 C126.67,322.83 125.00,320.17 122.00,319.00 C119.00,317.83 113.83,317.00 112.00,317.00 C110.17,317.00 111.50,325.17 111.00,319.00 C110.50,312.83 108.00,288.67 109.00,280.00 C110.00,271.33 108.67,275.00 117.00,267.00 C125.33,259.00 148.17,239.17 159.00,232.00 C169.83,224.83 176.17,225.17 182.00,224.00 C187.83,222.83 192.00,224.83 194.00,225.00"
     fill="none"
     stroke="black"
     stroke-width="10.00"
     stroke-linecap="round"
     stroke-linejoin="round"
     id="path9"
     style="stroke-width:8;stroke-dasharray:none" />
  <path
     d="M319.00,350.00 C320.83,351.83 328.17,358.67 330.00,361.00 C331.83,363.33 327.83,360.67 330.00,364.00 C332.17,367.33 339.00,377.33 343.00,381.00 C347.00,384.67 347.17,380.33 354.00,386.00 C360.83,391.67 380.17,408.33 384.00,415.00 C387.83,421.67 379.33,424.00 377.00,426.00 C374.67,428.00 372.50,425.83 370.00,427.00 C367.50,428.17 368.50,437.33 362.00,433.00 C355.50,428.67 336.83,406.50 331.00,401.00 C325.17,395.50 332.33,403.83 327.00,400.00 C321.67,396.17 305.33,382.00 299.00,378.00 C292.67,374.00 291.00,377.00 289.00,376.00 C287.00,375.00 287.33,372.67 287.00,372.00"
     fill="none"
     stroke="black"
     stroke-width="13.42"
     stroke-linecap="round"
     stroke-linejoin="round"
     id="path10"
     style="stroke-width:8;stroke-dasharray:none" />
  <path
     d="M120.00,354.00 C117.83,354.00 109.67,354.33 107.00,354.00 C104.33,353.67 103.33,357.83 104.00,352.00 C104.67,346.17 109.50,324.67 111.00,319.00 C112.50,313.33 112.67,318.17 113.00,318.00"
     fill="none"
     stroke="black"
     stroke-width="10.00"
     stroke-linecap="round"
     stroke-linejoin="round"
     id="path11"
     style="stroke-width:8;stroke-dasharray:none" />
  <path
     d="M745.00,355.00 C744.67,355.50 749.50,354.83 743.00,358.00 C736.50,361.17 714.33,371.00 706.00,374.00 C697.67,377.00 695.67,376.17 693.00,376.00 C690.33,375.83 687.00,381.67 690.00,373.00 C693.00,364.33 706.00,339.67 711.00,324.00 C716.00,308.33 718.50,286.50 720.00,279.00"
     fill="none"
     stroke="black"
     stroke-width="11.66"
     stroke-linecap="round"
     stroke-linejoin="round"
     id="path12"
     style="stroke-width:8;stroke-dasharray:none" />
  <path
     d="M282.00,396.00 C284.00,397.00 291.17,401.00 294.00,402.00 C296.83,403.00 294.33,399.00 299.00,402.00 C303.67,405.00 316.50,416.33 322.00,420.00 C327.50,423.67 326.83,419.83 332.00,424.00 C337.17,428.17 348.00,443.50 353.00,445.00 C358.00,446.50 360.50,435.00 362.00,433.00"
     fill="none"
     stroke="black"
     stroke-width="8.00"
     stroke-linecap="round"
     stroke-linejoin="round"
     id="path13"
     style="stroke-width:8;stroke-dasharray:none" />
  <path
     d="M675.00,408.00 C673.83,408.33 670.33,410.00 668.00,410.00 C665.67,410.00 662.83,409.17 661.00,408.00 C659.17,406.83 659.50,402.50 657.00,403.00 C654.50,403.50 649.33,409.33 646.00,411.00 C642.67,412.67 641.00,411.33 637.00,413.00 C633.00,414.67 625.33,418.50 622.00,421.00 C618.67,423.50 617.83,426.83 617.00,428.00"
     fill="none"
     stroke="black"
     stroke-width="21.54"
     stroke-linecap="round"
     stroke-linejoin="round"
     id="path14"
     style="stroke-width:8;stroke-dasharray:none" />
  <path
     d="M106.00,422.00 C104.00,422.17 97.00,423.33 94.00,423.00 C91.00,422.67 90.17,426.33 88.00,420.00 C85.83,413.67 81.50,393.50 81.00,385.00 C80.50,376.50 82.33,373.67 85.00,369.00 C87.67,364.33 93.67,359.67 97.00,357.00 C100.33,354.33 103.67,353.67 105.00,353.00"
     fill="none"
     stroke="black"
     stroke-width="8.47"
     stroke-linecap="round"
     stroke-linejoin="round"
     id="path15"
     style="stroke-width:8;stroke-dasharray:none" />
  <path
     d="M589.00,465.00 C586.17,464.33 577.00,463.83 572.00,461.00 C567.00,458.17 561.83,453.17 559.00,448.00 C556.17,442.83 555.67,433.00 555.00,430.00"
     fill="none"
     stroke="black"
     stroke-width="33.94"
     stroke-linecap="round"
     stroke-linejoin="round"
     id="path16"
     style="stroke-width:8;stroke-dasharray:none" />
  <path
     d="M23.00,512.00 C25.33,513.33 30.83,518.17 37.00,520.00 C43.17,521.83 55.17,523.50 60.00,523.00 C64.83,522.50 60.00,519.00 66.00,517.00 C72.00,515.00 89.50,512.67 96.00,511.00 C102.50,509.33 103.50,507.67 105.00,507.00"
     fill="none"
     stroke="black"
     stroke-width="14.00"
     stroke-linecap="round"
     stroke-linejoin="round"
     id="path17"
     style="stroke-width:8;stroke-dasharray:none" />
  <path
     d="M178.00,527.00 C175.17,524.00 166.00,513.67 161.00,509.00 C156.00,504.33 151.00,502.00 148.00,499.00 C145.00,496.00 142.83,493.17 143.00,491.00 C143.17,488.83 145.17,487.33 149.00,486.00 C152.83,484.67 162.33,484.00 166.00,483.00 C169.67,482.00 164.00,481.17 171.00,480.00 C178.00,478.83 199.50,476.50 208.00,476.00 C216.50,475.50 218.50,477.83 222.00,477.00 C225.50,476.17 225.83,472.50 229.00,471.00 C232.17,469.50 239.00,468.50 241.00,468.00"
     fill="none"
     stroke="black"
     stroke-width="12.00"
     stroke-linecap="round"
     stroke-linejoin="round"
     id="path18"
     style="stroke-width:8;stroke-dasharray:none" />
  <path
     d="M351.00,539.00 C351.17,537.83 353.17,535.50 352.00,532.00 C350.83,528.50 345.33,521.50 344.00,518.00 C342.67,514.50 345.00,513.83 344.00,511.00 C343.00,508.17 340.17,507.00 338.00,501.00 C335.83,495.00 331.67,481.17 331.00,475.00 C330.33,468.83 336.17,466.83 334.00,464.00 C331.83,461.17 323.83,461.50 318.00,458.00 C312.17,454.50 304.17,445.83 299.00,443.00 C293.83,440.17 290.17,441.17 287.00,441.00 C283.83,440.83 283.83,440.33 280.00,442.00 C276.17,443.67 270.50,446.67 264.00,451.00 C257.50,455.33 244.00,464.17 241.00,468.00 C238.00,471.83 245.17,470.00 246.00,474.00 C246.83,478.00 245.50,488.33 246.00,492.00 C246.50,495.67 248.17,493.00 249.00,496.00 C249.83,499.00 249.33,505.00 251.00,510.00 C252.67,515.00 255.33,520.50 259.00,526.00 C262.67,531.50 270.67,540.17 273.00,543.00"
     fill="none"
     stroke="black"
     stroke-width="10.00"
     stroke-linecap="round"
     stroke-linejoin="round"
     id="path19"
     style="stroke-width:8;stroke-dasharray:none" />
  <path
     d="M199.00,578.00 C196.83,577.33 190.33,576.00 186.00,574.00 C181.67,572.00 186.67,577.33 173.00,566.00 C159.33,554.67 115.17,518.00 104.00,506.00 C92.83,494.00 99.33,496.33 106.00,494.00 C112.67,491.67 137.67,492.33 144.00,492.00"
     fill="none"
     stroke="black"
     stroke-width="8.49"
     stroke-linecap="round"
     stroke-linejoin="round"
     id="path20"
     style="stroke-width:8;stroke-dasharray:none" />
  <path
     d="M536.00,579.00 C534.00,573.00 525.50,550.33 524.00,543.00 C522.50,535.67 524.67,537.83 527.00,535.00 C529.33,532.17 535.33,530.50 538.00,526.00 C540.67,521.50 541.00,511.83 543.00,508.00 C545.00,504.17 548.33,504.83 550.00,503.00 C551.67,501.17 552.00,505.50 553.00,497.00 C554.00,488.50 554.83,460.00 556.00,452.00 C557.17,444.00 559.33,449.50 560.00,449.00"
     fill="none"
     stroke="black"
     stroke-width="16.06"
     stroke-linecap="round"
     stroke-linejoin="round"
     id="path21"
     style="stroke-width:8;stroke-dasharray:none" />
  <path
     d="M370.00,600.00 C368.33,602.17 361.17,610.50 360.00,613.00 C358.83,615.50 357.67,615.00 363.00,615.00 C368.33,615.00 385.67,614.17 392.00,613.00 C398.33,611.83 397.67,609.00 401.00,608.00 C404.33,607.00 409.50,607.67 412.00,607.00 C414.50,606.33 410.17,606.00 416.00,604.00 C421.83,602.00 440.33,596.33 447.00,595.00 C453.67,593.67 448.67,599.67 456.00,596.00 C463.33,592.33 481.17,580.67 491.00,573.00 C500.83,565.33 509.50,554.50 515.00,550.00 C520.50,545.50 522.50,546.67 524.00,546.00"
     fill="none"
     stroke="black"
     stroke-width="12.81"
     stroke-linecap="round"
     stroke-linejoin="round"
     id="path22"
     style="stroke-width:8;stroke-dasharray:none" />
  <path
     d="M219.00,640.00 C218.00,640.83 217.50,639.00 213.00,645.00 C208.50,651.00 196.83,670.17 192.00,676.00 C187.17,681.83 186.33,680.67 184.00,680.00 C181.67,679.33 181.17,674.17 178.00,672.00 C174.83,669.83 168.33,668.83 165.00,667.00 C161.67,665.17 159.00,667.00 158.00,661.00 C157.00,655.00 159.17,637.33 159.00,631.00 C158.83,624.67 159.50,628.83 157.00,623.00 C154.50,617.17 147.67,602.33 144.00,596.00 C140.33,589.67 137.00,589.50 135.00,585.00 C133.00,580.50 135.17,573.67 132.00,569.00 C128.83,564.33 123.17,560.67 116.00,557.00 C108.83,553.33 97.00,550.67 89.00,547.00 C81.00,543.33 73.00,539.00 68.00,535.00 C63.00,531.00 60.50,525.00 59.00,523.00"
     fill="none"
     stroke="black"
     stroke-width="8.00"
     stroke-linecap="round"
     stroke-linejoin="round"
     id="path23"
     style="stroke-width:8;stroke-dasharray:none" />
  <path
     d="M451.00,684.00 C451.00,686.00 447.33,694.00 451.00,696.00 C454.67,698.00 469.00,693.00 473.00,696.00 C477.00,699.00 472.83,706.33 475.00,714.00 C477.17,721.67 484.33,736.17 486.00,742.00 C487.67,747.83 485.67,747.33 485.00,749.00 C484.33,750.67 487.50,751.50 482.00,752.00 C476.50,752.50 459.17,753.50 452.00,752.00 C444.83,750.50 442.33,746.33 439.00,743.00 C435.67,739.67 433.33,736.83 432.00,732.00 C430.67,727.17 431.83,719.00 431.00,714.00 C430.17,709.00 426.83,710.00 427.00,702.00 C427.17,694.00 427.83,680.67 432.00,666.00 C436.17,651.33 447.83,625.83 452.00,614.00 C456.17,602.17 456.17,598.17 457.00,595.00"
     fill="none"
     stroke="black"
     stroke-width="12.00"
     stroke-linecap="round"
     stroke-linejoin="round"
     id="path24"
     style="stroke-width:8;stroke-dasharray:none" />
  <path
     d="m 659.44576,826.44576 c -3.13248,6 -5.09495,16.38106 -6.26495,23.71106 -1.33533,8.3658 -2.47887,20.75665 -3.01217,19.3251 -3.86966,-10.38731 -6.03878,-12.90323 -8.55425,-21.36126 C 637.61439,834.62066 627.83,815.5 617,783 606.17,750.5 578.17,684.17 573,663 c -5.17,-21.17 8.33,-5.5 13,-7 4.67,-1.5 8.67,-0.5 15,-2 6.33,-1.5 14.5,-3.33 23,-7 8.5,-3.67 22.67,-11.67 28,-15 5.33,-3.33 0,-2 4,-5 4,-3 10.5,-3.83 20,-13 9.5,-9.17 27.83,-28.83 37,-42 9.17,-13.17 13.83,-26.5 18,-37 4.17,-10.5 3.83,-17 7,-26 3.17,-9 9.17,-22.67 12,-28 2.83,-5.33 4.17,-2.67 5,-4 0.83,-1.33 -5.17,1.83 0,-4 5.17,-5.83 23.33,-21.83 31,-31 7.67,-9.17 11.67,-16.17 15,-24 3.33,-7.83 4.17,-17.33 5,-23 0.83,-5.67 0.5,-8.17 0,-11 -0.5,-2.83 -2.5,-2.83 -3,-6 -0.5,-3.17 -0.5,-9.67 0,-13 0.5,-3.33 1.17,-5 3,-7 1.83,-2 5.17,-4.17 8,-5 2.83,-0.83 6.17,0.5 9,0 2.83,-0.5 5,-0.83 8,-3 3,-2.17 7.67,-3.67 10,-10 2.33,-6.33 3.5,-21 4,-28 0.5,-7 -0.83,-11.67 -1,-14"
     fill="none"
     stroke="#000000"
     stroke-width="10.20"
     stroke-linecap="round"
     stroke-linejoin="round"
     id="path25"
     style="stroke-width:8;stroke-dasharray:none"
     sodipodi:nodetypes="csssssssssssssssssssssssssssssc" />
  <path
     d="m 477,909 c 2.33,3 9.33,13.67 14,18 4.67,4.33 7.34345,6.01072 9.84345,8.18072 5.64195,4.54679 6.71533,6.10433 -1.84345,10.81928 -7.6499,3.40247 -29.5,2.67 -42,5 -12.5,2.33 -26.17,7.5 -33,9 -6.83,1.5 -6.17,0.67 -8,0 -1.83,-0.67 -3,-0.5 -3,-4 0,-3.5 3.33,-13.5 3,-17 -0.33,-3.5 -0.5,-3.67 -5,-4 -4.5,-0.33 -16.67,2 -22,2 -5.33,0 -8,-0.17 -10,-2 -2,-1.83 1,-5.33 -2,-9 -3,-3.67 -13.33,-9.5 -16,-13 -2.67,-3.5 -3.67,-6 0,-8 3.67,-2 17.5,-3.67 22,-4 4.5,-0.33 4,2 5,2 1,0 -0.33,-1.5 1,-2 1.33,-0.5 4,-1.5 7,-1 3,0.5 7.83,2.33 11,4 3.17,1.67 7,5.33 8,6 1,0.67 -3.17,-1 -2,-2 1.17,-1 6.17,-3.67 9,-4 2.83,-0.33 3.17,-0.67 8,2 4.83,2.67 15.5,11.5 21,14 5.5,2.5 10.5,2.5 12,1 1.5,-1.5 1.83,-4.17 -3,-10 -4.83,-5.83 -21.67,-20.33 -26,-25 -4.33,-4.67 1,-2.5 0,-3 -1,-0.5 -0.67,2.5 -6,0 -5.33,-2.5 -15.5,-10.83 -26,-15 -10.5,-4.17 -30.33,-7.67 -37,-10 -6.67,-2.33 -2.33,-1 -3,-4 -0.67,-3 0,-10.83 -1,-14 -1,-3.17 -2.5,-3.5 -5,-5 -2.5,-1.5 -7.17,-2.17 -10,-4 -2.83,-1.83 -5.83,-4.67 -7,-7 -1.17,-2.33 -1.17,-4.33 0,-7 1.17,-2.67 3.67,-7.33 7,-9 3.33,-1.67 7.67,-3.33 13,-1 5.33,2.33 13.67,12.83 19,15 5.33,2.17 4.83,-8.17 13,-2 8.17,6.17 28.5,31.83 36,39 7.5,7.17 7.5,3.33 9,4"
     fill="none"
     stroke="#000000"
     stroke-width="10.00"
     stroke-linecap="round"
     stroke-linejoin="round"
     id="path26"
     style="stroke-width:8;stroke-dasharray:none"
     sodipodi:nodetypes="cssssssssssssssssssssssssssssssssssssssssssc" />
  <path
     d="m 531.57841,955.43376 c 8.27831,5.71679 6.69871,5.46384 12.54207,9.12048 5.70233,3.56839 17.74096,12.45185 23.24096,15.95185 5.5,3.5 7.46856,6.32391 9.63856,6.49391 2.17,0.17 2.33,0 3,-2 0.67,-2 1.33,-6.5 1,-10 -0.33,-3.5 0.5,-3.5 -3,-11 -3.5,-7.5 -15.83,-25.17 -18,-34 -2.17,-8.83 4.17,-11.17 5,-19 0.83,-7.83 -1,-22.5 0,-28 1,-5.5 4.17,-4.33 6,-5 1.83,-0.67 2.83,-1.17 5,1 2.17,2.17 4.5,9.33 8,12 3.5,2.67 10.67,0.5 13,4 2.33,3.5 1.33,11.67 1,17 -0.33,5.33 -2.83,13 -3,15 -0.17,2 1.83,-2.83 2,-3 0.17,-0.17 -2.83,1.33 -1,2 1.83,0.67 9.17,-0.17 12,2 2.83,2.17 3.17,-0.5 5,11 1.83,11.5 5,45.17 6,58 1,12.83 0.67,15 0,19 -0.67,4 -4.89624,4.411 -5.56624,5.241"
     fill="none"
     stroke="#000000"
     stroke-width="10.00"
     stroke-linecap="round"
     stroke-linejoin="round"
     id="path27"
     style="stroke-width:8;stroke-dasharray:none"
     sodipodi:nodetypes="csssssssssssssssssssssc" />
  <path
     d="M301.00,1023.00 C305.67,1027.67 324.00,1045.50 329.00,1051.00 C334.00,1056.50 329.00,1053.83 331.00,1056.00 C333.00,1058.17 338.33,1063.83 341.00,1064.00 C343.67,1064.17 346.00,1060.50 347.00,1057.00 C348.00,1053.50 348.67,1048.67 347.00,1043.00 C345.33,1037.33 343.33,1031.67 337.00,1023.00 C330.67,1014.33 316.33,998.67 309.00,991.00 C301.67,983.33 297.67,980.17 293.00,977.00 C288.33,973.83 283.00,974.00 281.00,972.00 C279.00,970.00 281.33,966.50 281.00,965.00 C280.67,963.50 280.83,964.00 279.00,963.00 C277.17,962.00 273.67,961.50 270.00,959.00 C266.33,956.50 261.50,950.67 257.00,948.00 C252.50,945.33 247.33,944.17 243.00,943.00 C238.67,941.83 236.83,941.17 231.00,941.00 C225.17,940.83 212.83,942.50 208.00,942.00 C203.17,941.50 203.00,938.67 202.00,938.00"
     fill="none"
     stroke="black"
     stroke-width="8.94"
     stroke-linecap="round"
     stroke-linejoin="round"
     id="path28"
     style="stroke-width:8;stroke-dasharray:none" />
  <path
     d="M304.00,1050.00 C307.50,1053.83 319.67,1068.17 325.00,1073.00 C330.33,1077.83 333.33,1078.17 336.00,1079.00 C338.67,1079.83 340.17,1078.17 341.00,1078.00"
     fill="none"
     stroke="black"
     stroke-width="10.00"
     stroke-linecap="round"
     stroke-linejoin="round"
     id="path29"
     style="stroke-width:8;stroke-dasharray:none" />
  <path
     d="M263.00,1089.00 C268.67,1091.50 289.33,1099.83 297.00,1104.00 C304.67,1108.17 306.17,1112.33 309.00,1114.00 C311.83,1115.67 310.67,1116.17 314.00,1114.00 C317.33,1111.83 325.33,1106.83 329.00,1101.00 C332.67,1095.17 334.83,1082.67 336.00,1079.00"
     fill="none"
     stroke="black"
     stroke-width="10.77"
     stroke-linecap="round"
     stroke-linejoin="round"
     id="path30"
     style="stroke-width:8;stroke-dasharray:none" />
  <path
     d="M234.00,1096.00 C238.83,1098.50 257.33,1107.50 263.00,1111.00 C268.67,1114.50 264.50,1115.83 268.00,1117.00 C271.50,1118.17 280.33,1116.83 284.00,1118.00 C287.67,1119.17 286.67,1123.67 290.00,1124.00 C293.33,1124.33 300.83,1121.67 304.00,1120.00 C307.17,1118.33 308.17,1115.00 309.00,1114.00"
     fill="none"
     stroke="black"
     stroke-width="8.94"
     stroke-linecap="round"
     stroke-linejoin="round"
     id="path31"
     style="stroke-width:8;stroke-dasharray:none" />
  <path
     d="m 831.96384,2152.1926 c -0.33,-8.17 -3.78861,-48.018 -4.4096,-64.4214 -0.82768,-21.8634 -3.23,-42.4236 -5.5904,-58.1085 -3.17,-19.83 -13.6025,-82.5902 -17.55424,-104.1085 -3.48243,-18.9626 -5.38516,-33.7474 -13.53194,-65.0892 -2.07567,-7.9855 -13.74307,-50.7323 -18.10149,-61.7843 -2.62632,-6.6598 -13.86075,-40.635 -17.03075,-40.965 -3.17,-0.33 -1.43772,42.3882 -1.74542,53.2843 -0.23366,8.2742 -1.30864,34.5019 -2,42 -1.61935,17.5625 -1.89497,32.3968 -2,34 -0.83,12.67 -2.48328,33.3929 -3.31328,45.7229 -2.45423,45.7804 -9.53715,91.0026 -13.68672,137.2771 -2.33,23.67 -5.83,46.17 -8,59 -2.17,12.83 -4.33,21.3807 -5,25.7107"
     fill="none"
     stroke="#000000"
     stroke-width="16.00"
     stroke-linecap="round"
     stroke-linejoin="round"
     id="path32"
     style="stroke-width:8;stroke-dasharray:none"
     sodipodi:nodetypes="cssssssssssssc" />
  <path
     d="M521.00,32.00 C523.00,31.83 527.67,30.50 533.00,31.00 C538.33,31.50 537.83,30.67 553.00,35.00 C568.17,39.33 611.17,52.50 624.00,57.00 C636.83,61.50 628.33,57.33 630.00,62.00 C631.67,66.67 633.33,81.17 634.00,85.00"
     fill="none"
     stroke="black"
     stroke-width="10.20"
     stroke-linecap="round"
     stroke-linejoin="round"
     id="path33"
     style="stroke-width:8;stroke-dasharray:none" />
  <path
     d="M372.00,45.00 C370.33,45.67 369.17,42.33 362.00,49.00 C354.83,55.67 336.83,75.17 329.00,85.00 C321.17,94.83 318.50,98.83 315.00,108.00 C311.50,117.17 309.17,134.67 308.00,140.00"
     fill="none"
     stroke="black"
     stroke-width="11.04"
     stroke-linecap="round"
     stroke-linejoin="round"
     id="path34"
     style="stroke-width:8;stroke-dasharray:none" />
  <path
     d="M690.00,373.00 C686.50,376.00 673.17,387.83 669.00,391.00 C664.83,394.17 667.17,389.83 665.00,392.00 C662.83,394.17 657.50,402.00 656.00,404.00"
     fill="none"
     stroke="black"
     stroke-width="15.23"
     stroke-linecap="round"
     stroke-linejoin="round"
     id="path35"
     style="stroke-width:8;stroke-dasharray:none" />
  <path
     d="M492.00,383.00 L488.00,384.00"
     fill="none"
     stroke="black"
     stroke-width="33.94"
     stroke-linecap="round"
     stroke-linejoin="round"
     id="path36"
     style="stroke-width:8;stroke-dasharray:none" />
  <path
     d="M535.00,401.00 C538.33,405.67 547.33,424.17 555.00,429.00 C562.67,433.83 575.67,430.17 581.00,430.00 C586.33,429.83 586.00,428.33 587.00,428.00"
     fill="none"
     stroke="black"
     stroke-width="33.94"
     stroke-linecap="round"
     stroke-linejoin="round"
     id="path37"
     style="stroke-width:8;stroke-dasharray:none" />
  <path
     d="M412.00,406.00 C409.17,406.50 399.83,407.33 395.00,409.00 C390.17,410.67 385.00,414.83 383.00,416.00"
     fill="none"
     stroke="black"
     stroke-width="33.94"
     stroke-linecap="round"
     stroke-linejoin="round"
     id="path38"
     style="stroke-width:8;stroke-dasharray:none" />
  <path
     d="M91.00,422.00 C90.67,422.50 89.33,422.33 89.00,425.00 C88.67,427.67 88.17,435.33 89.00,438.00 C89.83,440.67 93.67,439.50 94.00,441.00 C94.33,442.50 91.67,443.33 91.00,447.00 C90.33,450.67 89.67,458.17 90.00,463.00 C90.33,467.83 90.50,470.67 93.00,476.00 C95.50,481.33 103.00,491.83 105.00,495.00"
     fill="none"
     stroke="black"
     stroke-width="10.00"
     stroke-linecap="round"
     stroke-linejoin="round"
     id="path39"
     style="stroke-width:8;stroke-dasharray:none" />
  <path
     d="M353.00,445.00 C349.67,448.00 336.00,460.00 333.00,463.00 C330.00,466.00 334.67,463.00 335.00,463.00"
     fill="none"
     stroke="black"
     stroke-width="33.94"
     stroke-linecap="round"
     stroke-linejoin="round"
     id="path40"
     style="stroke-width:8;stroke-dasharray:none" />
  <path
     d="M132.00,569.00 C132.00,569.33 131.33,570.83 132.00,571.00 C132.67,571.17 132.83,569.33 136.00,570.00 C139.17,570.67 147.17,573.00 151.00,575.00 C154.83,577.00 149.33,576.17 159.00,582.00 C168.67,587.83 196.50,604.00 209.00,610.00 C221.50,616.00 224.83,616.33 234.00,618.00 C243.17,619.67 257.17,620.67 264.00,620.00 C270.83,619.33 261.17,614.83 275.00,614.00 C288.83,613.17 332.83,615.17 347.00,615.00 C361.17,614.83 357.83,613.33 360.00,613.00"
     fill="none"
     stroke="black"
     stroke-width="10.00"
     stroke-linecap="round"
     stroke-linejoin="round"
     id="path41"
     style="stroke-width:8;stroke-dasharray:none" />
  <path
     d="M352.00,614.00 C352.33,614.00 354.50,611.50 354.00,614.00 C353.50,616.50 355.33,620.50 349.00,629.00 C342.67,637.50 327.17,654.67 316.00,665.00 C304.83,675.33 291.67,684.67 282.00,691.00 C272.33,697.33 264.50,700.50 258.00,703.00 C251.50,705.50 254.00,705.83 243.00,706.00 C232.00,706.17 202.00,705.33 192.00,704.00 C182.00,702.67 184.67,699.83 183.00,698.00 C181.33,696.17 181.67,696.17 182.00,693.00 C182.33,689.83 184.50,681.33 185.00,679.00"
     fill="none"
     stroke="black"
     stroke-width="8.00"
     stroke-linecap="round"
     stroke-linejoin="round"
     id="path42"
     style="stroke-width:8;stroke-dasharray:none" />
  <path
     d="M472.00,695.00 C472.83,694.00 472.67,691.50 477.00,689.00 C481.33,686.50 485.50,684.00 498.00,680.00 C510.50,676.00 539.33,667.67 552.00,665.00 C564.67,662.33 570.33,664.17 574.00,664.00"
     fill="none"
     stroke="black"
     stroke-width="8.00"
     stroke-linecap="round"
     stroke-linejoin="round"
     id="path43"
     style="stroke-width:8;stroke-dasharray:none" />
  <path
     d="M451.00,697.00 C449.17,698.50 443.50,704.00 440.00,706.00 C436.50,708.00 431.67,708.50 430.00,709.00"
     fill="none"
     stroke="black"
     stroke-width="12.81"
     stroke-linecap="round"
     stroke-linejoin="round"
     id="path44"
     style="stroke-width:8;stroke-dasharray:none" />
  <path
     d="m 477,909 c -2.28316,-3.03727 -9.17,-11.67 -12,-18 -2.83,-6.33 -4,-8.67 -5,-20 -1,-11.33 0.17,-37.33 -1,-48 -1.17,-10.67 -3.17,-11.83 -6,-16 -2.83,-4.17 -8.33,-7.5 -11,-9 -2.67,-1.5 -3.33,-0.67 -5,0 -1.67,0.67 -3.5,0.17 -5,4 -1.5,3.83 -3.33,14.33 -4,19 -0.67,4.67 -1.5,3.83 0,9 1.5,5.17 7.5,17 9,22 1.5,5 0.33,6.33 0,8 -0.33,1.67 -2.33,0.17 -2,2 0.33,1.83 4.17,5.17 4,9 -0.17,3.83 -4.17,11.67 -5,14"
     fill="none"
     stroke="#000000"
     stroke-width="10.00"
     stroke-linecap="round"
     stroke-linejoin="round"
     id="path45"
     style="stroke-width:8;stroke-dasharray:none"
     sodipodi:nodetypes="csssssssssssssc" />
  <path
     d="m 649.03616,866.34944 c 3.09768,9.65192 7.38856,46.75328 9.16864,56.2048 2.21974,11.78595 4.17747,20.25957 6.24096,29.96384 3.48115,16.3713 10.16886,49.91502 14.16886,68.41502 4,18.5 6.71538,34.5669 8.38538,43.0669 1.67,8.5 2.26382,9.6035 3.31846,16.4523 1.03022,6.6902 2.79141,13.8336 3.80202,22.4995 0.73323,6.2875 3.3215,15.6624 1.47133,12.8741 -4.77576,-7.1973 -15.64469,-14.7233 -22.31469,-22.2233 -6.67,-7.5 -23.914,-25.9899 -29.98783,-32.5904 -2.65903,-2.8896 -8.13426,-8.0581 -14.69889,-15.7351 -2.25214,-2.6337 -6.90546,-6.8614 -8.10848,-9.2048 C 619.06624,1033.3146 617.67,1040.5 616,1041 c -1.67,0.5 -0.33,1.5 -6,0 -5.67,-1.5 -19.33,-7.5 -28,-9 -8.67,-1.5 -17,1 -24,0 -7,-1 -12.5,-5 -18,-6 -5.5,-1 -11.67,-0.83 -15,0 -3.33,0.83 0,4.33 -5,5 -5,0.67 -19.67,-2.17 -25,-1 -5.33,1.17 -2.5,6.33 -7,8 -4.5,1.67 -15.67,0.67 -20,2 -4.33,1.33 -5.33,4 -6,6 -0.67,2 0.17,4 2,6 1.83,2 4.33,4.33 9,6 4.67,1.67 14.33,2.17 19,4 4.67,1.83 3.83,6 9,7 5.17,1 17.83,-1 22,-1 4.17,0 2.33,0.17 3,1 0.67,0.83 -1.17,3.83 1,4 2.17,0.17 8,-1.17 12,-3 4,-1.83 8.5,-6.17 12,-8 3.5,-1.83 6.67,-2.5 9,-3 2.33,-0.5 3.83,-0.67 5,0 1.17,0.67 0.67,3.33 2,4 1.33,0.67 0,0.67 6,0 6,-0.67 20.83,-3.33 30,-4 9.17,-0.67 19.83,0.67 25,0 5.17,-0.67 5.36144,-4.4143 6.36144,-5.0843"
     fill="none"
     stroke="#000000"
     stroke-width="14.14"
     stroke-linecap="round"
     stroke-linejoin="round"
     id="path46"
     style="stroke-width:8;stroke-dasharray:none"
     sodipodi:nodetypes="csssssssssssssssssssssssssssssssssssssc" />
  <path
     d="m 515.11754,941.55572 c 2.8887,-6.29742 5.95402,-18.40749 -0.70132,-24.16446 -4.79767,-4.15005 -6.39244,-5.86438 -14.76318,-9.71592 -2.97686,-1.36971 -15.2761,-8.27037 -15.4461,-13.60037 -0.17,-5.33 8.45996,-1.15466 10.69764,-7.15428 2.19457,-5.88401 -8.8269,-17.81498 -11.22304,-25.7565 -0.82302,-2.72772 -4.11459,-18.01991 1.46654,-18.84573 6.34818,-0.93932 10.17333,0.19881 13.85192,4.68154 2.5,3 4.83,10.67 7,14 2.17,3.33 3,4.67 6,6 3,1.33 9,1 12,2 3,1 4.67,2.17 6,4 1.33,1.83 1.67,1.67 2,7 0.33,5.33 -1.5,19.67 0,25 1.5,5.33 7.67,-0.83 9,7 1.33,7.83 -1.01154,33.6923 -1.68154,41.0223 -0.67,7.33 -1.47374,7.28258 -3.64374,5.74873 -1.77745,-1.25637 -6.36702,-4.96333 -9.69702,-6.79333 -3.33,-1.83 -6.11154,-3.96434 -9.94154,-6.13434 -3.83,-2.17 -8.48064,-4.71216 -10.5904,-6.2048"
     fill="none"
     stroke="#000000"
     stroke-width="10.00"
     stroke-linecap="round"
     stroke-linejoin="round"
     id="path47"
     style="stroke-width:8;stroke-dasharray:none"
     sodipodi:nodetypes="cssssssssssssssssssc" />
  <path
     d="M281.00,965.00 C281.67,964.00 284.67,963.00 285.00,959.00 C285.33,955.00 284.83,945.50 283.00,941.00 C281.17,936.50 278.50,934.83 274.00,932.00 C269.50,929.17 262.67,925.67 256.00,924.00 C249.33,922.33 241.00,921.83 234.00,922.00 C227.00,922.17 218.67,923.67 214.00,925.00 C209.33,926.33 208.00,927.83 206.00,930.00 C204.00,932.17 204.00,936.33 202.00,938.00 C200.00,939.67 196.00,938.67 194.00,940.00 C192.00,941.33 190.67,945.00 190.00,946.00"
     fill="none"
     stroke="black"
     stroke-width="11.66"
     stroke-linecap="round"
     stroke-linejoin="round"
     id="path48"
     style="stroke-width:8;stroke-dasharray:none" />
  <path
     d="M179.00,948.00 C180.83,947.83 186.67,945.50 190.00,947.00 C193.33,948.50 193.33,954.67 199.00,957.00 C204.67,959.33 216.50,959.33 224.00,961.00 C231.50,962.67 238.83,964.67 244.00,967.00 C249.17,969.33 252.00,972.00 255.00,975.00 C258.00,978.00 258.67,984.00 262.00,985.00 C265.33,986.00 272.00,983.17 275.00,981.00 C278.00,978.83 279.17,973.50 280.00,972.00"
     fill="none"
     stroke="black"
     stroke-width="11.31"
     stroke-linecap="round"
     stroke-linejoin="round"
     id="path49"
     style="stroke-width:8;stroke-dasharray:none" />
  <path
     d="M173.00,965.00 C173.33,963.33 173.83,957.67 175.00,955.00 C176.17,952.33 180.50,950.67 180.00,949.00 C179.50,947.33 176.33,944.83 172.00,945.00 C167.67,945.17 158.50,947.50 154.00,950.00 C149.50,952.50 146.67,956.67 145.00,960.00 C143.33,963.33 142.17,966.17 144.00,970.00 C145.83,973.83 152.50,983.00 156.00,983.00 C159.50,983.00 162.00,973.00 165.00,970.00 C168.00,967.00 170.83,964.33 174.00,965.00 C177.17,965.67 179.00,971.50 184.00,974.00 C189.00,976.50 198.17,977.67 204.00,980.00 C209.83,982.33 213.00,983.17 219.00,988.00 C225.00,992.83 236.83,1004.83 240.00,1009.00 C243.17,1013.17 241.67,1009.00 238.00,1013.00 C234.33,1017.00 222.67,1029.17 218.00,1033.00 C213.33,1036.83 214.67,1038.17 210.00,1036.00 C205.33,1033.83 196.33,1027.17 190.00,1020.00 C183.67,1012.83 177.67,999.17 172.00,993.00 C166.33,986.83 159.00,984.50 156.00,983.00 C153.00,981.50 154.33,981.33 154.00,984.00 C153.67,986.67 152.50,995.00 154.00,999.00 C155.50,1003.00 160.17,1002.50 163.00,1008.00 C165.83,1013.50 167.83,1025.50 171.00,1032.00 C174.17,1038.50 177.83,1043.33 182.00,1047.00 C186.17,1050.67 194.33,1050.83 196.00,1054.00 C197.67,1057.17 194.50,1062.83 192.00,1066.00 C189.50,1069.17 187.17,1076.00 181.00,1073.00 C174.83,1070.00 161.17,1053.17 155.00,1048.00 C148.83,1042.83 145.67,1048.50 144.00,1042.00 C142.33,1035.50 143.50,1016.17 145.00,1009.00 C146.50,1001.83 151.67,1000.67 153.00,999.00"
     fill="none"
     stroke="black"
     stroke-width="12.65"
     stroke-linecap="round"
     stroke-linejoin="round"
     id="path50"
     style="stroke-width:8;stroke-dasharray:none" />
  <path
     d="M263.00,985.00 C262.50,986.17 264.00,987.83 260.00,992.00 C256.00,996.17 242.50,1007.00 239.00,1010.00"
     fill="none"
     stroke="black"
     stroke-width="13.42"
     stroke-linecap="round"
     stroke-linejoin="round"
     id="path51"
     style="stroke-width:8;stroke-dasharray:none" />
  <path
     d="m 575.71088,986.43376 c 0.83,1.5 6.12776,5.7724 9.45776,9.6024 3.33,3.83 9.9536,10.73154 13.1928,14.48194 4.21042,4.8749 9.10409,9.167 12.90369,14.3011 2.5,3.5 9.23015,10.0603 8.97583,12.2169"
     fill="none"
     stroke="#000000"
     stroke-width="17.03"
     stroke-linecap="round"
     stroke-linejoin="round"
     id="path52"
     style="stroke-width:8;stroke-dasharray:none"
     sodipodi:nodetypes="csssc" />
  <path
     d="M210.00,1036.00 C209.50,1037.83 209.50,1043.83 207.00,1047.00 C204.50,1050.17 197.00,1053.67 195.00,1055.00"
     fill="none"
     stroke="black"
     stroke-width="14.00"
     stroke-linecap="round"
     stroke-linejoin="round"
     id="path53"
     style="stroke-width:8;stroke-dasharray:none" />
  <path
     d="M143.00,1042.00 C142.50,1042.83 140.00,1043.50 140.00,1047.00 C140.00,1050.50 140.67,1058.17 143.00,1063.00 C145.33,1067.83 150.33,1073.00 154.00,1076.00 C157.67,1079.00 161.17,1080.17 165.00,1081.00 C168.83,1081.83 174.33,1081.67 177.00,1081.00 C179.67,1080.33 178.67,1075.67 181.00,1077.00 C183.33,1078.33 185.50,1084.00 191.00,1089.00 C196.50,1094.00 207.83,1103.00 214.00,1107.00 C220.17,1111.00 224.83,1111.17 228.00,1113.00 C231.17,1114.83 229.17,1116.00 233.00,1118.00 C236.83,1120.00 245.67,1123.67 251.00,1125.00 C256.33,1126.33 262.67,1125.50 265.00,1126.00 C267.33,1126.50 265.00,1127.67 265.00,1128.00"
     fill="none"
     stroke="black"
     stroke-width="10.77"
     stroke-linecap="round"
     stroke-linejoin="round"
     id="path54"
     style="stroke-width:8;stroke-dasharray:none" />
  <path
     d="M340.00,1063.00 C340.00,1065.50 337.67,1074.50 340.00,1078.00 C342.33,1081.50 350.83,1081.50 354.00,1084.00 C357.17,1086.50 358.50,1091.50 359.00,1093.00 C359.50,1094.50 357.50,1092.17 357.00,1093.00 C356.50,1093.83 358.17,1094.67 356.00,1098.00 C353.83,1101.33 348.50,1108.50 344.00,1113.00 C339.50,1117.50 331.17,1121.33 329.00,1125.00 C326.83,1128.67 329.17,1132.33 331.00,1135.00 C332.83,1137.67 337.00,1139.83 340.00,1141.00 C343.00,1142.17 343.67,1143.50 349.00,1142.00 C354.33,1140.50 368.17,1138.83 372.00,1132.00 C375.83,1125.17 372.67,1107.17 372.00,1101.00 C371.33,1094.83 370.17,1096.33 368.00,1095.00 C365.83,1093.67 360.50,1093.33 359.00,1093.00"
     fill="none"
     stroke="black"
     stroke-width="12.00"
     stroke-linecap="round"
     stroke-linejoin="round"
     id="path55"
     style="stroke-width:8;stroke-dasharray:none" />
  <path
     d="M181.00,1073.00 C180.83,1073.83 179.83,1077.17 180.00,1078.00 C180.17,1078.83 181.67,1078.00 182.00,1078.00"
     fill="none"
     stroke="black"
     stroke-width="18.11"
     stroke-linecap="round"
     stroke-linejoin="round"
     id="path56"
     style="stroke-width:8;stroke-dasharray:none" />
  <path
     d="m 694.66931,1110.7144 c 2.83,8 9.00069,34.7856 13.33069,50.2856 4.33,15.5 7,29.6031 9,41.9331 2,12.33 3.21461,20.3738 5.04461,30.7038 1.83,10.33 4.41889,25.2254 5.95539,34.3631 3.14293,18.6912 6.48299,31.8795 8.38538,50.9331 1.17,9.17 3.56126,26.2065 4.61462,37.0669 1.86216,19.1994 3.1325,32.7207 5,49 1.83,18 5,56.33 7,90 2,33.67 4.17,76 5,112 0.83,36 1.17,85.5 0,104 -1.17,18.5 -3.33574,50.307 -4.00574,57.807"
     fill="none"
     stroke="#000000"
     stroke-width="16.00"
     stroke-linecap="round"
     stroke-linejoin="round"
     id="path57"
     style="stroke-width:8;stroke-dasharray:none"
     sodipodi:nodetypes="cssssssssssc" />
  <path
     d="M313.00,1114.00 L328.00,1125.00"
     fill="none"
     stroke="black"
     stroke-width="12.17"
     stroke-linecap="round"
     stroke-linejoin="round"
     id="path58"
     style="stroke-width:8;stroke-dasharray:none" />
  <path
     d="M268.00,1117.00 C267.83,1118.17 267.67,1122.33 267.00,1124.00 C266.33,1125.67 263.83,1126.00 264.00,1127.00 C264.17,1128.00 264.50,1129.33 268.00,1130.00 C271.50,1130.67 281.33,1132.00 285.00,1131.00 C288.67,1130.00 289.17,1125.17 290.00,1124.00"
     fill="none"
     stroke="black"
     stroke-width="10.00"
     stroke-linecap="round"
     stroke-linejoin="round"
     id="path59"
     style="stroke-width:8;stroke-dasharray:none" />
  <path
     d="m 372,1132 c 1,0.5 -1.5,-3.67 6,3 7.5,6.67 25.67,23 39,37 13.33,14 27,30.33 41,47 14,16.67 26,30.83 43,53 17,22.17 30.12078,37.2694 59,80 23.84486,35.2816 31.78698,45.8956 47.04461,69.2739 C 621.8425,1443.9476 629.33,1461.83 639,1479 c 9.67,17.17 12.33,23.17 24,48 11.67,24.83 34.58619,67.3193 46.96384,98.1085 12.91096,32.1157 23.08263,53.4329 27.93117,70.46 4.53468,15.9249 11.6769,39.9141 20.29729,66.344"
     fill="none"
     stroke="#000000"
     stroke-width="17.09"
     stroke-linecap="round"
     stroke-linejoin="round"
     id="path60"
     style="stroke-width:8;stroke-dasharray:none"
     sodipodi:nodetypes="cssssssssssc" />
</svg>
