<?xml version="1.0" encoding="UTF-8" standalone="no"?>
<svg
   viewBox="0 0 711 1779"
   width="711"
   height="1779"
   version="1.1"
   id="svg44"
   sodipodi:docname="august_center_left.svg"
   inkscape:version="1.4.2 (f4327f4, 2025-05-13)"
   xmlns:inkscape="http://www.inkscape.org/namespaces/inkscape"
   xmlns:sodipodi="http://sodipodi.sourceforge.net/DTD/sodipodi-0.dtd"
   xmlns="http://www.w3.org/2000/svg"
   xmlns:svg="http://www.w3.org/2000/svg">
  <defs
     id="defs44" />
  <sodipodi:namedview
     id="namedview44"
     pagecolor="#ffffff"
     bordercolor="#000000"
     borderopacity="0.25"
     inkscape:showpageshadow="2"
     inkscape:pageopacity="0.0"
     inkscape:pagecheckerboard="0"
     inkscape:deskcolor="#d1d1d1"
     inkscape:zoom="1.2830471"
     inkscape:cx="459.06344"
     inkscape:cy="324.61787"
     inkscape:window-width="1920"
     inkscape:window-height="1009"
     inkscape:window-x="1912"
     inkscape:window-y="-8"
     inkscape:window-maximized="1"
     inkscape:current-layer="svg44" />
  <path
     d="M349.00,103.00 C347.83,99.83 345.00,90.17 342.00,84.00 C339.00,77.83 337.00,72.83 331.00,66.00 C325.00,59.17 310.50,47.67 306.00,43.00 C301.50,38.33 303.83,39.33 304.00,38.00 C304.17,36.67 300.00,37.33 307.00,35.00 C314.00,32.67 335.33,26.50 346.00,24.00 C356.67,21.50 361.17,20.67 371.00,20.00 C380.83,19.33 395.83,18.83 405.00,20.00 C414.17,21.17 422.50,25.83 426.00,27.00"
     fill="none"
     stroke="black"
     stroke-width="6.00"
     stroke-linecap="round"
     stroke-linejoin="round"
     id="path1"
     style="stroke-width:8;stroke-dasharray:none" />
  <path
     d="M452.00,179.00 C452.17,173.17 453.33,156.17 453.00,144.00 C452.67,131.83 451.67,117.50 450.00,106.00 C448.33,94.50 446.83,86.50 443.00,75.00 C439.17,63.50 430.00,45.00 427.00,37.00 C424.00,29.00 421.33,28.17 425.00,27.00 C428.67,25.83 435.17,26.67 449.00,30.00 C462.83,33.33 497.00,42.83 508.00,47.00 C519.00,51.17 513.50,51.00 515.00,55.00 C516.50,59.00 516.67,68.33 517.00,71.00"
     fill="none"
     stroke="black"
     stroke-width="8.00"
     stroke-linecap="round"
     stroke-linejoin="round"
     id="path2"
     style="stroke-width:8;stroke-dasharray:none" />
  <path
     d="M585.00,181.00 C585.17,175.00 586.17,153.50 586.00,145.00 C585.83,136.50 586.00,136.17 584.00,130.00 C582.00,123.83 577.17,113.33 574.00,108.00 C570.83,102.67 569.33,101.67 565.00,98.00 C560.67,94.33 553.50,89.00 548.00,86.00 C542.50,83.00 537.17,82.50 532.00,80.00 C526.83,77.50 519.83,72.33 517.00,71.00 C514.17,69.67 515.67,70.83 515.00,72.00 C514.33,73.17 512.00,70.17 513.00,78.00 C514.00,85.83 519.50,103.17 521.00,119.00 C522.50,134.83 522.67,158.50 522.00,173.00 C521.33,187.50 518.83,197.50 517.00,206.00 C515.17,214.50 512.00,221.00 511.00,224.00"
     fill="none"
     stroke="black"
     stroke-width="6.32"
     stroke-linecap="round"
     stroke-linejoin="round"
     id="path3"
     style="stroke-width:8;stroke-dasharray:none" />
  <path
     d="M581.00,188.00 C581.17,193.83 581.00,216.00 582.00,223.00 C583.00,230.00 582.50,232.50 587.00,230.00 C591.50,227.50 602.83,212.67 609.00,208.00 C615.17,203.33 618.50,203.00 624.00,202.00 C629.50,201.00 635.33,200.00 642.00,202.00 C648.67,204.00 656.33,207.83 664.00,214.00 C671.67,220.17 683.83,233.83 688.00,239.00 C692.17,244.17 689.33,243.67 689.00,245.00 C688.67,246.33 689.17,246.67 686.00,247.00 C682.83,247.33 672.67,247.00 670.00,247.00"
     fill="none"
     stroke="black"
     stroke-width="8.00"
     stroke-linecap="round"
     stroke-linejoin="round"
     id="path4"
     style="stroke-width:8;stroke-dasharray:none" />
  <path
     d="M192.00,213.00 C187.17,209.50 168.67,196.67 163.00,192.00 C157.33,187.33 161.67,186.00 158.00,185.00 C154.33,184.00 145.17,185.33 141.00,186.00 C136.83,186.67 138.50,185.33 133.00,189.00 C127.50,192.67 115.17,201.67 108.00,208.00 C100.83,214.33 93.50,221.83 90.00,227.00 C86.50,232.17 86.83,234.00 87.00,239.00 C87.17,244.00 90.50,253.00 91.00,257.00 C91.50,261.00 89.83,262.17 90.00,263.00 C90.17,263.83 91.67,262.17 92.00,262.00"
     fill="none"
     stroke="black"
     stroke-width="8.49"
     stroke-linecap="round"
     stroke-linejoin="round"
     id="path5"
     style="stroke-width:8;stroke-dasharray:none" />
  <path
     d="M304.00,219.00 C299.00,210.17 281.17,181.67 274.00,166.00 C266.83,150.33 264.83,133.17 261.00,125.00 C257.17,116.83 251.83,122.67 251.00,117.00 C250.17,111.33 254.17,97.17 256.00,91.00 C257.83,84.83 257.33,86.33 262.00,80.00 C266.67,73.67 278.33,59.50 284.00,53.00 C289.67,46.50 292.83,43.33 296.00,41.00 C299.17,38.67 301.83,39.33 303.00,39.00"
     fill="none"
     stroke="black"
     stroke-width="8.00"
     stroke-linecap="round"
     stroke-linejoin="round"
     id="path6"
     style="stroke-width:8;stroke-dasharray:none" />
  <path
     d="M524.00,263.00 C522.00,266.00 518.33,273.17 512.00,281.00 C505.67,288.83 491.83,304.50 486.00,310.00 C480.17,315.50 482.50,313.50 477.00,314.00 C471.50,314.50 459.67,310.50 453.00,313.00 C446.33,315.50 443.50,327.17 437.00,329.00 C430.50,330.83 420.00,326.17 414.00,324.00 C408.00,321.83 407.83,316.67 401.00,316.00 C394.17,315.33 383.17,317.83 373.00,320.00 C362.83,322.17 346.33,326.83 340.00,329.00 C333.67,331.17 331.50,328.00 335.00,333.00 C338.50,338.00 356.33,352.83 361.00,359.00 C365.67,365.17 362.67,368.17 363.00,370.00"
     fill="none"
     stroke="black"
     stroke-width="25.46"
     stroke-linecap="round"
     stroke-linejoin="round"
     id="path7"
     style="stroke-width:8;stroke-dasharray:none" />
  <path
     d="M401.00,265.00 C400.17,268.50 398.00,280.17 396.00,286.00 C394.00,291.83 390.17,296.50 389.00,300.00 C387.83,303.50 387.67,304.50 389.00,307.00 C390.33,309.50 395.67,313.67 397.00,315.00"
     fill="none"
     stroke="black"
     stroke-width="25.46"
     stroke-linecap="round"
     stroke-linejoin="round"
     id="path8"
     style="stroke-width:8;stroke-dasharray:none" />
  <path
     d="M437.00,276.00 C436.83,276.67 442.00,273.50 436.00,280.00 C430.00,286.50 406.83,309.17 401.00,315.00"
     fill="none"
     stroke="black"
     stroke-width="25.46"
     stroke-linecap="round"
     stroke-linejoin="round"
     id="path9"
     style="stroke-width:8;stroke-dasharray:none" />
  <path
     d="m 137,277 c -7.67,-2.67 -37.161472,-18.135 -46,-16 -8.918657,2.15435 -9.293728,15.73598 -6.220605,21.25477 2.384263,4.28171 12.191827,6.57614 12.521827,6.57614"
     fill="none"
     stroke="#000000"
     stroke-width="6"
     stroke-linecap="round"
     stroke-linejoin="round"
     id="path10"
     sodipodi:nodetypes="cssc"
     style="stroke-width:8;stroke-dasharray:none" />
  <path
     d="M553.00,277.00 C549.67,279.00 543.83,279.33 533.00,289.00 C522.17,298.67 496.00,325.67 488.00,335.00 C480.00,344.33 486.50,342.33 485.00,345.00 C483.50,347.67 480.00,350.00 479.00,351.00"
     fill="none"
     stroke="black"
     stroke-width="5.66"
     stroke-linecap="round"
     stroke-linejoin="round"
     id="path11"
     style="stroke-width:8;stroke-dasharray:none" />
  <path
     d="M281.00,280.00 C276.33,275.50 260.17,260.67 253.00,253.00 C245.83,245.33 241.67,239.83 238.00,234.00 C234.33,228.17 233.33,225.33 231.00,218.00 C228.67,210.67 226.17,196.33 224.00,190.00 C221.83,183.67 218.67,181.83 218.00,180.00 C217.33,178.17 219.33,181.67 220.00,179.00 C220.67,176.33 220.17,170.17 222.00,164.00 C223.83,157.83 227.17,149.33 231.00,142.00 C234.83,134.67 241.67,124.33 245.00,120.00 C248.33,115.67 250.00,116.67 251.00,116.00"
     fill="none"
     stroke="black"
     stroke-width="8.37"
     stroke-linecap="round"
     stroke-linejoin="round"
     id="path12"
     style="stroke-width:8;stroke-dasharray:none" />
  <path
     d="M259.00,287.00 C260.50,288.50 265.50,292.67 268.00,296.00 C270.50,299.33 271.50,303.67 274.00,307.00 C276.50,310.33 280.67,314.33 283.00,316.00 C285.33,317.67 283.17,312.67 288.00,317.00 C292.83,321.33 308.00,337.83 312.00,342.00"
     fill="none"
     stroke="black"
     stroke-width="7.21"
     stroke-linecap="round"
     stroke-linejoin="round"
     id="path13"
     style="stroke-width:8;stroke-dasharray:none" />
  <path
     d="m 98,290 c -6.126172,0.80303 -13.772534,-1.18814 -19,3 -2.67,2.33 -7.67,6.67 -10,10 -2.33,3.33 -3.67,4.83 -4,10 -0.33,5.17 0.911465,14.43681 1.931111,19.96666 0.963331,5.22444 1.029776,5.35072 3.897769,6.90218 3.279792,1.77424 13.805572,1.10556 16.135572,1.27556"
     fill="none"
     stroke="#000000"
     stroke-width="8"
     stroke-linecap="round"
     stroke-linejoin="round"
     id="path14"
     sodipodi:nodetypes="csssssc"
     style="stroke-width:8;stroke-dasharray:none" />
  <path
     d="M608.00,292.00 C602.67,294.50 583.33,304.50 576.00,307.00 C568.67,309.50 565.67,308.83 564.00,307.00 C562.33,305.17 563.00,303.83 566.00,296.00 C569.00,288.17 578.33,271.17 582.00,260.00 C585.67,248.83 587.00,234.17 588.00,229.00"
     fill="none"
     stroke="black"
     stroke-width="8.94"
     stroke-linecap="round"
     stroke-linejoin="round"
     id="path15"
     style="stroke-width:8;stroke-dasharray:none" />
  <path
     d="M234.00,306.00 C234.33,306.50 233.50,307.67 236.00,309.00 C238.50,310.33 243.33,310.50 249.00,314.00 C254.67,317.50 262.33,323.17 270.00,330.00 C277.67,336.83 288.83,351.67 295.00,355.00 C301.17,358.33 303.33,352.83 307.00,350.00 C310.67,347.17 313.50,340.67 317.00,338.00 C320.50,335.33 324.83,334.67 328.00,334.00 C331.17,333.33 334.67,334.00 336.00,334.00"
     fill="none"
     stroke="black"
     stroke-width="25.46"
     stroke-linecap="round"
     stroke-linejoin="round"
     id="path16"
     style="stroke-width:8;stroke-dasharray:none" />
  <path
     d="M230.00,324.00 C231.50,325.00 236.17,328.67 239.00,330.00 C241.83,331.33 243.00,329.33 247.00,332.00 C251.00,334.67 259.17,343.33 263.00,346.00 C266.83,348.67 265.83,344.83 270.00,348.00 C274.17,351.17 287.50,359.67 288.00,365.00 C288.50,370.33 275.50,377.50 273.00,380.00"
     fill="none"
     stroke="black"
     stroke-width="14.83"
     stroke-linecap="round"
     stroke-linejoin="round"
     id="path17"
     style="stroke-width:8;stroke-dasharray:none" />
  <path
     d="M551.00,335.00 C549.00,335.00 541.50,335.67 539.00,335.00 C536.50,334.33 535.33,333.17 536.00,331.00 C536.67,328.83 538.50,326.00 543.00,322.00 C547.50,318.00 559.67,309.50 563.00,307.00"
     fill="none"
     stroke="black"
     stroke-width="12.65"
     stroke-linecap="round"
     stroke-linejoin="round"
     id="path18"
     style="stroke-width:8;stroke-dasharray:none" />
  <path
     d="M516.00,359.00 C515.00,358.83 512.17,359.17 510.00,358.00 C507.83,356.83 503.83,353.67 503.00,352.00 C502.17,350.33 499.50,351.50 505.00,348.00 C510.50,344.50 530.83,333.83 536.00,331.00"
     fill="none"
     stroke="black"
     stroke-width="18.00"
     stroke-linecap="round"
     stroke-linejoin="round"
     id="path19"
     style="stroke-width:8;stroke-dasharray:none" />
  <path
     d="M480.00,382.00 C478.00,381.50 472.17,381.33 468.00,379.00 C463.83,376.67 457.00,370.67 455.00,368.00 C453.00,365.33 456.50,365.50 456.00,363.00 C455.50,360.50 444.17,354.83 452.00,353.00 C459.83,351.17 494.50,352.17 503.00,352.00"
     fill="none"
     stroke="black"
     stroke-width="25.46"
     stroke-linecap="round"
     stroke-linejoin="round"
     id="path20"
     style="stroke-width:8;stroke-dasharray:none" />
  <path
     d="m 20,422 c 10.972994,2.72099 17.485747,4.13774 33,2 5.274531,-0.72679 19.83,-3.5 25,-5 5.17,-1.5 -4.33,-11.5 6,-4 10.33,7.5 43.17,39.17 56,49 12.83,9.83 17.5,8.33 21,10"
     fill="none"
     stroke="#000000"
     stroke-width="8"
     stroke-linecap="round"
     stroke-linejoin="round"
     id="path21"
     sodipodi:nodetypes="cssssc"
     style="stroke-width:8;stroke-dasharray:none" />
  <path
     d="M146.00,433.00 C141.00,428.00 118.83,409.17 116.00,403.00 C113.17,396.83 120.00,398.17 129.00,396.00 C138.00,393.83 161.50,390.83 170.00,390.00 C178.50,389.17 177.50,391.50 180.00,391.00 C182.50,390.50 182.33,388.00 185.00,387.00 C187.67,386.00 193.67,386.00 196.00,385.00 C198.33,384.00 193.83,384.67 199.00,381.00 C204.17,377.33 220.83,366.17 227.00,363.00 C233.17,359.83 232.67,361.50 236.00,362.00 C239.33,362.50 243.17,363.67 247.00,366.00 C250.83,368.33 254.83,373.67 259.00,376.00 C263.17,378.33 270.17,377.50 272.00,380.00 C273.83,382.50 269.83,386.67 270.00,391.00 C270.17,395.33 271.33,401.33 273.00,406.00 C274.67,410.67 278.83,415.83 280.00,419.00 C281.17,422.17 279.00,422.17 280.00,425.00 C281.00,427.83 285.00,433.17 286.00,436.00 C287.00,438.83 286.00,441.00 286.00,442.00"
     fill="none"
     stroke="black"
     stroke-width="10.00"
     stroke-linecap="round"
     stroke-linejoin="round"
     id="path22"
     style="stroke-width:8;stroke-dasharray:none" />
  <path
     d="M222.00,445.00 C220.33,443.17 215.00,438.33 212.00,434.00 C209.00,429.67 206.00,423.83 204.00,419.00 C202.00,414.17 200.67,410.00 200.00,405.00 C199.33,400.00 200.67,392.33 200.00,389.00 C199.33,385.67 196.67,385.67 196.00,385.00"
     fill="none"
     stroke="black"
     stroke-width="5.66"
     stroke-linecap="round"
     stroke-linejoin="round"
     id="path23"
     style="stroke-width:8;stroke-dasharray:none" />
  <path
     d="M437.00,475.00 C436.00,471.33 432.83,457.33 431.00,453.00 C429.17,448.67 426.50,449.67 426.00,449.00 C425.50,448.33 427.67,449.00 428.00,449.00"
     fill="none"
     stroke="black"
     stroke-width="7.21"
     stroke-linecap="round"
     stroke-linejoin="round"
     id="path24"
     style="stroke-width:8;stroke-dasharray:none" />
  <path
     d="m 295,503 c -2,2.17 -5,0.83 -6,1"
     fill="none"
     stroke="#000000"
     stroke-width="13.42"
     stroke-linecap="round"
     stroke-linejoin="round"
     id="path25"
     sodipodi:nodetypes="cc"
     style="stroke-width:8;stroke-dasharray:none" />
  <path
     d="m 178,524 c -3.67,5 -17.17,24.5 -22,30 -4.83,5.5 -5.17,3.5 -7,3 -1.83,-0.5 -1.5,-4.33 -4,-6 -2.5,-1.67 -8.33,-2.5 -11,-4 -2.67,-1.5 -4,0.83 -5,-5 -1,-5.83 0.17,-22.67 -1,-30 -1.17,-7.33 -2.67,-8.17 -6,-14 -3.33,-5.83 -11.67,-15.83 -14,-21 -2.33,-5.17 2.33,-6.67 0,-10 -2.33,-3.33 -6.5,-6.17 -14,-10 -7.5,-3.83 -24.775558,-10.13778 -31.275558,-13.13778 -6.5,-3 -18.306414,-8.27899 -21.686684,-9.67637 C 36.98997,432.51253 21.82247,424.40714 20.49247,422.73714"
     fill="none"
     stroke="#000000"
     stroke-width="6.77"
     stroke-linecap="round"
     stroke-linejoin="round"
     id="path26"
     sodipodi:nodetypes="cssssssssssssc"
     style="stroke-width:8;stroke-dasharray:none" />
  <path
     d="m 369,570 c 3,1.67 12.5,0 16,-1 3.5,-1 1.33,-3 5,-5 3.67,-2 7,-3.67 17,-7 10,-3.33 32.83,-10.83 43,-13 10.17,-2.17 14.33,0.67 18,0 3.67,-0.67 -3.5,-1.5 4,-4 7.5,-2.5 28.33,-5.33 41,-11 12.67,-5.67 23.67,-13.17 35,-23 11.33,-9.83 25.83,-27 33,-36 7.17,-9 4.83,-5.5 10,-18 5.17,-12.5 12.33,-41.83 21,-57 8.67,-15.17 24.17,-25.5 31,-34 6.83,-8.5 7.67,-11.5 10,-17 2.33,-5.5 3.67,-8.67 4,-16 0.33,-7.33 -2.67,-22 -2,-28 0.67,-6 2.17,-6 6,-8 3.83,-2 12.83,-2 17,-4 4.17,-2 6,-3 8,-8 2,-5 3.5,-16.17 4,-22 0.5,-5.83 -0.83,-10.83 -1,-13"
     fill="none"
     stroke="#000000"
     stroke-width="8"
     stroke-linecap="round"
     stroke-linejoin="round"
     id="path27"
     sodipodi:nodetypes="csssssssssssssssssssc"
     style="stroke-width:8;stroke-dasharray:none" />
  <path
     d="m 537.55112,671.31552 c -3.3067,4.83 -5.8345,13.63104 -7.1645,19.63104 -1.33,6 -4.34333,13.01115 -4.1422,24.91125 0.0486,2.87342 -0.97219,-3.51448 -5.14219,-14.68448 C 516.93223,690.00333 512.67,671.5 504,645 495.33,618.5 474,560 468,543"
     fill="none"
     stroke="#000000"
     stroke-width="10.77"
     stroke-linecap="round"
     stroke-linejoin="round"
     id="path28"
     sodipodi:nodetypes="cssssc"
     style="stroke-width:8;stroke-dasharray:none" />
  <path
     d="m 416.25348,767.96689 c 2.08113,-4.75336 2.81243,-12.80727 2.80737,-15.03412 -0.0103,-4.55159 -2.47876,-9.74988 -5.02002,-11.24635 -2.82365,-1.66277 -14.40434,-2.44693 -18.26547,-6.88137 -3.54225,-4.06821 1.62742,-5.39488 4.57835,-9.22239 2.23668,-2.9011 -8.38505,-31.99549 -2.90262,-36.89156 1.62349,-1.44985 9.83649,0.0304 12.66649,3.36041 C 412.94758,695.38151 413.33,707 417,710 c 3.67,3 9.33,0.83 12,2 2.67,1.17 3.33,0.67 4,5 0.67,4.33 -1.33,16 0,21 1.33,5 6.83,2.17 8,9 1.17,6.83 -0.5,26.17 -1,32 -0.5,5.83 -0.18063,2.73983 -2,3 -1.82096,0.26039 -4.07403,0.0259 -8.95129,-3.12038 C 415.97125,770.44339 415.33,769.67 411,769 c -4.33,-0.67 -2.5,5.5 -8,7 -5.5,1.5 -14.33,0.33 -25,2 -10.67,1.67 -32.17,7 -39,8 -6.83,1 -2,0.83 -2,-2 0,-2.83 2.17,-12 2,-15 -0.17,-3 1.67,-2.67 -3,-3 -4.67,-0.33 -20,2.5 -25,1 -5,-1.5 -2.33,-7 -5,-10 -2.67,-3 -9,-5.67 -11,-8 -2,-2.33 -1.67,-4.33 -1,-6 0.67,-1.67 -0.17,-3.17 5,-4 5.17,-0.83 19.5,-2 26,-1 6.5,1 11.17,6.17 13,7 1.83,0.83 -2.5,-1.33 -2,-2 0.5,-0.67 2.67,-1.83 5,-2 2.33,-0.17 5,-0.83 9,1 4,1.83 10.83,8.17 15,10 4.17,1.83 8.67,2.33 10,1 1.33,-1.33 1.67,-4.17 -2,-9 -3.67,-4.83 -17.5,-15.5 -20,-20 -2.5,-4.5 4.67,-3.83 5,-7 0.33,-3.17 -1,-9.5 -3,-12 -2,-2.5 -3.17,2.5 -9,-3 -5.83,-5.5 -19.67,-25.33 -26,-30 -6.33,-4.67 -7.5,3.83 -12,2 -4.5,-1.83 -11,-10.83 -15,-13 -4,-2.17 -6.33,-1 -9,0 -2.67,1 -5.67,3.67 -7,6 -1.33,2.33 -3.83,4.5 -1,8 2.83,3.5 14.83,8.83 18,13 3.17,4.17 0.33,9.5 1,12 0.67,2.5 -2.33,1.17 3,3 5.33,1.83 19.83,4.5 29,8 9.17,3.5 21.67,10.83 26,13"
     fill="none"
     stroke="#000000"
     stroke-width="8"
     stroke-linecap="round"
     stroke-linejoin="round"
     id="path29"
     sodipodi:nodetypes="cssssssssssssssssssssssssssssssssssssssssssssssssc"
     style="stroke-width:8;stroke-dasharray:none" />
  <path
     d="m 432.93393,781.24636 c 7.76001,5.37213 9.33407,6.69949 13.84546,10.19485 5.3449,4.14115 8.90349,7.62318 12.24637,10.02576 3.71399,2.6693 8.15962,5.72939 9.97424,7.02015 2.07258,1.47424 3.17,0.18288 4,-1.48712 0.83,-1.67 1.33,-5.83 1,-9 -0.33,-3.17 -0.17,-4.33 -3,-10 -2.83,-5.67 -11.67,-18.5 -14,-24 -2.33,-5.5 -0.67,-6 0,-9 0.67,-3 3.33,-3.67 4,-9 0.67,-5.33 -1.17,-18.67 0,-23 1.17,-4.33 4.5,-4.17 7,-3 2.5,1.17 5,8 8,10 3,2 8,1.17 10,2 2,0.83 1.67,0.5 2,3 0.33,2.5 0.5,8 0,12 -0.5,4 -2.83,10.5 -3,12 -0.17,1.5 1.83,-2.83 2,-3 0.17,-0.17 -2,1.67 -1,2 1,0.33 5,-0.83 7,0 2,0.83 3.83,3.17 5,5 1.17,1.83 0.83,-2.83 2,6 1.17,8.83 4.17,36.5 5,47 0.83,10.5 0.5,12.67 0,16 -0.5,3.33 -2.5,3.33 -3,4"
     fill="none"
     stroke="#000000"
     stroke-width="8"
     stroke-linecap="round"
     stroke-linejoin="round"
     id="path30"
     sodipodi:nodetypes="csssssssssssssssssssssssc"
     style="stroke-width:8;stroke-dasharray:none" />
  <path
     d="m 589,1762 c -0.17,-1.33 -2.33,1.83 -1,-8 1.33,-9.83 6.5,-29.33 9,-51 2.5,-21.67 5.72879,-62.1103 7.55879,-78.6103 2.02726,-18.2785 1.98945,-23.9821 3.44121,-45.3897 1.26569,-18.6638 5.33,-60.67 7,-87 1.67,-26.33 2.5,-40.5 3,-71 0.5,-30.5 0.5,-86.5 0,-112 -0.5,-25.5 -2.5,-26.83 -3,-41 -0.5,-14.17 -5.90553,-103.3652 -7.98306,-130.017 -2.89675,-37.1614 -8.19738,-53.0168 -16.37091,-106.8165 -4.61819,-30.3978 -9.13372,-41.39863 -14.57494,-75.68648 -5.09099,-32.08089 -5.13302,-35.55993 -6.83593,-43.45987 C 566.33227,898.55342 571.68675,925.46524 564,881 c -4.31456,-24.95824 -22.33,-95.83 -28,-124 -5.67,-28.17 -9.40892,-37.5 -10.40892,-45"
     fill="none"
     stroke="#000000"
     stroke-width="12.17"
     stroke-linecap="round"
     stroke-linejoin="round"
     id="path31"
     sodipodi:nodetypes="cssssssssssssssc"
     style="stroke-width:8;stroke-dasharray:none" />
  <path
     d="M157.00,186.00 C158.17,184.83 159.17,180.50 164.00,179.00 C168.83,177.50 178.50,177.17 186.00,177.00 C193.50,176.83 203.50,177.33 209.00,178.00 C214.50,178.67 217.33,180.50 219.00,181.00"
     fill="none"
     stroke="black"
     stroke-width="8.00"
     stroke-linecap="round"
     stroke-linejoin="round"
     id="path32"
     style="stroke-width:8;stroke-dasharray:none" />
  <path
     d="M436.00,329.00 L453.00,352.00"
     fill="none"
     stroke="black"
     stroke-width="25.46"
     stroke-linecap="round"
     stroke-linejoin="round"
     id="path33"
     style="stroke-width:8;stroke-dasharray:none" />
  <path
     d="m 84.998486,343.04967 c 0,2.17 -11.897657,6.40949 -11.734837,8.99259 0.791874,12.5629 0.526199,7.58274 0.687639,9.95774 C 74.148519,364.90153 72,374.5 72,379 c 0,4.5 0.5,6.17 2,10 1.5,3.83 5.17,10.33 7,13 1.83,2.67 1.17,2.83 4,3 2.83,0.17 7.67,-1.83 13,-2 5.33,-0.17 15.83,0.83 19,1"
     fill="none"
     stroke="#000000"
     stroke-width="12"
     stroke-linecap="round"
     stroke-linejoin="round"
     id="path34"
     sodipodi:nodetypes="csssssssc"
     style="stroke-width:8;stroke-dasharray:none" />
  <path
     d="M295.00,355.00 L287.00,366.00"
     fill="none"
     stroke="black"
     stroke-width="25.46"
     stroke-linecap="round"
     stroke-linejoin="round"
     id="path35"
     style="stroke-width:8;stroke-dasharray:none" />
  <path
     d="M372.00,488.00 C376.00,485.50 388.00,479.17 396.00,473.00 C404.00,466.83 415.00,455.00 420.00,451.00 C425.00,447.00 424.33,451.00 426.00,449.00 C427.67,447.00 428.00,441.67 430.00,439.00 C432.00,436.33 435.83,436.67 438.00,433.00 C440.17,429.33 440.83,421.17 443.00,417.00 C445.17,412.83 449.17,416.00 451.00,408.00 C452.83,400.00 453.00,375.67 454.00,369.00 C455.00,362.33 456.50,368.17 457.00,368.00"
     fill="none"
     stroke="black"
     stroke-width="14.00"
     stroke-linecap="round"
     stroke-linejoin="round"
     id="path36"
     style="stroke-width:8;stroke-dasharray:none" />
  <path
     d="M86.00,405.00 C85.50,406.83 83.17,414.17 83.00,416.00 C82.83,417.83 84.67,416.00 85.00,416.00"
     fill="none"
     stroke="black"
     stroke-width="16.49"
     stroke-linecap="round"
     stroke-linejoin="round"
     id="path37"
     style="stroke-width:8;stroke-dasharray:none" />
  <path
     d="M107.00,468.00 C108.83,468.17 110.17,465.00 118.00,469.00 C125.83,473.00 142.33,485.83 154.00,492.00 C165.67,498.17 177.50,503.33 188.00,506.00 C198.50,508.67 210.83,508.50 217.00,508.00 C223.17,507.50 213.00,503.67 225.00,503.00 C237.00,502.33 279.17,501.83 289.00,504.00 C298.83,506.17 289.33,509.17 284.00,516.00 C278.67,522.83 266.00,536.67 257.00,545.00 C248.00,553.33 237.83,560.83 230.00,566.00 C222.17,571.17 215.17,574.00 210.00,576.00 C204.83,578.00 208.00,577.83 199.00,578.00 C190.00,578.17 164.50,578.50 156.00,577.00 C147.50,575.50 149.00,572.50 148.00,569.00 C147.00,565.50 149.67,558.17 150.00,556.00"
     fill="none"
     stroke="black"
     stroke-width="8.00"
     stroke-linecap="round"
     stroke-linejoin="round"
     id="path38"
     style="stroke-width:8;stroke-dasharray:none" />
  <path
     d="m 295,503 c 4,-0.17 15.67,0.67 24,-1 8.33,-1.67 17,-6.67 26,-9 9,-2.33 26.83,-13.83 28,-5 1.17,8.83 -16.83,44.67 -21,58 -4.17,13.33 -3.5,16.5 -4,22 -0.5,5.5 -1,9.33 1,11 2,1.67 7.67,0.5 11,-1 3.33,-1.5 7.5,-6.67 9,-8"
     fill="none"
     stroke="#000000"
     stroke-width="8.25"
     stroke-linecap="round"
     stroke-linejoin="round"
     id="path39"
     sodipodi:nodetypes="csssssssc"
     style="stroke-width:8;stroke-dasharray:none" />
  <path
     d="M385.00,570.00 C385.33,572.50 385.17,578.67 387.00,585.00 C388.83,591.33 394.67,603.17 396.00,608.00 C397.33,612.83 396.00,612.50 395.00,614.00 C394.00,615.50 393.83,616.50 390.00,617.00 C386.17,617.50 377.17,618.17 372.00,617.00 C366.83,615.83 362.33,612.83 359.00,610.00 C355.67,607.17 353.33,605.00 352.00,600.00 C350.67,595.00 351.17,583.33 351.00,580.00"
     fill="none"
     stroke="black"
     stroke-width="10.00"
     stroke-linecap="round"
     stroke-linejoin="round"
     id="path40"
     style="stroke-width:8;stroke-dasharray:none" />
  <path
     d="m 355,704 c 0,-1.5 1,-5.17 0,-9 -1,-3.83 -5,-9.83 -6,-14 -1,-4.17 -0.5,-7.17 0,-11 0.5,-3.83 1.83,-9.33 3,-12 1.17,-2.67 2.33,-3.33 4,-4 1.67,-0.67 3.67,-1.33 6,0 2.33,1.33 6,4.67 8,8 2,3.33 2.83,1.67 4,12 1.17,10.33 0.18982,39.40846 3,50 2.91001,10.96778 4.17333,9.82776 6.17333,12.65776 2,2.83 6.0989,6.63004 6.9289,6.96004"
     fill="none"
     stroke="#000000"
     stroke-width="8"
     stroke-linecap="round"
     stroke-linejoin="round"
     id="path41"
     sodipodi:nodetypes="cssssssssssc"
     style="stroke-width:8;stroke-dasharray:none" />
  <path
     d="m 410.34379,767.97424 c -8.26001,-8.3794 -15.07117,-19.56116 -19.68056,-23.45086"
     fill="none"
     stroke="#000000"
     stroke-width="8.49"
     stroke-linecap="round"
     stroke-linejoin="round"
     id="path42"
     sodipodi:nodetypes="cc"
     style="stroke-width:8;stroke-dasharray:none" />
  <path
     d="m 469.17469,808.02576 c 2.03794,1.36826 7.75759,6.18461 10.79395,9.14333 3.66681,3.57305 5.82363,5.66651 10.12878,9.6159 4.05621,3.72103 7.29697,7.13865 11.41546,11.13774 C 504.07138,840.40706 502.5,844.67 503,847 c 0.5,2.33 3.83,1.33 2,2 -1.83,0.67 -7.83,2.67 -13,2 -5.17,-0.67 -11.83,-5 -18,-6 -6.17,-1 -13.33,0.83 -19,0 -5.67,-0.83 -10.5,-4.17 -15,-5 -4.5,-0.83 -9.33,-0.67 -12,0 -2.67,0.67 -0.17,3.5 -4,4 -3.83,0.5 -14.67,-2 -19,-1 -4.33,1 -3,5.5 -7,7 -4,1.5 -13.67,1.33 -17,2 -3.33,0.67 -2.5,0.67 -3,2 -0.5,1.33 -0.83,4.17 0,6 0.83,1.83 1.33,3.5 5,5 3.67,1.5 12.83,2.33 17,4 4.17,1.67 3.67,5.17 8,6 4.33,0.83 14.33,-1.33 18,-1 3.67,0.33 1.5,2.83 4,3 2.5,0.17 6.5,-0.33 11,-2 4.5,-1.67 12.67,-6.67 16,-8 3.33,-1.33 3,-0.5 4,0 1,0.5 0,2.5 2,3 2,0.5 5.33,0.5 10,0 4.67,-0.5 11.83,-2.5 18,-3 6.17,-0.5 14.83,0.67 19,0 4.17,-0.67 3,-4.5 6,-4 3,0.5 4.83091,-2.16818 10.83091,4.66182 6,6.83 20.95329,25.35426 26.95329,31.68426 6,6.33 15.93715,20.68633 17.93715,21.68633"
     fill="none"
     stroke="#000000"
     stroke-width="8.94"
     stroke-linecap="round"
     stroke-linejoin="round"
     id="path43"
     sodipodi:nodetypes="csssssssssssssssssssssssssssssssc"
     style="stroke-width:8;stroke-dasharray:none" />
  <path
     d="m 503.63606,840.81636 c 2.51978,2.22507 2.36451,2.69387 5.61719,6.13944 4.30426,4.55952 10.61762,12.92622 15.34025,18.29951"
     fill="none"
     stroke="#000000"
     stroke-width="16.97"
     stroke-linecap="round"
     stroke-linejoin="round"
     id="path44"
     sodipodi:nodetypes="csc"
     style="stroke-width:8;stroke-dasharray:none" />
</svg>
