<?xml version="1.0" encoding="UTF-8" standalone="no"?>
<svg
   viewBox="0 0 697 1770"
   width="697"
   height="1770"
   version="1.1"
   id="svg43"
   sodipodi:docname="august_center_right.svg"
   inkscape:version="1.4.2 (f4327f4, 2025-05-13)"
   xmlns:inkscape="http://www.inkscape.org/namespaces/inkscape"
   xmlns:sodipodi="http://sodipodi.sourceforge.net/DTD/sodipodi-0.dtd"
   xmlns="http://www.w3.org/2000/svg"
   xmlns:svg="http://www.w3.org/2000/svg">
  <defs
     id="defs43" />
  <sodipodi:namedview
     id="namedview43"
     pagecolor="#ffffff"
     bordercolor="#000000"
     borderopacity="0.25"
     inkscape:showpageshadow="2"
     inkscape:pageopacity="0.0"
     inkscape:pagecheckerboard="0"
     inkscape:deskcolor="#d1d1d1"
     inkscape:zoom="0.16293701"
     inkscape:cx="1245.8803"
     inkscape:cy="819.33505"
     inkscape:window-width="1920"
     inkscape:window-height="1009"
     inkscape:window-x="1912"
     inkscape:window-y="-8"
     inkscape:window-maximized="1"
     inkscape:current-layer="svg43" />
  <path
     d="M353.00,97.00 C354.50,93.33 359.00,81.00 362.00,75.00 C365.00,69.00 365.17,67.33 371.00,61.00 C376.83,54.67 392.33,41.83 397.00,37.00 C401.67,32.17 399.17,33.33 399.00,32.00 C398.83,30.67 399.67,30.50 396.00,29.00 C392.33,27.50 387.67,25.50 377.00,23.00 C366.33,20.50 345.17,15.50 332.00,14.00 C318.83,12.50 307.00,12.83 298.00,14.00 C289.00,15.17 281.33,19.83 278.00,21.00"
     fill="none"
     stroke="black"
     stroke-width="6.00"
     stroke-linecap="round"
     stroke-linejoin="round"
     id="path1"
     style="stroke-width:8;stroke-dasharray:none" />
  <path
     d="M250.00,173.00 C249.83,167.50 248.50,152.33 249.00,140.00 C249.50,127.67 251.33,110.67 253.00,99.00 C254.67,87.33 255.17,81.50 259.00,70.00 C262.83,58.50 273.00,38.17 276.00,30.00 C279.00,21.83 280.67,22.00 277.00,21.00 C273.33,20.00 267.67,20.67 254.00,24.00 C240.33,27.33 206.00,37.17 195.00,41.00 C184.00,44.83 189.50,43.00 188.00,47.00 C186.50,51.00 186.33,62.00 186.00,65.00"
     fill="none"
     stroke="black"
     stroke-width="8.00"
     stroke-linecap="round"
     stroke-linejoin="round"
     id="path2"
     style="stroke-width:8;stroke-dasharray:none" />
  <path
     d="M 117.19386,174.41841 C 117.02386,168.74841 115.83,149.17 116,141 c 0.17,-8.17 -0.17,-8.5 2,-15 2.17,-6.5 5.67,-16.83 11,-24 5.33,-7.17 11.5,-12.83 21,-19 9.5,-6.17 29.5,-15.5 36,-18 6.5,-2.5 2.5,1.5 3,3 0.5,1.5 1.17,-1.33 0,6 -1.17,7.33 -5.67,22.33 -7,38 -1.33,15.67 -1.83,40.17 -1,56 0.83,15.83 4.33,30.67 6,39 1.67,8.33 3.33,9.17 4,11"
     fill="none"
     stroke="#000000"
     stroke-width="6.32"
     stroke-linecap="round"
     stroke-linejoin="round"
     id="path3"
     sodipodi:nodetypes="cssssssssssc"
     style="stroke-width:8;stroke-dasharray:none" />
  <path
     d="M 117.31661,175.40866 C 117.14661,181.57866 121,212.17 120,219 c -1,6.83 -4.5,0.83 -5,4 -0.5,3.17 0,6.83 2,15 2,8.17 6,23.33 10,34 4,10.67 13.5,25 14,30 0.5,5 -3.33,2.33 -11,0 -7.67,-2.33 -29.17,-11.67 -35,-14"
     fill="none"
     stroke="#000000"
     stroke-width="8.25"
     stroke-linecap="round"
     stroke-linejoin="round"
     id="path4"
     sodipodi:nodetypes="cssssssc"
     style="stroke-width:8;stroke-dasharray:none" />
  <path
     d="M511.00,207.00 C514.33,204.67 525.17,197.67 531.00,193.00 C536.83,188.33 544.67,182.33 546.00,179.00 C547.33,175.67 543.83,174.33 539.00,173.00 C534.17,171.67 526.33,171.00 517.00,171.00 C507.67,171.00 490.50,166.17 483.00,173.00 C475.50,179.83 475.00,202.83 472.00,212.00 C469.00,221.17 468.67,222.17 465.00,228.00 C461.33,233.83 457.17,239.33 450.00,247.00 C442.83,254.67 426.67,269.50 422.00,274.00"
     fill="none"
     stroke="black"
     stroke-width="7.21"
     stroke-linecap="round"
     stroke-linejoin="round"
     id="path5"
     style="stroke-width:8;stroke-dasharray:none" />
  <path
     d="M399.00,212.00 C403.83,203.50 420.67,176.83 428.00,161.00 C435.33,145.17 438.83,125.33 443.00,117.00 C447.17,108.67 452.50,116.67 453.00,111.00 C453.50,105.33 448.00,89.17 446.00,83.00 C444.00,76.83 445.50,80.00 441.00,74.00 C436.50,68.00 424.67,53.50 419.00,47.00 C413.33,40.50 410.33,37.50 407.00,35.00 C403.67,32.50 400.33,32.50 399.00,32.00"
     fill="none"
     stroke="black"
     stroke-width="8.00"
     stroke-linecap="round"
     stroke-linejoin="round"
     id="path6"
     style="stroke-width:8;stroke-dasharray:none" />
  <path
     d="M33.00,241.00 C30.33,241.00 20.00,241.33 17.00,241.00 C14.00,240.67 15.00,240.83 15.00,239.00 C15.00,237.17 13.00,235.17 17.00,230.00 C21.00,224.83 31.67,213.67 39.00,208.00 C46.33,202.33 54.33,198.00 61.00,196.00 C67.67,194.00 73.50,195.00 79.00,196.00 C84.50,197.00 87.83,197.33 94.00,202.00 C100.17,206.67 112.33,220.33 116.00,224.00"
     fill="none"
     stroke="black"
     stroke-width="8.00"
     stroke-linecap="round"
     stroke-linejoin="round"
     id="path7"
     style="stroke-width:8;stroke-dasharray:none" />
  <path
     d="M179.00,258.00 C180.67,260.50 182.50,265.17 189.00,273.00 C195.50,280.83 211.83,299.17 218.00,305.00 C224.17,310.83 220.83,307.67 226.00,308.00 C231.17,308.33 242.17,304.33 249.00,307.00 C255.83,309.67 262.00,322.00 267.00,324.00 C272.00,326.00 275.83,319.83 279.00,319.00 C282.17,318.17 282.17,320.67 286.00,319.00 C289.83,317.33 305.17,316.50 302.00,309.00 C298.83,301.50 273.00,280.50 267.00,274.00 C261.00,267.50 266.17,270.67 266.00,270.00"
     fill="none"
     stroke="black"
     stroke-width="25.46"
     stroke-linecap="round"
     stroke-linejoin="round"
     id="path8"
     style="stroke-width:8;stroke-dasharray:none" />
  <path
     d="M302.00,259.00 C302.83,262.67 305.00,275.33 307.00,281.00 C309.00,286.67 312.83,289.67 314.00,293.00 C315.17,296.33 315.33,298.33 314.00,301.00 C312.67,303.67 307.33,307.67 306.00,309.00"
     fill="none"
     stroke="black"
     stroke-width="25.46"
     stroke-linecap="round"
     stroke-linejoin="round"
     id="path9"
     style="stroke-width:8;stroke-dasharray:none" />
  <path
     d="M149.00,272.00 C150.00,272.17 151.50,271.17 155.00,273.00 C158.50,274.83 160.17,273.83 170.00,283.00 C179.83,292.17 206.00,318.67 214.00,328.00 C222.00,337.33 216.33,336.17 218.00,339.00 C219.67,341.83 223.00,344.00 224.00,345.00"
     fill="none"
     stroke="black"
     stroke-width="5.83"
     stroke-linecap="round"
     stroke-linejoin="round"
     id="path10"
     style="stroke-width:8;stroke-dasharray:none" />
  <path
     d="M565.00,272.00 C568.83,270.33 580.17,264.67 588.00,262.00 C595.83,259.33 607.50,259.00 612.00,256.00 C616.50,253.00 614.50,249.17 615.00,244.00 C615.50,238.83 615.83,229.50 615.00,225.00 C614.17,220.50 613.50,221.00 610.00,217.00 C606.50,213.00 600.67,206.67 594.00,201.00 C587.33,195.33 576.50,186.67 570.00,183.00 C563.50,179.33 559.17,179.50 555.00,179.00 C550.83,178.50 546.67,179.83 545.00,180.00"
     fill="none"
     stroke="black"
     stroke-width="8.25"
     stroke-linecap="round"
     stroke-linejoin="round"
     id="path11"
     style="stroke-width:8;stroke-dasharray:none" />
  <path
     d="M444.00,280.00 C440.67,284.50 428.67,301.83 424.00,307.00 C419.33,312.17 421.33,306.33 416.00,311.00 C410.67,315.67 400.17,332.33 392.00,335.00 C383.83,337.67 371.17,328.33 367.00,327.00"
     fill="none"
     stroke="black"
     stroke-width="24.05"
     stroke-linecap="round"
     stroke-linejoin="round"
     id="path12"
     style="stroke-width:8;stroke-dasharray:none" />
  <path
     d="M605.00,284.00 C606.83,284.17 613.83,285.17 616.00,285.00 C618.17,284.83 618.17,286.50 618.00,283.00 C617.83,279.50 616.17,268.50 615.00,264.00 C613.83,259.50 611.67,257.33 611.00,256.00"
     fill="none"
     stroke="black"
     stroke-width="8.00"
     stroke-linecap="round"
     stroke-linejoin="round"
     id="path13"
     style="stroke-width:8;stroke-dasharray:none" />
  <path
     d="M469.00,300.00 C468.67,300.50 469.50,301.67 467.00,303.00 C464.50,304.33 459.67,304.50 454.00,308.00 C448.33,311.50 440.67,317.17 433.00,324.00 C425.33,330.83 414.17,345.67 408.00,349.00 C401.83,352.33 398.83,346.00 396.00,344.00 C393.17,342.00 391.67,338.50 391.00,337.00 C390.33,335.50 392.17,335.33 392.00,335.00 C391.83,334.67 390.33,335.00 390.00,335.00"
     fill="none"
     stroke="black"
     stroke-width="22.00"
     stroke-linecap="round"
     stroke-linejoin="round"
     id="path14"
     style="stroke-width:8;stroke-dasharray:none" />
  <path
     d="M473.00,317.00 C472.17,317.83 471.33,320.17 468.00,322.00 C464.67,323.83 457.50,325.17 453.00,328.00 C448.50,330.83 444.50,336.67 441.00,339.00 C437.50,341.33 436.33,338.83 432.00,342.00 C427.67,345.17 417.67,354.83 415.00,358.00 C412.33,361.17 413.33,358.17 416.00,361.00 C418.67,363.83 425.83,373.83 431.00,375.00 C436.17,376.17 441.83,371.00 447.00,368.00 C452.17,365.00 457.17,358.83 462.00,357.00 C466.83,355.17 469.00,354.00 476.00,357.00 C483.00,360.00 499.00,371.33 504.00,375.00 C509.00,378.67 505.67,378.33 506.00,379.00"
     fill="none"
     stroke="black"
     stroke-width="10.00"
     stroke-linecap="round"
     stroke-linejoin="round"
     id="path15"
     style="stroke-width:8;stroke-dasharray:none" />
  <path
     d="M152.00,329.00 C153.33,329.17 157.67,330.67 160.00,330.00 C162.33,329.33 162.83,324.50 166.00,325.00 C169.17,325.50 174.17,330.67 179.00,333.00 C183.83,335.33 191.50,336.83 195.00,339.00 C198.50,341.17 200.67,343.67 200.00,346.00 C199.33,348.33 193.33,351.67 191.00,353.00 C188.67,354.33 186.83,353.83 186.00,354.00"
     fill="none"
     stroke="black"
     stroke-width="17.09"
     stroke-linecap="round"
     stroke-linejoin="round"
     id="path16"
     style="stroke-width:8;stroke-dasharray:none" />
  <path
     d="M617.00,341.00 C619.33,340.83 628.00,342.00 631.00,340.00 C634.00,338.00 634.00,333.83 635.00,329.00 C636.00,324.17 637.17,316.33 637.00,311.00 C636.83,305.67 636.17,301.00 634.00,297.00 C631.83,293.00 626.83,289.17 624.00,287.00 C621.17,284.83 618.17,284.50 617.00,284.00"
     fill="none"
     stroke="black"
     stroke-width="8.00"
     stroke-linecap="round"
     stroke-linejoin="round"
     id="path17"
     style="stroke-width:8;stroke-dasharray:none" />
  <path
     d="M340.00,363.00 C340.33,361.17 337.50,358.00 342.00,352.00 C346.50,346.00 364.50,332.17 367.00,327.00 C369.50,321.83 367.83,324.00 357.00,321.00 C346.17,318.00 311.17,311.00 302.00,309.00"
     fill="none"
     stroke="black"
     stroke-width="25.46"
     stroke-linecap="round"
     stroke-linejoin="round"
     id="path18"
     style="stroke-width:8;stroke-dasharray:none" />
  <path
     d="M223.00,376.00 C225.00,375.50 231.00,375.33 235.00,373.00 C239.00,370.67 244.50,366.50 247.00,362.00 C249.50,357.50 249.50,348.67 250.00,346.00"
     fill="none"
     stroke="black"
     stroke-width="25.46"
     stroke-linecap="round"
     stroke-linejoin="round"
     id="path19"
     style="stroke-width:8;stroke-dasharray:none" />
  <path
     d="M684.00,416.00 C682.33,416.67 678.83,418.83 674.00,420.00 C669.17,421.17 659.00,423.33 655.00,423.00 C651.00,422.67 655.00,419.67 650.00,418.00 C645.00,416.33 630.17,414.50 625.00,413.00 C619.83,411.50 624.50,406.00 619.00,409.00 C613.50,412.00 600.00,423.83 592.00,431.00 C584.00,438.17 576.83,446.83 571.00,452.00 C565.17,457.17 562.00,459.17 557.00,462.00 C552.00,464.83 543.67,467.83 541.00,469.00"
     fill="none"
     stroke="black"
     stroke-width="7.21"
     stroke-linecap="round"
     stroke-linejoin="round"
     id="path20"
     style="stroke-width:8;stroke-dasharray:none" />
  <path
     d="M558.00,426.00 C562.17,422.00 578.33,406.83 583.00,402.00 C587.67,397.17 586.17,398.50 586.00,397.00 C585.83,395.50 588.17,394.83 582.00,393.00 C575.83,391.17 558.83,387.33 549.00,386.00 C539.17,384.67 529.00,386.17 523.00,385.00 C517.00,383.83 515.83,380.17 513.00,379.00 C510.17,377.83 507.83,377.00 506.00,378.00 C504.17,379.00 502.67,381.33 502.00,385.00 C501.33,388.67 502.67,395.17 502.00,400.00 C501.33,404.83 500.00,409.17 498.00,414.00 C496.00,418.83 493.00,424.67 490.00,429.00 C487.00,433.33 481.67,438.17 480.00,440.00"
     fill="none"
     stroke="black"
     stroke-width="8.37"
     stroke-linecap="round"
     stroke-linejoin="round"
     id="path21"
     style="stroke-width:8;stroke-dasharray:none" />
  <path
     d="M416.00,436.00 C416.33,434.33 417.00,428.67 418.00,426.00 C419.00,423.33 421.33,422.00 422.00,420.00 C422.67,418.00 420.50,418.33 422.00,414.00 C423.50,409.67 429.17,399.17 431.00,394.00 C432.83,388.83 433.17,386.33 433.00,383.00 C432.83,379.67 430.17,375.50 430.00,374.00 C429.83,372.50 431.67,374.00 432.00,374.00"
     fill="none"
     stroke="black"
     stroke-width="7.61"
     stroke-linecap="round"
     stroke-linejoin="round"
     id="path22"
     style="stroke-width:8;stroke-dasharray:none" />
  <path
     d="M265.00,469.00 C266.67,464.00 273.67,444.83 275.00,439.00 C276.33,433.17 274.83,436.17 273.00,434.00 C271.17,431.83 266.33,430.00 264.00,426.00 C261.67,422.00 261.00,413.83 259.00,410.00 C257.00,406.17 253.67,410.67 252.00,403.00 C250.33,395.33 250.00,370.83 249.00,364.00 C248.00,357.17 246.50,362.33 246.00,362.00"
     fill="none"
     stroke="black"
     stroke-width="14.00"
     stroke-linecap="round"
     stroke-linejoin="round"
     id="path23"
     style="stroke-width:8;stroke-dasharray:none" />
  <path
     d="M402.00,486.00 C403.17,487.67 408.17,494.00 409.00,496.00 C409.83,498.00 411.17,498.00 407.00,498.00 C402.83,498.00 392.17,497.83 384.00,496.00 C375.83,494.17 366.00,489.33 358.00,487.00 C350.00,484.67 340.50,482.67 336.00,482.00 C331.50,481.33 336.50,486.00 331.00,483.00 C325.50,480.00 311.33,470.50 303.00,464.00 C294.67,457.50 285.83,447.50 281.00,444.00 C276.17,440.50 275.17,443.17 274.00,443.00"
     fill="none"
     stroke="black"
     stroke-width="10.77"
     stroke-linecap="round"
     stroke-linejoin="round"
     id="path24"
     style="stroke-width:8;stroke-dasharray:none" />
  <path
     d="M525.00,519.00 C528.67,523.83 542.33,542.83 547.00,548.00 C551.67,553.17 551.17,550.50 553.00,550.00 C554.83,549.50 555.33,546.50 558.00,545.00 C560.67,543.50 566.33,542.33 569.00,541.00 C571.67,539.67 573.00,542.83 574.00,537.00 C575.00,531.17 574.00,513.33 575.00,506.00 C576.00,498.67 576.50,499.17 580.00,493.00 C583.50,486.83 593.50,474.33 596.00,469.00 C598.50,463.67 592.83,464.00 595.00,461.00 C597.17,458.00 603.00,454.00 609.00,451.00 C615.00,448.00 624.50,446.00 631.00,443.00 C637.50,440.00 644.00,436.33 648.00,433.00 C652.00,429.67 653.83,424.67 655.00,423.00"
     fill="none"
     stroke="black"
     stroke-width="6.32"
     stroke-linecap="round"
     stroke-linejoin="round"
     id="path25"
     style="stroke-width:8;stroke-dasharray:none" />
  <path
     d="m 335,565 c -0.17,1.67 2.67,-1.67 0,-2 -2.67,-0.33 -13.33,0 -16,0"
     fill="none"
     stroke="#000000"
     stroke-width="12.17"
     stroke-linecap="round"
     stroke-linejoin="round"
     id="path26"
     sodipodi:nodetypes="csc"
     style="stroke-width:8;stroke-dasharray:none" />
  <path
     d="m 167.35617,667.83012 c 2.71235,5.17403 2.85732,4.76184 5.3726,17.82728 2.10711,10.94523 4.3526,24.86623 6.10135,14.3426 C 181.12636,686.18171 190,665.17 199,638 c 9,-27.17 32.67,-83 36,-101 3.33,-18 -8.5,-4.67 -16,-7 -7.5,-2.33 -22,-4.67 -29,-7 -7,-2.33 -7.17,-3.17 -13,-7 -5.83,-3.83 -13,-7.67 -22,-16 -9,-8.33 -24.17,-23.5 -32,-34 -7.83,-10.5 -9.5,-16 -15,-29 -5.5,-13 -9.83,-35.17 -18,-49 -8.17,-13.83 -24.17,-25.5 -31,-34 -6.83,-8.5 -7.67,-11.17 -10,-17 -2.33,-5.83 -3.67,-12.67 -4,-18 -0.33,-5.33 2,-9 2,-14 0,-5 -0.5,-12.5 -2,-16 -1.5,-3.5 -3.67,-3.83 -7,-5 -3.33,-1.17 -9.33,-0.17 -13,-2 -3.67,-1.83 -7,-5.33 -9,-9 -2,-3.67 -2.5,-7.67 -3,-13 -0.5,-5.33 -0.33,-15.33 0,-19 0.33,-3.67 1.67,-2.5 2,-3"
     fill="none"
     stroke="#000000"
     stroke-width="8.49"
     stroke-linecap="round"
     stroke-linejoin="round"
     id="path27"
     style="stroke-width:8;stroke-dasharray:none"
     sodipodi:nodetypes="csssssssssssssssssssssc" />
  <path
     d="m 233.49329,802.71231 c -1.29332,1.09026 -2.00959,1.84658 -6.49329,5.9822 -3.99031,3.68053 -13.67,13.6437 -18,18.30549 -3.65209,3.93193 -6.17,3 -8,3 -1.83,0 -2.33,-1.33 -3,-3 -0.67,-1.67 -2,4.5 -1,-7 1,-11.5 4.83,-50.67 7,-62 2.17,-11.33 4,-4.67 6,-6 2,-1.33 4.83,-2 6,-2 1.17,0 1.17,1.83 1,2 -0.17,0.17 -1.67,3 -2,-1 -0.33,-4 -1.83,-18.5 0,-23 1.83,-4.5 7.67,-1.67 11,-4 3.33,-2.33 6.33,-8.83 9,-10 2.67,-1.17 5.83,-1.5 7,3 1.17,4.5 -0.67,17.5 0,24 0.67,6.5 5,9.83 4,15 -1,5.17 -7.17,10.5 -10,16 -2.83,5.5 -5.67,12.83 -7,17 -1.33,4.17 -1.33,5.83 -1,8 0.33,2.17 1,4.5 3,5 2,0.5 1.58846,1.47896 6.07517,-2.33564 3.94405,-3.35322 14.80387,-11.54451 19.2946,-15.34254 4.75821,-4.02425 5.82329,-5.43951 10.49329,-8.60951 4.67,-3.17 14.13046,-8.60739 17.91638,-11.62808 12.13248,-9.68019 -0.49854,3.62938 9.66025,5.16987 C 301.32438,770.29811 321.5,771.33 331,773 c 9.5,1.67 20.5,5.83 26,7 5.5,1.17 5.5,0.33 7,0 1.5,-0.33 2,0.83 2,-2 0,-2.83 -2.17,-12 -2,-15 0.17,-3 -1.67,-2.67 3,-3 4.67,-0.33 20.33,1.33 25,1 4.67,-0.33 2.33,-1.5 3,-3 0.67,-1.5 -1.33,-3.17 1,-6 2.33,-2.83 10.83,-8.5 13,-11 2.17,-2.5 0.83,-2.67 0,-4 -0.83,-1.33 0.17,-3.17 -5,-4 -5.17,-0.83 -19.83,-1.67 -26,-1 -6.17,0.67 -7.5,4.5 -11,5 -3.5,0.5 -5.17,-3.5 -10,-2 -4.83,1.5 -14,8.83 -19,11 -5,2.17 -9.5,1.83 -11,2 -1.5,0.17 1.33,1 2,-1 0.67,-2 -1.5,-6.17 2,-11 3.5,-4.83 16.67,-13.67 19,-18 2.33,-4.33 -4.67,-5 -5,-8 -0.33,-3 2.5,-8.33 3,-10"
     fill="none"
     stroke="#000000"
     stroke-width="8.25"
     stroke-linecap="round"
     stroke-linejoin="round"
     id="path28"
     style="stroke-width:8;stroke-dasharray:none"
     sodipodi:nodetypes="cssssssssssssssssssssssssssssssssssssssssssssssc" />
  <path
     d="M 115.57538,1755.2881 C 115.07538,1751.9581 112.67,1744.33 111,1735 c -1.67,-9.33 -4.17,-23.67 -6,-43 -1.83,-19.33 -4.09717,-41.5595 -5.767168,-56.8895 -1.67,-15.33 -3.213583,-22.0837 -4.232832,-35.1105 -1.802057,-23.0317 -6.17,-86.67 -8,-119 -1.83,-32.33 -2.5,-46.33 -3,-75 -0.5,-28.67 -0.5,-68.67 0,-97 0.5,-28.33 0.67,-38.83 3,-73 2.33,-34.17 6.678197,-101.3147 9.372592,-128.2027 2.35011,-31.4664 6.007128,-62.6382 11.041038,-93.7563 2.82388,-18.58548 4.01335,-21.50603 6.86024,-33.30153 3.0616,-12.68509 5.70658,-20.35176 9.91792,-33.84918 4.53758,-14.54302 11.20654,-39.4493 12.6985,-47.60301 3.93545,-21.50765 7.42199,-42.70808 9.58959,-52.52173 C 152.1426,821.12804 159.33,787 165,759 c 5.67,-28 12.65503,-50.58091 13.65503,-59.41091"
     fill="none"
     stroke="#000000"
     stroke-width="12.17"
     stroke-linecap="round"
     stroke-linejoin="round"
     id="path29"
     style="stroke-width:8;stroke-dasharray:none"
     sodipodi:nodetypes="csssssssssssssssc" />
  <path
     d="M451.00,111.00 C452.50,112.00 456.17,112.17 460.00,117.00 C463.83,121.83 470.67,133.50 474.00,140.00 C477.33,146.50 478.50,150.17 480.00,156.00 C481.50,161.83 482.50,171.83 483.00,175.00"
     fill="none"
     stroke="black"
     stroke-width="12.00"
     stroke-linecap="round"
     stroke-linejoin="round"
     id="path30"
     style="stroke-width:8;stroke-dasharray:none" />
  <path
     d="M139.00,302.00 C139.50,302.00 138.50,299.67 142.00,302.00 C145.50,304.33 155.83,312.00 160.00,316.00 C164.17,320.00 165.83,324.33 167.00,326.00"
     fill="none"
     stroke="black"
     stroke-width="12.81"
     stroke-linecap="round"
     stroke-linejoin="round"
     id="path31"
     style="stroke-width:8;stroke-dasharray:none" />
  <path
     d="M266.00,324.00 C263.50,327.67 262.33,342.33 251.00,346.00 C239.67,349.67 206.83,346.00 198.00,346.00"
     fill="none"
     stroke="black"
     stroke-width="25.46"
     stroke-linecap="round"
     stroke-linejoin="round"
     id="path32"
     style="stroke-width:8;stroke-dasharray:none" />
  <path
     d="M631.00,341.00 C631.00,343.00 631.67,350.50 631.00,353.00 C630.33,355.50 627.17,352.33 627.00,356.00 C626.83,359.67 630.83,368.33 630.00,375.00 C629.17,381.67 624.17,392.00 622.00,396.00 C619.83,400.00 617.50,397.83 617.00,399.00 C616.50,400.17 618.83,401.17 619.00,403.00 C619.17,404.83 618.17,408.83 618.00,410.00"
     fill="none"
     stroke="black"
     stroke-width="10.77"
     stroke-linecap="round"
     stroke-linejoin="round"
     id="path33"
     style="stroke-width:8;stroke-dasharray:none" />
  <path
     d="m 407,349 c 0.5,1 1.5,4.33 3,6 1.5,1.67 5,3.33 6,4"
     fill="none"
     stroke="#000000"
     stroke-width="25.46"
     stroke-linecap="round"
     stroke-linejoin="round"
     id="path34"
     sodipodi:nodetypes="csc"
     style="stroke-width:8;stroke-dasharray:none" />
  <path
     d="M586.00,397.00 C589.17,397.00 599.67,396.50 605.00,397.00 C610.33,397.50 615.83,399.50 618.00,400.00"
     fill="none"
     stroke="black"
     stroke-width="16.00"
     stroke-linecap="round"
     stroke-linejoin="round"
     id="path35"
     style="stroke-width:8;stroke-dasharray:none" />
  <path
     d="M596.00,462.00 C594.17,462.17 594.00,458.33 585.00,463.00 C576.00,467.67 553.67,483.83 542.00,490.00 C530.33,496.17 524.33,498.00 515.00,500.00 C505.67,502.00 492.17,502.50 486.00,502.00 C479.83,501.50 491.00,497.83 478.00,497.00 C465.00,496.17 419.67,497.00 408.00,497.00"
     fill="none"
     stroke="black"
     stroke-width="8.25"
     stroke-linecap="round"
     stroke-linejoin="round"
     id="path36"
     style="stroke-width:8;stroke-dasharray:none" />
  <path
     d="M332.00,482.00 C331.83,483.00 329.00,481.67 331.00,488.00 C333.00,494.33 340.33,509.50 344.00,520.00 C347.67,530.50 351.33,542.33 353.00,551.00 C354.67,559.67 354.17,568.00 354.00,572.00 C353.83,576.00 352.33,574.50 352.00,575.00"
     fill="none"
     stroke="black"
     stroke-width="10.00"
     stroke-linecap="round"
     stroke-linejoin="round"
     id="path37"
     style="stroke-width:8;stroke-dasharray:none" />
  <path
     d="M414.00,498.00 C414.33,498.00 415.83,497.33 416.00,498.00 C416.17,498.67 414.67,500.17 415.00,502.00 C415.33,503.83 412.83,502.83 418.00,509.00 C423.17,515.17 436.83,530.50 446.00,539.00 C455.17,547.50 465.17,554.83 473.00,560.00 C480.83,565.17 487.83,568.00 493.00,570.00 C498.17,572.00 495.00,571.83 504.00,572.00 C513.00,572.17 538.50,572.33 547.00,571.00 C555.50,569.67 554.00,567.33 555.00,564.00 C556.00,560.67 553.33,553.17 553.00,551.00"
     fill="none"
     stroke="black"
     stroke-width="6.00"
     stroke-linecap="round"
     stroke-linejoin="round"
     id="path38"
     style="stroke-width:8;stroke-dasharray:none" />
  <path
     d="M235.00,537.00 C238.00,537.17 242.83,535.67 253.00,538.00 C263.17,540.33 286.00,547.67 296.00,551.00 C306.00,554.33 309.17,556.00 313.00,558.00 C316.83,560.00 318.50,561.33 319.00,563.00 C319.50,564.67 317.00,564.17 316.00,568.00 C315.00,571.83 314.50,581.17 313.00,586.00 C311.50,590.83 308.00,593.50 307.00,597.00 C306.00,600.50 306.00,604.67 307.00,607.00 C308.00,609.33 308.33,610.50 313.00,611.00 C317.67,611.50 329.83,611.17 335.00,610.00 C340.17,608.83 341.50,606.33 344.00,604.00 C346.50,601.67 348.67,600.83 350.00,596.00 C351.33,591.17 353.17,579.00 352.00,575.00 C350.83,571.00 345.83,573.67 343.00,572.00 C340.17,570.33 336.33,566.17 335.00,565.00"
     fill="none"
     stroke="black"
     stroke-width="10.00"
     stroke-linecap="round"
     stroke-linejoin="round"
     id="path39"
     style="stroke-width:8;stroke-dasharray:none" />
  <path
     d="m 316.40685,736.08494 c 1,-1.33 3.76315,-4.9159 5.59315,-8.7459 1.83,-3.83 3.83,-5.00904 5,-15.33904 1.17,-10.33 0.17,-36.67 2,-47 1.83,-10.33 6,-12.17 9,-15 3,-2.83 7,-2.17 9,-2 2,0.17 1.83,-0.17 3,3 1.17,3.17 3.33,12.33 4,16 0.67,3.67 1,2.67 0,6 -1,3.33 -5,9.5 -6,14 -1,4.5 -1.5,11.5 0,13 1.5,1.5 3.17,1.67 9,-4 5.83,-5.67 19.67,-25.33 26,-30 6.33,-4.67 7.5,3.83 12,2 4.5,-1.83 11,-10.83 15,-13 4,-2.17 6.5,-0.83 9,0 2.5,0.83 4.83,2.5 6,5 1.17,2.5 3.83,6.17 1,10 -2.83,3.83 -15,9.17 -18,13 -3,3.83 0.5,7.67 0,10 -0.5,2.33 2.33,2 -3,4 -5.33,2 -19.67,4.5 -29,8 -9.33,3.5 -22.5,10.83 -27,13"
     fill="none"
     stroke="#000000"
     stroke-width="8.00"
     stroke-linecap="round"
     stroke-linejoin="round"
     id="path40"
     style="stroke-width:8;stroke-dasharray:none"
     sodipodi:nodetypes="csssssssssssssssssssssc" />
  <path
     d="M 315.89864,737.01642 C 313.72864,740.01642 306.83,749.5 303,753 c -3.83,3.5 -9.33,7.33 -12,8 -2.67,0.67 -3.5,-1.5 -4,-4 -0.5,-2.5 -2.5,-6.67 1,-11 3.5,-4.33 14.97478,-11.56781 18.30478,-15.06781 3.33,-3.5 2.36522,-4.10219 1.69522,-5.93219 -0.67,-1.83 -3.33,-2.67 -4,-5 -0.67,-2.33 -0.67,-5.5 0,-9 0.67,-3.5 3.33,-7.83 4,-12 0.67,-4.17 0.83,-10.5 0,-13 -0.83,-2.5 -3,-2.33 -5,-2 -2,0.33 -4.17,0.67 -7,4 -2.83,3.33 -6.33,13 -10,16 -3.67,3 -9.17,0.67 -12,2 -2.83,1.33 -4.17,1.17 -5,6 -0.83,4.83 1.17,18.17 0,23 -1.17,4.83 -5.67,4.33 -7,6 -1.33,1.67 -1,-1 -1,4 0,5 0.33,20.67 1,26 0.67,5.33 2.5,5 3,6"
     fill="none"
     stroke="#000000"
     stroke-width="8.00"
     stroke-linecap="round"
     stroke-linejoin="round"
     id="path41"
     style="stroke-width:8;stroke-dasharray:none"
     sodipodi:nodetypes="csssssssssssssssssssc" />
  <path
     d="m 208.0521,827.96574 c -2.22864,2.84809 -3.84114,3.41509 -9.0521,9.8808 -2.11946,2.6298 1,6.82346 3,7.15346 2,0.33 4.5,1 9,0 4.5,-1 11.83,-5 18,-6 6.17,-1 13.33,0.83 19,0 5.67,-0.83 10.5,-4.17 15,-5 4.5,-0.83 9.33,-0.67 12,0 2.67,0.67 0.17,3.5 4,4 3.83,0.5 14.67,-2 19,-1 4.33,1 2.67,5.33 7,7 4.33,1.67 15.5,1.67 19,3 3.5,1.33 2.33,3.17 2,5 -0.33,1.83 -0.17,4.17 -4,6 -3.83,1.83 -15.17,3.33 -19,5 -3.83,1.67 0.33,4.17 -4,5 -4.33,0.83 -17.67,-0.5 -22,0 -4.33,0.5 -1.5,2.83 -4,3 -2.5,0.17 -6.5,-0.33 -11,-2 -4.5,-1.67 -12.67,-6.67 -16,-8 -3.33,-1.33 -3,-0.5 -4,0 -1,0.5 0,2.5 -2,3 -2,0.5 -5.33,0.5 -10,0 -4.67,-0.5 -11.83,-2.5 -18,-3 -6.17,-0.5 -15.17,0.67 -19,0 -3.83,-0.67 -4.1437,-6.04235 -4.8137,-6.71235"
     fill="none"
     stroke="#000000"
     stroke-width="8.00"
     stroke-linecap="round"
     stroke-linejoin="round"
     id="path42"
     style="stroke-width:8;stroke-dasharray:none"
     sodipodi:nodetypes="cssssssssssssssssssssssssc" />
  <path
     d="m 198.59315,838.52463 c -1.33,1 -6.03968,6.50141 -7.86438,8.71234 C 185.05654,854.10983 179.24604,860.70772 176.22056,864 170.55056,870.17 161,887.33 155,894 c -6,6.67 -13.33,8.33 -16,10"
     fill="none"
     stroke="#000000"
     stroke-width="14.14"
     stroke-linecap="round"
     stroke-linejoin="round"
     id="path43"
     style="stroke-width:8;stroke-dasharray:none"
     sodipodi:nodetypes="csssc" />
</svg>
