<?xml version="1.0" encoding="UTF-8" standalone="no"?>
<svg
   viewBox="0 0 129 367"
   width="129"
   height="367"
   version="1.1"
   id="svg9"
   sodipodi:docname="december_center_right.svg"
   inkscape:version="1.4.2 (f4327f4, 2025-05-13)"
   xmlns:inkscape="http://www.inkscape.org/namespaces/inkscape"
   xmlns:sodipodi="http://sodipodi.sourceforge.net/DTD/sodipodi-0.dtd"
   xmlns="http://www.w3.org/2000/svg"
   xmlns:svg="http://www.w3.org/2000/svg">
  <defs
     id="defs9" />
  <sodipodi:namedview
     id="namedview9"
     pagecolor="#ffffff"
     bordercolor="#000000"
     borderopacity="0.25"
     inkscape:showpageshadow="2"
     inkscape:pageopacity="0.0"
     inkscape:pagecheckerboard="0"
     inkscape:deskcolor="#d1d1d1"
     inkscape:zoom="0.77743213"
     inkscape:cx="11.576573"
     inkscape:cy="-15.435431"
     inkscape:window-width="1127"
     inkscape:window-height="1032"
     inkscape:window-x="679"
     inkscape:window-y="0"
     inkscape:window-maximized="0"
     inkscape:current-layer="svg9" />
  <path
     d="m 110.02893,24 c -3.33,3.5 -15.000004,14.67 -20.000004,21 -5,6.33 -12.836912,17.479447 -15.506912,20.979447"
     fill="none"
     stroke="#000000"
     stroke-width="4.47"
     stroke-linecap="round"
     stroke-linejoin="round"
     id="path1"
     style="stroke-width:3;stroke-dasharray:none"
     sodipodi:nodetypes="csc" />
  <path
     d="m 124.02893,33 c -0.5,-0.17 -2.83,3.33 -3,-1 -0.17,-4.33 2.83,-21.33 2,-25 -0.83,-3.67 -3.33,2.5 -7,3 -3.67,0.5 -11.83,-1.67 -15,0 -3.170004,1.67 -1.670004,7.33 -4.000004,10 -2.33,2.67 -8.5,2.33 -10,6 -1.5,3.67 0.17,12.67 1,16 0.83,3.33 3.67,3.33 4,4 0.33,0.67 -2.33,-0.17 -2,0 0.33,0.17 0.33,0.67 4,1 3.67,0.33 14.670004,2.67 18.000004,1 3.33,-1.67 1,-8.5 2,-11 1,-2.5 2.5,-3.17 4,-4 1.5,-0.83 4.17,-0.83 5,-1"
     fill="none"
     stroke="#000000"
     stroke-width="2.00"
     stroke-linecap="round"
     stroke-linejoin="round"
     id="path2"
     style="stroke-width:3;stroke-dasharray:none"
     sodipodi:nodetypes="csssssssssssssc" />
  <path
     d="m 84.865147,51.633894 c -0.658387,-1.288927 -0.692146,-1.397804 0.217142,-2.332759 1.099079,-1.130103 1.589284,-0.660129 2.141518,-0.317532 0.738484,0.458144 1.666715,0.360049 1.872079,1.791324 0.169407,1.180679 -0.323482,1.671614 -1.631154,1.941663 -0.982835,0.202966 -2.257836,-1.380207 -2.491123,-0.999584 -0.847801,1.383238 -7.530852,11.123507 -5.943115,8.366867 1.896424,-3.292584 4.73502,-3.067189 6.340605,-1.633131 1.429017,1.276353 0.217835,2.53671 -1.518231,3.449895 -2.566139,1.34981 -6.001659,-0.806746 -6.039581,-1.322983 -0.07584,-1.032473 -1.302595,-1.084951 -1.019181,-2.239797 0.606121,-2.469795 0.782205,-7.022126 -2.451246,-7.210989 -2.079771,-0.121477 -3.748989,1.760715 -1.785912,5.940779 2.045759,4.356122 4.398867,4.967887 2.351389,8.334317 -1.806744,2.970619 -13.206983,16.438673 -11.718625,16.482358 5.55733,0.163114 12.071964,0.383714 14.401964,0.713714"
     fill="none"
     stroke="#000000"
     stroke-width="5.06"
     stroke-linecap="round"
     stroke-linejoin="round"
     id="path3"
     style="stroke-width:3;stroke-dasharray:none"
     sodipodi:nodetypes="cssssssssssssssc" />
  <path
     d="m 63.511283,81 c -4.33,6.5 -22.488194,33.05849 -26.160786,39.80393 -3.874499,7.11628 -3.612243,-0.86253 -4.321571,-4.80393 -0.848429,-4.71432 -2.312357,-15.27646 -3,-19 -0.584779,-3.166533 -1.03034,-1.836835 -4.08039,-1.652965 -4.29817,0.259112 -6.81852,0.358156 -9.51765,-2.025464 C 14.519886,91.633951 16.858926,83.5 15.028926,80 c -1.83,-3.5 -9.5000001,-5.33 -10.0000001,-8 -0.5,-2.67 5.6700001,-5.33 7.0000001,-8 1.33,-2.67 -0.67,-7.67 1,-8 1.67,-0.33 6.33,5.17 9,6 2.67,0.83 5.5,-3 7,-1 1.5,2 0.5,10.17 2,13 1.5,2.83 5.5,2.67 7,4 1.5,1.33 3.246076,3.490778 1.678429,5.849036 -10.281016,15.466032 -9.403303,16.132989 -13.507819,-3.929428"
     fill="none"
     stroke="#000000"
     stroke-width="2.00"
     stroke-linecap="round"
     stroke-linejoin="round"
     id="path4"
     style="stroke-width:3;stroke-dasharray:none"
     sodipodi:nodetypes="cssssssssssssssc" />
  <path
     d="m 67.450085,127.68216 c -3.92062,0.39738 -16.20593,3.80692 -17.87593,2.13692 -1.67,-1.67 3.784771,-11.48908 6.454771,-12.81908 2.67,-1.33 7.33,3.5 10,3 2.67,-0.5 3.5,-5.5 6,-6 2.5,-0.5 6.17,1.33 9,3 2.83,1.67 8.33,4.67 8,7 -0.33,2.33 -8,4.33 -10,7 -2,2.67 0.5,8 -2,9 -2.5,1 -9.33,-3.17 -13,-3 -3.67,0.17 -6.17,4.83 -9,4 -2.83,-0.83 -4.47228,-10.98754 -7.772615,-10.5917 -6.652488,0.7979 -6.593677,0.96652 -15.682156,3.13693"
     fill="none"
     stroke="#000000"
     stroke-width="2.00"
     stroke-linecap="round"
     stroke-linejoin="round"
     id="path5"
     style="stroke-width:3;stroke-dasharray:none"
     sodipodi:nodetypes="csssssssssssc" />
  <path
     d="m 33.028926,362 c -2,-4.83 -8.67,-19.17 -12,-29 -3.33,-9.83 -6,-21.17 -8,-30 -2,-8.83 -3,-12.83 -4.0000001,-23 -1,-10.17 -2.17,-24.83 -2,-38 0.17,-13.17 0.67,-27.17 3.0000001,-41 2.33,-13.83 6.83,-29.67 11,-42 4.17,-12.33 11.5,-29.67121 15.1255,-36.18043"
     fill="none"
     stroke="#000000"
     stroke-width="4.00"
     stroke-linecap="round"
     stroke-linejoin="round"
     id="path6"
     style="stroke-width:3;stroke-dasharray:none"
     sodipodi:nodetypes="cssssssc" />
  <path
     d="m 120.02893,85 c -1.67,-2.33 -6.17,-12.17 -10,-14 -3.83,-1.83 -9.83,3.5 -13.000004,3 -3.17,-0.5 -3.5,-6.67 -6,-6 -2.5,0.67 -11.368072,10.965322 -12.698072,13.135322 -1.33,2.17 12.843823,0.48175 12.013823,1.31175 -0.83,0.83 -13.253001,-1.536679 -12.753001,0.633321 0.5,2.17 5.10725,9.589607 8.43725,10.919607 3.33,1.33 7.83,-3.17 11,-3 3.170004,0.17 4.170004,5.17 8.000004,4 3.83,-1.17 12.5,-9.17 15,-11"
     fill="none"
     stroke="#000000"
     stroke-width="2.00"
     stroke-linecap="round"
     stroke-linejoin="round"
     id="path7"
     style="stroke-width:3;stroke-dasharray:none"
     sodipodi:nodetypes="csssssssssc" />
  <path
     d="m 30.028926,94 v 3"
     fill="none"
     stroke="#000000"
     stroke-width="4.00"
     stroke-linecap="round"
     stroke-linejoin="round"
     id="path8"
     style="stroke-width:3;stroke-dasharray:none"
     sodipodi:nodetypes="cc" />
</svg>
