<?xml version="1.0" encoding="UTF-8" standalone="no"?>
<svg
   viewBox="0 0 134 367"
   width="134"
   height="367"
   version="1.1"
   id="svg10"
   sodipodi:docname="december_right.svg"
   inkscape:version="1.4.2 (f4327f4, 2025-05-13)"
   xmlns:inkscape="http://www.inkscape.org/namespaces/inkscape"
   xmlns:sodipodi="http://sodipodi.sourceforge.net/DTD/sodipodi-0.dtd"
   xmlns="http://www.w3.org/2000/svg"
   xmlns:svg="http://www.w3.org/2000/svg">
  <defs
     id="defs10" />
  <sodipodi:namedview
     id="namedview10"
     pagecolor="#ffffff"
     bordercolor="#000000"
     borderopacity="0.25"
     inkscape:showpageshadow="2"
     inkscape:pageopacity="0.0"
     inkscape:pagecheckerboard="0"
     inkscape:deskcolor="#d1d1d1"
     inkscape:zoom="3.1097285"
     inkscape:cx="25.564933"
     inkscape:cy="125.57367"
     inkscape:window-width="1920"
     inkscape:window-height="1009"
     inkscape:window-x="-8"
     inkscape:window-y="-8"
     inkscape:window-maximized="1"
     inkscape:current-layer="svg10" />
  <path
     d="m 114.07057,22.43725 c -2.17,2 -6.419,7.384321 -10.749,12.884321 -4.329999,5.5 -10.273383,13.467746 -14.161655,18.493538 -3.554518,4.594397 -5.62112,7.589168 -7.728378,9.673274 -1.900611,1.879728 -0.646766,1.670539 -1.976766,1.170539 C 78.124771,64.158922 74.67,62.5 74,61 c -0.67,-1.5 0.83,-4.17 1,-5"
     fill="none"
     stroke="#000000"
     stroke-width="4.47"
     stroke-linecap="round"
     stroke-linejoin="round"
     id="path1"
     style="stroke-width:4;stroke-dasharray:none"
     sodipodi:nodetypes="csssssc" />
  <path
     d="m 69.08412,78.899542 c -1.113693,1.511617 -2.396599,2.745133 -6.066599,8.415133 -3.67,5.67 -13.597914,21.863755 -17.097914,27.363755 -3.5,5.5 -2.383714,5.23196 -3.713714,5.40196 C 40.875893,120.25039 39,119.83 38,116 c -1,-3.83 -1.83,-16 -3,-19 -1.17,-3 -2,1.33 -4,1 -2,-0.33 -6.33,-2.17 -8,-3 -1.67,-0.83 -1.5,0.33 -2,-2 -0.5,-2.33 0.83,-8.5 -1,-12 -1.83,-3.5 -9.33,-6.33 -10,-9 -0.67,-2.67 4.67,-4.33 6,-7 1.33,-2.67 0.17,-8.5 2,-9 1.83,-0.5 6.5,5.17 9,6 2.5,0.83 4.5,-3 6,-1 1.5,2 1.17,10 3,13 1.83,3 6.5,3.67 8,5 1.5,1.33 2.5,0.67 1,3 -1.5,2.33 -7.33,11.33 -10,11 -2.67,-0.33 -5,-10.83 -6,-13"
     fill="none"
     stroke="#000000"
     stroke-width="2.00"
     stroke-linecap="round"
     stroke-linejoin="round"
     id="path2"
     style="stroke-width:4;stroke-dasharray:none"
     sodipodi:nodetypes="cssssssssssssssssssc" />
  <path
     d="m 80.080081,65.056846 c -1.83,2.67 -9.965688,12.033073 -12.534852,15.829461 C 65.948375,83.245938 78.5,81.5 81,82 c 2.5,0.5 1.33,2.17 2,2 0.67,-0.17 1.17,-2.5 2,-3 0.83,-0.5 2.67,0.5 3,0 0.33,-0.5 -2.33,-0.83 -1,-3 1.33,-2.17 6.5,-9.33 9,-10 2.5,-0.67 2.83,5.5 6,6 3.17,0.5 9.17,-4.83 13,-3 3.83,1.83 11,10 10,14 -1,4 -12.17,9 -16,10 -3.83,1 -4,-3.83 -7,-4 -3,-0.17 -7.67,4.33 -11,3 -3.33,-1.33 -7.5,-9.17 -9,-11"
     fill="none"
     stroke="#000000"
     stroke-width="2.00"
     stroke-linecap="round"
     stroke-linejoin="round"
     id="path3"
     style="stroke-width:4;stroke-dasharray:none"
     sodipodi:nodetypes="csssssssssssssc" />
  <path
     d="M71.00,127.00 C68.33,127.33 56.83,130.83 55.00,129.00 C53.17,127.17 57.33,117.50 60.00,116.00 C62.67,114.50 68.33,120.33 71.00,120.00 C73.67,119.67 74.50,115.00 76.00,114.00 C77.50,113.00 77.00,112.33 80.00,114.00 C83.00,115.67 93.50,121.00 94.00,124.00 C94.50,127.00 85.33,129.50 83.00,132.00 C80.67,134.50 82.33,138.17 80.00,139.00 C77.67,139.83 72.33,136.67 69.00,137.00 C65.67,137.33 62.83,141.83 60.00,141.00 C57.17,140.17 53.33,133.50 52.00,132.00"
     fill="none"
     stroke="black"
     stroke-width="2.00"
     stroke-linecap="round"
     stroke-linejoin="round"
     id="path4"
     style="stroke-width:4;stroke-dasharray:none" />
  <path
     d="m 30,184 c -1.83,1.17 -13.934015,14.36679 -15.434015,13.36679 -1.5,-1 3.623023,-18.15906 4.728625,-20.95849 C 20.278135,173.91798 25.83,178.67 28,177 c 2.17,-1.67 2.83,-7 6,-9 3.17,-2 10.67,-5.33 13,-3 2.33,2.33 1.67,14.17 1,17 -0.67,2.83 -3.5,-0.67 -5,0 -1.5,0.67 -3,1.5 -4,4 -1,2.5 -0.17,9.33 -2,11 -1.83,1.67 -4.83,-1.67 -9,-1 -4.17,0.67 -18.4785959,4.11503 -18.7987749,2.37246 -0.4469803,-2.4327 5.6661179,-0.003 4.7654759,1.99819 -0.744367,1.65434 -1.154952,16.6205 -1.654952,19.2905 -0.5,2.67 -5.6122253,0.92573 -5.4973,-0.41015 0.089607,-1.04159 6.297551,-0.032 5.291019,2.44447 -0.943495,2.32136 -0.721365,23.30132 -0.90299,26.48586 -0.209761,3.67786 4.783307,-4.87542 4.783307,-0.37542 0,2.44819 -4.116453,-0.16279 -4.710715,1.17505 C 10.777021,250.10222 11.772021,255.12435 12,259 c 0.5,8.5 1.713714,29.31314 3.713714,40.64314 2,11.33 3.5,19.10786 7,29.60786 C 26.213714,339.751 35.67,356.17 38,362"
     fill="none"
     stroke="#000000"
     stroke-width="4.00"
     stroke-linecap="round"
     stroke-linejoin="round"
     id="path5"
     style="stroke-width:4;stroke-dasharray:none"
     sodipodi:nodetypes="csssssssssssssssssssssc" />
  <path
     d="M98.00,46.00 C97.50,46.00 95.83,46.50 95.00,46.00 C94.17,45.50 93.50,46.33 93.00,43.00 C92.50,39.67 90.67,29.67 92.00,26.00 C93.33,22.33 98.67,23.67 101.00,21.00 C103.33,18.33 102.67,11.83 106.00,10.00 C109.33,8.17 117.33,10.50 121.00,10.00 C124.67,9.50 127.17,4.83 128.00,7.00 C128.83,9.17 126.00,18.83 126.00,23.00 C126.00,27.17 129.17,29.83 128.00,32.00 C126.83,34.17 120.83,33.17 119.00,36.00 C117.17,38.83 117.33,47.17 117.00,49.00 C116.67,50.83 120.33,47.50 117.00,47.00 C113.67,46.50 100.33,46.17 97.00,46.00"
     fill="none"
     stroke="black"
     stroke-width="2.00"
     stroke-linecap="round"
     stroke-linejoin="round"
     id="path6"
     style="stroke-width:4;stroke-dasharray:none" />
  <path
     d="M35.00,94.00 L35.00,97.00"
     fill="none"
     stroke="black"
     stroke-width="4.00"
     stroke-linecap="round"
     stroke-linejoin="round"
     id="path7"
     style="stroke-width:4;stroke-dasharray:none" />
  <path
     d="m 43.009822,119.67843 c -1.705893,3.14314 -5.544625,12.59092 -6.939251,15 C 34.633581,137.16068 50.5,131.33 53,131 c 2.5,-0.33 -0.5,2.33 0,2 0.5,-0.33 2.5,-3.33 3,-4"
     fill="none"
     stroke="#000000"
     stroke-width="4.00"
     stroke-linecap="round"
     stroke-linejoin="round"
     id="path8"
     style="stroke-width:4;stroke-dasharray:none"
     sodipodi:nodetypes="csssc" />
  <path
     d="M 36.598036,133.51764 C 34.768036,137.51764 28.67,150.67 26,158 c -2.67,7.33 -5.978005,15.192 -6.478005,18.522"
     fill="none"
     stroke="#000000"
     stroke-width="4.00"
     stroke-linecap="round"
     stroke-linejoin="round"
     id="path9"
     style="stroke-width:4;stroke-dasharray:none"
     sodipodi:nodetypes="csc" />
</svg>
