<?xml version="1.0" encoding="UTF-8" standalone="no"?>
<svg
   viewBox="0 0 136 368"
   width="136"
   height="368"
   version="1.1"
   id="svg10"
   sodipodi:docname="december_left.svg"
   inkscape:version="1.4.2 (f4327f4, 2025-05-13)"
   xmlns:inkscape="http://www.inkscape.org/namespaces/inkscape"
   xmlns:sodipodi="http://sodipodi.sourceforge.net/DTD/sodipodi-0.dtd"
   xmlns="http://www.w3.org/2000/svg"
   xmlns:svg="http://www.w3.org/2000/svg">
  <defs
     id="defs10" />
  <sodipodi:namedview
     id="namedview10"
     pagecolor="#ffffff"
     bordercolor="#000000"
     borderopacity="0.25"
     inkscape:showpageshadow="2"
     inkscape:pageopacity="0.0"
     inkscape:pagecheckerboard="0"
     inkscape:deskcolor="#d1d1d1"
     inkscape:zoom="1.5506391"
     inkscape:cx="29.020293"
     inkscape:cy="143.16678"
     inkscape:window-width="1127"
     inkscape:window-height="1032"
     inkscape:window-x="182"
     inkscape:window-y="0"
     inkscape:window-maximized="0"
     inkscape:current-layer="svg10" />
  <path
     d="m 19,24 c 3.33,3.5 15,14.67 20,21 5,6.33 12.864358,17.219403 15.534358,20.719403"
     fill="none"
     stroke="#000000"
     stroke-width="4.47"
     stroke-linecap="round"
     stroke-linejoin="round"
     id="path1"
     style="stroke-width:3;stroke-dasharray:none"
     sodipodi:nodetypes="csc" />
  <path
     d="M 5,33 C 5.5,32.83 7.83,36.33 8,32 8.17,27.67 5.17,10.67 6,7 c 0.83,-3.67 3.33,2.5 7,3 3.67,0.5 11.83,-1.67 15,0 3.17,1.67 1.67,7.33 4,10 2.33,2.67 8.5,2.33 10,6 1.5,3.67 -0.17,12.67 -1,16 -0.83,3.33 -3.67,3.33 -4,4 -0.33,0.67 2.33,-0.17 2,0 -0.33,0.17 -0.33,0.67 -4,1 -3.67,0.33 -14.67,2.67 -18,1 C 13.67,46.33 16,39.5 15,37 14,34.5 12.5,33.83 11,33 9.5,32.17 6.83,32.17 6,32"
     fill="none"
     stroke="#000000"
     stroke-width="2.00"
     stroke-linecap="round"
     stroke-linejoin="round"
     id="path2"
     style="stroke-width:3;stroke-dasharray:none"
     sodipodi:nodetypes="csssssssssssssc" />
  <path
     d="M 53.631518,64.429988 C 57.823587,70.040037 64.296329,78.241836 66.20153,81 67.916844,83.483263 54.33,82.67 52,83"
     fill="none"
     stroke="#000000"
     stroke-width="5.06"
     stroke-linecap="round"
     stroke-linejoin="round"
     id="path3"
     style="stroke-width:3;stroke-dasharray:none"
     sodipodi:nodetypes="csc" />
  <path
     d="m 65.959694,80.677552 c 4.33,6.5 23.194844,32.671248 26.610318,39.550448 3.403966,6.85603 1.233966,0.17201 2.403966,-3.65799 1.17,-3.83 3.835275,-19.344569 4.824039,-21.622055 1.788623,-4.119858 12.375773,0.587058 13.771993,-2.004956 C 114.77908,90.698418 112.17,83.5 114,80 c 1.83,-3.5 9.5,-5.33 10,-8 0.5,-2.67 -5.67,-5.33 -7,-8 -1.33,-2.67 0.67,-7.67 -1,-8 -1.67,-0.33 -6.33,5.17 -9,6 -2.67,0.83 -5.5,-3 -7,-1 -1.5,2 -0.5,10.17 -2,13 -1.5,2.83 -5.5,2.67 -7,4 -1.5,1.33 -3.215998,0.872986 -1.885998,3.372986 1.33,2.5 10.670453,14.323343 11.425028,11.741016 0.84596,-2.895056 3.06196,-9.974981 4.06196,-12.144981"
     fill="none"
     stroke="#000000"
     stroke-width="2.00"
     stroke-linecap="round"
     stroke-linejoin="round"
     id="path4"
     style="stroke-width:3;stroke-dasharray:none"
     sodipodi:nodetypes="cssssssssssssssc" />
  <path
     d="m 63,127 c 3.795577,0.21255 12.642983,1.32499 16.741016,2.08302 C 82.063357,129.5126 75.67,118.33 73,117 c -2.67,-1.33 -7.33,3.5 -10,3 -2.67,-0.5 -3.5,-5.5 -6,-6 -2.5,-0.5 -6.17,1.33 -9,3 -2.83,1.67 -8.33,4.67 -8,7 0.33,2.33 8,4.33 10,7 2,2.67 -0.5,8 2,9 2.5,1 9.33,-3.17 13,-3 3.67,0.17 7.568893,4.82306 9.855019,2.80297 4.477414,-3.95637 3.772031,-11.05893 5.916976,-10.45105 3,1 14.570012,2.98799 17.254027,5.21809 2.361788,1.96237 -4.014015,-11.24597 -4.684015,-13.74597"
     fill="none"
     stroke="#000000"
     stroke-width="2.00"
     stroke-linecap="round"
     stroke-linejoin="round"
     id="path5"
     style="stroke-width:3;stroke-dasharray:none"
     sodipodi:nodetypes="cssssssssssssc" />
  <path
     d="m 104,184 c 1.67,1.17 12.91395,10.92737 13.85722,13.27389 0.68549,1.70526 -0.80747,-6.11337 -1.59507,-8.91179 -0.82953,-2.94744 -2.56509,-9.63309 -3.06509,-10.96309"
     fill="none"
     stroke="#000000"
     stroke-width="4.00"
     stroke-linecap="round"
     stroke-linejoin="round"
     id="path6"
     style="stroke-width:3;stroke-dasharray:none"
     sodipodi:nodetypes="cssc" />
  <path
     d="m 96,362 c 2.5,-6.5 11,-25.33 15,-39 4,-13.67 7.33211,-31.49969 9,-43 1.67,-11.51489 0.89589,-26.73277 1.12092,-31.09016 0.1904,-3.68697 -6.98913,-4.15313 -6.72474,-0.0914 0.14482,2.22498 6.65227,5.75501 6.73941,-1.23357 0.0459,-3.68452 -0.62797,-22.14259 -0.66934,-26.17352 -0.0269,-2.62128 -1.98633,1.96375 -4.54659,2.15985 -2.4936,0.191 -3.67597,-2.02277 -2.86968,-3.64153 0.8116,-1.62941 3.10473,-1.8149 6.87988,-0.44796 3.83337,1.38802 8.08546,1.18761 8.32102,-1.50548 0.23037,-2.63369 -1.74274,-3.81152 -4.17803,-3.09516 -3.06332,0.9011 -3.69026,5.281 -3.7101,3.92294 -0.044,-3.01196 -1.35262,-19.0212 -1.24948,-21.18971 0.15535,-3.26631 5.27603,-5.39294 6.01924,-1.5264 0.97885,5.09248 -2.97133,3.95315 -5.67723,2.7544 -0.9628,-0.42653 -1.64644,-3.6002 -2.31644,-4.1002"
     fill="none"
     stroke="#000000"
     stroke-width="4.00"
     stroke-linecap="round"
     stroke-linejoin="round"
     id="path7"
     style="stroke-width:3;stroke-dasharray:none"
     sodipodi:nodetypes="csssssssssssssssc" />
  <path
     d="M 9.0806119,83.629597 C 10.750612,81.299597 15.17,72.83 19,71 c 3.83,-1.83 9.83,3.5 13,3 3.17,-0.5 3.5,-6.67 6,-6 2.5,0.67 15.587773,12.512243 13.675492,14.19182 C 50.62744,83.112335 35.989594,82.639804 37.01177,83.216828 37.196875,83.321321 49.874986,82.334257 52,83 c 1.39438,0.436844 -5.67,9.67 -9,11 -3.33,1.33 -7.83,-3.17 -11,-3 -3.17,0.17 -4.17,5.17 -8,4 C 20.17,93.83 11.5,85.83 9,84"
     fill="none"
     stroke="#000000"
     stroke-width="2.00"
     stroke-linecap="round"
     stroke-linejoin="round"
     id="path8"
     style="stroke-width:3;stroke-dasharray:none"
     sodipodi:nodetypes="csssssssssc" />
  <path
     d="m 98.140025,133.54399 c 1.83,4 7.133655,16.63256 9.633655,23.96256 2.5,7.33 4.79533,17.33445 5.65135,20.49345 0.87209,3.21827 -3.79802,1.841 -5.79802,0.171 -2,-1.67 -4.79701,-8.001 -7.62701,-10.171 -2.83,-2.17 -7.67,-2.67 -10,-3 -2.33,-0.33 -3.33,1.17 -4,1 -0.67,-0.17 0.17,-4.33 0,-2 -0.17,2.33 -2.33,12.5 -1,16 1.33,3.5 7,2.17 9,5 2,2.83 1,10.17 3,12 2,1.83 6.67,-1.33 9,-1 2.33,0.33 3.17,2.5 5,3 1.83,0.5 6.12802,0.81599 6.79802,-0.68401 0.67,-1.5 -1.2376,-8.48571 -1.5676,-9.98571"
     fill="none"
     stroke="#000000"
     stroke-width="4.00"
     stroke-linecap="round"
     stroke-linejoin="round"
     id="path10"
     style="stroke-width:3;stroke-dasharray:none"
     sodipodi:nodetypes="csssssssssssssc" />
  <path
     d="m 44.116558,51.537102 c 0.658387,-1.28892 0.692146,-1.3978 -0.217142,-2.33276 -1.099079,-1.1301 -1.589284,-0.66012 -2.141518,-0.31753 -0.738484,0.45815 -1.666715,0.36005 -1.872079,1.79133 -0.169407,1.18068 0.323482,1.67161 1.631154,1.94166 0.982835,0.20297 2.257836,-1.38021 2.491123,-0.99958 0.847801,1.38323 7.530852,11.1235 5.943115,8.36686 -1.896424,-3.29258 -4.73502,-3.06719 -6.340605,-1.63313 -1.429017,1.27635 -0.217835,2.53671 1.518231,3.4499 2.566139,1.34981 6.001659,-0.80675 6.039581,-1.32299 0.07584,-1.03247 1.302595,-1.08495 1.019181,-2.23979 -0.606121,-2.4698 -0.782205,-7.02213 2.451246,-7.21099 2.079771,-0.12148 3.748989,1.76071 1.785912,5.94078 -2.045759,4.35612 -4.479479,4.726044 -2.432001,8.092474"
     style="fill:none;stroke:#000000;stroke-width:3;stroke-linecap:round;stroke-linejoin:round;stroke-dasharray:none"
     id="path1-0"
     sodipodi:nodetypes="cssssssssssssc" />
</svg>
