<?xml version="1.0" encoding="UTF-8" standalone="no"?>
<svg
   viewBox="0 0 173 376"
   width="173"
   height="376"
   version="1.1"
   id="svg15"
   sodipodi:docname="december_center_left.svg"
   inkscape:version="1.4.2 (f4327f4, 2025-05-13)"
   xmlns:inkscape="http://www.inkscape.org/namespaces/inkscape"
   xmlns:sodipodi="http://sodipodi.sourceforge.net/DTD/sodipodi-0.dtd"
   xmlns="http://www.w3.org/2000/svg"
   xmlns:svg="http://www.w3.org/2000/svg">
  <defs
     id="defs15" />
  <sodipodi:namedview
     id="namedview15"
     pagecolor="#ffffff"
     bordercolor="#000000"
     borderopacity="0.25"
     inkscape:showpageshadow="2"
     inkscape:pageopacity="0.0"
     inkscape:pagecheckerboard="0"
     inkscape:deskcolor="#d1d1d1"
     inkscape:zoom="1.5176467"
     inkscape:cx="-132.11243"
     inkscape:cy="176.91864"
     inkscape:window-width="1920"
     inkscape:window-height="1009"
     inkscape:window-x="-8"
     inkscape:window-y="-8"
     inkscape:window-maximized="1"
     inkscape:current-layer="svg15" />
  <path
     d="m 67.87192,155.49566 c -1.39777,3.3637 -2.9409,7.88314 -3.96034,11.27138 -0.97866,3.25269 -3.28117,12.68118 -3.78117,15.35118"
     fill="none"
     stroke="#000000"
     stroke-width="4.00"
     stroke-linecap="round"
     stroke-linejoin="round"
     id="path14"
     style="stroke-width:3;stroke-dasharray:none"
     sodipodi:nodetypes="csc" />
  <path
     d="m 153.3775,29 c -3.33,3.5 -15,14.67 -20,21 -5,6.33 -7.82419,11.523255 -10.49419,15.023255 -2.67,3.5 -4.91763,5.883296 -5.91763,7.294575"
     fill="none"
     stroke="#000000"
     stroke-width="4.47"
     stroke-linecap="round"
     stroke-linejoin="round"
     id="path1"
     style="stroke-width:3;stroke-dasharray:none"
     sodipodi:nodetypes="cssc" />
  <path
     d="m 167.3775,38 c -0.5,-0.17 -2.83,3.33 -3,-1 -0.17,-4.33 2.83,-21.33 2,-25 -0.83,-3.67 -3.33,2.5 -7,3 -3.67,0.5 -11.83,-1.67 -15,0 -3.17,1.67 -1.67,7.33 -4,10 -2.33,2.67 -8.5,2.33 -10,6 -1.5,3.67 0.17,12.67 1,16 0.83,3.33 3.67,3.33 4,4 0.33,0.67 -2.33,-0.17 -2,0 0.33,0.17 0.33,0.67 4,1 3.67,0.33 14.67,2.67 18,1 3.33,-1.67 1,-8.5 2,-11 1,-2.5 2.5,-3.17 4,-4 1.5,-0.83 4.17,-0.83 5,-1"
     fill="none"
     stroke="#000000"
     stroke-width="2.00"
     stroke-linecap="round"
     stroke-linejoin="round"
     id="path2"
     style="stroke-width:3;stroke-dasharray:none" />
  <path
     d="M 118.54223,70.411822 C 115.64785,73.824186 107.93801,83.30371 106.3775,86 c -1.76731,3.0536 12.57601,1.093449 14.90601,1.423449"
     fill="none"
     stroke="#000000"
     stroke-width="5.06"
     stroke-linecap="round"
     stroke-linejoin="round"
     id="path3"
     style="stroke-width:3;stroke-dasharray:none"
     sodipodi:nodetypes="csc" />
  <path
     d="m 106.3775,86 c -4.33,6.5 -22.19772,32.09384 -26,38.76704 -4.184634,7.34425 -0.676735,1.74796 -1.670384,-2.48575 -1.222323,-5.20804 -4.077256,-19.3404 -5.247256,-22.340399 -1.17,-3 -3.19428,2.400739 -5.19428,2.070739 -2,-0.33 -5.21808,-1.18163 -6.88808,-2.01163 -1.67,-0.83 -1.5,0.5 -2,-2 -0.5,-2.5 0.83,-9.5 -1,-13 -1.83,-3.5 -9.5,-5.33 -10,-8 -0.5,-2.67 5.67,-5.33 7,-8 1.33,-2.67 -0.67,-7.67 1,-8 1.67,-0.33 6.33,5.17 9,6 2.67,0.83 5.5,-3 7,-1 1.5,2 0.5,10.17 2,13 1.5,2.83 5.5,2.67 7,4 1.5,1.33 3.33,1.5 2,4 -1.33,2.5 -8.98045,13.22405 -10.49419,11 -1.51193,-2.221401 -4.4948,-10.526884 -6,-13"
     fill="none"
     stroke="#000000"
     stroke-width="2.00"
     stroke-linecap="round"
     stroke-linejoin="round"
     id="path4"
     style="stroke-width:3;stroke-dasharray:none"
     sodipodi:nodetypes="cssssssssssssssssc" />
  <path
     d="M 21.09373,113.13631 C 20.76373,113.30631 8.5475,115.5 8.3775,116 c -0.17,0.5 -1.17,-1.33 1,2 2.17,3.33 8.83,15.17 12,18 3.17,2.83 4.67,-2 7,-1 2.33,1 4.17,7.33 7,7 2.83,-0.33 6.50313,-11.9759 9.83527,-10.81202 3.14107,1.09715 5.50756,-1.44113 8.02325,-0.38856 1.83912,0.76949 4.24074,6.7064 4.90601,8.80039 0.9425,2.96658 2.71502,7.88285 3.54502,10.71285 0.83,2.83 3.75195,12.2829 4.2047,10.13344 0.72882,-3.46017 1.77223,-3.57722 2.90335,-7.21314 1.0873,-3.49508 5,-13.18425 6,-15.51425"
     fill="none"
     stroke="#000000"
     stroke-width="2.83"
     stroke-linecap="round"
     stroke-linejoin="round"
     id="path5"
     style="stroke-width:3;stroke-dasharray:none"
     sodipodi:nodetypes="csssssssssssc" />
  <path
     d="m 54.28254,116.61144 c -2.96179,-8.94808 4.64839,-6.65031 4.21221,-3.10659 -0.58882,4.78375 -8.17679,5.10658 -4.5533,17.5436"
     fill="none"
     stroke="#000000"
     stroke-width="10.00"
     stroke-linecap="round"
     stroke-linejoin="round"
     id="path6"
     style="stroke-width:3;stroke-dasharray:none"
     sodipodi:nodetypes="csc" />
  <path
     d="m 109.3775,132 c -2.67,0.17 -14.33,2.67 -16,1 -1.67,-1.67 3.33,-9.67 6,-11 2.67,-1.33 7.33,3.5 10,3 2.67,-0.5 3.5,-5.5 6,-6 2.5,-0.5 6.17,1.33 9,3 2.83,1.67 8.33,4.67 8,7 -0.33,2.33 -8,4.33 -10,7 -2,2.67 0.5,8 -2,9 -2.5,1 -9.33,-3.17 -13,-3 -3.67,0.17 -6.17,4.83 -9,4 -2.83,-0.83 -7.17,-6.83 -8,-9 -0.83,-2.17 3.218728,-4.09979 3,-4 -8.558713,3.90473 -20.61423,9.05946 -18.81537,4.83519 1.378536,-3.23719 2.980562,-7.95725 4.931851,-11.85502"
     fill="none"
     stroke="#000000"
     stroke-width="2.00"
     stroke-linecap="round"
     stroke-linejoin="round"
     id="path7"
     style="stroke-width:3;stroke-dasharray:none"
     sodipodi:nodetypes="csssssssssssssc" />
  <path
     d="m 68.3775,189 c -1.33,1.17 -6.17,6 -8,7 -1.83,1 -4.77083,1.86537 -3.63832,-0.69113 0.94371,-2.13033 2.6987,-11.51026 3.63832,-13.72069 1.16527,-2.74128 3,2.91182 5,1.41182 2,-1.5 3.67,-7.83 7,-10 3.33,-2.17 10.5,-3 13,-3 2.5,0 1.67,0.5 2,3 0.33,2.5 1.5,9.17 0,12 -1.5,2.83 -7.33,2.5 -9,5 -1.67,2.5 -0.5,8 -1,10 -0.5,2 -0.17,1.83 -2,2 -1.83,0.17 -6.67,-1.33 -9,-1 -2.33,0.33 -3.17,2.67 -5,3 -1.83,0.33 -4.30112,-0.77176 -5.30112,-0.94176"
     fill="none"
     stroke="#000000"
     stroke-width="2.83"
     stroke-linecap="round"
     stroke-linejoin="round"
     id="path8"
     style="stroke-width:3;stroke-dasharray:none"
     sodipodi:nodetypes="csssssssssssssc" />
  <path
     d="m 76.3775,367 c -2.5,-6.5 -11,-25.33 -15,-39 -4,-13.67 -7.65946,-31.66473 -9.32946,-43.16473 -1.67,-11.5 -1.51944,-25.81569 -1.34944,-30.81569 0.17,-5 7.58033,5.96714 8.57944,-0.36905 1.96618,-12.46912 -8.74375,2.45208 -8.74417,-1.23273 -5.4e-4,-4.82315 -1.02756,-22.78432 -0.0275,-27.32357 0.9085,-4.12383 4.98871,7.50369 6.13277,1.12331 1.14149,-6.36603 -13.88863,2.99857 -11.9186,-3.8469 2.11701,-7.35619 6.53191,4.50884 5.9918,1.84666 -0.60483,-2.98118 1.74776,-14.50006 2.81553,-16.96599 0.80546,-1.86014 -2.47628,-5.0729 -3.82008,-1.60075 -1.08011,2.79079 1.78881,2.82133 2.78881,2.49133 1,-0.33 1.46589,-1.60888 2.49317,-5.32496 0.62994,-2.27874 1.07371,-5.77187 1.95532,-8.1258"
     fill="none"
     stroke="#000000"
     stroke-width="4.00"
     stroke-linecap="round"
     stroke-linejoin="round"
     id="path9"
     style="stroke-width:3;stroke-dasharray:none"
     sodipodi:nodetypes="csssssssssssssc" />
  <path
     d="m 163.3775,90 c -1.67,-2.33 -6.17,-12.17 -10,-14 -3.83,-1.83 -9.83,3.5 -13,3 -3.17,-0.5 -3.5,-6.67 -6,-6 -2.5,0.67 -11.62349,11.04221 -12.95349,13.21221 -1.33,2.17 15.83194,-0.465659 15.00194,0.364341 -0.83,0.83 -16.54845,-0.746551 -16.04845,1.423449 0.5,2.17 5.67,9.67 9,11 3.33,1.33 7.83,-3.17 11,-3 3.17,0.17 4.17,5.17 8,4 3.83,-1.17 12.5,-9.17 15,-11"
     fill="none"
     stroke="#000000"
     stroke-width="2.00"
     stroke-linecap="round"
     stroke-linejoin="round"
     id="path10"
     style="stroke-width:3;stroke-dasharray:none"
     sodipodi:nodetypes="csssssssssc" />
  <path
     d="m 26.3775,109 c -0.33,-1 -0.33,-4 -2,-6 -1.67,-2 -7,-2.83 -8,-6 -1,-3.17 0.33,-11.5 2,-13 1.67,-1.5 5.33,3.5 8,4 2.67,0.5 6.67,-0.5 8,-1 1.33,-0.5 -1,-3.17 0,-2 1,1.17 3.67,7 6,9 2.33,2 6.83,0.17 8,3 1.17,2.83 2.83,12 -1,14 -3.83,2 -17.83,-2.17 -22,-2 -4.17,0.17 -3.33,1.5 -3,3 0.33,1.5 2,5 5,6 3,1 10,-1.33 13,0 3,1.33 4.33,5.83 5,8 0.67,2.17 -1.17,3.83 -1,5 0.17,1.17 1.34109,0.18798 1.34109,0.18798 l -12.05147,-2.44351"
     fill="none"
     stroke="#000000"
     stroke-width="2.00"
     stroke-linecap="round"
     stroke-linejoin="round"
     id="path11"
     style="stroke-width:3;stroke-dasharray:none"
     sodipodi:nodetypes="cssssssssssssssscc" />
  <path
     d="m 47.3775,111 c 1.17,1.5 8.37166,8.81256 10.29457,11.80039 1.48188,2.30256 2.30394,1.97512 2.62307,8.90697 0.26196,5.6902 -2.35325,5.21803 -1.78776,8.7064 0.41417,2.55487 0.25345,-1.22427 -1.88275,-4.66086"
     fill="none"
     stroke="#000000"
     stroke-width="5.66"
     stroke-linecap="round"
     stroke-linejoin="round"
     id="path13"
     style="stroke-width:3;stroke-dasharray:none"
     sodipodi:nodetypes="csssc" />
  <path
     d="m 86.3775,170 h -1"
     fill="none"
     stroke="#000000"
     stroke-width="4.00"
     stroke-linecap="round"
     stroke-linejoin="round"
     id="path15"
     style="stroke-width:3;stroke-dasharray:none" />
  <path
     d="m 129.48117,56.96044 c -0.65839,-1.288927 -0.69215,-2.468541 0.21714,-3.403496 1.09908,-1.130103 1.58929,-0.742493 2.14152,-0.399896 0.73849,0.458144 3.11353,3.627667 1.55876,4.803724 -0.80038,0.605431 -4.23458,-1.133114 -4.46787,-0.752491 -0.8478,1.383238 -6.87193,9.805677 -5.2842,7.049037 1.89643,-3.292584 8.73508,-1.761927 7.82316,1.167257 -1.43576,4.611854 -9.00245,-0.15724 -9.04036,-0.673477 -0.0758,-1.032473 -0.56132,-0.343672 -0.27791,-1.498518 0.60612,-2.469795 0.0409,-7.763405 -3.19253,-7.952268 -2.07976,-0.121477 -3.74899,1.760715 -1.78591,5.940779 2.04576,4.356122 4.64597,5.379709 2.02194,8.499046"
     style="fill:none;stroke:#000000;stroke-width:3;stroke-linecap:round;stroke-linejoin:round;stroke-dasharray:none"
     id="path1-0"
     sodipodi:nodetypes="csssssscsssc" />
</svg>
