<?xml version="1.0" encoding="UTF-8" standalone="no"?>
<svg
   viewBox="0 0 588 1053"
   width="588"
   height="1053"
   version="1.1"
   id="svg15"
   sodipodi:docname="february_right.svg"
   inkscape:version="1.4.2 (f4327f4, 2025-05-13)"
   xmlns:inkscape="http://www.inkscape.org/namespaces/inkscape"
   xmlns:sodipodi="http://sodipodi.sourceforge.net/DTD/sodipodi-0.dtd"
   xmlns="http://www.w3.org/2000/svg"
   xmlns:svg="http://www.w3.org/2000/svg">
  <defs
     id="defs15" />
  <sodipodi:namedview
     id="namedview15"
     pagecolor="#ffffff"
     bordercolor="#000000"
     borderopacity="0.25"
     inkscape:showpageshadow="2"
     inkscape:pageopacity="0.0"
     inkscape:pagecheckerboard="0"
     inkscape:deskcolor="#d1d1d1"
     inkscape:zoom="1.5327636"
     inkscape:cx="27.075279"
     inkscape:cy="404.82434"
     inkscape:window-width="1920"
     inkscape:window-height="1009"
     inkscape:window-x="-8"
     inkscape:window-y="-8"
     inkscape:window-maximized="1"
     inkscape:current-layer="svg15" />
  <path
     d="M436.00,180.00 C435.50,182.83 431.17,193.67 433.00,197.00 C434.83,200.33 442.00,200.33 447.00,200.00 C452.00,199.67 459.83,196.33 463.00,195.00 C466.17,193.67 465.17,195.00 466.00,192.00 C466.83,189.00 467.67,179.50 468.00,177.00"
     fill="none"
     stroke="black"
     stroke-width="10.00"
     stroke-linecap="round"
     stroke-linejoin="round"
     id="path1"
     style="stroke-width:8;stroke-dasharray:none" />
  <path
     d="m 281.60967,517.86617 c -1,3.5 -1.84048,16.61702 -3.60967,23.13383 -4.8295,17.7894 -9.58483,29.22047 -14,44 -5.91135,16.61971 -9.5098,34.00521 -17,50 -7.83,16.33 -23.18144,49.95143 -35.45446,66.51859 -13.90557,18.77091 -28.37654,33.71776 -46.21933,48.17658 -6.57686,5.32952 -15.9155,11.28725 -24.0855,16.95725 -8.17,5.67 -17.06692,13.80483 -25.56692,20.30483 -8.5,6.5 -17.269,13.62553 -24.454459,16.73792 -6.185026,2.67905 -17.09057,5.393 -29.76487,8.19795 -10.749583,2.379 -15.136617,2.22212 -22.749071,2.28904"
     fill="none"
     stroke="#000000"
     stroke-width="8.49"
     stroke-linecap="round"
     stroke-linejoin="round"
     id="path2"
     style="stroke-width:8;stroke-dasharray:none"
     sodipodi:nodetypes="csssssssssc" />
  <path
     d="m 31,1037 c -1.17,-7.5 -5.83,-27.5 -7,-45 -1.17,-17.5 -0.5,-42.33 0,-60 0.5,-17.67 1.33,-29.67 3,-46 1.67,-16.33 2.886543,-36.94377 4.716543,-46.94377 1.83,-10 2.259139,-16.59101 3.673792,-24.63662 C 37.585983,801.93222 37.378288,802.12763 40,790 41.326208,783.86517 42.165465,778.78221 43.347584,772.45446 43.710554,770.51152 47.145162,752.62233 50,734 c 2.234148,-14.57352 11.075589,-57.45815 16,-73 4.015648,-12.67372 5.182026,-17.57239 10.077344,-31.69199 1.124196,-3.24253 2.789977,-8.95798 4.077344,-12.53731 5.847189,-16.25722 8.550517,-24.45708 13.15332,-37.23203 2.859887,-7.93753 5.36199,-15.24489 8.306642,-22.95927 2.83,-8 7.00155,-21.98392 9.73135,-29.84942 3.40941,-9.82372 4.67897,-13.01283 7.11533,-20.03799 4.17081,-12.02641 7.41907,-19.07123 11.76933,-28.96201 3,-6.17 7.44401,-15.49875 9.03936,-18.92129 4.11465,-8.82726 6.90017,-14.43866 6.99863,-13.07187 0.18827,2.61346 2.61533,14.8591 4.11533,24.5291 1.5,9.67 3.94602,24.06408 3.61602,46.73408 -0.33,22.67 -4.96569,69.74439 -7,82 -1.71165,10.31176 -3.22817,20.37217 -4.96201,31.26865 -1.33,7.5 -3.74746,18.02447 -5.19268,23.27002 -1.54729,5.61605 -3.51193,14.44974 -5,19.11533 -1.33,4.17 -3.26935,9.46505 -4.34736,12.49932 -3.5457,9.98 -6.99685,15.3963 -10,20.1167 -2.69237,4.2319 -5.42042,8.61636 -8.15059,13.15332 -2.80341,4.65869 -11.108146,18.93383 -16.499312,27.11396 -3.043582,4.6181 -10.17668,13.90272 -14.115332,18.50206 -3.589715,4.19186 -9.371737,11.71297 -10.880565,13.49658 -2.361308,2.79132 -26.993341,29.84796 -25.323341,30.51796 1.67,0.67 42.273027,-26.72528 46.510546,-29.74726 4.345996,-3.09934 9.203258,-7.54156 15.042964,-15.21246 5.18307,-6.80835 11.38399,-15.16432 16.2457,-23.91262 6.63104,-11.93208 12.18454,-20.14195 17.21426,-30.55233 7.55032,-15.62743 14.73516,-25.52042 20.393,-36.61361 6.91552,-13.55908 9.84204,-20.99597 22.90952,-40.18662 3.95865,-5.81361 13.3949,-17.07249 25.2249,-31.57249 11.83,-14.5 28.13678,-34.99515 40.88197,-48.90335 7.8332,-8.54798 25.25304,-26.64674 33.37454,-32.48699"
     fill="none"
     stroke="#000000"
     stroke-width="7.21"
     stroke-linecap="round"
     stroke-linejoin="round"
     id="path3"
     style="stroke-width:8;stroke-dasharray:none"
     sodipodi:nodetypes="csssssssssssssssssssssssssssssssssssssssc" />
  <path
     d="M546.00,87.00 C546.17,84.83 547.50,77.17 547.00,74.00 C546.50,70.83 543.83,70.17 543.00,68.00 C542.17,65.83 546.17,66.17 542.00,61.00 C537.83,55.83 526.50,43.83 518.00,37.00 C509.50,30.17 503.50,23.00 491.00,20.00 C478.50,17.00 454.83,17.17 443.00,19.00 C431.17,20.83 426.33,26.67 420.00,31.00 C413.67,35.33 410.17,41.00 405.00,45.00 C399.83,49.00 392.67,53.83 389.00,55.00 C385.33,56.17 387.33,52.00 383.00,52.00 C378.67,52.00 369.33,53.17 363.00,55.00 C356.67,56.83 350.50,60.00 345.00,63.00 C339.50,66.00 335.50,68.17 330.00,73.00 C324.50,77.83 315.17,87.00 312.00,92.00 C308.83,97.00 312.83,99.00 311.00,103.00 C309.17,107.00 303.33,110.67 301.00,116.00 C298.67,121.33 297.33,128.83 297.00,135.00 C296.67,141.17 297.67,147.67 299.00,153.00 C300.33,158.33 304.00,163.50 305.00,167.00 C306.00,170.50 304.17,171.33 305.00,174.00 C305.83,176.67 307.83,180.50 310.00,183.00 C312.17,185.50 315.67,189.17 318.00,189.00 C320.33,188.83 322.00,186.17 324.00,182.00 C326.00,177.83 326.83,169.33 330.00,164.00 C333.17,158.67 338.17,155.00 343.00,150.00 C347.83,145.00 355.00,136.83 359.00,134.00 C363.00,131.17 364.17,134.17 367.00,133.00 C369.83,131.83 369.50,128.17 376.00,127.00 C382.50,125.83 398.17,123.83 406.00,126.00 C413.83,128.17 419.50,137.50 423.00,140.00 C426.50,142.50 424.67,139.17 427.00,141.00 C429.33,142.83 433.83,149.00 437.00,151.00 C440.17,153.00 444.50,152.33 446.00,153.00 C447.50,153.67 446.00,154.67 446.00,155.00"
     fill="none"
     stroke="black"
     stroke-width="7.21"
     stroke-linecap="round"
     stroke-linejoin="round"
     id="path4"
     style="stroke-width:8;stroke-dasharray:none" />
  <path
     d="M389.00,55.00 C388.50,57.50 387.33,66.50 386.00,70.00 C384.67,73.50 382.17,73.67 381.00,76.00 C379.83,78.33 379.33,79.50 379.00,84.00 C378.67,88.50 379.33,99.00 379.00,103.00 C378.67,107.00 377.33,104.00 377.00,108.00 C376.67,112.00 376.67,123.83 377.00,127.00 C377.33,130.17 378.67,127.00 379.00,127.00"
     fill="none"
     stroke="black"
     stroke-width="8.49"
     stroke-linecap="round"
     stroke-linejoin="round"
     id="path5"
     style="stroke-width:8;stroke-dasharray:none" />
  <path
     d="M534.00,179.00 C537.67,175.83 551.67,165.33 556.00,160.00 C560.33,154.67 558.33,150.83 560.00,147.00 C561.67,143.17 565.17,140.50 566.00,137.00 C566.83,133.50 566.50,132.00 565.00,126.00 C563.50,120.00 560.67,107.50 557.00,101.00 C553.33,94.50 551.00,89.83 543.00,87.00 C535.00,84.17 515.83,85.17 509.00,84.00 C502.17,82.83 505.00,81.00 502.00,80.00 C499.00,79.00 495.33,77.83 491.00,78.00 C486.67,78.17 479.17,79.83 476.00,81.00 C472.83,82.17 474.17,83.83 472.00,85.00 C469.83,86.17 465.67,86.00 463.00,88.00 C460.33,90.00 458.00,92.33 456.00,97.00 C454.00,101.67 452.67,104.50 451.00,116.00 C449.33,127.50 444.67,157.17 446.00,166.00 C447.33,174.83 455.33,167.17 459.00,169.00 C462.67,170.83 465.67,176.00 468.00,177.00 C470.33,178.00 465.67,175.67 473.00,175.00 C480.33,174.33 501.83,172.33 512.00,173.00 C522.17,173.67 530.50,177.33 534.00,179.00 C537.50,180.67 530.33,178.67 533.00,183.00 C535.67,187.33 547.00,199.17 550.00,205.00 C553.00,210.83 551.50,213.17 551.00,218.00 C550.50,222.83 550.17,228.17 547.00,234.00 C543.83,239.83 537.33,248.33 532.00,253.00 C526.67,257.67 517.50,260.50 515.00,262.00 C512.50,263.50 517.17,261.50 517.00,262.00 C516.83,262.50 515.17,264.50 514.00,265.00 C512.83,265.50 512.17,264.00 510.00,265.00 C507.83,266.00 503.83,269.83 501.00,271.00 C498.17,272.17 496.50,270.17 493.00,272.00 C489.50,273.83 483.50,280.17 480.00,282.00 C476.50,283.83 475.00,281.50 472.00,283.00 C469.00,284.50 465.50,289.00 462.00,291.00 C458.50,293.00 459.83,296.00 451.00,295.00 C442.17,294.00 419.00,289.50 409.00,285.00 C399.00,280.50 394.83,272.67 391.00,268.00 C387.17,263.33 386.83,258.83 386.00,257.00"
     fill="none"
     stroke="black"
     stroke-width="8.00"
     stroke-linecap="round"
     stroke-linejoin="round"
     id="path6"
     style="stroke-width:8;stroke-dasharray:none" />
  <path
     d="M208.00,101.00 C207.50,98.33 208.67,90.67 205.00,85.00 C201.33,79.33 194.50,69.83 186.00,67.00 C177.50,64.17 162.83,63.50 154.00,68.00 C145.17,72.50 136.33,84.00 133.00,94.00 C129.67,104.00 133.17,120.33 134.00,128.00 C134.83,135.67 139.17,136.33 138.00,140.00 C136.83,143.67 130.50,148.50 127.00,150.00 C123.50,151.50 121.00,148.00 117.00,149.00 C113.00,150.00 107.33,152.17 103.00,156.00 C98.67,159.83 93.67,169.17 91.00,172.00 C88.33,174.83 88.67,173.33 87.00,173.00 C85.33,172.67 83.33,171.67 81.00,170.00 C78.67,168.33 76.00,168.67 73.00,163.00 C70.00,157.33 64.67,144.67 63.00,136.00 C61.33,127.33 62.50,116.17 63.00,111.00 C63.50,105.83 63.33,108.00 66.00,105.00 C68.67,102.00 74.83,96.00 79.00,93.00 C83.17,90.00 85.67,88.00 91.00,87.00 C96.33,86.00 105.67,86.00 111.00,87.00 C116.33,88.00 119.50,92.00 123.00,93.00 C126.50,94.00 130.17,92.67 132.00,93.00 C133.83,93.33 133.67,94.67 134.00,95.00"
     fill="none"
     stroke="black"
     stroke-width="7.21"
     stroke-linecap="round"
     stroke-linejoin="round"
     id="path7"
     style="stroke-width:8;stroke-dasharray:none" />
  <path
     d="M158.00,147.00 C159.00,145.83 162.50,143.50 164.00,140.00 C165.50,136.50 166.00,128.83 167.00,126.00 C168.00,123.17 168.00,123.67 170.00,123.00 C172.00,122.33 175.67,125.00 179.00,122.00 C182.33,119.00 186.00,108.00 190.00,105.00 C194.00,102.00 200.00,104.67 203.00,104.00 C206.00,103.33 204.00,101.17 208.00,101.00 C212.00,100.83 221.50,101.00 227.00,103.00 C232.50,105.00 237.50,109.50 241.00,113.00 C244.50,116.50 246.83,119.67 248.00,124.00 C249.17,128.33 248.67,134.67 248.00,139.00 C247.33,143.33 245.83,146.67 244.00,150.00 C242.17,153.33 239.50,156.33 237.00,159.00 C234.50,161.67 233.67,163.50 229.00,166.00 C224.33,168.50 215.50,172.33 209.00,174.00 C202.50,175.67 195.67,177.83 190.00,176.00 C184.33,174.17 180.17,165.33 175.00,163.00 C169.83,160.67 162.00,161.33 159.00,162.00 C156.00,162.67 159.00,166.33 157.00,167.00 C155.00,167.67 150.83,166.83 147.00,166.00 C143.17,165.17 137.00,163.50 134.00,162.00 C131.00,160.50 130.17,159.00 129.00,157.00 C127.83,155.00 127.33,151.17 127.00,150.00"
     fill="none"
     stroke="black"
     stroke-width="8.94"
     stroke-linecap="round"
     stroke-linejoin="round"
     id="path8"
     style="stroke-width:8;stroke-dasharray:none" />
  <path
     d="M138.00,140.00 C138.67,140.50 139.83,142.50 142.00,143.00 C144.17,143.50 148.33,142.33 151.00,143.00 C153.67,143.67 156.67,144.00 158.00,147.00 C159.33,150.00 158.83,158.67 159.00,161.00"
     fill="none"
     stroke="black"
     stroke-width="18.11"
     stroke-linecap="round"
     stroke-linejoin="round"
     id="path9"
     style="stroke-width:8;stroke-dasharray:none" />
  <path
     d="M229.00,166.00 C230.17,168.00 234.17,173.33 236.00,178.00 C237.83,182.67 239.33,187.33 240.00,194.00 C240.67,200.67 240.67,213.17 240.00,218.00 C239.33,222.83 236.50,221.50 236.00,223.00 C235.50,224.50 237.50,224.83 237.00,227.00 C236.50,229.17 237.00,232.50 233.00,236.00 C229.00,239.50 219.50,245.67 213.00,248.00 C206.50,250.33 199.50,250.33 194.00,250.00 C188.50,249.67 183.17,246.50 180.00,246.00 C176.83,245.50 177.83,248.83 175.00,247.00 C172.17,245.17 165.00,237.00 163.00,235.00"
     fill="none"
     stroke="black"
     stroke-width="8.00"
     stroke-linecap="round"
     stroke-linejoin="round"
     id="path10"
     style="stroke-width:8;stroke-dasharray:none" />
  <path
     d="M156.00,167.00 C157.00,168.00 160.67,169.83 162.00,173.00 C163.33,176.17 161.33,181.67 164.00,186.00 C166.67,190.33 175.67,195.67 178.00,199.00 C180.33,202.33 178.50,203.50 178.00,206.00 C177.50,208.50 176.83,211.00 175.00,214.00 C173.17,217.00 169.00,220.50 167.00,224.00 C165.00,227.50 165.33,233.17 163.00,235.00 C160.67,236.83 156.33,234.17 153.00,235.00 C149.67,235.83 145.67,238.00 143.00,240.00 C140.33,242.00 138.00,246.17 137.00,247.00 C136.00,247.83 138.00,245.50 137.00,245.00 C136.00,244.50 135.00,244.17 131.00,244.00 C127.00,243.83 118.17,245.17 113.00,244.00 C107.83,242.83 104.17,240.33 100.00,237.00 C95.83,233.67 90.67,228.67 88.00,224.00 C85.33,219.33 84.50,214.17 84.00,209.00 C83.50,203.83 84.17,197.83 85.00,193.00 C85.83,188.17 88.50,183.33 89.00,180.00 C89.50,176.67 88.17,174.17 88.00,173.00"
     fill="none"
     stroke="black"
     stroke-width="8.00"
     stroke-linecap="round"
     stroke-linejoin="round"
     id="path11"
     style="stroke-width:8;stroke-dasharray:none" />
  <path
     d="M319.00,190.00 C319.17,192.33 320.17,201.67 320.00,204.00 C319.83,206.33 318.33,204.00 318.00,204.00"
     fill="none"
     stroke="black"
     stroke-width="14.90"
     stroke-linecap="round"
     stroke-linejoin="round"
     id="path12"
     style="stroke-width:8;stroke-dasharray:none" />
  <path
     d="m 433,197 c -2.33,1.67 -7,3.17 -14,10 -7,6.83 -22.67,22.83 -28,31 -5.33,8.17 -2.83,14.5 -4,18 -1.17,3.5 1,2.83 -3,3 -4,0.17 -15.33,-0.83 -21,-2 -5.67,-1.17 -7.67,-0.67 -13,-5 -5.33,-4.33 -15.5,-16.33 -19,-21 -3.5,-4.67 -2,-5.83 -2,-7 0,-1.17 2.33,0.33 2,0 -0.33,-0.33 -3.5,-1 -4,-2 -0.5,-1 1.33,-3.17 1,-4 -0.33,-0.83 -1.67,1.33 -3,-1 -1.33,-2.33 -1.83,-11.67 -5,-13 -3.17,-1.33 -5.5,-1.17 -14,5 -8.5,6.17 -22,15.5 -37,32 -15,16.5 -38.9407,50.82469 -49.7707,65.15469 -10.83,14.33 -12.68155,16.72624 -15.2293,20.84531 -7.64994,12.36805 -10.50508,17.1149 -18.00137,30.2334 -4,7 -8.39268,16.78358 -10.11839,20.70746 -5.3518,12.16885 -10.84016,23.40048 -15.34157,35.59645 -1.81837,5.14891 -15.7666,36.52636 -17.7666,38.52636"
     fill="none"
     stroke="#000000"
     stroke-width="8.00"
     stroke-linecap="round"
     stroke-linejoin="round"
     id="path13"
     style="stroke-width:8;stroke-dasharray:none"
     sodipodi:nodetypes="cssssssssssssssssssssc" />
  <path
     d="m 137,247 c -1.67774,7.25035 -4.83509,13.08912 -6.61465,21.38398 -1.54799,7.21551 -2.42697,10.40391 -3,19.45996 C 126.90984,295.35878 126.67,315.83 127,326 c 0.33,10.17 -0.3993,10.8993 0.7707,21.2293 1.17,10.33 3.24598,24.61875 5.07598,36.15742 1.9014,11.98889 4.11601,19.6327 5.92402,26.15469 1.69459,6.11288 7.54819,42.4669 8.37819,44.1369"
     fill="none"
     stroke="#000000"
     stroke-width="8.00"
     stroke-linecap="round"
     stroke-linejoin="round"
     id="path14"
     style="stroke-width:8;stroke-dasharray:none"
     sodipodi:nodetypes="cssssssc" />
</svg>
