<?xml version="1.0" encoding="UTF-8" standalone="no"?>
<svg
   viewBox="0 0 588 1053"
   width="588"
   height="1053"
   version="1.1"
   id="svg13"
   sodipodi:docname="february_center_right.svg"
   inkscape:version="1.4.2 (f4327f4, 2025-05-13)"
   xmlns:inkscape="http://www.inkscape.org/namespaces/inkscape"
   xmlns:sodipodi="http://sodipodi.sourceforge.net/DTD/sodipodi-0.dtd"
   xmlns="http://www.w3.org/2000/svg"
   xmlns:svg="http://www.w3.org/2000/svg">
  <defs
     id="defs13" />
  <sodipodi:namedview
     id="namedview13"
     pagecolor="#ffffff"
     bordercolor="#000000"
     borderopacity="0.25"
     inkscape:showpageshadow="2"
     inkscape:pageopacity="0.0"
     inkscape:pagecheckerboard="0"
     inkscape:deskcolor="#d1d1d1"
     inkscape:zoom="0.76638177"
     inkscape:cx="15.005576"
     inkscape:cy="625.66729"
     inkscape:window-width="1920"
     inkscape:window-height="1009"
     inkscape:window-x="1912"
     inkscape:window-y="-8"
     inkscape:window-maximized="1"
     inkscape:current-layer="svg13" />
  <path
     d="m 433,179 c 0.33,0.33 2,-1 2,2 0,3 -4,12.83 -2,16 2,3.17 9,3.33 14,3 5,-0.33 12.83,-3.67 16,-5 3.17,-1.33 2,0.17 3,-3 1,-3.17 2.5,-13.33 3,-16"
     fill="none"
     stroke="#000000"
     stroke-width="10.00"
     stroke-linecap="round"
     stroke-linejoin="round"
     id="path1"
     style="stroke-width:8;stroke-dasharray:none"
     sodipodi:nodetypes="csssssc" />
  <path
     d="m 31,1037 c -1.17,-7.5 -6,-24.5 -7,-45 -1,-20.5 0.586423,-64.16715 1,-78 0.428964,-14.3475 3.702848,-38.53589 5,-56 0.820969,-11.05305 2.560964,-23.96798 3.84668,-35.30664 1.610491,-14.20283 3.951955,-34.11051 6.001368,-48.61465 2.187497,-15.48139 2.858289,-23.4519 3.922656,-29.22929 2.996491,-16.26499 5.815041,-28.83712 7.61328,-36.45313 3.388041,-14.34921 7.721064,-31.93072 13.232032,-48.78027 3.121246,-9.54308 6.066159,-19.62095 10.308008,-32.15332 5.216592,-15.41222 8.893449,-27.88727 11.537304,-35.61055 4.89215,-14.29103 9.175995,-26.60659 12.616016,-35.61875 2.829996,-8 9.189876,-23.36894 11.922656,-31.2334 3.69183,-10.62446 8.00987,-23.36329 11.76934,-31.7666 2,-5 5.06066,-11.7334 7.23066,-17.2334 2.76958,-6.57122 13.76246,-26.70369 16.33622,-33.83847 0.19566,2.119 3.66747,20.49597 4.66378,29.83847 1.74296,16.34391 1.9012,27.54807 2.15332,34.23203 0.41328,10.95634 -0.31317,27.04968 -1.07598,36.68652 -1.17,14.5 -3.95816,43.35097 -5.07734,56.08145 -1.1278,12.82849 -2.85727,20.70513 -4.84668,32.07598 -1.31271,7.50304 -2.66385,14.80671 -3.92402,21.54004 -1.27605,6.81813 -2.9566,11.90477 -7.07598,24.30527 -3.01653,9.0806 -5.65022,16.65123 -9.73028,24.78023 -2.84668,5.67167 -3.99576,9.39989 -7.75242,16.51094 -2.47338,4.68191 -4.76227,8.73313 -7.37712,14.05014 -2.14167,4.35485 -4.63689,9.12654 -9.2935,15.63052 -3.427166,4.7868 -6.505887,9.27281 -14,20.10688 -7.494854,10.83515 -34.762976,37.82284 -44.609177,42.30664"
     fill="none"
     stroke="#000000"
     stroke-width="6.32"
     stroke-linecap="round"
     stroke-linejoin="round"
     id="path2"
     sodipodi:nodetypes="csssssssssssssssssssssssssssc"
     style="stroke-width:8;stroke-dasharray:none" />
  <path
     d="m 546,87 c 0.17,-2.17 1.5,-9.83 1,-13 -0.5,-3.17 -3.17,-3.83 -4,-6 -0.83,-2.17 1,-3.67 -1,-7 -2,-3.33 -5,-7.67 -11,-13 -6,-5.33 -20.33,-15.83 -25,-19 -4.67,-3.17 -0.5,1.5 -3,0 -2.5,-1.5 -2,-7.33 -12,-9 -10,-1.67 -36.17,-2.83 -48,-1 -11.83,1.83 -16.67,7.67 -23,12 -6.33,4.33 -9.83,10 -15,14 -5.17,4 -12.33,8.83 -16,10 -3.67,1.17 -1.67,-3 -6,-3 -4.33,0 -13.67,1.17 -20,3 -6.33,1.83 -12.5,5 -18,8 -5.5,3 -9.5,5.17 -15,10 -5.5,4.83 -14.83,14 -18,19 -3.17,5 0.83,7 -1,11 -1.83,4 -7.67,7.67 -10,13 -2.33,5.33 -3.67,12.83 -4,19 -0.33,6.17 0.67,12.67 2,18 1.33,5.33 5,10.5 6,14 1,3.5 -0.83,4.33 0,7 0.83,2.67 2.83,6.5 5,9 2.17,2.5 5.67,6.17 8,6 2.33,-0.17 4,-2.83 6,-7 2,-4.17 0.17,-10 6,-18 5.83,-8 22.83,-24.83 29,-30 6.17,-5.17 5.17,0.17 8,-1 2.83,-1.17 4.83,-4.67 9,-6 4.17,-1.33 11,-1.83 16,-2 5,-0.17 8.83,-1.5 14,1 5.17,2.5 13.5,11.5 17,14 3.5,2.5 1.67,-0.83 4,1 2.33,1.83 6.83,8 10,10 3.17,2 7.5,-0.5 9,2 1.5,2.5 -2.17,10.33 0,13 2.17,2.67 9.17,1.33 13,3 3.83,1.67 1.17,6.33 10,7 8.83,0.67 32.33,-3.67 43,-3 10.67,0.67 13.67,9.17 21,7 7.33,-2.17 18.5,-14.5 23,-20 4.5,-5.5 2.33,-9.17 4,-13 1.67,-3.83 5.17,-6.5 6,-10 0.83,-3.5 0.33,-5.33 -1,-11 -1.33,-5.67 -4.17,-17.5 -7,-23 -2.83,-5.5 -8,-7.5 -10,-10 -2,-2.5 -1.17,-4 -2,-5 -0.83,-1 3.17,-0.33 -3,-1 -6.17,-0.67 -27.67,-2 -34,-3 -6.33,-1 -1,-2 -4,-3 -3,-1 -9.83,-2.67 -14,-3 -4.17,-0.33 -7.83,-0.17 -11,1 -3.17,1.17 -5.33,4.67 -8,6 -2.67,1.33 -5.33,0 -8,2 -2.67,2 -5.83,5.17 -8,10 -2.17,4.83 -3.67,10 -5,19 -1.33,9 -2.17,28.83 -3,35 -0.83,6.17 -1.67,1.67 -2,2"
     fill="none"
     stroke="#000000"
     stroke-width="8.00"
     stroke-linecap="round"
     stroke-linejoin="round"
     id="path3"
     style="stroke-width:8;stroke-dasharray:none"
     sodipodi:nodetypes="csssssssssssssssssssssssssssssssssssssssssssssssssssssssssc" />
  <path
     d="m 389,55 c -0.5,2.5 -1.67,11.5 -3,15 -1.33,3.5 -3.83,3.67 -5,6 -1.17,2.33 -1.67,3.5 -2,8 -0.33,4.5 0.33,15 0,19 -0.33,4 -1.67,1 -2,5 -0.33,4 -0.33,15.83 0,19 0.33,3.17 1.67,0 2,0"
     fill="none"
     stroke="#000000"
     stroke-width="8.49"
     stroke-linecap="round"
     stroke-linejoin="round"
     id="path4"
     style="stroke-width:8;stroke-dasharray:none"
     sodipodi:nodetypes="cssssssc" />
  <path
     d="m 208,101 c -0.5,-2.67 0.67,-10.33 -3,-16 -3.67,-5.67 -10.5,-15.17 -19,-18 -8.5,-2.83 -23.17,-3.5 -32,1 -8.83,4.5 -17.67,16 -21,26 -3.33,10 0.17,26.33 1,34 0.83,7.67 5.17,8.33 4,12 -1.17,3.67 -7.5,8.5 -11,10 -3.5,1.5 -6,-2 -10,-1 -4,1 -9.67,3.17 -14,7 -4.33,3.83 -9.33,13.17 -12,16 -2.67,2.83 -2.33,1.33 -4,1 -1.67,-0.33 -3.67,-1.33 -6,-3 -2.33,-1.67 -5,-1.33 -8,-7 -3,-5.67 -8.33,-18.33 -10,-27 -1.67,-8.67 -0.5,-19.83 0,-25 0.5,-5.17 0.33,-3 3,-6 2.67,-3 8.83,-9 13,-12 4.17,-3 6.67,-5 12,-6 5.33,-1 14.67,-1 20,0 5.33,1 8.5,5 12,6 3.5,1 7.17,-0.33 9,0 1.83,0.33 1.67,1.67 2,2"
     fill="none"
     stroke="#000000"
     stroke-width="7.21"
     stroke-linecap="round"
     stroke-linejoin="round"
     id="path5"
     style="stroke-width:8;stroke-dasharray:none"
     sodipodi:nodetypes="csssssssssssssssssssssc" />
  <path
     d="m 158,147 c 1,-1.17 4.5,-3.5 6,-7 1.5,-3.5 2,-11.17 3,-14 1,-2.83 1,-2.33 3,-3 2,-0.67 5.67,2 9,-1 3.33,-3 7,-14 11,-17 4,-3 10,-0.33 13,-1 3,-0.67 1,-2.83 5,-3 4,-0.17 13.5,0 19,2 5.5,2 10.5,6.5 14,10 3.5,3.5 5.83,6.67 7,11 1.17,4.33 0.67,10.67 0,15 -0.67,4.33 -2.17,7.5 -4,11 -1.83,3.5 -4.5,7.33 -7,10 -2.5,2.67 -6.67,5 -8,6"
     fill="none"
     stroke="#000000"
     stroke-width="8.25"
     stroke-linecap="round"
     stroke-linejoin="round"
     id="path6"
     style="stroke-width:8;stroke-dasharray:none"
     sodipodi:nodetypes="csssssssssssssc" />
  <path
     d="m 138,140 c 0.67,0.5 1.83,2.5 4,3 2.17,0.5 6.33,-0.67 9,0 2.67,0.67 5.67,1 7,4 1.33,3 0.83,11.67 1,14"
     fill="none"
     stroke="#000000"
     stroke-width="18.11"
     stroke-linecap="round"
     stroke-linejoin="round"
     id="path7"
     style="stroke-width:8;stroke-dasharray:none"
     sodipodi:nodetypes="csssc" />
  <path
     d="m 127,150 c 0.33,1.17 0.83,5 2,7 1.17,2 2,3.5 5,5 3,1.5 9.17,3.17 13,4 3.83,0.83 8,1.67 10,1 2,-0.67 -0.83,-4.5 2,-5 2.83,-0.5 9.83,-0.33 15,2 5.17,2.33 10.17,10.33 16,12 5.83,1.67 12.5,-0.33 19,-2 6.5,-1.67 15.5,-8.67 20,-8 4.5,0.67 5.17,7.33 7,12 1.83,4.67 3.33,9.33 4,16 0.67,6.67 0.67,19.17 0,24 -0.67,4.83 -3.5,3.33 -4,5 -0.5,1.67 1.67,2.67 1,5 -0.67,2.33 -1,5.67 -5,9 -4,3.33 -12.67,8.83 -19,11 -6.33,2.17 -12.67,2.33 -19,2 -6.33,-0.33 -13.83,-1.5 -19,-4 -5.17,-2.5 -10,-9.17 -12,-11"
     fill="none"
     stroke="#000000"
     stroke-width="8.00"
     stroke-linecap="round"
     stroke-linejoin="round"
     id="path8"
     style="stroke-width:8;stroke-dasharray:none"
     sodipodi:nodetypes="cssssssssssssssssssc" />
  <path
     d="m 156,167 c 1,1 4.67,2.83 6,6 1.33,3.17 -0.67,8.67 2,13 2.67,4.33 11.67,9.67 14,13 2.33,3.33 0.5,4.5 0,7 -0.5,2.5 -1.17,5 -3,8 -1.83,3 -6,6.5 -8,10 -2,3.5 -1.67,9.17 -4,11 -2.33,1.83 -6.67,-0.83 -10,0 -3.33,0.83 -7.33,3 -10,5 -2.67,2 -5,6.17 -6,7 -1,0.83 1,-1.5 0,-2 -1,-0.5 -2,-0.83 -6,-1 -4,-0.17 -12.83,1.17 -18,0 -5.17,-1.17 -8.83,-3.67 -13,-7 -4.17,-3.33 -9.33,-8.33 -12,-13 -2.67,-4.67 -3.5,-9.83 -4,-15 -0.5,-5.17 0.17,-11.17 1,-16 0.83,-4.83 3.5,-9.67 4,-13 0.5,-3.33 -0.83,-5.83 -1,-7"
     fill="none"
     stroke="#000000"
     stroke-width="8.00"
     stroke-linecap="round"
     stroke-linejoin="round"
     id="path9"
     style="stroke-width:8;stroke-dasharray:none"
     sodipodi:nodetypes="cssssssssssssssssssc" />
  <path
     d="m 534,179 c -0.17,0.67 -3.67,-0.33 -1,4 2.67,4.33 14.17,15.33 17,22 2.83,6.67 0.5,13.17 0,18 -0.5,4.83 -0.83,6.83 -3,11 -2.17,4.17 -4.33,8.83 -10,14 -5.67,5.17 -18,13.17 -24,17 -6,3.83 -8.33,4.67 -12,6 -3.67,1.33 -6.5,0.17 -10,2 -3.5,1.83 -7.83,7.33 -11,9 -3.17,1.67 -4,-1 -8,1 -4,2 -11.67,9 -16,11 -4.33,2 -6.67,1.67 -10,1 -3.33,-0.67 -5,-3.83 -10,-5 -5,-1.17 -15.5,-1.17 -20,-2 -4.5,-0.83 -2.83,0.33 -7,-3 -4.17,-3.33 -14,-12.5 -18,-17 -4,-4.5 -5,-8.33 -6,-10"
     fill="none"
     stroke="#000000"
     stroke-width="8.00"
     stroke-linecap="round"
     stroke-linejoin="round"
     id="path10"
     style="stroke-width:8;stroke-dasharray:none"
     sodipodi:nodetypes="cssssssssssssssssc" />
  <path
     d="m 319,190 c 0.17,2.33 1.17,11.67 1,14 -0.17,2.33 -1.67,0 -2,0"
     fill="none"
     stroke="#000000"
     stroke-width="14.90"
     stroke-linecap="round"
     stroke-linejoin="round"
     id="path11"
     style="stroke-width:8;stroke-dasharray:none"
     sodipodi:nodetypes="csc" />
  <path
     d="m 433,197 c -2.33,1.67 -7,3.17 -14,10 -7,6.83 -22.33,22.5 -28,31 -5.67,8.5 -1.33,16.83 -6,20 -4.67,3.17 -16.17,0 -22,-1 -5.83,-1 -7.67,-0.67 -13,-5 -5.33,-4.33 -15.67,-16.33 -19,-21 -3.33,-4.67 -0.33,-5.5 -1,-7 -0.67,-1.5 -1.33,1.33 -3,-2 -1.67,-3.33 -3.5,-15.83 -7,-18 -3.5,-2.17 -5.5,-1.17 -14,5 -8.5,6.17 -22,15.5 -37,32 -15,16.5 -42.17,52.67 -53,67 -10.83,14.33 -9.33621,14.68918 -12,19 -9.18443,14.8632 -13.84428,23.38929 -17.32776,29.62735 -3.16047,5.65964 -6.79949,13.06403 -9.62949,18.39403 -2.83,5.33 -5.74763,10.60366 -9.265,18.58305 -2.6074,5.91505 -6.25439,12.95624 -8.62306,19.24089 -1.92584,5.10969 -13.56182,34.48995 -15.56182,36.48995"
     fill="none"
     stroke="#000000"
     stroke-width="8.00"
     stroke-linecap="round"
     stroke-linejoin="round"
     id="path12"
     style="stroke-width:8;stroke-dasharray:none"
     sodipodi:nodetypes="csssssssssssssssssc" />
  <path
     d="m 137,247 c -4.05081,12.44731 -5.72395,16.99131 -9.30483,36 -2.18375,11.59216 -1.72664,36.41307 -1.67379,46.58829 0.11029,21.23773 3.08387,37.61945 7.97862,58.41171 3.53201,15.00351 10.68993,40.96912 13.53593,61.90761"
     fill="none"
     stroke="#000000"
     stroke-width="8"
     stroke-linecap="round"
     stroke-linejoin="round"
     id="path13"
     sodipodi:nodetypes="csssc"
     style="stroke-width:8;stroke-dasharray:none" />
</svg>
