<?xml version="1.0" encoding="UTF-8" standalone="no"?>
<svg
   viewBox="0 0 588 1053"
   width="588"
   height="1053"
   version="1.1"
   id="svg14"
   sodipodi:docname="february_left.svg"
   inkscape:version="1.4.2 (f4327f4, 2025-05-13)"
   xmlns:inkscape="http://www.inkscape.org/namespaces/inkscape"
   xmlns:sodipodi="http://sodipodi.sourceforge.net/DTD/sodipodi-0.dtd"
   xmlns="http://www.w3.org/2000/svg"
   xmlns:svg="http://www.w3.org/2000/svg">
  <defs
     id="defs14" />
  <sodipodi:namedview
     id="namedview14"
     pagecolor="#ffffff"
     bordercolor="#000000"
     borderopacity="0.25"
     inkscape:showpageshadow="2"
     inkscape:pageopacity="0.0"
     inkscape:pagecheckerboard="0"
     inkscape:deskcolor="#d1d1d1"
     inkscape:zoom="1.0838275"
     inkscape:cx="173.92067"
     inkscape:cy="307.7058"
     inkscape:window-width="1920"
     inkscape:window-height="1009"
     inkscape:window-x="1912"
     inkscape:window-y="-8"
     inkscape:window-maximized="1"
     inkscape:current-layer="svg14" />
  <path
     d="M42.00,89.00 C40.00,91.00 33.50,94.50 30.00,101.00 C26.50,107.50 22.50,121.83 21.00,128.00 C19.50,134.17 19.83,134.33 21.00,138.00 C22.17,141.67 26.50,146.50 28.00,150.00 C29.50,153.50 25.67,154.00 30.00,159.00 C34.33,164.00 46.50,177.67 54.00,180.00 C61.50,182.33 64.33,173.67 75.00,173.00 C85.67,172.33 109.17,176.67 118.00,176.00 C126.83,175.33 124.67,170.50 128.00,169.00 C131.33,167.50 135.67,169.50 138.00,167.00 C140.33,164.50 142.00,157.00 142.00,154.00 C142.00,151.00 138.83,154.00 138.00,149.00 C137.17,144.00 138.33,133.00 137.00,124.00 C135.67,115.00 132.17,101.00 130.00,95.00 C127.83,89.00 126.50,89.67 124.00,88.00 C121.50,86.33 117.17,86.17 115.00,85.00 C112.83,83.83 113.83,82.17 111.00,81.00 C108.17,79.83 102.33,78.17 98.00,78.00 C93.67,77.83 88.33,79.00 85.00,80.00 C81.67,81.00 84.83,82.83 78.00,84.00 C71.17,85.17 50.00,86.17 44.00,87.00 C38.00,87.83 42.83,90.83 42.00,89.00 C41.17,87.17 38.50,80.67 39.00,76.00 C39.50,71.33 40.17,67.33 45.00,61.00 C49.83,54.67 63.00,42.33 68.00,38.00 C73.00,33.67 73.67,35.17 75.00,35.00 C76.33,34.83 76.17,36.83 76.00,37.00 C75.83,37.17 73.33,37.33 74.00,36.00 C74.67,34.67 78.33,30.17 80.00,29.00 C81.67,27.83 81.33,30.50 84.00,29.00 C86.67,27.50 89.33,21.83 96.00,20.00 C102.67,18.17 116.00,18.17 124.00,18.00 C132.00,17.83 137.17,17.00 144.00,19.00 C150.83,21.00 158.83,25.67 165.00,30.00 C171.17,34.33 177.50,42.33 181.00,45.00 C184.50,47.67 183.17,44.33 186.00,46.00 C188.83,47.67 196.00,53.50 198.00,55.00"
     fill="none"
     stroke="black"
     stroke-width="8.00"
     stroke-linecap="round"
     stroke-linejoin="round"
     id="path1"
     style="stroke-width:8;stroke-dasharray:none" />
  <path
     d="m 144.54141,169.31211 c 0.33,3 18.13117,8.04141 11.22656,23.53594 C 154.16038,196.45562 144.83,200.33 140,200 c -4.83,-0.33 -12.83,-3.67 -16,-5 -3.17,-1.33 -1.83,0.17 -3,-3 -1.17,-3.17 -3.33,-13.33 -4,-16"
     fill="none"
     stroke="#000000"
     stroke-width="10.00"
     stroke-linecap="round"
     stroke-linejoin="round"
     id="path2"
     style="stroke-width:8;stroke-dasharray:none"
     sodipodi:nodetypes="cssssc" />
  <path
     d="m 554,1037 c 2.99269,-9.5423 6.39859,-25.4786 8,-36 0.83,-13.33 2.5,-42 1,-70 -1.5,-28 -5.15221,-72.42253 -7.39033,-91.47584 -2.36517,-20.13483 -3.60531,-29.08223 -4.171,-33.26765 -4.5562,-33.71041 -8.59073,-55.79359 -15.76488,-84.06413 -3.05597,-12.04242 -7.51043,-34.21598 -10.67516,-45.88574 -2.85946,-10.54411 -4.44674,-18.19623 -6.84531,-26.69062 -2.4186,-8.56532 -5.44309,-18.66851 -8.69199,-28.07051 -3.56284,-10.31049 -5.78063,-16.42196 -8.84668,-25.62012 -2,-6 -5.45324,-16.12483 -7.69199,-22.77207 -3.46399,-10.28514 -5.40986,-15.70595 -9.15332,-25.84531 -2.62177,-7.10117 -6.25724,-17.01798 -10.07872,-27.2334 -4.13771,-11.06078 -4.85483,-15.43181 -8.15332,-22.84395 -1.83,-4.67 -3.15741,-9.55523 -7.5373,-19.23066 -3.37179,-7.44847 -8.41012,-19.01409 -15.14671,-32.30117 -1.39434,-2.75015 -2.46718,-1.78335 0.68265,-16.35557 1.58664,-7.34034 -0.0902,-3.20322 6.46406,-31.34326 1.67,-7.17 3.25398,-16.85675 3.65242,-20.75534 1.08811,-10.64678 2.54496,-26.9185 3.48931,-36.91845 C 458.54926,325.42145 458.93118,301.36187 458,284 c -0.67,-10.83 -1.1824,-12.3884 -1.73135,-16.88467 -1.11431,-9.12704 -2.62851,-13.94863 -5.03799,-22.49931"
     fill="none"
     stroke="#000000"
     stroke-width="7.21"
     stroke-linecap="round"
     stroke-linejoin="round"
     id="path3"
     style="stroke-width:8;stroke-dasharray:none"
     sodipodi:nodetypes="csssssssssssssssssssssc" />
  <path
     d="M269.00,189.00 C270.83,187.33 277.83,182.67 280.00,179.00 C282.17,175.33 281.00,170.00 282.00,167.00 C283.00,164.00 284.83,165.17 286.00,161.00 C287.17,156.83 288.83,148.67 289.00,142.00 C289.17,135.33 289.33,127.83 287.00,121.00 C284.67,114.17 277.17,106.00 275.00,101.00 C272.83,96.00 276.17,95.00 274.00,91.00 C271.83,87.00 267.33,81.67 262.00,77.00 C256.67,72.33 250.00,67.17 242.00,63.00 C234.00,58.83 221.00,53.67 214.00,52.00 C207.00,50.33 202.67,52.50 200.00,53.00 C197.33,53.50 198.17,53.33 198.00,55.00 C197.83,56.67 198.50,60.50 199.00,63.00 C199.50,65.50 199.67,67.50 201.00,70.00 C202.33,72.50 205.83,75.50 207.00,78.00 C208.17,80.50 207.50,79.00 208.00,85.00 C208.50,91.00 210.00,107.00 210.00,114.00 C210.00,121.00 206.33,123.83 208.00,127.00 C209.67,130.17 216.67,131.83 220.00,133.00 C223.33,134.17 221.83,128.83 228.00,134.00 C234.17,139.17 251.00,155.50 257.00,164.00 C263.00,172.50 262.00,180.83 264.00,185.00 C266.00,189.17 268.17,185.83 269.00,189.00 C269.83,192.17 269.33,201.50 269.00,204.00 C268.67,206.50 267.33,204.00 267.00,204.00"
     fill="none"
     stroke="black"
     stroke-width="8.25"
     stroke-linecap="round"
     stroke-linejoin="round"
     id="path4"
     style="stroke-width:8;stroke-dasharray:none" />
  <path
     d="M379.00,101.00 C379.67,98.00 379.33,88.67 383.00,83.00 C386.67,77.33 392.67,69.50 401.00,67.00 C409.33,64.50 425.33,65.17 433.00,68.00 C440.67,70.83 443.67,79.50 447.00,84.00 C450.33,88.50 451.67,93.50 453.00,95.00 C454.33,96.50 453.17,93.33 455.00,93.00 C456.83,92.67 460.50,94.00 464.00,93.00 C467.50,92.00 470.17,87.83 476.00,87.00 C481.83,86.17 493.00,86.50 499.00,88.00 C505.00,89.50 507.83,92.33 512.00,96.00 C516.17,99.67 522.00,103.67 524.00,110.00 C526.00,116.33 525.00,126.50 524.00,134.00 C523.00,141.50 520.00,149.83 518.00,155.00 C516.00,160.17 514.00,162.50 512.00,165.00 C510.00,167.50 508.50,168.67 506.00,170.00 C503.50,171.33 500.67,175.33 497.00,173.00 C493.33,170.67 488.67,160.00 484.00,156.00 C479.33,152.00 473.00,150.00 469.00,149.00 C465.00,148.00 463.00,151.50 460.00,150.00 C457.00,148.50 453.50,141.17 451.00,140.00 C448.50,138.83 448.00,142.33 445.00,143.00 C442.00,143.67 435.67,143.17 433.00,144.00 C430.33,144.83 430.67,148.50 429.00,148.00 C427.33,147.50 424.50,144.50 423.00,141.00 C421.50,137.50 421.50,130.17 420.00,127.00 C418.50,123.83 416.00,122.83 414.00,122.00 C412.00,121.17 410.83,124.83 408.00,122.00 C405.17,119.17 401.00,108.00 397.00,105.00 C393.00,102.00 387.00,104.67 384.00,104.00 C381.00,103.33 383.83,100.83 379.00,101.00 C374.17,101.17 361.17,102.33 355.00,105.00 C348.83,107.67 344.67,113.83 342.00,117.00 C339.33,120.17 339.67,121.00 339.00,124.00 C338.33,127.00 337.33,130.67 338.00,135.00 C338.67,139.33 340.00,145.33 343.00,150.00 C346.00,154.67 353.67,160.17 356.00,163.00 C358.33,165.83 356.83,166.33 357.00,167.00"
     fill="none"
     stroke="black"
     stroke-width="7.21"
     stroke-linecap="round"
     stroke-linejoin="round"
     id="path5"
     style="stroke-width:8;stroke-dasharray:none" />
  <path
     d="M453.00,95.00 C453.00,100.67 453.67,121.50 453.00,129.00 C452.33,136.50 449.33,138.17 449.00,140.00 C448.67,141.83 450.67,140.00 451.00,140.00"
     fill="none"
     stroke="black"
     stroke-width="8.94"
     stroke-linecap="round"
     stroke-linejoin="round"
     id="path6"
     style="stroke-width:8;stroke-dasharray:none" />
  <path
     d="M210.00,127.00 C205.17,126.83 188.67,123.83 181.00,126.00 C173.33,128.17 167.67,137.50 164.00,140.00 C160.33,142.50 161.33,139.17 159.00,141.00 C156.67,142.83 152.83,148.83 150.00,151.00 C147.17,153.17 143.33,153.50 142.00,154.00"
     fill="none"
     stroke="black"
     stroke-width="8.00"
     stroke-linecap="round"
     stroke-linejoin="round"
     id="path7"
     style="stroke-width:8;stroke-dasharray:none" />
  <path
     d="M430.00,147.00 C429.67,149.67 431.00,160.17 428.00,163.00 C425.00,165.83 417.17,161.83 412.00,164.00 C406.83,166.17 402.67,174.33 397.00,176.00 C391.33,177.67 382.67,175.00 378.00,174.00 C373.33,173.00 370.67,171.17 369.00,170.00 C367.33,168.83 370.00,167.50 368.00,167.00 C366.00,166.50 359.83,165.17 357.00,167.00 C354.17,168.83 352.67,173.67 351.00,178.00 C349.33,182.33 347.67,186.17 347.00,193.00 C346.33,199.83 346.33,213.83 347.00,219.00 C347.67,224.17 350.50,222.67 351.00,224.00 C351.50,225.33 349.33,224.83 350.00,227.00 C350.67,229.17 351.00,233.50 355.00,237.00 C359.00,240.50 369.50,245.83 374.00,248.00 C378.50,250.17 378.83,249.67 382.00,250.00 C385.17,250.33 387.67,251.00 393.00,250.00 C398.33,249.00 408.83,246.83 414.00,244.00 C419.17,241.17 424.67,238.67 424.00,233.00 C423.33,227.33 412.50,215.83 410.00,210.00 C407.50,204.17 406.83,202.17 409.00,198.00 C411.17,193.83 420.17,189.67 423.00,185.00 C425.83,180.33 425.00,173.00 426.00,170.00 C427.00,167.00 424.17,168.50 429.00,167.00 C433.83,165.50 449.83,163.83 455.00,161.00 C460.17,158.17 459.17,151.83 460.00,150.00"
     fill="none"
     stroke="black"
     stroke-width="8.00"
     stroke-linecap="round"
     stroke-linejoin="round"
     id="path8"
     style="stroke-width:8;stroke-dasharray:none" />
  <path
     d="M428.00,163.00 C428.17,163.67 428.33,166.17 429.00,167.00 C429.67,167.83 431.50,167.83 432.00,168.00"
     fill="none"
     stroke="black"
     stroke-width="22.58"
     stroke-linecap="round"
     stroke-linejoin="round"
     id="path9"
     style="stroke-width:8;stroke-dasharray:none" />
  <path
     d="M497.00,173.00 C497.33,173.00 498.83,170.83 499.00,173.00 C499.17,175.17 497.50,182.67 498.00,186.00 C498.50,189.33 501.17,190.00 502.00,193.00 C502.83,196.00 503.33,199.00 503.00,204.00 C502.67,209.00 501.33,218.83 500.00,223.00 C498.67,227.17 495.50,228.00 495.00,229.00 C494.50,230.00 500.50,226.50 497.00,229.00 C493.50,231.50 480.83,241.50 474.00,244.00 C467.17,246.50 459.83,243.67 456.00,244.00 C452.17,244.33 453.83,247.17 451.00,246.00 C448.17,244.83 443.50,239.17 439.00,237.00 C434.50,234.83 426.50,233.67 424.00,233.00"
     fill="none"
     stroke="black"
     stroke-width="7.21"
     stroke-linecap="round"
     stroke-linejoin="round"
     id="path10"
     style="stroke-width:8;stroke-dasharray:none" />
  <path
     d="m 54,180 c -2.83,4 -13.83,18.83 -17,24 -3.17,5.17 -2.33,2.5 -2,7 0.33,4.5 2.5,15 4,20 1.5,5 2.83,6.83 5,10 2.17,3.17 3,5 8,9 5,4 16.33,11.5 22,15 5.67,3.5 8.67,4.83 12,6 3.33,1.17 4.5,-0.83 8,1 3.5,1.83 9.5,8.17 13,10 3.5,1.83 5.17,-0.5 8,1 2.83,1.5 5.5,6 9,8 3.5,2 2.83,5 12,4 9.17,-1 33,-5.5 43,-10 10,-4.5 13.5,-12.33 17,-17 3.5,-4.67 -0.67,-9.17 4,-11 4.67,-1.83 17.83,0.83 24,0 6.17,-0.83 7.67,-0.67 13,-5 5.33,-4.33 14.17,-13.17 19,-21 4.83,-7.83 6.33,-22 10,-26 3.67,-4 4.17,-3.17 12,2 7.83,5.17 19.67,12.33 35,29 15.33,16.67 39.80204,47.21375 50.80204,61.21375 11,14 17.21619,21.54913 20.09108,25.72212 12.30206,17.85685 13.77008,24.10926 20.73792,38.73792 C 414.83555,383.0977 418.70297,391.14018 427,413 c 3.91436,10.31299 14.29296,31.91275 16.29296,33.58275"
     fill="none"
     stroke="#000000"
     stroke-width="8.00"
     stroke-linecap="round"
     stroke-linejoin="round"
     id="path11"
     style="stroke-width:8;stroke-dasharray:none"
     sodipodi:nodetypes="csssssssssssssssssssssssssc" />
  <path
     d="M153.00,196.00 C155.33,197.67 163.17,202.17 167.00,206.00 C170.83,209.83 173.33,216.17 176.00,219.00 C178.67,221.83 179.83,220.00 183.00,223.00 C186.17,226.00 192.17,231.00 195.00,237.00 C197.83,243.00 199.17,255.33 200.00,259.00"
     fill="none"
     stroke="black"
     stroke-width="8.25"
     stroke-linecap="round"
     stroke-linejoin="round"
     id="path12"
     style="stroke-width:8;stroke-dasharray:none" />
  <path
     d="M 441.58829,440.65474 C 440.41829,442.15474 436.67,465.17 436,469 c -0.67,3.83 -1.65322,11.00762 -2,17 -0.82805,14.30874 -1.43874,19.31077 -1,25 1.21884,15.80482 4.83,70.67 7,89 2.17,18.33 1.88654,14.28725 3.71654,22.95725 1.83,8.67 3.87217,16.45016 5.42176,22.97992 2.70297,11.38999 5.37386,16.76473 7.53549,24.10558 2.68319,9.11206 5.55941,16.65935 8.32621,23.95725 5.22312,13.19805 7.56955,14.78571 11.14173,23.53206 2.17133,5.31642 10.32847,17.78565 14.32621,24.54554 3.77931,6.39056 15.09242,19.57816 18.23281,24.29693 7.12315,10.70332 16.40067,18.68235 20.81141,22.59623 6.42725,5.70322 19.88981,20.5205 18.05981,20.1905 C 542.31998,808.21418 493.4981,776.5781 482.63104,759.67379 478.13104,752.67379 473,741.67 468,733 c -8.52161,-14.77647 -10.16842,-22.06711 -18.69517,-35.32621 -6,-9.33 -18.00959,-32.85823 -23.83959,-41.85823 -3.30012,-5.09453 -10.99025,-14.34436 -17.43039,-24.65246 -3.33,-5.33 -8.90381,-11.85137 -13.40381,-18.02137 -4.5,-6.17 -7.64584,-11.71275 -11.47584,-16.04275 -3.83,-4.33 -6.97273,-8.89453 -11.85037,-13.54554 -6.54004,-6.23618 -8.7554,-9.27598 -13.85037,-15.17658 -6.65074,-7.70238 -13.02269,-14.42061 -20.85269,-22.59061 -7.83,-8.17 -9.81978,-9.93743 -17.829,-16.46004 -5.022,-4.08986 -11.90381,-7.67658 -10.95725,-2.63104 2.36968,12.63132 4.60081,21.48849 6.04275,26.65241 4.64641,16.63983 8.08311,26.47849 9.06439,30.49773 3.09265,12.66727 5.51804,20.56203 8.84804,30.23203 3.33,9.67 2.8993,10.59266 10.2293,25.92266 7.33,15.33 26.33,50.67 37,67 10.67,16.33 21.5,25 27,31 4.27983,3.92339 9.70686,8.33476 12,10 6.17,4.17 21.98469,15.8993 31.15469,22.2293 9.17,6.33 19.20593,11.28601 27.53593,17.61601 8.33,6.33 19.74735,11.17805 27.07735,14.84805 11.48141,5.71769 29.23319,10.27712 41.44904,11.06361"
     fill="none"
     stroke="#000000"
     stroke-width="8.49"
     stroke-linecap="round"
     stroke-linejoin="round"
     id="path13"
     style="stroke-width:8;stroke-dasharray:none"
     sodipodi:nodetypes="csssssssssssssssssssssssssssssssssssc" />
</svg>
