<?xml version="1.0" encoding="UTF-8" standalone="no"?>
<svg
   viewBox="0 0 588 1053"
   width="588"
   height="1053"
   version="1.1"
   id="svg13"
   sodipodi:docname="february_center_left.svg"
   inkscape:version="1.4.2 (f4327f4, 2025-05-13)"
   xmlns:inkscape="http://www.inkscape.org/namespaces/inkscape"
   xmlns:sodipodi="http://sodipodi.sourceforge.net/DTD/sodipodi-0.dtd"
   xmlns="http://www.w3.org/2000/svg"
   xmlns:svg="http://www.w3.org/2000/svg">
  <defs
     id="defs13" />
  <sodipodi:namedview
     id="namedview13"
     pagecolor="#ffffff"
     bordercolor="#000000"
     borderopacity="0.25"
     inkscape:showpageshadow="2"
     inkscape:pageopacity="0.0"
     inkscape:pagecheckerboard="0"
     inkscape:deskcolor="#d1d1d1"
     inkscape:zoom="0.54191374"
     inkscape:cx="858.99279"
     inkscape:cy="696.60533"
     inkscape:window-width="1920"
     inkscape:window-height="1009"
     inkscape:window-x="1912"
     inkscape:window-y="-8"
     inkscape:window-maximized="1"
     inkscape:current-layer="svg13" />
  <path
     d="M42.00,89.00 C40.00,91.00 33.50,94.50 30.00,101.00 C26.50,107.50 22.50,121.83 21.00,128.00 C19.50,134.17 19.83,134.33 21.00,138.00 C22.17,141.67 26.50,146.50 28.00,150.00 C29.50,153.50 25.67,154.00 30.00,159.00 C34.33,164.00 46.50,177.67 54.00,180.00 C61.50,182.33 64.33,173.67 75.00,173.00 C85.67,172.33 109.17,176.67 118.00,176.00 C126.83,175.33 124.67,170.50 128.00,169.00 C131.33,167.50 135.67,169.50 138.00,167.00 C140.33,164.50 142.00,157.00 142.00,154.00 C142.00,151.00 138.83,154.00 138.00,149.00 C137.17,144.00 138.33,133.00 137.00,124.00 C135.67,115.00 132.17,101.00 130.00,95.00 C127.83,89.00 126.50,89.67 124.00,88.00 C121.50,86.33 117.17,86.17 115.00,85.00 C112.83,83.83 113.83,82.17 111.00,81.00 C108.17,79.83 102.33,78.17 98.00,78.00 C93.67,77.83 88.33,79.00 85.00,80.00 C81.67,81.00 84.83,82.83 78.00,84.00 C71.17,85.17 50.00,86.17 44.00,87.00 C38.00,87.83 42.83,90.83 42.00,89.00 C41.17,87.17 38.50,80.67 39.00,76.00 C39.50,71.33 40.17,67.33 45.00,61.00 C49.83,54.67 63.00,42.33 68.00,38.00 C73.00,33.67 73.67,35.17 75.00,35.00 C76.33,34.83 76.17,36.83 76.00,37.00 C75.83,37.17 73.83,36.83 74.00,36.00 C74.17,35.17 73.33,34.67 77.00,32.00 C80.67,29.33 88.17,22.33 96.00,20.00 C103.83,17.67 116.00,18.17 124.00,18.00 C132.00,17.83 137.17,17.00 144.00,19.00 C150.83,21.00 158.67,25.67 165.00,30.00 C171.33,34.33 176.50,40.83 182.00,45.00 C187.50,49.17 195.33,53.33 198.00,55.00"
     fill="none"
     stroke="black"
     stroke-width="8.00"
     stroke-linecap="round"
     stroke-linejoin="round"
     id="path1"
     style="stroke-width:8;stroke-dasharray:none" />
  <path
     d="M151.00,179.00 C151.33,182.00 154.83,193.50 153.00,197.00 C151.17,200.50 144.83,200.33 140.00,200.00 C135.17,199.67 127.17,196.33 124.00,195.00 C120.83,193.67 122.17,195.17 121.00,192.00 C119.83,188.83 117.67,178.67 117.00,176.00"
     fill="none"
     stroke="black"
     stroke-width="10.00"
     stroke-linecap="round"
     stroke-linejoin="round"
     id="path2"
     style="stroke-width:8;stroke-dasharray:none" />
  <path
     d="m 554,1037 c 2.99955,-9.5706 6.37224,-25.4359 8,-36 0.83,-13 1.83,-44.17 1,-68 -0.83,-23.83 -3.05258,-60.88174 -5.18448,-75.65242 -1.48694,-10.30214 -2.0252,-18.24564 -5.48931,-32.65241 -1.14574,-4.76499 -1.75155,-7.84759 -4.08155,-10.34759 -2.33,-2.5 -6.32621,-1.07465 -10.32621,-4.24465 C 533.91845,806.93293 531.17,805.67 524,796 516.83,786.33 500.90257,765.75432 495.32621,755.93587 488.84305,744.52081 480.99495,730.2038 475,719 c -2.5,-5.17 -4.87554,-9.46104 -6.54554,-13.63104 -1.67,-4.17 -3.181,-6.7303 -4.43308,-10.71654 -2.91685,-9.28633 -5.03276,-11.98886 -7.34759,-21.6738 -2.51294,-10.5138 -4.71853,-18.91366 -7.30483,-27.17658 -2.62597,-8.38968 -3.82242,-14.501 -5.65242,-23.171 C 441.88654,613.96104 442.17,616.5 440,600 c -2.17,-16.5 -6.33,-56.17 -7,-78 -0.67,-21.83 2.02284,-46.32048 3.32621,-56.09898 1.17248,-8.7965 5.68829,-26.57333 4.96054,-28.35818 -3.64567,-8.94108 -12.46375,-25.46374 -14.44985,-29.43596 -2,-4 -1.5069,-4.77688 -4.8369,-11.10688 -3.33,-6.33 -11.83,-16.17 -15,-22 -3.17,-5.83 -0.17,-6.17 -4,-13 -3.83,-6.83 -15,-21 -19,-28 -4,-7 -1.33,-7.67 -5,-14 -3.67,-6.33 -6.83,-10.83 -17,-24 -10.17,-13.17 -30,-40.17 -44,-55 -14,-14.83 -31.33,-28 -40,-34 -8.67,-6 -8.33,-6 -12,-2 -3.67,4 -5.17,18.17 -10,26 -4.83,7.83 -13.67,16.67 -19,21 -5.33,4.33 -6.83,4.17 -13,5 -6.17,0.83 -19.33,-1.83 -24,0 -4.67,1.83 -0.5,6.33 -4,11 -3.5,4.67 -7,12.5 -17,17 -10,4.5 -33.83,9 -43,10 -9.17,1 -8.5,-2 -12,-4 -3.5,-2 -6.17,-6.5 -9,-8 -2.83,-1.5 -4.5,0.83 -8,-1 -3.5,-1.83 -9.5,-8.17 -13,-10 -3.5,-1.83 -4.67,0.17 -8,-1 -3.33,-1.17 -6.33,-2.5 -12,-6 -5.67,-3.5 -17,-11 -22,-15 -5,-4 -5.83,-5.83 -8,-9 -2.17,-3.17 -3.5,-5 -5,-10 -1.5,-5 -3.67,-15.5 -4,-20 -0.33,-4.5 -1.17,-1.83 2,-7 3.17,-5.17 14.17,-20 17,-24"
     fill="none"
     stroke="#000000"
     stroke-width="7.21"
     stroke-linecap="round"
     stroke-linejoin="round"
     id="path3"
     sodipodi:nodetypes="cssssssssssssssssssssssssssssssssssssssssssssssc"
     style="stroke-width:8;stroke-dasharray:none" />
  <path
     d="M269.00,189.00 C270.83,187.33 277.83,182.67 280.00,179.00 C282.17,175.33 281.00,170.00 282.00,167.00 C283.00,164.00 284.83,165.17 286.00,161.00 C287.17,156.83 288.83,148.67 289.00,142.00 C289.17,135.33 289.33,127.83 287.00,121.00 C284.67,114.17 277.17,106.00 275.00,101.00 C272.83,96.00 276.17,95.00 274.00,91.00 C271.83,87.00 267.33,81.67 262.00,77.00 C256.67,72.33 250.00,67.17 242.00,63.00 C234.00,58.83 221.00,53.67 214.00,52.00 C207.00,50.33 202.67,52.50 200.00,53.00 C197.33,53.50 198.17,53.33 198.00,55.00 C197.83,56.67 198.50,60.50 199.00,63.00 C199.50,65.50 199.67,67.50 201.00,70.00 C202.33,72.50 205.83,75.50 207.00,78.00 C208.17,80.50 207.50,79.00 208.00,85.00 C208.50,91.00 210.00,107.00 210.00,114.00 C210.00,121.00 206.33,123.83 208.00,127.00 C209.67,130.17 216.67,131.83 220.00,133.00 C223.33,134.17 221.83,128.83 228.00,134.00 C234.17,139.17 251.00,155.50 257.00,164.00 C263.00,172.50 262.00,180.83 264.00,185.00 C266.00,189.17 268.17,185.83 269.00,189.00 C269.83,192.17 269.33,201.50 269.00,204.00 C268.67,206.50 267.33,204.00 267.00,204.00"
     fill="none"
     stroke="black"
     stroke-width="8.25"
     stroke-linecap="round"
     stroke-linejoin="round"
     id="path4"
     style="stroke-width:8;stroke-dasharray:none" />
  <path
     d="M379.00,101.00 C379.67,98.00 379.33,88.67 383.00,83.00 C386.67,77.33 392.67,69.50 401.00,67.00 C409.33,64.50 425.33,65.17 433.00,68.00 C440.67,70.83 443.67,79.50 447.00,84.00 C450.33,88.50 451.67,93.50 453.00,95.00 C454.33,96.50 453.17,93.33 455.00,93.00 C456.83,92.67 460.50,94.00 464.00,93.00 C467.50,92.00 470.17,87.83 476.00,87.00 C481.83,86.17 493.00,86.50 499.00,88.00 C505.00,89.50 508.17,93.00 512.00,96.00 C515.83,99.00 520.00,103.50 522.00,106.00 C524.00,108.50 523.67,106.33 524.00,111.00 C524.33,115.67 524.83,127.17 524.00,134.00 C523.17,140.83 521.00,146.83 519.00,152.00 C517.00,157.17 514.17,162.00 512.00,165.00 C509.83,168.00 508.50,168.67 506.00,170.00 C503.50,171.33 500.67,175.33 497.00,173.00 C493.33,170.67 488.67,160.00 484.00,156.00 C479.33,152.00 473.00,150.00 469.00,149.00 C465.00,148.00 463.00,151.50 460.00,150.00 C457.00,148.50 453.50,141.17 451.00,140.00 C448.50,138.83 448.00,142.33 445.00,143.00 C442.00,143.67 435.67,143.17 433.00,144.00 C430.33,144.83 430.67,148.50 429.00,148.00 C427.33,147.50 424.50,144.50 423.00,141.00 C421.50,137.50 421.50,130.17 420.00,127.00 C418.50,123.83 416.00,122.83 414.00,122.00 C412.00,121.17 410.83,124.83 408.00,122.00 C405.17,119.17 401.00,108.00 397.00,105.00 C393.00,102.00 387.00,104.67 384.00,104.00 C381.00,103.33 383.83,100.83 379.00,101.00 C374.17,101.17 361.17,102.33 355.00,105.00 C348.83,107.67 344.67,113.83 342.00,117.00 C339.33,120.17 339.67,121.00 339.00,124.00 C338.33,127.00 337.33,130.67 338.00,135.00 C338.67,139.33 340.00,145.33 343.00,150.00 C346.00,154.67 353.67,160.17 356.00,163.00 C358.33,165.83 356.83,166.33 357.00,167.00"
     fill="none"
     stroke="black"
     stroke-width="7.21"
     stroke-linecap="round"
     stroke-linejoin="round"
     id="path5"
     style="stroke-width:8;stroke-dasharray:none" />
  <path
     d="M453.00,95.00 C453.00,100.67 453.67,121.50 453.00,129.00 C452.33,136.50 449.33,138.17 449.00,140.00 C448.67,141.83 450.67,140.00 451.00,140.00"
     fill="none"
     stroke="black"
     stroke-width="8.94"
     stroke-linecap="round"
     stroke-linejoin="round"
     id="path6"
     style="stroke-width:8;stroke-dasharray:none" />
  <path
     d="M210.00,127.00 C205.17,126.83 188.67,123.83 181.00,126.00 C173.33,128.17 167.67,137.50 164.00,140.00 C160.33,142.50 161.33,139.17 159.00,141.00 C156.67,142.83 152.83,148.83 150.00,151.00 C147.17,153.17 143.33,153.50 142.00,154.00"
     fill="none"
     stroke="black"
     stroke-width="8.00"
     stroke-linecap="round"
     stroke-linejoin="round"
     id="path7"
     style="stroke-width:8;stroke-dasharray:none" />
  <path
     d="M430.00,147.00 C429.67,149.67 431.00,160.17 428.00,163.00 C425.00,165.83 417.17,161.83 412.00,164.00 C406.83,166.17 402.67,174.33 397.00,176.00 C391.33,177.67 382.67,175.00 378.00,174.00 C373.33,173.00 370.67,171.17 369.00,170.00 C367.33,168.83 370.00,167.50 368.00,167.00 C366.00,166.50 359.83,165.17 357.00,167.00 C354.17,168.83 352.67,173.67 351.00,178.00 C349.33,182.33 347.67,186.17 347.00,193.00 C346.33,199.83 346.33,213.83 347.00,219.00 C347.67,224.17 350.50,222.67 351.00,224.00 C351.50,225.33 349.33,224.83 350.00,227.00 C350.67,229.17 351.00,233.50 355.00,237.00 C359.00,240.50 369.50,245.83 374.00,248.00 C378.50,250.17 378.83,249.67 382.00,250.00 C385.17,250.33 387.67,251.00 393.00,250.00 C398.33,249.00 408.83,246.83 414.00,244.00 C419.17,241.17 424.67,238.67 424.00,233.00 C423.33,227.33 412.50,215.83 410.00,210.00 C407.50,204.17 406.83,202.17 409.00,198.00 C411.17,193.83 420.17,189.67 423.00,185.00 C425.83,180.33 425.00,173.00 426.00,170.00 C427.00,167.00 424.17,168.50 429.00,167.00 C433.83,165.50 449.83,163.83 455.00,161.00 C460.17,158.17 459.17,151.83 460.00,150.00"
     fill="none"
     stroke="black"
     stroke-width="8.00"
     stroke-linecap="round"
     stroke-linejoin="round"
     id="path8"
     style="stroke-width:8;stroke-dasharray:none" />
  <path
     d="M428.00,163.00 C428.17,163.67 428.33,166.17 429.00,167.00 C429.67,167.83 431.50,167.83 432.00,168.00"
     fill="none"
     stroke="black"
     stroke-width="22.58"
     stroke-linecap="round"
     stroke-linejoin="round"
     id="path9"
     style="stroke-width:8;stroke-dasharray:none" />
  <path
     d="m 497,173 c 0.33,0 1.83,-2.17 2,0 0.17,2.17 -1.5,9.67 -1,13 0.5,3.33 3.17,4 4,7 0.83,3 1.33,6 1,11 -0.33,5 -0.31196,15.5086 -2.59224,19.24466 -1.01802,1.66794 -1.85779,3.64669 -3.40776,5.75534 -2.54743,3.46563 -16.17,12.5 -23,15 -7.15449,2.61877 -17.2738,3.76422 -23.69199,1.07734 C 447.48323,243.89479 443.5,239.17 439,237 c -4.5,-2.17 -12.5,-3.33 -15,-4"
     fill="none"
     stroke="#000000"
     stroke-width="7.21"
     stroke-linecap="round"
     stroke-linejoin="round"
     id="path10"
     style="stroke-width:8;stroke-dasharray:none"
     sodipodi:nodetypes="csssssssssc" />
  <path
     d="M153.00,196.00 C155.33,197.67 163.17,202.17 167.00,206.00 C170.83,209.83 173.33,216.17 176.00,219.00 C178.67,221.83 179.83,220.00 183.00,223.00 C186.17,226.00 192.17,231.00 195.00,237.00 C197.83,243.00 199.17,255.33 200.00,259.00"
     fill="none"
     stroke="black"
     stroke-width="8.25"
     stroke-linecap="round"
     stroke-linejoin="round"
     id="path11"
     style="stroke-width:8;stroke-dasharray:none" />
  <path
     d="m 450.10293,245.02138 c 1.21638,2.57086 2.8863,5.21642 4.46398,8.41171 1.56708,3.17379 1.87586,8.42139 2.635,12.99605 0.74152,4.46855 0.98318,6.99951 1.49008,17.3402 0.53126,10.83769 1.11081,38.92941 0.30801,48.23066 -0.94572,10.95715 -1.62719,21.8297 -3.57824,35.84942 -0.52304,3.75839 -1.98168,15.17607 -3.09555,21.803 -1.07216,6.37873 -3.08023,16.33295 -4.90424,24.30959 -1.35333,5.9183 -6.47671,23.90904 -6.78472,29.27566"
     fill="none"
     stroke="#000000"
     stroke-width="7.21"
     stroke-linecap="round"
     stroke-linejoin="round"
     id="path12"
     style="stroke-width:8;stroke-dasharray:none"
     sodipodi:nodetypes="csssssssc" />
  <path
     d="m 441.68029,438.47459 c 1.17,0.67 5.62454,13.67504 8.46144,19.79539 2.10269,4.53637 6.23983,15.7072 8.56983,21.3772 2.33,5.67 5.15165,11.93888 6.88171,16.59327 3.85045,10.35892 5.6346,15.04679 8.09735,21.52752 2.64042,6.94825 7.5041,22.61047 10.30938,30.23203 4.69408,12.75319 6.84103,18.32632 9,26 3.11972,11.08849 6.66734,19.79893 11.23066,33.53867 6.0798,18.3057 8.52294,25.05054 12.76934,41.15469 2.23008,8.4574 4.03047,12.637 6.38398,24.38398 C 524.79033,680.09676 527.5,689.83 530,702 c 2.5,12.17 5.48242,30.2486 7.65242,41.2486 2.17,11 3.80145,19.29461 4.97862,24.5883 2.40453,10.81312 3.25453,18.60869 5.14808,28.10828 1.12117,6.29156 2.38939,17.27494 3.64968,24.9022"
     fill="none"
     stroke="#000000"
     stroke-width="8.00"
     stroke-linecap="round"
     stroke-linejoin="round"
     id="path13"
     style="stroke-width:8;stroke-dasharray:none"
     sodipodi:nodetypes="csssssssssssssc" />
</svg>
