<?xml version="1.0" encoding="UTF-8" standalone="no"?>
<svg
   viewBox="0 0 232 656"
   width="232"
   height="656"
   version="1.1"
   id="svg6"
   sodipodi:docname="january_center_right.svg"
   inkscape:version="1.4.2 (f4327f4, 2025-05-13)"
   xmlns:inkscape="http://www.inkscape.org/namespaces/inkscape"
   xmlns:sodipodi="http://sodipodi.sourceforge.net/DTD/sodipodi-0.dtd"
   xmlns="http://www.w3.org/2000/svg"
   xmlns:svg="http://www.w3.org/2000/svg">
  <defs
     id="defs6" />
  <sodipodi:namedview
     id="namedview6"
     pagecolor="#ffffff"
     bordercolor="#000000"
     borderopacity="0.25"
     inkscape:showpageshadow="2"
     inkscape:pageopacity="0.0"
     inkscape:pagecheckerboard="0"
     inkscape:deskcolor="#d1d1d1"
     inkscape:zoom="0.61509146"
     inkscape:cx="351.98017"
     inkscape:cy="703.14746"
     inkscape:window-width="1920"
     inkscape:window-height="1009"
     inkscape:window-x="1912"
     inkscape:window-y="-8"
     inkscape:window-maximized="1"
     inkscape:current-layer="svg6" />
  <path
     d="m 60.910461,17.861107 c 0.482544,-0.278788 -5.048498,2.905889 -7.790348,6.857391 -3.066682,4.419645 -4.174507,5.850637 -6.844507,12.520637 C 43.605606,43.909135 42.33,55.33 41,64 c -1.33,8.67 -1.5,14.67 -1,21 0.5,6.33 2.5,13.17 4,17 1.5,3.83 4.17,4.33 5,6 0.83,1.67 3.83,-8.67 0,4 -3.83,12.67 -17,50 -23,72 -6,22 -10.803537,45.62035 -13,60 -2.460016,16.10506 -5.0548768,29.51588 -6,43 -0.83,15.67 -1,56.83 -1,77 0,20.17 -1.5,21.67 1,44 2.5,22.33 7,58.83 14,90 7,31.17 19.5,72.17 28,97 8.5,24.83 19.17,43.33 23,52"
     fill="none"
     stroke="#000000"
     stroke-width="4"
     stroke-linecap="round"
     stroke-linejoin="round"
     id="path1"
     sodipodi:nodetypes="cssssssssssssssc"
     style="stroke-width:8;stroke-dasharray:none" />
  <path
     d="M 60.939944,18.234329 C 61.109944,27.404329 57.83,69.83 58,79 c 0.17,9.17 -0.01117,6.334688 1.281502,4.796244 1.542601,-1.835897 3.304855,-4.690638 7.131906,-12.023586 C 70.155025,64.603411 80.369821,48.714073 85.695167,41.101611 91.101611,33.373222 95.17,30.17 99,27 c 3.83,-3.17 6.17,-4.17 10,-5 3.83,-0.83 9.5,-1 13,0 3.5,1 6,4 8,6 2,2 3,3.17 4,6 1,2.83 0.83,9.17 2,11 1.17,1.83 3.17,-1 5,0 1.83,1 4.67,2.83 6,6 1.33,3.17 1.67,10.83 2,13"
     fill="none"
     stroke="#000000"
     stroke-width="4.47"
     stroke-linecap="round"
     stroke-linejoin="round"
     id="path2"
     style="stroke-width:8;stroke-dasharray:none"
     sodipodi:nodetypes="cssssssssssssc" />
  <path
     d="m 136,45 c -0.67,2 -4.17,8.17 -4,12 0.17,3.83 2.17,9.83 5,11 2.83,1.17 7.83,-5.33 12,-4 4.17,1.33 9.33,10 13,12 3.67,2 4.5,-1.83 9,0 4.5,1.83 11.83,6.33 18,11 6.17,4.67 13.5,9.83 19,17 5.5,7.17 11.33,18.83 14,26 2.67,7.17 2.17,13.67 2,17 -0.17,3.33 -1.67,2.67 -3,3 -1.33,0.33 -1.67,0.33 -5,-1 -3.33,-1.33 -10.33,-4.17 -15,-7 -4.67,-2.83 -10,-8.17 -13,-10 -3,-1.83 -3.5,-3.83 -5,-1 -1.5,2.83 -1.83,12.5 -4,18 -2.17,5.5 -4.67,13.17 -9,15 -4.33,1.83 -11.67,1.17 -17,-4 -5.33,-5.17 -11.83,-16.67 -15,-27 -3.17,-10.33 -2.83,-28.33 -4,-35 -1.17,-6.67 -2.5,-4.17 -3,-5"
     fill="none"
     stroke="#000000"
     stroke-width="4.47"
     stroke-linecap="round"
     stroke-linejoin="round"
     id="path3"
     style="stroke-width:8;stroke-dasharray:none"
     sodipodi:nodetypes="csssssssssssssssssssc" />
  <path
     d="m 137,68 c -0.5,3.17 -1,14 -3,19 -2,5 -6.67,6.5 -9,11 -2.33,4.5 -4,6.67 -5,16 -1,9.33 -2,30.17 -1,40 1,9.83 4.5,14.33 7,19 2.5,4.67 5.83,7.67 8,9 2.17,1.33 2.83,0.5 5,-1 2.17,-1.5 5.67,-4.67 8,-8 2.33,-3.33 5,-10 6,-12"
     fill="none"
     stroke="#000000"
     stroke-width="4.47"
     stroke-linecap="round"
     stroke-linejoin="round"
     id="path4"
     style="stroke-width:8;stroke-dasharray:none"
     sodipodi:nodetypes="cssssssssc" />
  <path
     d="m 162,76 c 0.33,1.33 -0.33,3.5 2,8 2.33,4.5 8.83,11.33 12,19 3.17,7.67 5.83,22.5 7,27"
     fill="none"
     stroke="#000000"
     stroke-width="4.00"
     stroke-linecap="round"
     stroke-linejoin="round"
     id="path5"
     style="stroke-width:8;stroke-dasharray:none"
     sodipodi:nodetypes="cssc" />
  <path
     d="m 60.1437,82.790347 c -2.175897,3.526301 -7.296783,16.025585 -8.467505,20.579693 -0.850145,3.30706 -2.55454,7.2255 -1.981028,5.38275"
     fill="none"
     stroke="#000000"
     stroke-width="8.25"
     stroke-linecap="round"
     stroke-linejoin="round"
     id="path6"
     style="stroke-width:8;stroke-dasharray:none"
     sodipodi:nodetypes="csc" />
</svg>
