<?xml version="1.0" encoding="UTF-8" standalone="no"?>
<svg
   viewBox="0 0 232 656"
   width="232"
   height="656"
   version="1.1"
   id="svg6"
   sodipodi:docname="january_center_left.svg"
   inkscape:version="1.4.2 (f4327f4, 2025-05-13)"
   xmlns:inkscape="http://www.inkscape.org/namespaces/inkscape"
   xmlns:sodipodi="http://sodipodi.sourceforge.net/DTD/sodipodi-0.dtd"
   xmlns="http://www.w3.org/2000/svg"
   xmlns:svg="http://www.w3.org/2000/svg">
  <defs
     id="defs6" />
  <sodipodi:namedview
     id="namedview6"
     pagecolor="#ffffff"
     bordercolor="#000000"
     borderopacity="0.25"
     inkscape:showpageshadow="2"
     inkscape:pageopacity="0.0"
     inkscape:pagecheckerboard="0"
     inkscape:deskcolor="#d1d1d1"
     inkscape:zoom="0.86987069"
     inkscape:cx="251.18676"
     inkscape:cy="291.42263"
     inkscape:window-width="1920"
     inkscape:window-height="1009"
     inkscape:window-x="1912"
     inkscape:window-y="-8"
     inkscape:window-maximized="1"
     inkscape:current-layer="svg6" />
  <path
     d="m 172.51164,23.002927 c -0.22898,-2.42285 1.90221,-3.967634 3.16299,-2.679848 3.86278,3.945492 4.14251,5.178344 5.73903,8.631222 1.80082,3.894698 3.23004,8.566594 4.58634,15.248921 C 187.35988,50.903195 189.33,61.5 190,69 c 0.67,7.5 0.67,14.17 0,20 -0.67,5.83 -2.5,12 -4,15 -1.5,3 -4.33,1.17 -5,3 -0.67,1.83 -2.17,-2 1,8 3.17,10 14.75102,42.24946 18,52 3.98003,11.94451 5.6006,19.2174 8.2874,29.8622 2.98679,11.83334 7.31944,36.06591 9.7126,48.1378 2.87546,14.50478 4.28294,27.07717 5,40 0.83,20.5 1.83,78.83 1,107 -0.83,28.17 -2.67,40.5 -6,62 -3.33,21.5 -7.83,43.33 -14,67 -6.17,23.67 -15.33,53.83 -23,75 -7.67,21.17 -19.17,43.33 -23,52"
     fill="none"
     stroke="#000000"
     stroke-width="4"
     stroke-linecap="round"
     stroke-linejoin="round"
     id="path1"
     sodipodi:nodetypes="cssssssssssssssssc"
     style="stroke-width:8;stroke-dasharray:none" />
  <path
     d="M 172.50295,23.413409 C 172.33295,32.413409 173.17,68.83 173,78 c -0.17,9.17 -1.17,2.5 -2,3 -3.15672,0.980067 -3.02368,1.608596 -6.47584,-4.695167 C 161.00965,69.8872 151,51 146,43 c -5,-8 -9,-11.5 -13,-15 -4,-3.5 -6.5,-5.17 -11,-6 -4.5,-0.83 -12,-0.67 -16,1 -4,1.67 -6.17,5.67 -8,9 -1.83,3.33 -0.67,7.83 -3,11 -2.33,3.17 -9,4.33 -11,8 -2,3.67 0.33,11.17 -1,14 -1.33,2.83 -4.67,1.17 -7,3 -2.33,1.83 -4.33,6.67 -7,8 -2.67,1.33 -4.67,-1.67 -9,0 -4.33,1.67 -10.67,5.17 -17,10 -6.33,4.83 -15,11 -21,19 -6,8 -12.33,22.33 -15,29 -2.67,6.67 -1.5,8.33 -1,11 0.5,2.67 2.5,4.33 4,5 1.5,0.67 -1.17,2.17 5,-1 6.17,-3.17 26.67,-15 32,-18"
     fill="none"
     stroke="#000000"
     stroke-width="4.47"
     stroke-linecap="round"
     stroke-linejoin="round"
     id="path2"
     style="stroke-width:8;stroke-dasharray:none"
     sodipodi:nodetypes="cssssssssssssssssssssc" />
  <path
     d="M94.00,44.00 C94.67,45.17 97.33,48.33 98.00,51.00 C98.67,53.67 98.83,57.33 98.00,60.00 C97.17,62.67 93.33,62.83 93.00,67.00 C92.67,71.17 94.83,80.67 96.00,85.00 C97.17,89.33 100.00,90.50 100.00,93.00 C100.00,95.50 96.67,96.17 96.00,100.00 C95.33,103.83 96.67,110.17 96.00,116.00 C95.33,121.83 95.33,127.67 92.00,135.00 C88.67,142.33 78.67,155.83 76.00,160.00"
     fill="none"
     stroke="black"
     stroke-width="4.47"
     stroke-linecap="round"
     stroke-linejoin="round"
     id="path3"
     style="stroke-width:8;stroke-dasharray:none" />
  <path
     d="M83.00,65.00 L94.00,68.00"
     fill="none"
     stroke="black"
     stroke-width="8.00"
     stroke-linecap="round"
     stroke-linejoin="round"
     id="path4"
     style="stroke-width:8;stroke-dasharray:none" />
  <path
     d="M69.00,76.00 C68.67,77.33 69.33,79.67 67.00,84.00 C64.67,88.33 58.33,94.17 55.00,102.00 C51.67,109.83 46.83,121.50 47.00,131.00 C47.17,140.50 53.67,153.50 56.00,159.00 C58.33,164.50 57.50,164.00 61.00,164.00 C64.50,164.00 73.17,157.50 77.00,159.00 C80.83,160.50 81.17,169.17 84.00,173.00 C86.83,176.83 91.83,180.50 94.00,182.00 C96.17,183.50 95.17,183.50 97.00,182.00 C98.83,180.50 102.67,177.50 105.00,173.00 C107.33,168.50 110.00,164.33 111.00,155.00 C112.00,145.67 111.83,126.33 111.00,117.00 C110.17,107.67 107.83,103.00 106.00,99.00 C104.17,95.00 101.00,94.00 100.00,93.00"
     fill="none"
     stroke="black"
     stroke-width="4.24"
     stroke-linecap="round"
     stroke-linejoin="round"
     id="path5"
     style="stroke-width:8;stroke-dasharray:none" />
  <path
     d="m 167.26971,81.07185 c 1.7185,3.09815 7.16322,13.56025 9.13673,17.528137 1.9311,3.882603 3.25256,9.278343 4.21933,11.667673"
     fill="none"
     stroke="#000000"
     stroke-width="8.25"
     stroke-linecap="round"
     stroke-linejoin="round"
     id="path6"
     style="stroke-width:8;stroke-dasharray:none"
     sodipodi:nodetypes="csc" />
</svg>
