<?xml version="1.0" encoding="UTF-8" standalone="no"?>
<svg
   viewBox="0 0 334 656"
   width="334"
   height="656"
   version="1.1"
   id="svg11"
   sodipodi:docname="january_left.svg"
   inkscape:version="1.4.2 (f4327f4, 2025-05-13)"
   xmlns:inkscape="http://www.inkscape.org/namespaces/inkscape"
   xmlns:sodipodi="http://sodipodi.sourceforge.net/DTD/sodipodi-0.dtd"
   xmlns="http://www.w3.org/2000/svg"
   xmlns:svg="http://www.w3.org/2000/svg">
  <defs
     id="defs11" />
  <sodipodi:namedview
     id="namedview11"
     pagecolor="#ffffff"
     bordercolor="#000000"
     borderopacity="0.25"
     inkscape:showpageshadow="2"
     inkscape:pageopacity="0.0"
     inkscape:pagecheckerboard="0"
     inkscape:deskcolor="#d1d1d1"
     inkscape:zoom="2.4603659"
     inkscape:cx="326.171"
     inkscape:cy="156.68401"
     inkscape:window-width="1920"
     inkscape:window-height="1009"
     inkscape:window-x="1912"
     inkscape:window-y="-8"
     inkscape:window-maximized="1"
     inkscape:current-layer="svg11" />
  <path
     d="m 170.80804,17.789257 c 0.2815,-4.429774 3.90998,-0.636428 6.1437,2.25311 3.01087,3.894878 4.29724,6.061738 5.98231,10.742083 C 185.10405,36.61445 187.67,50.33 189,60 c 1.33,9.67 1.5,21.67 1,29 -0.5,7.33 -2.67,12 -4,15 -1.33,3 -3.33,2.5 -4,3"
     fill="none"
     stroke="#000000"
     stroke-width="4.00"
     stroke-linecap="round"
     stroke-linejoin="round"
     id="path1"
     style="stroke-width:8;stroke-dasharray:none"
     sodipodi:nodetypes="csssssc" />
  <path
     d="m 140.58659,218.02763 c -0.48348,1.32427 -3.1571,6.46295 -4.01769,11.25977 -0.39324,2.19186 -0.8237,3.92305 -0.64453,8.9448 0.12842,3.59936 0.17673,5.9804 4.07563,20.7678 3.8581,14.63263 15.93456,50.85711 20.76456,66.18711 C 165.59456,340.51711 166.67,345 169,351 c 2.33,6 6.81289,9.001 8.81289,9.171 2,0.17 5.22738,-1.17905 5.72738,-8.67905 0.5,-7.5 0.54745,-25.95034 -0.2815,-34.92815 -0.79394,-8.59862 -0.92877,-9.42401 -4.83622,-23.66045 -3.92295,-14.29295 -23.03322,-47.54624 -29.20322,-59.71624 -6.17,-12.17 -7.22885,-14.24001 -8.55885,-15.57001"
     fill="none"
     stroke="#000000"
     stroke-width="4.47"
     stroke-linecap="round"
     stroke-linejoin="round"
     id="path2"
     style="stroke-width:8;stroke-dasharray:none"
     sodipodi:nodetypes="cssssssssssc" />
  <path
     d="m 221.36181,309.19393 c 0.67,-0.17 8.7065,-14.91664 10.29663,-17.54138 2.09815,-3.4633 -0.1759,0.63485 7.9941,-13.36515 C 247.82254,264.2874 270.17,219.5 278,206 c 7.83,-13.5 5,-7.83 7,-9 2,-1.17 2.67,2.17 5,2 2.33,-0.17 4.33,0.83 9,-3 4.67,-3.83 15.83,-15.17 19,-20 3.17,-4.83 1.17,-7.83 0,-9 -1.17,-1.17 -2.67,-0.33 -7,2 -4.33,2.33 -15.5,11 -19,12 -3.5,1 -0.92368,-2.34448 -0.27261,-4.78067 C 292.66705,172.70322 293,171.33 294,166 c 1,-5.33 2.83,-17.67 2,-23 -0.83,-5.33 -4,-8 -7,-9 -3,-1 -7.33,0.67 -11,3 -3.67,2.33 -8,7 -11,11 -3,4 -3.5,9.67 -7,13 -3.5,3.33 -9.67,3.33 -14,7 -4.33,3.67 -9,9.67 -12,15 -3,5.33 -5,10.17 -6,17 -1,6.83 -2.90738,25.95603 0,24 1.35347,-0.91059 4.07032,-1.71249 6.44114,-4 1.50074,-1.448 3.05886,-2.17 5.55886,-5 2.5,-2.83 7.17,-7.83 10,-12 2.83,-4.17 5.17,-7.67 7,-13 1.83,-5.33 3.83,-14.5 4,-19 0.17,-4.5 -2.5,-6.67 -3,-8"
     fill="none"
     stroke="#000000"
     stroke-width="4.47"
     stroke-linecap="round"
     stroke-linejoin="round"
     id="path3"
     style="stroke-width:8;stroke-dasharray:none"
     sodipodi:nodetypes="cssssssssssssssssssssssssssc" />
  <path
     d="m 161,555 c -0.5,-3 -2.67,-3.83 -3,-18 -0.33,-14.17 -2,-43.17 1,-67 3,-23.83 8.93791,-58.19268 13.71957,-73.44828 5.18179,-16.5322 9.91368,-25.74559 12.69864,-30.3172 2.87186,-4.71424 -7.83065,-4.01723 -8.19888,-6.55546"
     fill="none"
     stroke="#000000"
     stroke-width="4.00"
     stroke-linecap="round"
     stroke-linejoin="round"
     id="path4"
     style="stroke-width:8;stroke-dasharray:none"
     sodipodi:nodetypes="cssssc" />
  <path
     d="m 158,648 c 2.67,-5.67 9.67,-17.83 16,-34 6.33,-16.17 14.67,-36.33 22,-63 7.33,-26.67 17.33,-70.5 22,-97 4.67,-26.5 5,-39.17 6,-62 1,-22.83 0.33,-61.67 0,-75 -0.33,-13.33 0.5322,-11.59377 -1.1378,-9.23914 -0.9711,1.36922 -4.89277,5.40506 -8.15092,9.93431 C 211.59499,322.02721 206.17,329.17 202,337 c -4.17,7.83 -15.60471,27.5886 -19.24907,34.14746"
     fill="none"
     stroke="#000000"
     stroke-width="4.00"
     stroke-linecap="round"
     stroke-linejoin="round"
     id="path5"
     style="stroke-width:8;stroke-dasharray:none"
     sodipodi:nodetypes="cssssssssc" />
  <path
     d="m 170.66444,18.189592 c 0,8.83 1.1922,52.004572 0.8622,61.334572 -0.33,9.33 -0.16618,2.284909 -1.69517,0.2057 -0.96169,-1.307768 1.52316,4.228389 -2.64684,-2.101611 C 163.01463,71.298253 151.33,51.5 146,43 c -5.33,-8.5 -9,-11.5 -13,-15 -4,-3.5 -6.5,-5.17 -11,-6 -4.5,-0.83 -12,-0.67 -16,1 -4,1.67 -6.17,5.67 -8,9 -1.83,3.33 -0.67,7.83 -3,11 -2.33,3.17 -9,4.33 -11,8 -2,3.67 0.33,11.17 -1,14 -1.33,2.83 -4.67,1.33 -7,3 -2.33,1.67 -4.33,5.67 -7,7 -2.67,1.33 -4.67,-0.83 -9,1 -4.33,1.83 -10.67,5.17 -17,10 -6.33,4.83 -15,11 -21,19 -6,8 -12.33,22.33 -15,29 -2.67,6.67 -1.5,8.33 -1,11 0.5,2.67 0,5.5 4,5 4,-0.5 13.67,-4.67 20,-8 6.33,-3.33 13.83,-5.33 18,-12 4.17,-6.67 3.67,-20 7,-28 3.33,-8 10.83,-15.5 13,-20 2.17,-4.5 0,-5.83 0,-7"
     fill="none"
     stroke="#000000"
     stroke-width="4.47"
     stroke-linecap="round"
     stroke-linejoin="round"
     id="path6"
     style="stroke-width:8;stroke-dasharray:none"
     sodipodi:nodetypes="csssssssssssssssssssssssc" />
  <path
     d="m 94,44 c 0.67,1.17 3.33,4.33 4,7 0.67,2.67 0.83,6.33 0,9 -0.83,2.67 -4.67,2.83 -5,7 -0.33,4.17 1.83,13.67 3,18 1.17,4.33 4,5.5 4,8 0,2.5 -3.33,3.17 -4,7 -0.67,3.83 0.67,10.17 0,16 -0.67,5.83 -0.67,11.67 -4,19 -3.33,7.33 -13.33,20.83 -16,25"
     fill="none"
     stroke="#000000"
     stroke-width="4.47"
     stroke-linecap="round"
     stroke-linejoin="round"
     id="path7"
     style="stroke-width:8;stroke-dasharray:none"
     sodipodi:nodetypes="cssssssssc" />
  <path
     d="m 83,65 11,3"
     fill="none"
     stroke="#000000"
     stroke-width="8.00"
     stroke-linecap="round"
     stroke-linejoin="round"
     id="path8"
     style="stroke-width:8;stroke-dasharray:none"
     sodipodi:nodetypes="cc" />
  <path
     d="M 169.0347,80.339529 C 171.05081,83.458724 174.5,95.83 176,100 c 1.5,4.17 1.75306,4.5036 2.33953,6.05081 2.48359,6.55209 1.2054,3.90442 4.66047,13.94919 3.43967,10 14.15712,38.00406 17,47 3.20884,10.15399 5.82505,21.33932 9,33 3,11.83 5.74745,32.09356 7.57745,44.59356 C 218.40745,257.09356 219,267.5 220,275 c 0.62379,6.64327 1.38969,11.56716 2.26381,19.95174 0.40051,3.84168 2.15278,14.52196 1.32278,18.19196"
     fill="none"
     stroke="#000000"
     stroke-width="4.00"
     stroke-linecap="round"
     stroke-linejoin="round"
     id="path9"
     style="stroke-width:8;stroke-dasharray:none"
     sodipodi:nodetypes="cssssssssc" />
  <path
     d="m 100,93 c 1,1 4.17,2 6,6 1.83,4 4.17,8.67 5,18 0.83,9.33 1,28.67 0,38 -1,9.33 -3.67,13.5 -6,18 -2.33,4.5 -5.83,7.67 -8,9 -2.17,1.33 -2.83,0.5 -5,-1 -2.17,-1.5 -5.5,-4.33 -8,-8 -2.5,-3.67 -4,-12.5 -7,-14 -3,-1.5 -8.33,4.17 -11,5 -2.67,0.83 -3.33,0.83 -5,0 -1.67,-0.83 -3.33,-2.17 -5,-5 -1.67,-2.83 -3.67,-7.17 -5,-12 -1.33,-4.83 -2.5,-14.17 -3,-17"
     fill="none"
     stroke="#000000"
     stroke-width="4.47"
     stroke-linecap="round"
     stroke-linejoin="round"
     id="path10"
     style="stroke-width:8;stroke-dasharray:none"
     sodipodi:nodetypes="cssssssssssssc" />
  <path
     d="M 290.78067,178.96778 C 289.78067,180.46778 287.33,187 286,190 c -1.33,3 -2.88933,7.19517 -3.21933,8.69517"
     fill="none"
     stroke="#000000"
     stroke-width="8.94"
     stroke-linecap="round"
     stroke-linejoin="round"
     id="path11"
     style="stroke-width:8;stroke-dasharray:none"
     sodipodi:nodetypes="csc" />
</svg>
