<?xml version="1.0" encoding="UTF-8" standalone="no"?>
<svg
   viewBox="0 0 334 656"
   width="334"
   height="656"
   version="1.1"
   id="svg11"
   sodipodi:docname="january_right.svg"
   inkscape:version="1.4.2 (f4327f4, 2025-05-13)"
   xmlns:inkscape="http://www.inkscape.org/namespaces/inkscape"
   xmlns:sodipodi="http://sodipodi.sourceforge.net/DTD/sodipodi-0.dtd"
   xmlns="http://www.w3.org/2000/svg"
   xmlns:svg="http://www.w3.org/2000/svg">
  <defs
     id="defs11" />
  <sodipodi:namedview
     id="namedview11"
     pagecolor="#ffffff"
     bordercolor="#000000"
     borderopacity="0.25"
     inkscape:showpageshadow="2"
     inkscape:pageopacity="0.0"
     inkscape:pagecheckerboard="0"
     inkscape:deskcolor="#d1d1d1"
     inkscape:zoom="4.9207317"
     inkscape:cx="178.73358"
     inkscape:cy="29.365551"
     inkscape:window-width="1920"
     inkscape:window-height="1009"
     inkscape:window-x="1912"
     inkscape:window-y="-8"
     inkscape:window-maximized="1"
     inkscape:current-layer="svg11" />
  <path
     d="m 172,555 c 0.5,-3.33 2.5,-8.67 3,-20 0.5,-11.33 1.17,-31.67 0,-48 -1.17,-16.33 -3.83,-34 -7,-50 -3.17,-16 -6.62127,-33.45739 -9.77477,-43.70504 -3.3196,-10.7874 -4.30291,-12.71555 -6.87935,-18.84133 -5.91616,-14.0663 -11.5765,-24.06842 -19.34588,-37.48585 -4.03623,-6.97041 -7.73055,-13.21177 -10.40055,-17.31338 -4.61055,-7.08265 -8.42045,-13.98425 -13.32974,-21.02435"
     fill="none"
     stroke="#000000"
     stroke-width="4"
     stroke-linecap="round"
     stroke-linejoin="round"
     id="path3"
     sodipodi:nodetypes="csssssssc"
     style="stroke-width:8;stroke-dasharray:none" />
  <path
     d="M 159.40644,22.780669 C 156.73644,24.605564 152.67,26.33 150,33 c -2.67,6.67 -5.67,22.33 -7,31 -1.33,8.67 -1.5,14.67 -1,21 0.5,6.33 2.67,13.33 4,17 1.33,3.67 3.61772,5.38128 5.11772,5.71128 1.5,0.33 1.99044,2.08126 3.171,-2.39034 1.28873,-4.88127 5.72839,-19.142885 8.52417,-22.508053"
     fill="none"
     stroke="#000000"
     stroke-width="4.00"
     stroke-linecap="round"
     stroke-linejoin="round"
     id="path1"
     style="stroke-width:8;stroke-dasharray:none"
     sodipodi:nodetypes="cssssssc" />
  <path
     d="M 194.01611,223.35812 C 191.29678,226.45167 191.5,222 186,232 c -5.5,10 -21,42.83 -26,54 -0.22156,0.49496 -8.49274,21.32127 -10.23544,28.73234 -2.17999,9.27074 -3.31188,24.74946 -2.64188,31.91946 0.67,7.17 0.68811,18.41264 1.35811,19.41264"
     fill="none"
     stroke="#000000"
     stroke-width="4.47"
     stroke-linecap="round"
     stroke-linejoin="round"
     id="path2"
     style="stroke-width:8;stroke-dasharray:none"
     sodipodi:nodetypes="cssssc" />
  <path
     d="m 174,647 c -4.67,-11.17 -20.33,-45.67 -28,-67 -7.67,-21.33 -13.33,-43 -18,-61 -4.67,-18 -6.83,-28.5 -10,-47 -3.17,-18.5 -7.33,-41.67 -9,-64 -1.67,-22.33 -1,-54.67 -1,-70 0,-15.33 0.39183,-17.84567 0.28872,-22.20322 -0.10966,-4.63483 -0.16401,-12.03603 0.1202,-16.19331 0.44493,-6.50822 0.49753,-6.94958 1.42008,-13.15986"
     fill="none"
     stroke="#000000"
     stroke-width="4"
     stroke-linecap="round"
     stroke-linejoin="round"
     id="path4"
     sodipodi:nodetypes="csssssssc"
     style="stroke-width:8;stroke-dasharray:none" />
  <path
     d="m 159,24 c 0.33,0.5 1.83,-6.17 2,3 0.17,9.17 0.55739,42.321945 0.72739,51.491945 0.17,9.17 -1.43141,7.561482 -0.23545,5.946717 2.94772,-3.979938 3.24745,-5.539269 7.57745,-12.369269 C 173.39939,65.239393 183,48.83 188,41 c 5,-7.83 9.17,-10.83 13,-14 3.83,-3.17 6.17,-4.17 10,-5 3.83,-0.83 9.5,-1 13,0 3.5,1 6,4 8,6 2,2 3,3.17 4,6 1,2.83 0.83,9.17 2,11 1.17,1.83 3.17,-1 5,0 1.83,1 4.67,2.83 6,6 1.33,3.17 1.67,10.83 2,13"
     fill="none"
     stroke="#000000"
     stroke-width="4.47"
     stroke-linecap="round"
     stroke-linejoin="round"
     id="path5"
     style="stroke-width:8;stroke-dasharray:none"
     sodipodi:nodetypes="csssssssssssssc" />
  <path
     d="M238.00,45.00 C237.33,47.00 233.83,53.17 234.00,57.00 C234.17,60.83 236.17,66.83 239.00,68.00 C241.83,69.17 246.83,62.67 251.00,64.00 C255.17,65.33 260.33,74.00 264.00,76.00 C267.67,78.00 268.50,74.17 273.00,76.00 C277.50,77.83 284.83,82.33 291.00,87.00 C297.17,91.67 304.50,96.83 310.00,104.00 C315.50,111.17 321.33,122.83 324.00,130.00 C326.67,137.17 326.17,143.67 326.00,147.00 C325.83,150.33 324.33,149.67 323.00,150.00 C321.67,150.33 321.33,150.33 318.00,149.00 C314.67,147.67 307.67,144.83 303.00,142.00 C298.33,139.17 293.00,133.83 290.00,132.00 C287.00,130.17 286.50,128.17 285.00,131.00 C283.50,133.83 283.17,143.50 281.00,149.00 C278.83,154.50 276.33,162.17 272.00,164.00 C267.67,165.83 260.33,165.17 255.00,160.00 C249.67,154.83 243.17,143.33 240.00,133.00 C236.83,122.67 237.17,104.67 236.00,98.00 C234.83,91.33 233.50,93.83 233.00,93.00"
     fill="none"
     stroke="black"
     stroke-width="4.47"
     stroke-linecap="round"
     stroke-linejoin="round"
     id="path6"
     style="stroke-width:8;stroke-dasharray:none" />
  <path
     d="M239.00,68.00 C238.50,71.17 238.00,82.00 236.00,87.00 C234.00,92.00 229.33,93.50 227.00,98.00 C224.67,102.50 223.00,104.67 222.00,114.00 C221.00,123.33 220.00,144.17 221.00,154.00 C222.00,163.83 225.50,168.33 228.00,173.00 C230.50,177.67 233.83,180.67 236.00,182.00 C238.17,183.33 238.83,182.50 241.00,181.00 C243.17,179.50 246.67,176.33 249.00,173.00 C251.33,169.67 254.00,163.00 255.00,161.00"
     fill="none"
     stroke="black"
     stroke-width="4.47"
     stroke-linecap="round"
     stroke-linejoin="round"
     id="path7"
     style="stroke-width:8;stroke-dasharray:none" />
  <path
     d="M264.00,76.00 C264.33,77.33 263.67,79.50 266.00,84.00 C268.33,88.50 274.83,95.33 278.00,103.00 C281.17,110.67 283.83,125.50 285.00,130.00"
     fill="none"
     stroke="black"
     stroke-width="4.00"
     stroke-linecap="round"
     stroke-linejoin="round"
     id="path8"
     style="stroke-width:8;stroke-dasharray:none" />
  <path
     d="m 153.86121,106.69517 c -2.79919,4.22439 -3.1689,7.72438 -6.4419,15.16113 C 144.09971,129.3989 141.33,140.5 137,154 c -4.33,13.5 -10.17,33 -14,49 -3.83,16 -7,33.5 -9,47 -2,13.5 -3.25255,26.2555 -3.81289,33.69517 -0.52043,6.90991 -1.80483,13.96987 -1.56134,15.12887 C 109.15792,301.35697 104.5,293.83 96,280 87.5,266.17 64.33,221.67 56,208 47.67,194.33 46.11396,195.40022 47.033543,197.20965"
     fill="none"
     stroke="#000000"
     stroke-width="4"
     stroke-linecap="round"
     stroke-linejoin="round"
     id="path9"
     sodipodi:nodetypes="cssssssssc"
     style="stroke-width:8;stroke-dasharray:none" />
  <path
     d="m 74,164 c -0.33,2.17 -2.33,8.5 -2,13 0.33,4.5 0.83,8 4,14 3.17,6 10.5,16.83 15,22 4.5,5.17 9.67,7.83 12,9 2.33,1.17 1.67,1.67 2,-2 0.33,-3.67 1.17,-13.67 0,-20 -1.17,-6.33 -3.5,-12.33 -7,-18 -3.5,-5.67 -10,-13 -14,-16 -4,-3 -7,1 -10,-2 -3,-3 -5.17,-11.83 -8,-16 -2.83,-4.17 -6,-6.67 -9,-9 -3,-2.33 -6.5,-4.33 -9,-5 -2.5,-0.67 -4.17,-0.5 -6,1 -1.83,1.5 -4.33,3.33 -5,8 -0.67,4.67 0.17,15 1,20 0.83,5 0.756506,7 1.256506,10 0.5,3 3.640655,12.42732 2.759603,10.94672 C 41.115886,182.4339 38.17,181 35,179 c -3.17,-2 -9.67,-8.33 -13,-10 -3.33,-1.67 -5.83,0.33 -7,0 -1.17,-0.33 0.17,-2.5 0,-2 -0.17,0.5 -1.33,2.83 -1,5 0.33,2.17 0.33,4.5 3,8 2.67,3.5 9.5,10 13,13 3.5,3 5,4.17 8,5 3,0.83 11.115096,2.98959 10.674294,0.77697 -0.359951,-1.8068 -4.745511,-9.23157 -5.556382,-12.25155 C 42.194356,183.08575 41,182.33 40,181"
     fill="none"
     stroke="#000000"
     stroke-width="4.47"
     stroke-linecap="round"
     stroke-linejoin="round"
     id="path10"
     style="stroke-width:8;stroke-dasharray:none"
     sodipodi:nodetypes="csssssssssssssssssssssssssssc" />
  <path
     d="m 194.42255,223.35812 c 0.5,0.67 1.07745,4.47188 1.57745,6.64188 0.5,2.17 0.0774,6.45167 0,9 -0.26932,8.86583 -1.47016,16.40007 -2.78067,22.81289 -1.75401,8.583 -2.95531,15.04608 -5,21.64188 -3.17,9.5 -10.51201,32.28167 -14.34201,43.95167 -3.83,11.67 -6.98915,17.14092 -10.89343,21.98389 -6.75227,8.37571 -10.99823,10.8603 -12.47088,14.84511"
     fill="none"
     stroke="#000000"
     stroke-width="4.00"
     stroke-linecap="round"
     stroke-linejoin="round"
     id="path11"
     style="stroke-width:8;stroke-dasharray:none"
     sodipodi:nodetypes="cssssssc" />
</svg>
