<?xml version="1.0" encoding="UTF-8" standalone="no"?>
<svg
   viewBox="0 0 600 1370"
   width="600"
   height="1370"
   version="1.1"
   id="svg8"
   sodipodi:docname="januari.svg"
   inkscape:version="1.4.2 (f4327f4, 2025-05-13)"
   xmlns:inkscape="http://www.inkscape.org/namespaces/inkscape"
   xmlns:sodipodi="http://sodipodi.sourceforge.net/DTD/sodipodi-0.dtd"
   xmlns="http://www.w3.org/2000/svg"
   xmlns:svg="http://www.w3.org/2000/svg">
  <defs
     id="defs8" />
  <sodipodi:namedview
     id="namedview8"
     pagecolor="#ffffff"
     bordercolor="#000000"
     borderopacity="0.25"
     inkscape:showpageshadow="2"
     inkscape:pageopacity="0.0"
     inkscape:pagecheckerboard="0"
     inkscape:deskcolor="#d1d1d1"
     inkscape:zoom="0.83304405"
     inkscape:cx="63.021878"
     inkscape:cy="677.63524"
     inkscape:window-width="1920"
     inkscape:window-height="1009"
     inkscape:window-x="1912"
     inkscape:window-y="-8"
     inkscape:window-maximized="1"
     inkscape:current-layer="svg8" />
  <path
     d="M 272.25078,224.35047 C 268.6999,222.42026 264.83,223.17 264,215 c -0.83,-8.17 -1.31544,-24.63383 -0.48544,-35.90706 0.73679,-10.0073 3.24276,-21.19511 5.27323,-27.48823 C 271.94978,141.80464 275.83573,132.54285 281,122 c 4.97388,-10.15417 9.34293,-18.67796 12.09294,-25.063817 2.68484,-6.234533 6.3567,-12.556339 9.8567,-19.386339 3.5,-6.83 7.95224,-11.530417 11.45224,-15.200417 3.5,-3.67 8.62854,-6.069792 11.79854,-7.399792 3.17,-1.33 2.52989,-2.019427 2.69989,1.650573 C 329.07031,60.270208 329.83,62.17 326,78 c -3.83,15.83 -17,58.17 -21,73 -4,14.83 -2.67,11.33 -3,16 -0.33,4.67 -0.58783,14.10659 1,12 9.93514,-13.18104 14.35631,-19.76101 18.09744,-24.50939 7.80062,-9.90083 14.92632,-17.54135 27.50173,-29.49269 15.32633,-14.56575 21.7444,-20.28176 28.20041,-24.39875 C 384.33001,95.797032 388.3766,93.212694 395,90 c 12.04319,-5.841577 12.82832,-4.961611 19,-7 4.33,-1.17 9.67029,-0.332034 12,0 6.56527,0.935692 9.24976,2.015762 14,3 4.20405,1.100744 11.57396,6.249871 12.39979,7.799583 2.80652,5.266579 4.89936,4.914433 6.60021,11.200417 1.67,7.5 5,40 5,40 -7.87203,2.46808 -12.69638,6.68327 -14.10073,13.00104 -1.61387,7.26038 -2.22386,14.08175 -0.99896,21.99792 C 449.57031,184.32896 451.33,190.5 452,192"
     fill="none"
     stroke="#000000"
     stroke-width="8.25"
     stroke-linecap="round"
     stroke-linejoin="round"
     id="path3"
     style="stroke-width:4;stroke-dasharray:none"
     sodipodi:nodetypes="csssssssssssssssssssssssssc" />
  <path
     d="m 45,1353 c -1.83,-11.67 -8.769226,-51.8374 -11,-70 -2.081295,-16.9456 -3.79507,-34.1827 -5,-49 -1.04068,-12.7975 -3.541193,-52.1542 -3.871193,-66.8242 -0.33,-14.67 -0.648151,-16.1896 -0.478151,-24.5196 0.17,-8.33 -1.252427,-23.4275 0.247573,-29.2575 1.5,-5.83 2.369896,8.4004 10.801667,-5.6998 7.136223,-11.9337 14.309894,-54.4257 17.301146,-68.0976 3.488884,-15.9465 4.288041,-19.4947 7.399791,-31.5006 2,-6.83 3.782261,-13.4933 5.599167,-20.1007 1.869896,-6.8001 3.370417,-13.23031 6.200417,-21.90031 2.83,-8.67 8.636155,-22.18243 11.099687,-27.69886 C 90.335067,922.64789 103.97011,895.58866 111,882 c 6.17,-11.5 7.44176,-12.32675 17.94176,-30.15675 10.5,-17.83 29.87739,-52.1374 39.65637,-68.14023 3.27542,-5.36007 10.27782,-18.12592 17.50364,-29.70615 C 195.28811,739.27469 203.67,729 215,709 c 11.33,-20 26,-52.17 34,-66 8,-13.83 11.17,-14.5 14,-17 2.83,-2.5 -0.17,2 3,2 3.17,0 10.17,0.33 16,-2 5.83,-2.33 13.33,-7.33 19,-12 5.67,-4.67 11.5,-11.67 15,-16 3.5,-4.33 4.83,-5.5 6,-10 1.17,-4.5 3,-14.67 1,-17 -2,-2.33 -6.67,-0.5 -13,3 -6.33,3.5 -19,14.67 -25,18 -6,3.33 -9.17,3.67 -11,2 -1.83,-1.67 -1.33,-5.17 0,-12 1.33,-6.83 6.67,-19.5 8,-29 1.33,-9.5 1.67,-21 0,-28 -1.67,-7 -7.33,-11.5 -10,-14 -2.67,-2.5 -2.67,-1.67 -6,-1 -3.33,0.67 -8.17,1 -14,5 -5.83,4 -15.67,13.17 -21,19 -5.33,5.83 -8.33,11.17 -11,16 -2.67,4.83 -1.17,10 -5,13 -3.83,3 -11.33,0.33 -18,5 -6.67,4.67 -15.83,13.67 -22,23 -6.17,9.33 -12.17,20.83 -15,33 -2.83,12.17 -2.33,32.17 -2,40 0.33,7.83 2,6.33 4,7 2,0.67 4,0.17 8,-3 4,-3.17 10.83,-10.17 16,-16 5.17,-5.83 10.67,-12.5 15,-19 4.33,-6.5 8,-11.33 11,-20 3,-8.67 6.5,-23.67 7,-32 0.5,-8.33 -3.33,-15 -4,-18"
     fill="none"
     stroke="#000000"
     stroke-width="8.49"
     stroke-linecap="round"
     stroke-linejoin="round"
     id="path2"
     style="stroke-width:4;stroke-dasharray:none"
     sodipodi:nodetypes="cssssssssssssssssssssssssssssssssssssssssssssssc" />
  <path
     d="m 464,145 c 1.83,1.5 8.22979,3.19885 10.39979,5.69885 2.17,2.5 4.37094,7.67261 4.70094,13.50261 0.33,5.83 -1.77073,19.46854 -2.10073,24.79854 0.0426,5.92389 -5.0559,1.80557 -9.10073,1.59917 -3.83,0 -8.86885,-2.39823 -15.89927,1.40083 -7.68168,4.15099 -13.17,31.83 -17,40 -3.83,8.17 -3.5,7 -6,9 -2.5,2 -6,0.83 -9,3 -3,2.17 -6.83,6.33 -9,10 -2.17,3.67 -3.90083,5.66948 -6.40083,10.49948 C 402.09917,269.32948 399.33,275.5 396,283 c -3.33,7.5 -7.33,21.33 -9,28 -1.67,6.67 -1.73083,6.60073 -3.40083,14.10073 -1.67,7.5 -6.47153,22.23771 -6.59917,30.89927 -0.16948,11.50104 -0.46958,12.13115 0.20042,21.30115 0.67,9.17 1.96958,25.52885 3.79958,33.69885 1.83,8.17 4.17,9.33 6,12 1.83,2.67 2.67,3.5 5,4 2.33,0.5 6.07655,0.10961 9,-1 5.65234,-2.14536 10.4297,-6.50227 11,-7 4.67,-4.33 21.17,-19.5 25,-26 3.83,-6.5 -0.5,-8.5 -2,-13 -1.5,-4.5 -4.83,-6.17 -7,-14 -2.17,-7.83 -5.17,-21.33 -6,-33 -0.83,-11.67 0,-25.5 1,-37 1,-11.5 4.41394,-26.24028 5,-32 0.88331,-8.68097 0.87217,-14.17589 0,-23"
     fill="none"
     stroke="#000000"
     stroke-width="8.49"
     stroke-linecap="round"
     stroke-linejoin="round"
     id="path4"
     style="stroke-width:4;stroke-dasharray:none"
     sodipodi:nodetypes="cssssssssssssssssssssssssssc" />
  <path
     d="m 303,180 c -4.25026,5.09969 -13.01428,21.60202 -20.37405,32.35168 -5.0112,7.31935 -8.63333,13.22677 -12.98933,19.43611 -6.5379,9.31959 -9.43379,13.66409 -18.84883,29.51456 -4.46674,7.51986 -14.89277,24.22621 -19.69764,32.24133 -2.93954,4.90351 -10.65833,19.21719 -20.7878,36.51735 -3.61395,6.17229 -8.33,14.53942 -12,21.20942 -3.67,6.67 -7.77903,14.4598 -11.69764,21.97366 -4.88949,9.37551 -11.3812,23.76124 -19.36338,39.05824 -4.21104,8.07001 -16.51258,34.56497 -20.36339,42.57559 -8.08197,16.81248 -11.19409,23.08237 -18.06103,39 -4.75237,11.01608 -11.97088,26.95501 -16.45632,37.90707 -4.8373,11.81119 -7.41692,19.33242 -14.668521,40.97645 -6.967326,20.79555 -11.52076,38.84469 -18.015584,65.65358 -4.0506,16.55917 -6.754402,27.46853 -11.178047,45.88298 -4.624912,19.25226 -8.697609,37.58448 -12.900314,56.09864 -4.739873,20.88055 -5.946078,29.95516 -8.432908,43.57872 -3.033938,16.62078 -4.773804,24.22347 -6.602458,36.11148 -2.091505,13.59678 -3.706712,24.32148 -4.714894,32.48765 C 33.904194,868.31802 31.931422,881.97707 30,907 c -1.734559,22.47243 -5.450677,104.5493 -6.950677,131.0493 -0.267119,14.1326 -0.223718,27.5556 -0.322557,43.4014 -0.0539,8.6406 1.089472,26.6711 1.636617,35.2789"
     fill="none"
     stroke="#000000"
     stroke-width="8.25"
     stroke-linecap="round"
     stroke-linejoin="round"
     id="path5"
     style="stroke-width:4;stroke-dasharray:none"
     sodipodi:nodetypes="csssssssssssssssssssssc" />
  <path
     d="m 475,192 c 2.5,3.33 12,15 15,20 3,5 2.17,8.5 3,10 0.83,1.5 -0.33,-1.67 2,-1 2.33,0.67 4.17,-2.5 12,5 7.83,7.5 25.17,26 35,40 9.83,14 19.80883,34.63438 24,44 3.29497,7.36298 3.75883,10.25304 5,17 1.62351,8.82531 3.37236,11.00106 4,17 1.20968,11.56209 1.24464,17.92916 2,27 0.33,6.33 0.17,16.17 -1,22 -1.17,5.83 -4.67,10.5 -6,13 -1.33,2.5 -1,1.83 -2,2 -1,0.17 -1,0.67 -4,-1 -3,-1.67 -8.33,-4.17 -14,-9 -5.67,-4.83 -14.67,-13.5 -20,-20 -5.33,-6.5 -8,-14.17 -12,-19 -4,-4.83 -10,-8.33 -12,-10"
     fill="none"
     stroke="#000000"
     stroke-width="8.94"
     stroke-linecap="round"
     stroke-linejoin="round"
     id="path6"
     style="stroke-width:4;stroke-dasharray:none"
     sodipodi:nodetypes="cssssssssssssssssc" />
  <path
     d="m 493,222 c -0.17,2.5 -1.83,10.33 -1,15 0.83,4.67 2.72927,10.47063 3.89927,14.80063 1.17,4.33 1.77073,5.69937 3.10073,11.19937 1.33,5.5 4.06927,14.20042 4.89927,21.20042 0.83,7 2.03143,15.36989 2.20146,21.69989 C 506.27073,312.23031 506.83,317 507,321 c 0.17,4 0.10073,8.57188 0.10073,13.40188 0,4.83 0.56927,11.42812 -0.10073,15.59812 -0.67,4.17 -2.2934,11.08832 -5.09969,15.40396 -6.86851,10.56271 -4.66064,10.81575 -10.29906,17.59708 -2.54113,3.05622 -3.42917,7.39823 -6.59917,11.89823 -3.17,4.5 -7.57031,9.03042 -10.90031,11.20042 -3.33,2.17 -11.10177,2.42916 -15.10177,0.59916 -4,-1.83 -10.17,-8.02885 -14,-10.69885 -3.83,-2.67 -4.95353,-7.39955 -6.45353,-7.72955"
     fill="none"
     stroke="#000000"
     stroke-width="8.25"
     stroke-linecap="round"
     stroke-linejoin="round"
     id="path7"
     style="stroke-width:4;stroke-dasharray:none"
     sodipodi:nodetypes="cssssssssssssssc" />
  <path
     d="M276.00,595.00 C274.17,598.00 267.33,607.50 265.00,613.00 C262.67,618.50 262.17,625.67 262.00,628.00 C261.83,630.33 263.67,627.17 264.00,627.00"
     fill="none"
     stroke="black"
     stroke-width="17.09"
     stroke-linecap="round"
     stroke-linejoin="round"
     id="path8"
     style="stroke-width:4;stroke-dasharray:none" />
</svg>
