<?xml version="1.0" encoding="UTF-8" standalone="no"?>
<svg
   viewBox="0 0 232 659"
   width="232"
   height="659"
   version="1.1"
   id="svg33"
   sodipodi:docname="july_left.svg"
   inkscape:version="1.4.2 (f4327f4, 2025-05-13)"
   xmlns:inkscape="http://www.inkscape.org/namespaces/inkscape"
   xmlns:sodipodi="http://sodipodi.sourceforge.net/DTD/sodipodi-0.dtd"
   xmlns="http://www.w3.org/2000/svg"
   xmlns:svg="http://www.w3.org/2000/svg">
  <defs
     id="defs33" />
  <sodipodi:namedview
     id="namedview33"
     pagecolor="#ffffff"
     bordercolor="#000000"
     borderopacity="0.25"
     inkscape:showpageshadow="2"
     inkscape:pageopacity="0.0"
     inkscape:pagecheckerboard="0"
     inkscape:deskcolor="#d1d1d1"
     inkscape:zoom="0.86591073"
     inkscape:cx="71.023487"
     inkscape:cy="419.78923"
     inkscape:window-width="1920"
     inkscape:window-height="1009"
     inkscape:window-x="1912"
     inkscape:window-y="-8"
     inkscape:window-maximized="1"
     inkscape:current-layer="svg33" />
  <path
     d="M98.00,35.00 C97.50,37.17 95.50,43.50 95.00,48.00 C94.50,52.50 95.00,59.67 95.00,62.00"
     fill="none"
     stroke="black"
     stroke-width="8.00"
     stroke-linecap="round"
     stroke-linejoin="round"
     id="path1"
     style="stroke-width:4;stroke-dasharray:none" />
  <path
     d="M131.00,51.00 L118.00,65.00"
     fill="none"
     stroke="black"
     stroke-width="4.00"
     stroke-linecap="round"
     stroke-linejoin="round"
     id="path2"
     style="stroke-width:4;stroke-dasharray:none" />
  <path
     d="M139.00,54.00 C138.67,55.00 139.67,57.17 137.00,60.00 C134.33,62.83 125.33,69.17 123.00,71.00"
     fill="none"
     stroke="black"
     stroke-width="4.00"
     stroke-linecap="round"
     stroke-linejoin="round"
     id="path3"
     style="stroke-width:4;stroke-dasharray:none" />
  <path
     d="M63.00,62.00 C64.00,62.83 66.50,66.00 69.00,67.00 C71.50,68.00 76.50,67.83 78.00,68.00"
     fill="none"
     stroke="black"
     stroke-width="4.00"
     stroke-linecap="round"
     stroke-linejoin="round"
     id="path4"
     style="stroke-width:4;stroke-dasharray:none" />
  <path
     d="M147.00,66.00 C145.67,67.17 141.50,71.50 139.00,73.00 C136.50,74.50 133.17,74.67 132.00,75.00"
     fill="none"
     stroke="black"
     stroke-width="4.00"
     stroke-linecap="round"
     stroke-linejoin="round"
     id="path5"
     style="stroke-width:4;stroke-dasharray:none" />
  <path
     d="M59.00,73.00 C60.33,74.00 63.00,77.83 67.00,79.00 C71.00,80.17 80.33,79.83 83.00,80.00"
     fill="none"
     stroke="black"
     stroke-width="4.00"
     stroke-linecap="round"
     stroke-linejoin="round"
     id="path6"
     style="stroke-width:4;stroke-dasharray:none" />
  <path
     d="M140.00,84.00 C142.17,83.83 149.67,85.50 153.00,83.00 C156.33,80.50 158.67,74.00 160.00,69.00 C161.33,64.00 161.50,57.83 161.00,53.00 C160.50,48.17 158.33,42.83 157.00,40.00 C155.67,37.17 159.17,36.67 153.00,36.00 C146.83,35.33 125.83,35.67 120.00,36.00 C114.17,36.33 119.33,40.67 118.00,38.00 C116.67,35.33 115.00,25.00 112.00,20.00 C109.00,15.00 103.33,10.00 100.00,8.00 C96.67,6.00 94.50,7.50 92.00,8.00 C89.50,8.50 88.67,8.83 85.00,11.00 C81.33,13.17 72.83,17.33 70.00,21.00 C67.17,24.67 67.83,28.17 68.00,33.00 C68.17,37.83 70.50,47.17 71.00,50.00"
     fill="none"
     stroke="black"
     stroke-width="4.00"
     stroke-linecap="round"
     stroke-linejoin="round"
     id="path7"
     style="stroke-width:4;stroke-dasharray:none" />
  <path
     d="M130.00,85.00 C127.00,85.17 115.00,88.00 112.00,86.00 C109.00,84.00 113.00,77.00 112.00,73.00 C111.00,69.00 105.00,67.83 106.00,62.00 C107.00,56.17 116.00,42.00 118.00,38.00"
     fill="none"
     stroke="black"
     stroke-width="4.47"
     stroke-linecap="round"
     stroke-linejoin="round"
     id="path8"
     style="stroke-width:4;stroke-dasharray:none" />
  <path
     d="M55.00,91.00 C57.17,90.67 64.50,89.00 68.00,89.00 C71.50,89.00 74.50,90.00 76.00,91.00 C77.50,92.00 77.50,93.83 77.00,95.00 C76.50,96.17 76.17,97.00 73.00,98.00 C69.83,99.00 60.50,98.00 58.00,101.00 C55.50,104.00 57.33,112.17 58.00,116.00 C58.67,119.83 57.83,119.83 62.00,124.00 C66.17,128.17 77.33,138.00 83.00,141.00 C88.67,144.00 92.17,142.67 96.00,142.00 C99.83,141.33 103.33,138.67 106.00,137.00 C108.67,135.33 109.33,135.83 112.00,132.00 C114.67,128.17 121.67,120.00 122.00,114.00 C122.33,108.00 115.50,100.67 114.00,96.00 C112.50,91.33 113.33,87.33 113.00,86.00 C112.67,84.67 115.17,87.67 112.00,88.00 C108.83,88.33 97.67,90.00 94.00,88.00 C90.33,86.00 90.50,80.17 90.00,76.00 C89.50,71.83 91.83,65.50 91.00,63.00 C90.17,60.50 88.33,63.17 85.00,61.00 C81.67,58.83 73.83,51.50 71.00,50.00 C68.17,48.50 71.33,51.67 68.00,52.00 C64.67,52.33 54.83,51.50 51.00,52.00 C47.17,52.50 47.00,53.00 45.00,55.00 C43.00,57.00 41.00,59.67 39.00,64.00 C37.00,68.33 33.83,77.33 33.00,81.00 C32.17,84.67 32.67,84.00 34.00,86.00 C35.33,88.00 38.50,91.00 41.00,93.00 C43.50,95.00 45.83,96.67 49.00,98.00 C52.17,99.33 58.17,100.50 60.00,101.00"
     fill="none"
     stroke="black"
     stroke-width="5.66"
     stroke-linecap="round"
     stroke-linejoin="round"
     id="path9"
     style="stroke-width:4;stroke-dasharray:none" />
  <path
     d="M139.00,94.00 C140.17,94.33 144.00,94.83 146.00,96.00 C148.00,97.17 150.17,100.17 151.00,101.00"
     fill="none"
     stroke="black"
     stroke-width="4.00"
     stroke-linecap="round"
     stroke-linejoin="round"
     id="path10"
     style="stroke-width:4;stroke-dasharray:none" />
  <path
     d="M133.00,99.00 L145.00,110.00"
     fill="none"
     stroke="black"
     stroke-width="4.00"
     stroke-linecap="round"
     stroke-linejoin="round"
     id="path11"
     style="stroke-width:4;stroke-dasharray:none" />
  <path
     d="M90.00,102.00 C90.00,102.50 91.67,102.83 90.00,105.00 C88.33,107.17 81.67,113.33 80.00,115.00"
     fill="none"
     stroke="black"
     stroke-width="4.00"
     stroke-linecap="round"
     stroke-linejoin="round"
     id="path12"
     style="stroke-width:4;stroke-dasharray:none" />
  <path
     d="M100.00,104.00 C100.17,104.67 102.17,105.17 101.00,108.00 C99.83,110.83 94.33,118.83 93.00,121.00"
     fill="none"
     stroke="black"
     stroke-width="4.00"
     stroke-linecap="round"
     stroke-linejoin="round"
     id="path13"
     style="stroke-width:4;stroke-dasharray:none" />
  <path
     d="M109.00,111.00 L104.00,125.00"
     fill="none"
     stroke="black"
     stroke-width="4.00"
     stroke-linecap="round"
     stroke-linejoin="round"
     id="path14"
     style="stroke-width:4;stroke-dasharray:none" />
  <path
     d="m 16,277 c 0.67,-0.17 1.17,-1.5 4,-1 2.83,0.5 7.67,0.83 13,4 5.33,3.17 13,12.5 19,15 6,2.5 18.490149,6.8918 18.020756,-1.02076 C 69.468866,284.67603 66.17,257 64,249 c -2.17,-8 -6.67,-1.67 -8,-2"
     fill="none"
     stroke="#000000"
     stroke-width="4.47"
     stroke-linecap="round"
     stroke-linejoin="round"
     id="path15"
     style="stroke-width:4;stroke-dasharray:none"
     sodipodi:nodetypes="csssssc" />
  <path
     d="M79.00,360.00 C79.33,360.33 80.33,362.17 81.00,362.00 C81.67,361.83 81.33,359.83 83.00,359.00 C84.67,358.17 87.17,356.33 91.00,357.00 C94.83,357.67 102.50,360.83 106.00,363.00 C109.50,365.17 113.00,368.33 112.00,370.00 C111.00,371.67 103.67,372.83 100.00,373.00 C96.33,373.17 93.17,372.83 90.00,371.00 C86.83,369.17 82.50,363.50 81.00,362.00"
     fill="none"
     stroke="black"
     stroke-width="4.47"
     stroke-linecap="round"
     stroke-linejoin="round"
     id="path16"
     style="stroke-width:4;stroke-dasharray:none" />
  <path
     d="M 139.65226,626.50426 C 140.93922,619.5085 142.04887,613.61603 143,610 c 7.47861,-28.43236 25.19505,-140.50848 28,-170 0.38871,-4.08696 1.16234,-23.17781 1.89062,-21.6654 0.98573,2.04706 3.60938,7.40539 5.505,11.08082 1.87111,3.6279 3.88782,7.38319 5.4625,9.95137 3.17,5.17 7.85339,16.31661 11.18339,25.81661 3.33,9.5 3.88019,15.25774 5.95849,32.8166 2.88645,24.38662 2.5,89.83 2,115 -0.5,25.17 -4.17,30 -5,36"
     fill="none"
     stroke="#000000"
     stroke-width="6.00"
     stroke-linecap="round"
     stroke-linejoin="round"
     id="path17"
     style="stroke-width:4;stroke-dasharray:none"
     sodipodi:nodetypes="cssssssssc" />
  <path
     d="M91.00,63.00 C91.83,62.67 93.50,61.17 96.00,61.00 C98.50,60.83 104.33,61.83 106.00,62.00"
     fill="none"
     stroke="black"
     stroke-width="8.25"
     stroke-linecap="round"
     stroke-linejoin="round"
     id="path18"
     style="stroke-width:4;stroke-dasharray:none" />
  <path
     d="M154.00,82.00 C155.67,83.17 161.33,86.33 164.00,89.00 C166.67,91.67 169.50,94.17 170.00,98.00 C170.50,101.83 168.17,108.67 167.00,112.00 C165.83,115.33 164.83,115.83 163.00,118.00 C161.17,120.17 158.33,123.33 156.00,125.00 C153.67,126.67 152.17,127.50 149.00,128.00 C145.83,128.50 139.83,128.33 137.00,128.00 C134.17,127.67 133.83,128.00 132.00,126.00 C130.17,124.00 127.83,117.83 126.00,116.00 C124.17,114.17 121.50,115.17 121.00,115.00 C120.50,114.83 122.67,115.00 123.00,115.00"
     fill="none"
     stroke="black"
     stroke-width="6.00"
     stroke-linecap="round"
     stroke-linejoin="round"
     id="path19"
     style="stroke-width:4;stroke-dasharray:none" />
  <path
     d="M94.00,89.00 L77.00,95.00"
     fill="none"
     stroke="black"
     stroke-width="6.00"
     stroke-linecap="round"
     stroke-linejoin="round"
     id="path20"
     style="stroke-width:4;stroke-dasharray:none" />
  <path
     d="m 133,127 c 0,1.5 -1.83,3 0,9 1.83,6 8.83,20.33 11,27 2.17,6.67 8.61114,23.18115 8.94114,25.35115"
     fill="none"
     stroke="#000000"
     stroke-width="5.66"
     stroke-linecap="round"
     stroke-linejoin="round"
     id="path21"
     style="stroke-width:4;stroke-dasharray:none"
     sodipodi:nodetypes="cssc" />
  <path
     d="M122.00,148.00 C122.33,148.00 124.83,147.83 124.00,148.00 C123.17,148.17 119.33,147.67 117.00,149.00 C114.67,150.33 111.83,153.17 110.00,156.00 C108.17,158.83 106.83,161.83 106.00,166.00 C105.17,170.17 104.83,177.33 105.00,181.00 C105.17,184.67 106.00,186.17 107.00,188.00 C108.00,189.83 109.33,191.33 111.00,192.00 C112.67,192.67 114.33,192.83 117.00,192.00 C119.67,191.17 123.67,189.50 127.00,187.00 C130.33,184.50 136.00,181.33 137.00,177.00 C138.00,172.67 135.17,165.83 133.00,161.00 C130.83,156.17 125.50,150.17 124.00,148.00"
     fill="none"
     stroke="black"
     stroke-width="6.00"
     stroke-linecap="round"
     stroke-linejoin="round"
     id="path22"
     style="stroke-width:4;stroke-dasharray:none" />
  <path
     d="M215.00,177.00 C215.17,175.67 216.17,171.00 216.00,169.00 C215.83,167.00 216.17,166.83 214.00,165.00 C211.83,163.17 205.67,158.83 203.00,158.00 C200.33,157.17 199.33,160.33 198.00,160.00 C196.67,159.67 196.17,156.83 195.00,156.00 C193.83,155.17 193.00,154.17 191.00,155.00 C189.00,155.83 186.00,160.33 183.00,161.00 C180.00,161.67 175.33,158.83 173.00,159.00 C170.67,159.17 169.83,159.33 169.00,162.00 C168.17,164.67 167.17,171.50 168.00,175.00 C168.83,178.50 171.00,181.17 174.00,183.00 C177.00,184.83 183.83,185.17 186.00,186.00 C188.17,186.83 187.17,187.50 187.00,188.00 C186.83,188.50 185.17,189.17 185.00,189.00 C184.83,188.83 184.33,186.33 186.00,187.00 C187.67,187.67 192.33,192.00 195.00,193.00 C197.67,194.00 200.17,194.00 202.00,193.00 C203.83,192.00 205.33,188.00 206.00,187.00"
     fill="none"
     stroke="black"
     stroke-width="4.47"
     stroke-linecap="round"
     stroke-linejoin="round"
     id="path23"
     style="stroke-width:4;stroke-dasharray:none" />
  <path
     d="M198.00,160.00 C197.83,160.50 195.83,159.50 197.00,163.00 C198.17,166.50 202.00,178.50 205.00,181.00 C208.00,183.50 213.00,177.33 215.00,178.00 C217.00,178.67 217.17,183.33 217.00,185.00 C216.83,186.67 215.83,187.50 214.00,188.00 C212.17,188.50 207.50,189.17 206.00,188.00 C204.50,186.83 205.17,182.17 205.00,181.00"
     fill="none"
     stroke="black"
     stroke-width="4.47"
     stroke-linecap="round"
     stroke-linejoin="round"
     id="path24"
     style="stroke-width:4;stroke-dasharray:none" />
  <path
     d="m 183,161 c 0.67,1.17 3.33,3.33 4,7 0.67,3.67 0.67,9.5 0,15 -0.67,5.5 -2.97623,13.45547 -4.30623,17.28547 -1.23195,3.54766 -2.41559,5.70554 -3.44811,8.85812 C 178.73066,210.71603 175,202.17 172,199 c -3,-3.17 -11.33493,-9.69838 -15.24566,-12.53113 -2.74824,-1.9907 -6.44246,-5.97623 -4.67302,-1.22491 1.97969,5.31589 6.08604,36.49303 7.75604,43.49303"
     fill="none"
     stroke="#000000"
     stroke-width="4.47"
     stroke-linecap="round"
     stroke-linejoin="round"
     id="path25"
     style="stroke-width:4;stroke-dasharray:none"
     sodipodi:nodetypes="csssssssc" />
  <path
     d="m 137,176 c 1.5,0.17 6.17,-0.83 9,1 2.83,1.83 5.13886,5.06358 6.46886,6.73358"
     fill="none"
     stroke="#000000"
     stroke-width="8.25"
     stroke-linecap="round"
     stroke-linejoin="round"
     id="path26"
     style="stroke-width:4;stroke-dasharray:none"
     sodipodi:nodetypes="csc" />
  <path
     d="M48.00,200.00 C46.67,199.33 42.50,196.50 40.00,196.00 C37.50,195.50 35.17,195.50 33.00,197.00 C30.83,198.50 28.33,201.33 27.00,205.00 C25.67,208.67 26.67,216.17 25.00,219.00 C23.33,221.83 18.83,220.17 17.00,222.00 C15.17,223.83 12.67,227.00 14.00,230.00 C15.33,233.00 19.67,237.00 25.00,240.00 C30.33,243.00 41.00,246.50 46.00,248.00 C51.00,249.50 53.67,250.17 55.00,249.00 C56.33,247.83 59.00,246.00 54.00,241.00 C49.00,236.00 29.83,222.67 25.00,219.00"
     fill="none"
     stroke="black"
     stroke-width="6.32"
     stroke-linecap="round"
     stroke-linejoin="round"
     id="path27"
     style="stroke-width:4;stroke-dasharray:none" />
  <path
     d="M69.00,239.00 C71.17,235.17 78.50,221.17 82.00,216.00 C85.50,210.83 88.50,210.83 90.00,208.00 C91.50,205.17 93.00,202.67 91.00,199.00 C89.00,195.33 82.50,188.67 78.00,186.00 C73.50,183.33 67.67,182.50 64.00,183.00 C60.33,183.50 58.50,186.17 56.00,189.00 C53.50,191.83 50.00,196.17 49.00,200.00 C48.00,203.83 49.00,208.00 50.00,212.00 C51.00,216.00 51.83,219.67 55.00,224.00 C58.17,228.33 66.83,234.50 69.00,238.00 C71.17,241.50 68.83,243.17 68.00,245.00 C67.17,246.83 64.67,248.33 64.00,249.00"
     fill="none"
     stroke="black"
     stroke-width="4.47"
     stroke-linecap="round"
     stroke-linejoin="round"
     id="path28"
     style="stroke-width:4;stroke-dasharray:none" />
  <path
     d="m 179.14358,208.93944 c -0.17,1.17 -1.0549,2.97924 -2.2249,5.97924 -1.17,3 -4.74868,7.41132 -6.91868,10.08132 -2.17,2.67 -8.85604,8.72884 -9.85812,4.1834 -1.04572,-4.74347 1.86046,8.99114 1.83736,11.8166 0.17,6.33 2.41868,15.78547 3.91868,26.28547 1.5,10.5 6.23529,32.15397 6.30623,39.26642"
     fill="none"
     stroke="#000000"
     stroke-width="6.00"
     stroke-linecap="round"
     stroke-linejoin="round"
     id="path29"
     style="stroke-width:4;stroke-dasharray:none"
     sodipodi:nodetypes="csssssc" />
  <path
     d="M208.00,261.00 C207.00,261.00 204.33,259.50 202.00,261.00 C199.67,262.50 196.00,266.67 194.00,270.00 C192.00,273.33 190.50,277.50 190.00,281.00 C189.50,284.50 190.00,289.50 191.00,291.00 C192.00,292.50 193.83,291.67 196.00,290.00 C198.17,288.33 202.00,284.50 204.00,281.00 C206.00,277.50 207.50,272.50 208.00,269.00 C208.50,265.50 207.17,261.50 207.00,260.00"
     fill="none"
     stroke="black"
     stroke-width="4.47"
     stroke-linecap="round"
     stroke-linejoin="round"
     id="path30"
     style="stroke-width:4;stroke-dasharray:none" />
  <path
     d="m 191,291 c -1.83,2.33 -8.9866,9.49264 -11.8166,12.16264 -2.83,2.67 -6.50737,-2.56529 -6.91869,2.4083 C 172.00699,308.68725 172.17,305.5 172,322 c -0.17,16.5 1.83745,72.02856 1.11959,86.84486 -0.7383,15.2383 1.71518,12.89314 -4.07029,5.44332 C 164.0194,407.81129 142.17,383 134,376 c -8.17,-7 -9.17,-5.83 -13,-7 -3.83,-1.17 -8.33,0 -10,0"
     fill="none"
     stroke="#000000"
     stroke-width="6.00"
     stroke-linecap="round"
     stroke-linejoin="round"
     id="path31"
     style="stroke-width:4;stroke-dasharray:none"
     sodipodi:nodetypes="csssssssc" />
  <path
     d="m 69.948816,292.62325 c -0.484854,-2.96456 0.716534,3.81567 3.206037,9.70745 2.430015,5.75099 8.592574,14.90158 16.422574,25.40158 7.83,10.5 21.437783,27.20096 27.834653,33.84515 6.11585,6.35231 9.22377,8.53098 11.46586,10.41797"
     fill="none"
     stroke="#000000"
     stroke-width="7.21"
     stroke-linecap="round"
     stroke-linejoin="round"
     id="path32"
     style="stroke-width:4;stroke-dasharray:none"
     sodipodi:nodetypes="csssc" />
</svg>
