<?xml version="1.0" encoding="UTF-8" standalone="no"?>
<svg
   viewBox="0 0 232 659"
   width="232"
   height="659"
   version="1.1"
   id="svg32"
   sodipodi:docname="july_right.svg"
   inkscape:version="1.4.2 (f4327f4, 2025-05-13)"
   xmlns:inkscape="http://www.inkscape.org/namespaces/inkscape"
   xmlns:sodipodi="http://sodipodi.sourceforge.net/DTD/sodipodi-0.dtd"
   xmlns="http://www.w3.org/2000/svg"
   xmlns:svg="http://www.w3.org/2000/svg">
  <defs
     id="defs32" />
  <sodipodi:namedview
     id="namedview32"
     pagecolor="#ffffff"
     bordercolor="#000000"
     borderopacity="0.25"
     inkscape:showpageshadow="2"
     inkscape:pageopacity="0.0"
     inkscape:pagecheckerboard="0"
     inkscape:deskcolor="#d1d1d1"
     showguides="true"
     inkscape:zoom="1.2821244"
     inkscape:cx="0.38997777"
     inkscape:cy="360.72944"
     inkscape:window-width="1920"
     inkscape:window-height="1009"
     inkscape:window-x="1912"
     inkscape:window-y="-8"
     inkscape:window-maximized="1"
     inkscape:current-layer="svg32" />
  <path
     d="M133.00,35.00 C133.33,37.17 134.83,43.50 135.00,48.00 C135.17,52.50 133.83,59.67 134.00,62.00 C134.17,64.33 137.83,62.00 136.00,62.00 C134.17,62.00 125.17,62.00 123.00,62.00"
     fill="none"
     stroke="black"
     stroke-width="6.00"
     stroke-linecap="round"
     stroke-linejoin="round"
     id="path1"
     style="stroke-width:4;stroke-dasharray:none" />
  <path
     d="M100.00,51.00 C101.50,52.33 106.83,56.50 109.00,59.00 C111.17,61.50 112.33,64.83 113.00,66.00"
     fill="none"
     stroke="black"
     stroke-width="4.00"
     stroke-linecap="round"
     stroke-linejoin="round"
     id="path2"
     style="stroke-width:4;stroke-dasharray:none" />
  <path
     d="M92.00,54.00 C92.17,54.83 90.33,56.17 93.00,59.00 C95.67,61.83 105.50,69.00 108.00,71.00"
     fill="none"
     stroke="black"
     stroke-width="4.00"
     stroke-linecap="round"
     stroke-linejoin="round"
     id="path3"
     style="stroke-width:4;stroke-dasharray:none" />
  <path
     d="M168.00,63.00 C167.00,63.67 164.50,66.17 162.00,67.00 C159.50,67.83 154.50,67.83 153.00,68.00"
     fill="none"
     stroke="black"
     stroke-width="4.00"
     stroke-linecap="round"
     stroke-linejoin="round"
     id="path4"
     style="stroke-width:4;stroke-dasharray:none" />
  <path
     d="M84.00,66.00 C85.33,67.17 89.67,71.67 92.00,73.00 C94.33,74.33 97.00,73.83 98.00,74.00"
     fill="none"
     stroke="black"
     stroke-width="4.00"
     stroke-linecap="round"
     stroke-linejoin="round"
     id="path5"
     style="stroke-width:4;stroke-dasharray:none" />
  <path
     d="M172.00,73.00 C170.67,74.00 168.00,77.83 164.00,79.00 C160.00,80.17 150.67,79.83 148.00,80.00"
     fill="none"
     stroke="black"
     stroke-width="4.00"
     stroke-linecap="round"
     stroke-linejoin="round"
     id="path6"
     style="stroke-width:4;stroke-dasharray:none" />
  <path
     d="M91.00,84.00 C88.83,83.83 81.33,85.33 78.00,83.00 C74.67,80.67 72.50,74.67 71.00,70.00 C69.50,65.33 68.67,59.83 69.00,55.00 C69.33,50.17 71.50,44.17 73.00,41.00 C74.50,37.83 71.50,36.67 78.00,36.00 C84.50,35.33 105.00,40.00 112.00,37.00 C119.00,34.00 116.83,22.83 120.00,18.00 C123.17,13.17 127.83,9.67 131.00,8.00 C134.17,6.33 134.83,6.67 139.00,8.00 C143.17,9.33 152.33,13.83 156.00,16.00 C159.67,18.17 159.83,19.17 161.00,21.00 C162.17,22.83 163.00,22.00 163.00,27.00 C163.00,32.00 164.67,44.83 161.00,51.00 C157.33,57.17 145.33,62.17 141.00,64.00 C136.67,65.83 136.00,62.33 135.00,62.00"
     fill="none"
     stroke="black"
     stroke-width="4.47"
     stroke-linecap="round"
     stroke-linejoin="round"
     id="path7"
     style="stroke-width:4;stroke-dasharray:none" />
  <path
     d="M101.00,85.00 C104.00,85.17 115.83,88.83 119.00,86.00 C122.17,83.17 119.17,72.00 120.00,68.00 C120.83,64.00 123.67,64.33 124.00,62.00 C124.33,59.67 124.00,58.17 122.00,54.00 C120.00,49.83 113.67,39.83 112.00,37.00"
     fill="none"
     stroke="black"
     stroke-width="4.24"
     stroke-linecap="round"
     stroke-linejoin="round"
     id="path8"
     style="stroke-width:4;stroke-dasharray:none" />
  <path
     d="M154.00,89.00 C154.33,89.17 156.00,89.00 156.00,90.00 C156.00,91.00 153.67,93.67 154.00,95.00 C154.33,96.33 154.67,97.00 158.00,98.00 C161.33,99.00 168.67,101.83 174.00,101.00 C179.33,100.17 186.00,96.00 190.00,93.00 C194.00,90.00 197.67,87.67 198.00,83.00 C198.33,78.33 194.33,69.83 192.00,65.00 C189.67,60.17 189.17,56.33 184.00,54.00 C178.83,51.67 164.83,51.50 161.00,51.00"
     fill="none"
     stroke="black"
     stroke-width="4.00"
     stroke-linecap="round"
     stroke-linejoin="round"
     id="path9"
     style="stroke-width:4;stroke-dasharray:none" />
  <path
     d="M176.00,91.00 C173.00,90.67 161.67,88.33 158.00,89.00 C154.33,89.67 155.33,94.00 154.00,95.00 C152.67,96.00 153.17,96.17 150.00,95.00 C146.83,93.83 137.50,89.17 135.00,88.00"
     fill="none"
     stroke="black"
     stroke-width="4.00"
     stroke-linecap="round"
     stroke-linejoin="round"
     id="path10"
     style="stroke-width:4;stroke-dasharray:none" />
  <path
     d="M92.00,94.00 C90.83,94.33 87.17,94.83 85.00,96.00 C82.83,97.17 80.00,100.17 79.00,101.00"
     fill="none"
     stroke="black"
     stroke-width="4.00"
     stroke-linecap="round"
     stroke-linejoin="round"
     id="path11"
     style="stroke-width:4;stroke-dasharray:none" />
  <path
     d="M98.00,99.00 L85.00,110.00"
     fill="none"
     stroke="black"
     stroke-width="4.00"
     stroke-linecap="round"
     stroke-linejoin="round"
     id="path12"
     style="stroke-width:4;stroke-dasharray:none" />
  <path
     d="M141.00,102.00 C140.83,102.33 138.33,101.83 140.00,104.00 C141.67,106.17 149.17,113.17 151.00,115.00"
     fill="none"
     stroke="black"
     stroke-width="4.00"
     stroke-linecap="round"
     stroke-linejoin="round"
     id="path13"
     style="stroke-width:4;stroke-dasharray:none" />
  <path
     d="M131.00,105.00 C130.83,105.67 128.67,106.17 130.00,109.00 C131.33,111.83 137.50,119.83 139.00,122.00"
     fill="none"
     stroke="black"
     stroke-width="4.00"
     stroke-linecap="round"
     stroke-linejoin="round"
     id="path14"
     style="stroke-width:4;stroke-dasharray:none" />
  <path
     d="M122.00,111.00 L127.00,125.00"
     fill="none"
     stroke="black"
     stroke-width="4.00"
     stroke-linecap="round"
     stroke-linejoin="round"
     id="path15"
     style="stroke-width:4;stroke-dasharray:none" />
  <path
     d="m 214,276 c -3,0.83 -12.17,1.83 -18,5 -5.83,3.17 -11.17,11.67 -17,14 -5.83,2.33 -21.73964,5.81481 -19.85239,1.65741 1.46142,-3.21936 3.66993,-11.05992 4.16993,-16.55992 0.5,-5.5 0.69492,-13.02498 1.36492,-18.19498 C 165.35246,256.73251 167.33,251.17 168,249"
     fill="none"
     stroke="#000000"
     stroke-width="4.47"
     stroke-linecap="round"
     stroke-linejoin="round"
     id="path16"
     style="stroke-width:4;stroke-dasharray:none"
     sodipodi:nodetypes="csssssc" />
  <path
     d="M 89.779956,624.08931 C 89.279956,621.08931 89.83,626.67 85,598 80.17,569.33 61.706438,464.34604 58.483342,436.96668 c -3.004694,-25.5241 1.16961,-20.05496 -6.001539,-6.2045 -5.156654,9.95963 -9.979071,18.09875 -13.584827,28.99692 C 35.932681,468.71849 33.824536,472.74363 30,493 c -3.855953,20.42277 -3,68 -3,92 0,24 2,41.33 3,52 1,10.67 2.5,10 3,12"
     fill="none"
     stroke="#000000"
     stroke-width="6.00"
     stroke-linecap="round"
     stroke-linejoin="round"
     id="path17"
     style="stroke-width:4;stroke-dasharray:none"
     sodipodi:nodetypes="csssssssc" />
  <path
     d="M142.00,63.00 C141.17,67.00 140.83,82.83 137.00,87.00 C133.17,91.17 122.17,88.17 119.00,88.00 C115.83,87.83 117.83,86.17 118.00,86.00 C118.17,85.83 121.50,82.33 120.00,87.00 C118.50,91.67 110.83,109.50 109.00,114.00"
     fill="none"
     stroke="black"
     stroke-width="8.25"
     stroke-linecap="round"
     stroke-linejoin="round"
     id="path18"
     style="stroke-width:4;stroke-dasharray:none" />
  <path
     d="M78.00,83.00 C76.33,83.83 70.83,85.67 68.00,88.00 C65.17,90.33 62.17,94.17 61.00,97.00 C59.83,99.83 60.00,101.67 61.00,105.00 C62.00,108.33 64.83,113.83 67.00,117.00 C69.17,120.17 71.50,122.17 74.00,124.00 C76.50,125.83 78.00,127.33 82.00,128.00 C86.00,128.67 94.50,129.67 98.00,128.00 C101.50,126.33 101.17,120.17 103.00,118.00 C104.83,115.83 106.67,113.17 109.00,115.00 C111.33,116.83 114.33,125.33 117.00,129.00 C119.67,132.67 122.00,134.83 125.00,137.00 C128.00,139.17 130.83,141.50 135.00,142.00 C139.17,142.50 144.33,143.00 150.00,140.00 C155.67,137.00 165.17,128.67 169.00,124.00 C172.83,119.33 172.33,115.83 173.00,112.00 C173.67,108.17 173.33,102.83 173.00,101.00 C172.67,99.17 171.33,101.00 171.00,101.00"
     fill="none"
     stroke="black"
     stroke-width="6.00"
     stroke-linecap="round"
     stroke-linejoin="round"
     id="path19"
     style="stroke-width:4;stroke-dasharray:none" />
  <path
     d="m 98,128 c 0,1.17 2.17,0.33 0,7 -2.17,6.67 -10.959625,26.40335 -13,33 -4.248101,13.73435 -1.665948,7.35926 -6.220044,20.70752 -0.702839,2.06005 -1.194922,4.28002 -2.949889,10.70751 -1.695555,6.2099 -5.304945,22.51246 -6.974945,27.68246 -1.67,5.17 -1.562774,6.30218 -2.2451,3.70752 -0.965078,-3.66987 -5.901242,-8.63228 -8.989571,-12.4944 C 54.729434,214.69524 51,211.83 53,207 c 2,-4.83 12,-13.83 16,-17 4,-3.17 6.67,-1.67 8,-2"
     fill="none"
     stroke="#000000"
     stroke-width="5.66"
     stroke-linecap="round"
     stroke-linejoin="round"
     id="path20"
     style="stroke-width:4;stroke-dasharray:none"
     sodipodi:nodetypes="csssssssssc" />
  <path
     d="M107.00,148.00 L108.00,147.00"
     fill="none"
     stroke="black"
     stroke-width="8.12"
     stroke-linecap="round"
     stroke-linejoin="round"
     id="path21"
     style="stroke-width:4;stroke-dasharray:none" />
  <path
     d="M 83.075167,176.41503 C 84.405167,176.24503 91,174.33 94,176 c 3,1.67 6.67,8.33 10,11 3.33,2.67 7.33,4.17 10,5 2.67,0.83 4.17,1.33 6,0 1.83,-1.33 4.17,-4 5,-8 0.83,-4 0.67,-11.5 0,-16 -0.67,-4.5 -2.17,-7.83 -4,-11 -1.83,-3.17 -4.67,-6.5 -7,-8 -2.33,-1.5 -5.17,-1.33 -7,-1 -1.83,0.33 -2.33,0.5 -4,3 -1.67,2.5 -4.5,7.5 -6,12 -1.5,4.5 -2.5,12.5 -3,15"
     fill="none"
     stroke="#000000"
     stroke-width="6.00"
     stroke-linecap="round"
     stroke-linejoin="round"
     id="path22"
     style="stroke-width:4;stroke-dasharray:none"
     sodipodi:nodetypes="csssssssssssc" />
  <path
     d="M16.00,177.00 C15.67,176.33 14.17,174.50 14.00,173.00 C13.83,171.50 13.67,170.17 15.00,168.00 C16.33,165.83 19.83,161.67 22.00,160.00 C24.17,158.33 26.17,158.00 28.00,158.00 C29.83,158.00 31.67,160.33 33.00,160.00 C34.33,159.67 34.83,156.83 36.00,156.00 C37.17,155.17 38.00,154.17 40.00,155.00 C42.00,155.83 45.00,160.33 48.00,161.00 C51.00,161.67 55.67,158.67 58.00,159.00 C60.33,159.33 61.33,159.83 62.00,163.00 C62.67,166.17 62.83,174.67 62.00,178.00 C61.17,181.33 59.50,181.67 57.00,183.00 C54.50,184.33 49.17,185.83 47.00,186.00 C44.83,186.17 44.67,186.50 44.00,184.00 C43.33,181.50 42.33,174.83 43.00,171.00 C43.67,167.17 47.17,162.67 48.00,161.00"
     fill="none"
     stroke="black"
     stroke-width="4.00"
     stroke-linecap="round"
     stroke-linejoin="round"
     id="path23"
     style="stroke-width:4;stroke-dasharray:none" />
  <path
     d="M33.00,160.00 C32.17,162.83 29.33,173.67 28.00,177.00 C26.67,180.33 27.00,180.00 25.00,180.00 C23.00,180.00 18.00,176.33 16.00,177.00 C14.00,177.67 12.83,182.17 13.00,184.00 C13.17,185.83 15.17,187.33 17.00,188.00 C18.83,188.67 22.67,189.33 24.00,188.00 C25.33,186.67 24.83,181.33 25.00,180.00"
     fill="none"
     stroke="black"
     stroke-width="4.47"
     stroke-linecap="round"
     stroke-linejoin="round"
     id="path24"
     style="stroke-width:4;stroke-dasharray:none" />
  <path
     d="M45.00,187.00 L45.00,187.00"
     fill="none"
     stroke="black"
     stroke-width="7.73"
     stroke-linecap="round"
     stroke-linejoin="round"
     id="path25"
     style="stroke-width:4;stroke-dasharray:none" />
  <path
     d="m 25,187 c 0.67,1 2.17,5 4,6 1.83,1 4.33,0.83 7,0 2.67,-0.83 7,-6.33 9,-5 2,1.33 2.572439,8.35383 3.731208,12.12255 1.073365,3.49096 3.207587,10.72467 4.207587,11.89467"
     fill="none"
     stroke="#000000"
     stroke-width="4.47"
     stroke-linecap="round"
     stroke-linejoin="round"
     id="path26"
     style="stroke-width:4;stroke-dasharray:none"
     sodipodi:nodetypes="cssssc" />
  <path
     d="M162.00,238.00 C160.00,234.67 153.33,222.67 150.00,218.00 C146.67,213.33 143.83,212.67 142.00,210.00 C140.17,207.33 139.17,204.33 139.00,202.00 C138.83,199.67 138.00,199.00 141.00,196.00 C144.00,193.00 152.67,186.17 157.00,184.00 C161.33,181.83 164.67,182.83 167.00,183.00 C169.33,183.17 168.67,182.00 171.00,185.00 C173.33,188.00 177.67,199.17 181.00,201.00 C184.33,202.83 188.50,196.83 191.00,196.00 C193.50,195.17 193.83,194.33 196.00,196.00 C198.17,197.67 202.50,202.17 204.00,206.00 C205.50,209.83 204.50,216.83 205.00,219.00 C205.50,221.17 206.67,219.00 207.00,219.00"
     fill="none"
     stroke="black"
     stroke-width="4.47"
     stroke-linecap="round"
     stroke-linejoin="round"
     id="path27"
     style="stroke-width:4;stroke-dasharray:none" />
  <path
     d="M181.00,201.00 C180.83,203.33 180.67,211.50 180.00,215.00 C179.33,218.50 178.67,219.17 177.00,222.00 C175.33,224.83 172.50,229.33 170.00,232.00 C167.50,234.67 163.17,235.83 162.00,238.00 C160.83,240.17 162.17,243.17 163.00,245.00 C163.83,246.83 165.00,248.50 167.00,249.00 C169.00,249.50 173.33,249.17 175.00,248.00 C176.67,246.83 175.00,244.67 177.00,242.00 C179.00,239.33 182.33,235.83 187.00,232.00 C191.67,228.17 200.67,220.83 205.00,219.00 C209.33,217.17 211.00,219.50 213.00,221.00 C215.00,222.50 216.50,226.17 217.00,228.00 C217.50,229.83 217.83,230.00 216.00,232.00 C214.17,234.00 211.17,237.33 206.00,240.00 C200.83,242.67 190.33,246.67 185.00,248.00 C179.67,249.33 175.83,248.00 174.00,248.00"
     fill="none"
     stroke="black"
     stroke-width="6.32"
     stroke-linecap="round"
     stroke-linejoin="round"
     id="path28"
     style="stroke-width:4;stroke-dasharray:none" />
  <path
     d="m 67.487472,231.19499 c -1.339933,5.25497 -3.466543,14.25623 -4.796543,26.42623 -1.33,12.17 -4.415694,41.31693 -4.449258,46.37878 -0.0055,0.82489 -0.0047,0.30675 -0.116068,3.71447 -0.197028,6.02635 -1.445077,0.46077 -4.312924,-0.81899 C 52.818965,306.45204 51.700333,305.66074 51,305 48.17,302.33 40.67,293.67 39,291 c -1.67,-2.67 1.83,0.33 2,-2 0.17,-2.33 0.17,-8.17 -1,-12 -1.17,-3.83 -4.17,-8.33 -6,-11 -1.83,-2.67 -3.17,-4.17 -5,-5 -1.83,-0.83 -5,0.33 -6,0 -1,-0.33 0.17,-3.17 0,-2 -0.17,1.17 -1.83,5 -1,9 0.83,4 3.83,11.33 6,15 2.17,3.67 5,5.83 7,7 2,1.17 4.17,-0.33 5,0 0.83,0.33 0,1.67 0,2"
     fill="none"
     stroke="#000000"
     stroke-width="6.00"
     stroke-linecap="round"
     stroke-linejoin="round"
     id="path29"
     style="stroke-width:4;stroke-dasharray:none"
     sodipodi:nodetypes="cssssssssssssssssc" />
  <path
     d="m 159,297 c -1.5,2.33 -2.87745,6.61002 -5.87745,11.61002 -1.81169,3.01949 -3.36538,6.06085 -5.81619,9.83105 -1.60751,2.47292 -3.60098,5.2594 -6.30636,8.55893 -6.83,8.33 -24.51666,28.30907 -28,32 -4.90042,5.19246 -3.70307,4.06155 -7.73634,8.33859 -3.47216,3.682 -7.751138,8.06055 -15.33183,14.45382 -8.500319,7.16885 -27.94881,26.52468 -31.724244,37.51512 -2.286641,6.6565 -1.394244,6.21032 -1.724244,-9.61968 -0.33,-15.83 1.984536,-84.9284 1.654536,-101.0984"
     fill="none"
     stroke="#000000"
     stroke-width="6.00"
     stroke-linecap="round"
     stroke-linejoin="round"
     id="path30"
     style="stroke-width:4;stroke-dasharray:none"
     sodipodi:nodetypes="cssssssssc" />
  <path
     d="m 118,370 c 1.17,-1.17 3.33,-4.83 7,-7 3.67,-2.17 10.83,-5.5 15,-6 4.17,-0.5 8.67,2.5 10,3 1.33,0.5 -1.83,-0.67 -2,0 -0.17,0.67 1.67,2.33 1,4 -0.67,1.67 -3,4.67 -5,6 -2,1.33 -3.33,1.67 -7,2 -3.67,0.33 -12,0.5 -15,0 -3,-0.5 -2.68666,-3.18939 -4.93029,-3.27576 -1.89568,-0.073 -7.35939,-2.61968 -8.68939,-2.61968"
     fill="none"
     stroke="#000000"
     stroke-width="5.66"
     stroke-linecap="round"
     stroke-linejoin="round"
     id="path31"
     style="stroke-width:4;stroke-dasharray:none"
     sodipodi:nodetypes="csssssssssc" />
</svg>
