<?xml version="1.0" encoding="UTF-8"?>
<svg xmlns="http://www.w3.org/2000/svg" viewBox="0 0 240 781" width="240" height="781">
  <path d="M188.00,193.00 C187.67,193.33 185.83,194.17 186.00,195.00 C186.17,195.83 188.67,194.50 189.00,198.00 C189.33,201.50 189.83,211.33 188.00,216.00 C186.17,220.67 181.17,223.83 178.00,226.00 C174.83,228.17 170.67,229.83 169.00,229.00 C167.33,228.17 167.67,223.50 168.00,221.00 C168.33,218.50 169.33,217.33 171.00,214.00 C172.67,210.67 175.50,204.17 178.00,201.00 C180.50,197.83 184.67,196.00 186.00,195.00" fill="none" stroke="black" stroke-width="5.66" stroke-linecap="round" stroke-linejoin="round"/>
  <path d="M98.00,754.00 C100.67,733.00 109.83,665.33 114.00,628.00 C118.17,590.67 120.83,570.17 123.00,530.00 C125.17,489.83 126.50,431.00 127.00,387.00 C127.50,343.00 125.67,287.00 126.00,266.00 C126.33,245.00 129.00,262.50 129.00,261.00 C129.00,259.50 126.83,268.83 126.00,257.00 C125.17,245.17 124.17,201.67 124.00,190.00 C123.83,178.33 122.50,187.50 125.00,187.00 C127.50,186.50 136.67,187.67 139.00,187.00 C141.33,186.33 140.33,185.00 139.00,183.00 C137.67,181.00 136.67,176.00 131.00,175.00 C125.33,174.00 109.83,177.50 105.00,177.00 C100.17,176.50 102.50,172.83 102.00,172.00" fill="none" stroke="black" stroke-width="4.47" stroke-linecap="round" stroke-linejoin="round"/>
  <path d="M112.00,36.00 C111.67,36.00 110.67,37.00 110.00,36.00 C109.33,35.00 109.50,31.33 108.00,30.00 C106.50,28.67 104.17,28.33 101.00,28.00 C97.83,27.67 92.33,27.50 89.00,28.00 C85.67,28.50 85.00,27.83 81.00,31.00 C77.00,34.17 67.67,42.67 65.00,47.00 C62.33,51.33 64.50,54.00 65.00,57.00 C65.50,60.00 66.50,63.33 68.00,65.00 C69.50,66.67 71.17,68.67 74.00,67.00 C76.83,65.33 82.33,57.17 85.00,55.00 C87.67,52.83 89.33,54.67 90.00,54.00 C90.67,53.33 88.17,52.67 89.00,51.00 C89.83,49.33 91.50,46.50 95.00,44.00 C98.50,41.50 106.17,37.17 110.00,36.00 C113.83,34.83 115.17,35.67 118.00,37.00 C120.83,38.33 124.83,42.83 127.00,44.00 C129.17,45.17 129.67,45.33 131.00,44.00 C132.33,42.67 132.17,38.17 135.00,36.00 C137.83,33.83 142.67,29.17 148.00,31.00 C153.33,32.83 161.67,41.17 167.00,47.00 C172.33,52.83 177.17,60.67 180.00,66.00 C182.83,71.33 183.50,75.00 184.00,79.00 C184.50,83.00 184.17,87.67 183.00,90.00 C181.83,92.33 179.67,94.33 177.00,93.00 C174.33,91.67 170.50,84.17 167.00,82.00 C163.50,79.83 159.83,84.33 156.00,80.00 C152.17,75.67 148.17,62.00 144.00,56.00 C139.83,50.00 133.17,46.00 131.00,44.00" fill="none" stroke="black" stroke-width="5.66" stroke-linecap="round" stroke-linejoin="round"/>
  <path d="M128.00,43.00 C127.67,43.00 125.00,37.67 126.00,43.00 C127.00,48.33 132.67,68.00 134.00,75.00 C135.33,82.00 136.33,82.17 134.00,85.00 C131.67,87.83 123.67,90.67 120.00,92.00 C116.33,93.33 113.83,93.17 112.00,93.00 C110.17,92.83 107.50,93.33 109.00,91.00 C110.50,88.67 119.00,82.50 121.00,79.00 C123.00,75.50 121.50,72.50 121.00,70.00 C120.50,67.50 120.00,66.17 118.00,64.00 C116.00,61.83 113.67,58.67 109.00,57.00 C104.33,55.33 93.17,54.50 90.00,54.00" fill="none" stroke="black" stroke-width="5.66" stroke-linecap="round" stroke-linejoin="round"/>
  <path d="M64.00,57.00 C62.33,57.50 57.50,57.33 54.00,60.00 C50.50,62.67 45.33,69.33 43.00,73.00 C40.67,76.67 40.33,78.33 40.00,82.00 C39.67,85.67 42.67,90.17 41.00,95.00 C39.33,99.83 31.83,106.83 30.00,111.00 C28.17,115.17 28.17,116.17 30.00,120.00 C31.83,123.83 36.83,131.00 41.00,134.00 C45.17,137.00 51.67,134.00 55.00,138.00 C58.33,142.00 58.33,152.67 61.00,158.00 C63.67,163.33 68.33,167.50 71.00,170.00 C73.67,172.50 71.83,172.50 77.00,173.00 C82.17,173.50 97.00,174.17 102.00,173.00 C107.00,171.83 103.67,168.17 107.00,166.00 C110.33,163.83 117.00,163.33 122.00,160.00 C127.00,156.67 133.00,150.17 137.00,146.00 C141.00,141.83 143.50,138.83 146.00,135.00 C148.50,131.17 150.67,126.33 152.00,123.00 C153.33,119.67 153.67,117.50 154.00,115.00 C154.33,112.50 154.33,109.33 154.00,108.00 C153.67,106.67 151.50,110.00 152.00,107.00 C152.50,104.00 156.33,94.50 157.00,90.00 C157.67,85.50 156.17,81.67 156.00,80.00" fill="none" stroke="black" stroke-width="5.66" stroke-linecap="round" stroke-linejoin="round"/>
  <path d="M71.00,67.00 C71.33,67.00 73.00,65.67 73.00,67.00 C73.00,68.33 73.17,71.67 71.00,75.00 C68.83,78.33 62.33,83.83 60.00,87.00 C57.67,90.17 57.50,91.50 57.00,94.00 C56.50,96.50 57.50,100.00 57.00,102.00 C56.50,104.00 56.67,107.17 54.00,106.00 C51.33,104.83 43.17,96.83 41.00,95.00" fill="none" stroke="black" stroke-width="5.66" stroke-linecap="round" stroke-linejoin="round"/>
  <path d="M134.00,85.00 C134.83,86.00 138.33,89.00 139.00,91.00 C139.67,93.00 140.00,93.00 138.00,97.00 C136.00,101.00 128.50,110.00 127.00,115.00 C125.50,120.00 127.83,125.17 129.00,127.00 C130.17,128.83 131.50,128.33 134.00,126.00 C136.50,123.67 141.00,116.17 144.00,113.00 C147.00,109.83 150.67,108.00 152.00,107.00" fill="none" stroke="black" stroke-width="5.66" stroke-linecap="round" stroke-linejoin="round"/>
  <path d="M110.00,90.00 C108.83,90.50 106.17,92.83 103.00,93.00 C99.83,93.17 94.67,90.50 91.00,91.00 C87.33,91.50 83.17,94.67 81.00,96.00 C78.83,97.33 78.33,96.50 78.00,99.00 C77.67,101.50 77.83,107.67 79.00,111.00 C80.17,114.33 81.17,117.00 85.00,119.00 C88.83,121.00 98.00,121.17 102.00,123.00 C106.00,124.83 107.33,127.00 109.00,130.00 C110.67,133.00 109.50,140.00 112.00,141.00 C114.50,142.00 121.17,138.17 124.00,136.00 C126.83,133.83 128.17,129.33 129.00,128.00" fill="none" stroke="black" stroke-width="5.66" stroke-linecap="round" stroke-linejoin="round"/>
  <path d="M178.00,93.00 C178.33,93.00 179.83,91.83 180.00,93.00 C180.17,94.17 178.00,95.33 179.00,100.00 C180.00,104.67 184.83,115.67 186.00,121.00 C187.17,126.33 187.00,127.33 186.00,132.00 C185.00,136.67 183.00,144.33 180.00,149.00 C177.00,153.67 175.83,156.33 168.00,160.00 C160.17,163.67 139.17,168.67 133.00,171.00 C126.83,173.33 131.33,173.50 131.00,174.00" fill="none" stroke="black" stroke-width="4.47" stroke-linecap="round" stroke-linejoin="round"/>
  <path d="M55.00,105.00 C55.00,106.67 54.17,111.00 55.00,115.00 C55.83,119.00 60.00,126.17 60.00,129.00 C60.00,131.83 56.00,130.67 55.00,132.00 C54.00,133.33 54.17,136.17 54.00,137.00" fill="none" stroke="black" stroke-width="6.00" stroke-linecap="round" stroke-linejoin="round"/>
  <path d="M60.00,129.00 C62.50,129.50 68.83,129.50 75.00,132.00 C81.17,134.50 91.33,142.00 97.00,144.00 C102.67,146.00 106.50,144.67 109.00,144.00 C111.50,143.33 111.50,140.67 112.00,140.00" fill="none" stroke="black" stroke-width="4.47" stroke-linecap="round" stroke-linejoin="round"/>
  <path d="M105.00,178.00 C104.83,179.50 102.00,185.83 104.00,187.00 C106.00,188.17 113.33,185.00 117.00,185.00 C120.67,185.00 125.00,187.00 126.00,187.00 C127.00,187.00 123.33,186.67 123.00,185.00 C122.67,183.33 123.83,178.33 124.00,177.00" fill="none" stroke="black" stroke-width="8.25" stroke-linecap="round" stroke-linejoin="round"/>
  <path d="M169.00,229.00 C167.50,230.83 160.83,237.50 160.00,240.00 C159.17,242.50 159.67,242.50 164.00,244.00 C168.33,245.50 182.67,247.50 186.00,249.00 C189.33,250.50 184.83,251.83 184.00,253.00 C183.17,254.17 183.00,255.17 181.00,256.00 C179.00,256.83 175.00,257.67 172.00,258.00 C169.00,258.33 167.50,258.83 163.00,258.00 C158.50,257.17 146.83,255.50 145.00,253.00 C143.17,250.50 149.33,245.00 152.00,243.00 C154.67,241.00 159.50,241.33 161.00,241.00" fill="none" stroke="black" stroke-width="5.66" stroke-linecap="round" stroke-linejoin="round"/>
  <path d="M145.00,252.00 L128.00,262.00" fill="none" stroke="black" stroke-width="8.25" stroke-linecap="round" stroke-linejoin="round"/>
</svg>
