<?xml version="1.0" encoding="UTF-8"?>
<svg xmlns="http://www.w3.org/2000/svg" viewBox="0 0 240 781" width="240" height="781">
  <path d="M52.00,193.00 C51.83,193.50 50.50,195.50 51.00,196.00 C51.50,196.50 53.50,195.33 55.00,196.00 C56.50,196.67 57.67,196.50 60.00,200.00 C62.33,203.50 67.17,212.83 69.00,217.00 C70.83,221.17 71.00,223.00 71.00,225.00 C71.00,227.00 69.33,228.33 69.00,229.00" fill="none" stroke="black" stroke-width="5.66" stroke-linecap="round" stroke-linejoin="round"/>
  <path d="M143.00,754.00 C142.50,753.33 141.50,757.50 140.00,750.00 C138.50,742.50 137.67,741.17 134.00,709.00 C130.33,676.83 121.83,611.33 118.00,557.00 C114.17,502.67 112.00,431.83 111.00,383.00 C110.00,334.17 112.17,284.33 112.00,264.00 C111.83,243.67 113.00,262.83 110.00,261.00 C107.00,259.17 96.83,255.00 94.00,253.00 C91.17,251.00 94.67,251.00 93.00,249.00 C91.33,247.00 86.50,242.33 84.00,241.00 C81.50,239.67 79.00,241.50 78.00,241.00 C77.00,240.50 79.00,239.33 78.00,238.00 C77.00,236.67 73.33,234.67 72.00,233.00 C70.67,231.33 71.33,228.83 70.00,228.00 C68.67,227.17 67.17,230.00 64.00,228.00 C60.83,226.00 53.17,221.33 51.00,216.00 C48.83,210.67 51.00,199.33 51.00,196.00" fill="none" stroke="black" stroke-width="4.47" stroke-linecap="round" stroke-linejoin="round"/>
  <path d="M150.00,54.00 C149.83,53.17 150.00,50.67 149.00,49.00 C148.00,47.33 147.50,46.33 144.00,44.00 C140.50,41.67 130.17,37.33 128.00,35.00 C125.83,32.67 127.33,31.17 131.00,30.00 C134.67,28.83 145.00,27.50 150.00,28.00 C155.00,28.50 157.17,30.17 161.00,33.00 C164.83,35.83 171.00,40.83 173.00,45.00 C175.00,49.17 173.00,55.83 173.00,58.00" fill="none" stroke="black" stroke-width="5.66" stroke-linecap="round" stroke-linejoin="round"/>
  <path d="M129.00,36.00 C127.67,36.17 124.00,35.67 121.00,37.00 C118.00,38.33 114.33,44.50 111.00,44.00 C107.67,43.50 104.00,36.17 101.00,34.00 C98.00,31.83 96.33,30.50 93.00,31.00 C89.67,31.50 85.67,32.83 81.00,37.00 C76.33,41.17 69.33,49.83 65.00,56.00 C60.67,62.17 56.67,68.50 55.00,74.00 C53.33,79.50 54.33,85.83 55.00,89.00 C55.67,92.17 58.33,92.33 59.00,93.00" fill="none" stroke="black" stroke-width="5.66" stroke-linecap="round" stroke-linejoin="round"/>
  <path d="M108.00,43.00 C105.67,45.33 97.83,51.50 94.00,57.00 C90.17,62.50 87.17,72.33 85.00,76.00 C82.83,79.67 80.67,73.83 81.00,79.00 C81.33,84.17 86.33,102.33 87.00,107.00 C87.67,111.67 85.33,105.17 85.00,107.00 C84.67,108.83 84.00,113.83 85.00,118.00 C86.00,122.17 88.17,127.33 91.00,132.00 C93.83,136.67 97.67,141.33 102.00,146.00 C106.33,150.67 112.00,156.67 117.00,160.00 C122.00,163.33 128.67,164.17 132.00,166.00 C135.33,167.83 136.17,169.67 137.00,171.00 C137.83,172.33 137.00,173.50 137.00,174.00" fill="none" stroke="black" stroke-width="5.66" stroke-linecap="round" stroke-linejoin="round"/>
  <path d="M112.00,43.00 C111.50,46.17 110.00,57.83 109.00,62.00 C108.00,66.17 106.67,64.17 106.00,68.00 C105.33,71.83 105.17,82.17 105.00,85.00" fill="none" stroke="black" stroke-width="4.47" stroke-linecap="round" stroke-linejoin="round"/>
  <path d="M130.00,91.00 C128.00,88.83 119.67,82.33 118.00,78.00 C116.33,73.67 118.00,68.50 120.00,65.00 C122.00,61.50 125.33,58.67 130.00,57.00 C134.67,55.33 144.67,55.67 148.00,55.00 C151.33,54.33 146.83,51.00 150.00,53.00 C153.17,55.00 164.00,63.33 167.00,67.00 C170.00,70.67 165.83,71.17 168.00,75.00 C170.17,78.83 177.33,85.00 180.00,90.00 C182.67,95.00 183.33,102.50 184.00,105.00" fill="none" stroke="black" stroke-width="5.66" stroke-linecap="round" stroke-linejoin="round"/>
  <path d="M166.00,68.00 C166.67,67.67 168.67,67.83 170.00,66.00 C171.33,64.17 171.50,58.00 174.00,57.00 C176.50,56.00 182.00,58.33 185.00,60.00 C188.00,61.67 189.83,63.83 192.00,67.00 C194.17,70.17 196.83,74.33 198.00,79.00 C199.17,83.67 197.17,89.33 199.00,95.00 C200.83,100.67 207.83,107.83 209.00,113.00 C210.17,118.17 207.83,122.50 206.00,126.00 C204.17,129.50 201.67,132.17 198.00,134.00 C194.33,135.83 186.50,137.50 184.00,137.00 C181.50,136.50 183.67,132.50 183.00,131.00 C182.33,129.50 179.83,132.33 180.00,128.00 C180.17,123.67 181.00,110.50 184.00,105.00 C187.00,99.50 195.67,96.67 198.00,95.00" fill="none" stroke="black" stroke-width="5.66" stroke-linecap="round" stroke-linejoin="round"/>
  <path d="M82.00,80.00 C80.33,80.33 75.33,79.83 72.00,82.00 C68.67,84.17 64.17,91.17 62.00,93.00 C59.83,94.83 59.17,93.00 59.00,93.00 C58.83,93.00 61.83,89.67 61.00,93.00 C60.17,96.33 55.50,106.67 54.00,113.00 C52.50,119.33 51.17,125.00 52.00,131.00 C52.83,137.00 56.83,144.83 59.00,149.00 C61.17,153.17 62.33,153.83 65.00,156.00 C67.67,158.17 68.17,159.50 75.00,162.00 C81.83,164.50 100.17,168.83 106.00,171.00 C111.83,173.17 110.67,173.50 110.00,175.00 C109.33,176.50 103.83,178.00 102.00,180.00 C100.17,182.00 97.00,185.83 99.00,187.00 C101.00,188.17 112.00,174.50 114.00,187.00 C116.00,199.50 111.50,249.50 111.00,262.00" fill="none" stroke="black" stroke-width="4.47" stroke-linecap="round" stroke-linejoin="round"/>
  <path d="M109.00,128.00 C110.00,129.33 112.17,133.83 115.00,136.00 C117.83,138.17 123.67,141.83 126.00,141.00 C128.33,140.17 127.17,134.00 129.00,131.00 C130.83,128.00 133.17,124.83 137.00,123.00 C140.83,121.17 148.67,121.17 152.00,120.00 C155.33,118.83 155.50,119.50 157.00,116.00 C158.50,112.50 162.50,103.17 161.00,99.00 C159.50,94.83 154.33,92.00 148.00,91.00 C141.67,90.00 130.17,94.00 123.00,93.00 C115.83,92.00 108.33,86.17 105.00,85.00 C101.67,83.83 103.83,85.17 103.00,86.00 C102.17,86.83 100.50,88.50 100.00,90.00 C99.50,91.50 98.17,91.00 100.00,95.00 C101.83,99.00 109.00,109.67 111.00,114.00 C113.00,118.33 112.33,118.67 112.00,121.00 C111.67,123.33 113.17,130.33 109.00,128.00 C104.83,125.67 90.67,110.50 87.00,107.00" fill="none" stroke="black" stroke-width="5.66" stroke-linecap="round" stroke-linejoin="round"/>
  <path d="M179.00,129.00 C179.33,129.00 183.50,128.50 181.00,129.00 C178.50,129.50 170.50,129.50 164.00,132.00 C157.50,134.50 147.00,141.83 142.00,144.00 C137.00,146.17 136.67,145.50 134.00,145.00 C131.33,144.50 127.33,141.67 126.00,141.00" fill="none" stroke="black" stroke-width="4.47" stroke-linecap="round" stroke-linejoin="round"/>
  <path d="M184.00,138.00 C183.00,141.17 180.67,151.67 178.00,157.00 C175.33,162.33 171.50,167.17 168.00,170.00 C164.50,172.83 162.00,173.50 157.00,174.00 C152.00,174.50 141.83,172.33 138.00,173.00 C134.17,173.67 134.67,177.17 134.00,178.00" fill="none" stroke="black" stroke-width="5.66" stroke-linecap="round" stroke-linejoin="round"/>
  <path d="M110.00,175.00 C110.83,175.33 111.00,176.67 115.00,177.00 C119.00,177.33 130.83,175.67 134.00,177.00 C137.17,178.33 133.67,183.33 134.00,185.00 C134.33,186.67 138.00,187.00 136.00,187.00 C134.00,187.00 125.83,185.00 122.00,185.00 C118.17,185.00 114.00,187.00 113.00,187.00 C112.00,187.00 115.67,186.67 116.00,185.00 C116.33,183.33 115.17,178.33 115.00,177.00" fill="none" stroke="black" stroke-width="8.00" stroke-linecap="round" stroke-linejoin="round"/>
  <path d="M78.00,241.00 C77.50,241.50 79.33,242.67 75.00,244.00 C70.67,245.33 55.50,248.17 52.00,249.00 C48.50,249.83 53.00,247.83 54.00,249.00 C55.00,250.17 55.83,254.50 58.00,256.00 C60.17,257.50 64.00,257.67 67.00,258.00 C70.00,258.33 71.33,258.83 76.00,258.00 C80.67,257.17 91.83,253.83 95.00,253.00" fill="none" stroke="black" stroke-width="5.66" stroke-linecap="round" stroke-linejoin="round"/>
</svg>
