<?xml version="1.0" encoding="UTF-8" standalone="no"?>
<svg
   viewBox="0 0 315 980"
   width="315"
   height="980"
   version="1.1"
   id="svg29"
   sodipodi:docname="march_left.svg"
   inkscape:version="1.4.2 (f4327f4, 2025-05-13)"
   xmlns:inkscape="http://www.inkscape.org/namespaces/inkscape"
   xmlns:sodipodi="http://sodipodi.sourceforge.net/DTD/sodipodi-0.dtd"
   xmlns="http://www.w3.org/2000/svg"
   xmlns:svg="http://www.w3.org/2000/svg">
  <defs
     id="defs29" />
  <sodipodi:namedview
     id="namedview29"
     pagecolor="#ffffff"
     bordercolor="#000000"
     borderopacity="0.25"
     inkscape:showpageshadow="2"
     inkscape:pageopacity="0.0"
     inkscape:pagecheckerboard="0"
     inkscape:deskcolor="#d1d1d1"
     inkscape:zoom="0.82346939"
     inkscape:cx="363.70508"
     inkscape:cy="284.77076"
     inkscape:window-width="1920"
     inkscape:window-height="1009"
     inkscape:window-x="1912"
     inkscape:window-y="-8"
     inkscape:window-maximized="1"
     inkscape:current-layer="svg29" />
  <path
     d="m 218.0854,748.24629 c -10.09753,-29.32118 -24.3108,-25.69416 -31.72942,-46.54317 -1.6243,-4.56487 -3.86397,-11.67814 -7.03397,-20.50814 -3.17,-8.83 -9.66177,-22.72627 -12.99177,-36.72627 -3.18655,-13.39689 -6.27795,-39.26527 -5.60806,-49.99992 0.22407,-3.59061 0.13682,-7.47353 1.47858,-10.52762 1.39329,-3.17138 1.67511,0.36854 1.7331,-0.28028 0.0409,-0.45811 -0.0966,-1.94726 -2.93386,-10.58097 C 155.34888,555.8838 148.67,491.67 146,464 c -2.67,-27.67 -2.80393,-37.79905 -1.91078,-49.93742 0.92898,-12.62539 1.41078,-14.11625 2.48143,-23.38459 1.04704,-9.06387 2.92944,-17.65677 4.31752,-24.01225 1.27859,-5.85419 2.92627,-11.02594 4.68273,-15.62465 0.92342,-2.41767 8.52583,-25.00296 9.12576,-20.04235 C 165.16448,334.86907 162.5,355.67 162,368 c -0.5,12.33 -1.67,30.5 0,54 1.67,23.5 8,60.17 10,87 2,26.83 3.163,79.50321 2.993,92.83321"
     fill="none"
     stroke="#000000"
     stroke-width="4.00"
     stroke-linecap="round"
     stroke-linejoin="round"
     id="path12"
     style="stroke-width:4;stroke-dasharray:none"
     sodipodi:nodetypes="cssssssssssssssssc" />
  <path
     d="m 164.54461,330.46748 c 1.26386,9.67928 6.55413,20.34517 7.88413,28.51517 1.33,8.17 3.94672,19.50891 6.94672,39.83891 3,20.33 4.62454,48.50844 8.62454,75.17844 4,26.67 7.5,60.67 9,83 1.5,22.33 0.22463,40.94243 0.22546,50.12605 7.7e-4,8.54693 -0.75018,23.50192 -1.8221,31.23577 -0.3118,2.24957 -11.69907,-20.63183 -13.18899,-23.19268 -5.18044,-8.90405 -9.21483,-16.82532 -16.31298,-28.72656 -0.42856,-0.71855 -1.56421,-2.19719 -1.95862,-3.87281"
     fill="none"
     stroke="#000000"
     stroke-width="4.00"
     stroke-linecap="round"
     stroke-linejoin="round"
     id="path11"
     style="stroke-width:4;stroke-dasharray:none"
     sodipodi:nodetypes="cssssssssc" />
  <path
     d="M116.00,64.00 C117.00,65.67 120.17,69.83 122.00,74.00 C123.83,78.17 126.17,85.33 127.00,89.00 C127.83,92.67 126.17,94.17 127.00,96.00 C127.83,97.83 131.33,96.83 132.00,100.00 C132.67,103.17 131.67,111.83 131.00,115.00 C130.33,118.17 129.83,119.83 128.00,119.00 C126.17,118.17 122.00,114.67 120.00,110.00 C118.00,105.33 117.50,95.83 116.00,91.00 C114.50,86.17 111.83,82.67 111.00,81.00"
     fill="none"
     stroke="black"
     stroke-width="5.66"
     stroke-linecap="round"
     stroke-linejoin="round"
     id="path1"
     style="stroke-width:4;stroke-dasharray:none" />
  <path
     d="M63.00,113.00 C66.17,116.17 77.67,129.17 82.00,132.00 C86.33,134.83 87.67,131.00 89.00,130.00 C90.33,129.00 91.17,129.50 90.00,126.00 C88.83,122.50 83.50,114.00 82.00,109.00 C80.50,104.00 82.00,100.50 81.00,96.00 C80.00,91.50 76.50,85.00 76.00,82.00 C75.50,79.00 78.00,83.50 78.00,78.00 C78.00,72.50 75.67,58.33 76.00,49.00 C76.33,39.67 78.17,28.67 80.00,22.00 C81.83,15.33 85.00,11.67 87.00,9.00 C89.00,6.33 89.00,6.17 92.00,6.00 C95.00,5.83 98.50,3.67 105.00,8.00 C111.50,12.33 123.50,24.33 131.00,32.00 C138.50,39.67 146.17,47.83 150.00,54.00 C153.83,60.17 153.33,66.50 154.00,69.00"
     fill="none"
     stroke="black"
     stroke-width="5.66"
     stroke-linecap="round"
     stroke-linejoin="round"
     id="path2"
     style="stroke-width:4;stroke-dasharray:none" />
  <path
     d="m 177,125 c -2.83,2.17 -11.5,10.67 -17,13 -5.5,2.33 -14,-2.83 -16,1 -2,3.83 3.33,18.33 4,22"
     fill="none"
     stroke="#000000"
     stroke-width="6.00"
     stroke-linecap="round"
     stroke-linejoin="round"
     id="path3"
     style="stroke-width:4;stroke-dasharray:none"
     sodipodi:nodetypes="cssc" />
  <path
     d="M102.00,150.00 C100.33,150.33 94.50,151.00 92.00,152.00 C89.50,153.00 88.50,155.67 87.00,156.00 C85.50,156.33 84.33,155.00 83.00,154.00 C81.67,153.00 79.83,151.50 79.00,150.00 C78.17,148.50 77.67,147.83 78.00,145.00 C78.33,142.17 80.83,135.00 81.00,133.00 C81.17,131.00 79.33,133.00 79.00,133.00"
     fill="none"
     stroke="black"
     stroke-width="7.21"
     stroke-linecap="round"
     stroke-linejoin="round"
     id="path4"
     style="stroke-width:4;stroke-dasharray:none" />
  <path
     d="m 56.821561,159.18773 c 0.17,-1.67 -3.509529,-9.92875 -2.339529,-12.42875 C 55.652032,144.25898 61,143 62,141 c 1,-2 3.5,-5.83 0,-7 -3.5,-1.17 -17.5,0 -21,0"
     fill="none"
     stroke="#000000"
     stroke-width="6.00"
     stroke-linecap="round"
     stroke-linejoin="round"
     id="path5"
     style="stroke-width:4;stroke-dasharray:none"
     sodipodi:nodetypes="csssc" />
  <path
     d="M111.00,166.00 C108.83,167.50 100.67,174.67 98.00,175.00 C95.33,175.33 97.00,170.17 95.00,168.00 C93.00,165.83 87.33,164.00 86.00,162.00 C84.67,160.00 86.83,157.00 87.00,156.00"
     fill="none"
     stroke="black"
     stroke-width="10.00"
     stroke-linecap="round"
     stroke-linejoin="round"
     id="path6"
     style="stroke-width:4;stroke-dasharray:none" />
  <path
     d="M71.00,167.00 C68.83,167.50 60.33,168.83 58.00,170.00 C55.67,171.17 55.67,172.00 57.00,174.00 C58.33,176.00 64.00,178.83 66.00,182.00 C68.00,185.17 67.67,190.67 69.00,193.00 C70.33,195.33 71.83,195.67 74.00,196.00 C76.17,196.33 80.17,194.00 82.00,195.00 C83.83,196.00 83.33,200.50 85.00,202.00 C86.67,203.50 89.33,204.00 92.00,204.00 C94.67,204.00 98.67,203.67 101.00,202.00 C103.33,200.33 105.17,195.33 106.00,194.00"
     fill="none"
     stroke="black"
     stroke-width="5.66"
     stroke-linecap="round"
     stroke-linejoin="round"
     id="path7"
     style="stroke-width:4;stroke-dasharray:none" />
  <path
     d="m 35,183 c 3.5,-1.33 13.565231,-6.42935 17.565231,-8.42935 4,-2 5.023988,-3.81143 5.523988,-4.48143"
     fill="none"
     stroke="#000000"
     stroke-width="4.00"
     stroke-linecap="round"
     stroke-linejoin="round"
     id="path8"
     style="stroke-width:4;stroke-dasharray:none"
     sodipodi:nodetypes="csc" />
  <path
     d="m 186,213 c -1.83,-4.17 -7,-18.17 -11,-25 -4,-6.83 -10,-12.83 -13,-16 -0.85764,-0.90624 -2.77026,-2.03714 -4.98565,-3.20283 -5.02402,-2.64352 -11.60513,-5.46591 -10.97036,-6.25256 2.91054,-3.60695 6.65265,-3.73258 11.58984,-1.54461 4.0058,1.77521 14.86617,5.67 23.36617,6 8.5,0.33 24,-4.17 29,-4"
     fill="none"
     stroke="#000000"
     stroke-width="6.00"
     stroke-linecap="round"
     stroke-linejoin="round"
     id="path9"
     style="stroke-width:4;stroke-dasharray:none"
     sodipodi:nodetypes="cssssssc" />
  <path
     d="M116.00,214.00 C116.83,212.17 119.83,208.17 121.00,203.00 C122.17,197.83 122.67,186.00 123.00,183.00 C123.33,180.00 123.00,184.67 123.00,185.00"
     fill="none"
     stroke="black"
     stroke-width="5.83"
     stroke-linecap="round"
     stroke-linejoin="round"
     id="path10"
     style="stroke-width:4;stroke-dasharray:none" />
  <path
     d="m 239.17122,796.87298 c 3,9.83 6.82265,21.3903 12.09742,32.0583 3.11461,6.29918 25.81079,40.91826 20.48632,26.50676 -5.30474,-14.35807 -22.70157,-81.62382 -28.54058,-102.12112 -5.83905,-20.49743 -8.40235,-23.48823 -13.21438,-39.05057 -4.2263,-13.66807 -9.96548,-26.87548 -17.00531,-43.5287 -7.30359,-17.27718 -12.14799,-23.38251 -20.88986,-36.30282"
     fill="none"
     stroke="#000000"
     stroke-width="4.00"
     stroke-linecap="round"
     stroke-linejoin="round"
     id="path13"
     style="stroke-width:4;stroke-dasharray:none"
     sodipodi:nodetypes="csssssc" />
  <path
     d="M210.00,163.00 C210.67,161.17 212.50,154.50 214.00,152.00 C215.50,149.50 216.67,153.83 219.00,148.00 C221.33,142.17 225.17,128.33 228.00,117.00 C230.83,105.67 235.00,87.00 236.00,80.00 C237.00,73.00 240.00,76.50 234.00,75.00 C228.00,73.50 207.33,72.33 200.00,71.00 C192.67,69.67 195.50,67.67 190.00,67.00 C184.50,66.33 173.00,66.50 167.00,67.00 C161.00,67.50 158.17,67.17 154.00,70.00 C149.83,72.83 145.00,79.50 142.00,84.00 C139.00,88.50 137.83,94.17 136.00,97.00 C134.17,99.83 131.83,100.33 131.00,101.00"
     fill="none"
     stroke="black"
     stroke-width="6.00"
     stroke-linecap="round"
     stroke-linejoin="round"
     id="path14"
     style="stroke-width:4;stroke-dasharray:none" />
  <path
     d="M75.00,81.00 C67.83,77.67 40.50,64.33 32.00,61.00 C23.50,57.67 26.00,60.33 24.00,61.00 C22.00,61.67 20.50,62.00 20.00,65.00 C19.50,68.00 19.67,72.83 21.00,79.00 C22.33,85.17 26.67,96.17 28.00,102.00 C29.33,107.83 26.83,108.50 29.00,114.00 C31.17,119.50 41.50,129.00 41.00,135.00 C40.50,141.00 31.00,142.83 26.00,150.00 C21.00,157.17 14.17,171.17 11.00,178.00 C7.83,184.83 3.33,185.33 7.00,191.00 C10.67,196.67 26.33,207.00 33.00,212.00 C39.67,217.00 43.00,219.00 47.00,221.00 C51.00,223.00 52.50,223.67 57.00,224.00 C61.50,224.33 69.17,226.67 74.00,223.00 C78.83,219.33 84.00,205.50 86.00,202.00"
     fill="none"
     stroke="black"
     stroke-width="5.06"
     stroke-linecap="round"
     stroke-linejoin="round"
     id="path15"
     style="stroke-width:4;stroke-dasharray:none" />
  <path
     d="M128.00,119.00 C127.83,120.00 125.83,123.67 127.00,125.00 C128.17,126.33 133.33,125.50 135.00,127.00 C136.67,128.50 135.50,132.17 137.00,134.00 C138.50,135.83 142.83,137.33 144.00,138.00"
     fill="none"
     stroke="black"
     stroke-width="12.00"
     stroke-linecap="round"
     stroke-linejoin="round"
     id="path16"
     style="stroke-width:4;stroke-dasharray:none" />
  <path
     d="M127.00,125.00 C125.83,126.00 123.17,129.50 120.00,131.00 C116.83,132.50 112.00,133.50 108.00,134.00 C104.00,134.50 99.33,134.50 96.00,134.00 C92.67,133.50 89.00,131.50 88.00,131.00 C87.00,130.50 89.67,131.00 90.00,131.00"
     fill="none"
     stroke="black"
     stroke-width="5.66"
     stroke-linecap="round"
     stroke-linejoin="round"
     id="path17"
     style="stroke-width:4;stroke-dasharray:none" />
  <path
     d="M82.00,132.00 C79.83,132.00 72.33,131.50 69.00,132.00 C65.67,132.50 63.17,134.50 62.00,135.00"
     fill="none"
     stroke="black"
     stroke-width="6.00"
     stroke-linecap="round"
     stroke-linejoin="round"
     id="path18"
     style="stroke-width:4;stroke-dasharray:none" />
  <path
     d="m 219,148 c 1.5,1.17 4.5,0.83 9,7 4.5,6.17 14.9186,23.66249 17.30231,30.80502 2.59453,7.77422 4.46391,14.68283 6.69769,22.19498 2.5,7.67 8.33,17.33 14,37 5.67,19.67 17.37658,64.33814 20,81 0.84785,5.38488 1.81178,7.70237 3.91078,19.54461 C 290.97766,351.5638 291.83,356.17 294,380 c 2.17,23.83 6.33,80 8,109 1.67,29 1.83,37 2,65 0.17,28 -1.29815,83.54047 -0.54461,102.69641 C 304.0231,671.12832 303.23175,672.20539 303,684 c 0,10.5 -2.10611,33.65893 -2.37159,45.82722 -0.38339,17.57243 -0.1556,21.85945 -0.85327,29.76411 -1.13456,12.85457 -0.93562,19.48721 -3.38232,19.3021 -4.94735,-0.3743 -10.9818,2.20446 -11.08923,-5.00929 C 285.08699,759.33862 288.83,713.5 290,684 c 1.17,-29.5 2,-55.33 2,-90 0,-34.67 -0.83,-87.67 -2,-118 -1.17,-30.33 -3.15151,-52.92205 -5,-64 -1.08757,-6.51778 -3.48198,-26.46307 -5,-39 -1.17,-8.33 -0.96383,-5.71437 -2.63383,-15.21437 C 275.69617,348.28563 274.17,336.17 270,316 c -4.17,-20.17 -14.92898,-63.30824 -19.75898,-80.80824 -4.83,-17.5 -8.87747,-26.70732 -11.61005,-33.22552"
     fill="none"
     stroke="#000000"
     stroke-width="5.66"
     stroke-linecap="round"
     stroke-linejoin="round"
     id="path19"
     style="stroke-width:4;stroke-dasharray:none"
     sodipodi:nodetypes="csssssssssssssssssssssssc" />
  <path
     d="M 158.55391,161.48203 C 157.55391,160.98203 150.5,158.83 148,160 c -2.5,1.17 -8.17,6 -9,10 -0.83,4 3.83,4.33 4,14 0.17,9.67 -2.5,36.67 -3,44"
     fill="none"
     stroke="#000000"
     stroke-width="6.16"
     stroke-linecap="round"
     stroke-linejoin="round"
     id="path20"
     style="stroke-width:4;stroke-dasharray:none"
     sodipodi:nodetypes="csssc" />
  <path
     d="m 238.51797,201.64312 c -3.56282,-7.61671 -12.08078,-21.88414 -15.91078,-26.88414 -3.83,-5 -12.51566,-13.14993 -12.79331,-11.15978 -0.81686,5.85512 8.85993,50.43188 8.18612,68.4008 -0.33,8.17 -1.17,-3.67 -2,3 -0.83,6.67 -2.17,30.5 -3,37 -0.83,6.5 5.67,5 -2,2 -7.67,-3 -34.83,-15.33 -44,-20 -9.17,-4.67 -6.33,-3.5 -11,-8 -4.67,-4.5 -13,-17.17 -17,-19 -4,-1.83 -5,4.83 -7,8 -2,3.17 -2,6.67 -5,11 -3,4.33 -5.33,8.83 -13,15 -7.67,6.17 -26.17,18.17 -33,22 -6.83,3.83 -5.83,1.83 -8,1 -2.17,-0.83 -4.5,0.17 -5,-6 -0.5,-6.17 1,-23.17 2,-31 1,-7.83 3.5,-12 4,-16 0.5,-4 -0.83,-6.67 -1,-8"
     fill="none"
     stroke="#000000"
     stroke-width="5.66"
     stroke-linecap="round"
     stroke-linejoin="round"
     id="path22"
     style="stroke-width:4;stroke-dasharray:none"
     sodipodi:nodetypes="csssssssssssssssssc" />
  <path
     d="M140.00,171.00 C138.83,171.00 135.67,169.50 133.00,171.00 C130.33,172.50 125.67,177.83 124.00,180.00 C122.33,182.17 124.67,183.00 123.00,184.00 C121.33,185.00 116.83,184.33 114.00,186.00 C111.17,187.67 108.67,193.00 106.00,194.00 C103.33,195.00 99.83,193.00 98.00,192.00 C96.17,191.00 95.50,189.83 95.00,188.00 C94.50,186.17 94.33,183.33 95.00,181.00 C95.67,178.67 98.33,175.17 99.00,174.00"
     fill="none"
     stroke="black"
     stroke-width="6.00"
     stroke-linecap="round"
     stroke-linejoin="round"
     id="path23"
     style="stroke-width:4;stroke-dasharray:none" />
  <path
     d="m 186.35598,701.85327 c 1.33,4.83 2.81402,11.31673 8.64402,25.14673 5.83,13.83 18.02126,50.19086 23.56523,66.65486 5.78261,17.17272 15.14944,29.23095 21.64944,43.23095 6.5,14 24.36954,30.93634 31.08964,31.53811"
     fill="none"
     stroke="#000000"
     stroke-width="4.47"
     stroke-linecap="round"
     stroke-linejoin="round"
     id="path24"
     style="stroke-width:4;stroke-dasharray:none"
     sodipodi:nodetypes="csssc" />
  <path
     d="m 298.05453,777.07187 c -0.5,2.33 -0.75462,5.739 -1.48204,11.87485 -2.74822,23.18158 -2.14171,26.0307 -3.17968,33.66047 C 291.59713,835.8066 284,869.67 281,887 c -3,17.33 -3.79577,29.4298 -5,39 -2.08637,16.58065 -3.78975,29.79359 -7,43 -1.5,4.5 -4.83,2.33 -7,2 -2.17,-0.33 -5,-1.17 -6,-4 -1.04717,-7.67879 2.15506,-15.61094 4,-23 1.33,-5.5 2.33,-10.17 4,-23 1.67,-12.83 9.5539,-63.8228 10.5539,-72.8228"
     fill="none"
     stroke="#000000"
     stroke-width="6.00"
     stroke-linecap="round"
     stroke-linejoin="round"
     id="path25"
     style="stroke-width:4;stroke-dasharray:none"
     sodipodi:nodetypes="csssssssssc" />
  <path
     d="m 285.27696,773.47955 c 0.51797,19.97484 -4.21462,44.21197 -5.54462,50.38197 -1.33,6.17 -5.2239,22.42008 -5.56722,27.14777"
     fill="none"
     stroke="#000000"
     stroke-width="6.00"
     stroke-linecap="round"
     stroke-linejoin="round"
     id="path27"
     style="stroke-width:4;stroke-dasharray:none"
     sodipodi:nodetypes="csc" />
</svg>
