<?xml version="1.0" encoding="UTF-8" standalone="no"?>
<svg
   viewBox="0 0 192 591"
   width="192"
   height="591"
   version="1.1"
   id="svg22"
   sodipodi:docname="march_center_right.svg"
   inkscape:version="1.4.2 (f4327f4, 2025-05-13)"
   xmlns:inkscape="http://www.inkscape.org/namespaces/inkscape"
   xmlns:sodipodi="http://sodipodi.sourceforge.net/DTD/sodipodi-0.dtd"
   xmlns="http://www.w3.org/2000/svg"
   xmlns:svg="http://www.w3.org/2000/svg">
  <defs
     id="defs22" />
  <sodipodi:namedview
     id="namedview22"
     pagecolor="#ffffff"
     bordercolor="#000000"
     borderopacity="0.25"
     inkscape:showpageshadow="2"
     inkscape:pageopacity="0.0"
     inkscape:pagecheckerboard="0"
     inkscape:deskcolor="#d1d1d1"
     inkscape:zoom="3.862167"
     inkscape:cx="165.3217"
     inkscape:cy="162.21463"
     inkscape:window-width="1920"
     inkscape:window-height="1009"
     inkscape:window-x="1912"
     inkscape:window-y="-8"
     inkscape:window-maximized="1"
     inkscape:current-layer="svg22" />
  <path
     d="M 118.09377,32.11617 C 117.61162,40.75922 115.68299,45.5 114.68299,49 c -1,3.5 -2.68299,7.17 -1.68299,8 1,0.83 3.20539,-1.946766 4.70539,-3.776766 1.5,-1.83 10.91497,-12.236823 11.41497,-13.566823"
     fill="none"
     stroke="#000000"
     stroke-width="2.83"
     stroke-linecap="round"
     stroke-linejoin="round"
     id="path1"
     style="stroke-width:4;stroke-dasharray:none"
     sodipodi:nodetypes="csssc" />
  <path
     d="m 157.34359,64.317007 c -1.67,1.83 -13.71413,12.825447 -15.82575,12.553532 -2.98185,-0.383976 -3.34685,-0.436172 -6.2946,-2.682993 C 131.71532,71.513758 136.67,54.83 142,48 c 5.33,-6.83 20.5,-10.67 26,-13 5.5,-2.33 5.5,-2.17 7,-1 1.5,1.17 3.17,1.33 2,8 -1.17,6.67 -7,26 -9,32 -2,6 -0.33,3.33 -3,4 -2.67,0.67 -11.17,0 -13,0"
     fill="none"
     stroke="#000000"
     stroke-width="4.00"
     stroke-linecap="round"
     stroke-linejoin="round"
     id="path2"
     style="stroke-width:4;stroke-dasharray:none"
     sodipodi:nodetypes="cssssssssc" />
  <path
     d="m 83,73 c 0.83,0.83 2,3.5 5,5 3,1.5 11.534909,6.725654 13.90623,3.352695 2.70539,-3.848142 4.01758,-4.686691 7.53057,-7.52184"
     fill="none"
     stroke="#000000"
     stroke-width="6.32"
     stroke-linecap="round"
     stroke-linejoin="round"
     id="path3"
     style="stroke-width:4;stroke-dasharray:none"
     sodipodi:nodetypes="cssc" />
  <path
     d="m 157.09623,80.978339 c 0.21193,2.512507 3.76461,5.212634 4.12455,8.017476 0.30858,2.404699 -7.47748,2.975111 -7.96186,6.754369 -0.37447,2.921694 2.67,6.779206 2,7.609156 -0.67,0.83 -4.92892,2.47066 -6.25892,4.64066 -1.33,2.17 -0.5,5.83 -2,7 -1.5,1.17 -5.33,-0.83 -7,0 -1.67,0.83 -1.33,4.17 -3,5 -1.67,0.83 -5.33,0.67 -7,0 -1.67,-0.67 -2.67,-3 -3,-4 -0.33,-1 1.17,-1.67 1,-2 -0.17,-0.33 -1.67,0 -2,0"
     fill="none"
     stroke="#000000"
     stroke-width="4.00"
     stroke-linecap="round"
     stroke-linejoin="round"
     id="path4"
     style="stroke-width:4;stroke-dasharray:none"
     sodipodi:nodetypes="cssssssssssc" />
  <path
     d="m 80.66171,122.07063 c 1.934136,-3.30102 9.760924,-13.7376 13.276871,-19.88048 1.628536,-2.845298 4.533057,-6.581875 3.297944,-6.449072 -4.501745,0.484039 -10.611942,2.88919 -16.459759,3.165149 -5.313911,0.250764 -10.631468,0.690148 -17.611617,-2.776766"
     fill="none"
     stroke="#000000"
     stroke-width="4.00"
     stroke-linecap="round"
     stroke-linejoin="round"
     id="path5"
     style="stroke-width:4;stroke-dasharray:none"
     sodipodi:nodetypes="csssc" />
  <path
     d="m 119,127 c -0.83,-3.67 -1.67,-16.67 -5,-22 -3.33,-5.33 -13,-7 -15,-10 -2,-3 -0.535986,-4.794312 -0.365986,-6.964312 0.17,-2.17 3.249526,-5.723532 2.919526,-6.553532"
     fill="none"
     stroke="#000000"
     stroke-width="4.00"
     stroke-linecap="round"
     stroke-linejoin="round"
     id="path6"
     style="stroke-width:4;stroke-dasharray:none"
     sodipodi:nodetypes="csssc" />
  <path
     d="m 94.901487,37.802974 c -3.5,-0.33 -15.393197,-1.571487 -25.394052,-2 -8.189912,-0.350918 -20.195279,-3.856804 -23.025279,4.313196 -2.83,8.17 12.91897,43.481521 10.741078,46.107064 -6.09541,7.348282 -8.042172,11.209357 -12.087127,17.194186 -1.840051,2.7225 -3.017844,5.41773 -4.100419,7.61827 -1.051952,2.13829 -2.723532,5.25227 -1.553532,6.25227 1.17,1 4.7429,3.01048 6.223234,-0.1228 6.028426,-12.75982 11.111395,-23.635317 17.249816,-20.874733 4.63814,2.085874 -2.741376,22.656043 -4.531135,33.321193 C 56.847919,139.00388 55.5,159.67 61,163 c 5.5,3.33 21.5,-8.33 29,-13 7.5,-4.67 13.33,-12.5 16,-15"
     fill="none"
     stroke="#000000"
     stroke-width="4.00"
     stroke-linecap="round"
     stroke-linejoin="round"
     id="path7"
     style="stroke-width:4;stroke-dasharray:none"
     sodipodi:nodetypes="csssssssssssc" />
  <path
     d="M 22.223234,556.55353 C 20.393234,546.72353 13.915516,507.46166 12,496 10.216171,485.32629 9.4802779,475.30204 8.518029,464.03681 7.4100143,451.06507 6.6361283,405.82361 6.5405205,397.20204 c -0.17,-15.33 -0.5304348,-22.40673 -0.7994425,-36.56803 -0.7667277,-40.3626 0.042254,-40.64167 2.9709575,-95.3239"
     fill="none"
     stroke="#000000"
     stroke-width="4.00"
     stroke-linecap="round"
     stroke-linejoin="round"
     id="path8"
     style="stroke-width:4;stroke-dasharray:none"
     sodipodi:nodetypes="cssssc" />
  <path
     d="M 22.295678,556.8617 C 22.465678,559.3617 25,574.67 26,578 c 1,3.33 1.363893,4.92892 2.863893,5.25892 1.5,0.33 6.242873,-0.79431 6.912873,-1.96431 0.67,-1.17 -0.39988,-3.49545 -0.776766,-5.29461 -0.837584,-3.99842 -2.280743,-6.54577 -4.450743,-20.04577 C 28.379257,542.45423 23.814183,506.85992 22,495 20.265024,483.65789 20.551627,480.552 19,472 18.374444,468.55216 18.106766,459.50425 17.776766,458.17425"
     fill="none"
     stroke="#000000"
     stroke-width="4.00"
     stroke-linecap="round"
     stroke-linejoin="round"
     id="path9"
     style="stroke-width:4;stroke-dasharray:none"
     sodipodi:nodetypes="csssssssc" />
  <path
     d="m 137,76 c -2.17,0.33 -7.76377,0.558085 -13,0.70539 -4.35705,0.122572 -10.34093,-0.95705 -13.64731,-1.11617 C 106.38037,75.398051 111.5,61.67 112,59 c 0.5,-2.67 2,-2 2,-2 0,0 -1.17,2 -2,2 -0.83,0 -0.17,1.33 -3,-2 -2.83,-3.33 -12.67,-13 -14,-18 -1.33,-5 2.5,-7.33 6,-12 3.5,-4.67 10.5,-11.67 15,-16 4.5,-4.33 9,-8.33 12,-10 3,-1.67 4.33,-0.67 6,0 1.67,0.67 2.67,1.5 4,4 1.33,2.5 3.17,4 4,11 0.83,7 0.83,25.83 1,31"
     fill="none"
     stroke="#000000"
     stroke-width="4.00"
     stroke-linecap="round"
     stroke-linejoin="round"
     id="path10"
     style="stroke-width:4;stroke-dasharray:none"
     sodipodi:nodetypes="cssscsssssssssc" />
  <path
     d="m 152.63383,78 c -2,-0.17 -9.96383,-0.83 -11.63383,-1 -1.67,-0.17 2,-0.17 2,0 0,0.17 -1.83,-0.33 -2,1 -0.17,1.33 1.83,4.83 1,7 -0.83,2.17 -5.33,5 -6,6 -0.67,1 1.3592,1.595883 1.3592,2.425883 0,0.83 -0.67,3.5 -2,5 -1.33,1.5 -3.95686,0.730832 -4.62686,1.230832 0,0 -0.57602,-0.619651 -0.36617,1.441795 0.17,1.67 2.80383,5.57149 2.63383,7.90149 -0.17,2.33 -1.17,5 -4,5 -2.83,0 -10.83,-4.17 -13,-5"
     fill="none"
     stroke="#000000"
     stroke-width="6.32"
     stroke-linecap="round"
     stroke-linejoin="round"
     id="path11"
     style="stroke-width:4;stroke-dasharray:none"
     sodipodi:nodetypes="csssssssssssc" />
  <path
     d="M 165.6408,78.725372 C 167.4708,80.895372 172.67,86.33 176,92 c 3.33,5.67 11.33,14.67 9,21 -2.33,6.33 -18.17,13.83 -23,17 -4.83,3.17 -3.17,1.67 -6,2 -2.83,0.33 -8,2.17 -11,0 -3,-2.17 -5.83,-10.83 -7,-13"
     fill="none"
     stroke="#000000"
     stroke-width="2.83"
     stroke-linecap="round"
     stroke-linejoin="round"
     id="path12"
     style="stroke-width:4;stroke-dasharray:none"
     sodipodi:nodetypes="csssssc" />
  <path
     d="M58.00,87.00 L62.00,95.00"
     fill="none"
     stroke="black"
     stroke-width="4.47"
     stroke-linecap="round"
     stroke-linejoin="round"
     id="path13"
     style="stroke-width:4;stroke-dasharray:none" />
  <path
     d="m 100,94 c 0,0.33 0.83,1.67 0,2"
     fill="none"
     stroke="#000000"
     stroke-width="8.25"
     stroke-linecap="round"
     stroke-linejoin="round"
     id="path14"
     style="stroke-width:4;stroke-dasharray:none"
     sodipodi:nodetypes="cc" />
  <path
     d="M105.00,100.00 C104.67,100.83 103.17,99.17 103.00,105.00 C102.83,110.83 103.17,129.67 104.00,135.00 C104.83,140.33 106.17,134.67 108.00,137.00 C109.83,139.33 112.33,145.50 115.00,149.00 C117.67,152.50 119.67,154.83 124.00,158.00 C128.33,161.17 137.50,166.33 141.00,168.00 C144.50,169.67 143.83,168.50 145.00,168.00 C146.17,167.50 148.00,169.50 148.00,165.00 C148.00,160.50 145.33,146.50 145.00,141.00 C144.67,135.50 145.83,133.50 146.00,132.00"
     fill="none"
     stroke="black"
     stroke-width="4.00"
     stroke-linecap="round"
     stroke-linejoin="round"
     id="path15"
     style="stroke-width:4;stroke-dasharray:none" />
  <path
     d="m 39.472956,114.76729 c -0.17,1.33 -1.680175,3.82382 -3.951581,9.75409 C 33.152421,130.70633 31.547624,135.44012 30,141 c -2.33,8.17 -7,24 -10,38 -3,14 -5.652156,31.70054 -7.482156,45.87054 -1.83,14.17 -3.3414965,33.79461 -3.8414965,40.29461"
     fill="none"
     stroke="#000000"
     stroke-width="4.00"
     stroke-linecap="round"
     stroke-linejoin="round"
     id="path16"
     style="stroke-width:4;stroke-dasharray:none"
     sodipodi:nodetypes="cssssc" />
  <path
     d="m 44.675651,118.47955 c 0.33,0.67 -3.591079,8.32428 -4.591079,13.15428 C 39.084572,136.46383 35.83,146 33,157 c -2.83,11 -6.17,23.33 -9,41 -2.83,17.67 -6.520056,56.93706 -8,68.8394"
     fill="none"
     stroke="#000000"
     stroke-width="2.00"
     stroke-linecap="round"
     stroke-linejoin="round"
     id="path17"
     style="stroke-width:4;stroke-dasharray:none"
     sodipodi:nodetypes="csssc" />
  <path
     d="m 16.229834,265.24842 c -1.725997,20.8024 -3.14791,32.497 -3.444331,51.27481 -0.33129,20.98673 1.00276,47.55479 1.28591,50.78467"
     fill="none"
     stroke="#000000"
     stroke-width="8.25"
     stroke-linecap="round"
     stroke-linejoin="round"
     id="path19"
     style="stroke-width:4;stroke-dasharray:none"
     sodipodi:nodetypes="csc" />
  <path
     d="m 14.064731,367.57593 c 0.83,15 3.341496,75.24982 3.841496,91.24982"
     fill="none"
     stroke="#000000"
     stroke-width="4.00"
     stroke-linecap="round"
     stroke-linejoin="round"
     id="path20"
     style="stroke-width:4;stroke-dasharray:none"
     sodipodi:nodetypes="cc" />
</svg>
