<?xml version="1.0" encoding="UTF-8" standalone="no"?>
<svg
   viewBox="0 0 192 591"
   width="192"
   height="591"
   version="1.1"
   id="svg22"
   sodipodi:docname="march_center_left.svg"
   inkscape:version="1.4.2 (f4327f4, 2025-05-13)"
   xmlns:inkscape="http://www.inkscape.org/namespaces/inkscape"
   xmlns:sodipodi="http://sodipodi.sourceforge.net/DTD/sodipodi-0.dtd"
   xmlns="http://www.w3.org/2000/svg"
   xmlns:svg="http://www.w3.org/2000/svg">
  <defs
     id="defs22" />
  <sodipodi:namedview
     id="namedview22"
     pagecolor="#ffffff"
     bordercolor="#000000"
     borderopacity="0.25"
     inkscape:showpageshadow="2"
     inkscape:pageopacity="0.0"
     inkscape:pagecheckerboard="0"
     inkscape:deskcolor="#d1d1d1"
     inkscape:zoom="1.3654822"
     inkscape:cx="109.48513"
     inkscape:cy="285.97955"
     inkscape:window-width="1920"
     inkscape:window-height="1009"
     inkscape:window-x="1912"
     inkscape:window-y="-8"
     inkscape:window-maximized="1"
     inkscape:current-layer="svg22" />
  <path
     d="M 72.817254,32.11617 C 73.299404,40.75922 75.228034,45.5 76.228034,49 c 1,3.5 2.68299,7.17 1.68299,8 -1,0.83 -3.20539,-1.946766 -4.70539,-3.776766 -1.5,-1.83 -10.91497,-12.236823 -11.41497,-13.566823"
     fill="none"
     stroke="#000000"
     stroke-width="2.83"
     stroke-linecap="round"
     stroke-linejoin="round"
     id="path1"
     style="stroke-width:4;stroke-dasharray:none"
     sodipodi:nodetypes="csssc" />
  <path
     d="m 33.567434,64.317007 c 1.67,1.83 13.71413,12.825447 15.82575,12.553532 2.98185,-0.383976 3.34685,-0.436172 6.2946,-2.682993 C 59.195704,71.513758 54.241024,54.83 48.911024,48 c -5.33,-6.83 -20.5,-10.67 -26,-13 -5.5,-2.33 -5.5,-2.17 -7,-1 -1.5,1.17 -3.17,1.33 -2,8 1.17,6.67 7,26 9,32 2,6 0.33,3.33 3,4 2.67,0.67 11.17,0 13,0"
     fill="none"
     stroke="#000000"
     stroke-width="4.00"
     stroke-linecap="round"
     stroke-linejoin="round"
     id="path2"
     style="stroke-width:4;stroke-dasharray:none"
     sodipodi:nodetypes="cssssssssc" />
  <path
     d="m 107.91102,73 c -0.83,0.83 -2,3.5 -5,5 -2.999996,1.5 -11.534905,6.725654 -13.906226,3.352695 -2.70539,-3.848142 -4.01758,-4.686691 -7.53057,-7.52184"
     fill="none"
     stroke="#000000"
     stroke-width="6.32"
     stroke-linecap="round"
     stroke-linejoin="round"
     id="path3"
     style="stroke-width:4;stroke-dasharray:none"
     sodipodi:nodetypes="cssc" />
  <path
     d="m 33.814794,80.978339 c -0.21193,2.512507 -3.76461,5.212634 -4.12455,8.017476 -0.30858,2.404699 7.47748,2.975111 7.96186,6.754369 0.37447,2.921694 -2.67,6.779206 -2,7.609156 0.67,0.83 4.92892,2.47066 6.25892,4.64066 1.33,2.17 0.5,5.83 2,7 1.5,1.17 5.33,-0.83 7,0 1.67,0.83 1.33,4.17 3,5 1.67,0.83 5.33,0.67 7,0 1.67,-0.67 2.67,-3 3,-4 0.33,-1 -1.17,-1.67 -1,-2 0.17,-0.33 1.67,0 2,0"
     fill="none"
     stroke="#000000"
     stroke-width="4.00"
     stroke-linecap="round"
     stroke-linejoin="round"
     id="path4"
     style="stroke-width:4;stroke-dasharray:none"
     sodipodi:nodetypes="cssssssssssc" />
  <path
     d="m 110.24931,122.07063 c -1.93413,-3.30102 -9.76092,-13.7376 -13.276867,-19.88048 -1.628536,-2.845298 -4.533057,-6.581875 -3.297944,-6.449072 4.501745,0.484039 10.611941,2.88919 16.459761,3.165149 5.31391,0.250764 10.63147,0.690148 17.61161,-2.776766"
     fill="none"
     stroke="#000000"
     stroke-width="4.00"
     stroke-linecap="round"
     stroke-linejoin="round"
     id="path5"
     style="stroke-width:4;stroke-dasharray:none"
     sodipodi:nodetypes="csssc" />
  <path
     d="m 71.911024,127 c 0.83,-3.67 1.67,-16.67 5,-22 3.33,-5.33 13,-7 15,-10 2,-3 0.535986,-4.794312 0.365986,-6.964312 -0.17,-2.17 -3.249526,-5.723532 -2.919526,-6.553532"
     fill="none"
     stroke="#000000"
     stroke-width="4.00"
     stroke-linecap="round"
     stroke-linejoin="round"
     id="path6"
     style="stroke-width:4;stroke-dasharray:none"
     sodipodi:nodetypes="csssc" />
  <path
     d="m 96.009537,37.802974 c 3.5,-0.33 15.393193,-1.571487 25.394053,-2 8.18991,-0.350918 20.19528,-3.856804 23.02528,4.313196 2.83,8.17 -12.91897,43.481521 -10.74108,46.107064 6.09541,7.348282 8.04217,11.209357 12.08713,17.194186 1.84005,2.7225 3.01784,5.41773 4.10042,7.61827 1.05195,2.13829 2.72353,5.25227 1.55353,6.25227 -1.17,1 -4.7429,3.01048 -6.22324,-0.1228 -6.02842,-12.75982 -11.11139,-23.635317 -17.24981,-20.874733 -4.63814,2.085874 2.74137,22.656043 4.53113,33.321193 1.57615,9.39226 2.92407,30.05838 -2.57593,33.38838 -5.5,3.33 -21.5,-8.33 -29,-13 -7.499996,-4.67 -13.329996,-12.5 -15.999996,-15"
     fill="none"
     stroke="#000000"
     stroke-width="4.00"
     stroke-linecap="round"
     stroke-linejoin="round"
     id="path7"
     style="stroke-width:4;stroke-dasharray:none"
     sodipodi:nodetypes="csssssssssssc" />
  <path
     d="m 168.68779,556.55353 c 1.83,-9.83 8.30772,-49.09187 10.22323,-60.55353 1.78383,-10.67371 2.51973,-20.69796 3.48197,-31.96319 1.10802,-12.97174 1.88191,-58.2132 1.97751,-66.83477 0.17,-15.33 0.53044,-22.40673 0.79945,-36.56803 0.76672,-40.3626 -0.0423,-40.64167 -2.97096,-95.3239"
     fill="none"
     stroke="#000000"
     stroke-width="4.00"
     stroke-linecap="round"
     stroke-linejoin="round"
     id="path8"
     style="stroke-width:4;stroke-dasharray:none"
     sodipodi:nodetypes="cssssc" />
  <path
     d="m 168.61535,556.8617 c -0.17,2.5 -2.70433,17.8083 -3.70433,21.1383 -1,3.33 -1.36389,4.92892 -2.86389,5.25892 -1.5,0.33 -6.24287,-0.79431 -6.91287,-1.96431 -0.67,-1.17 0.39988,-3.49545 0.77676,-5.29461 0.83759,-3.99842 2.28075,-6.54577 4.45075,-20.04577 2.17,-13.5 6.73507,-49.09431 8.54925,-60.95423 1.73498,-11.34211 1.44838,-14.448 3,-23 0.62556,-3.44784 0.89324,-12.49575 1.22324,-13.82575"
     fill="none"
     stroke="#000000"
     stroke-width="4.00"
     stroke-linecap="round"
     stroke-linejoin="round"
     id="path9"
     style="stroke-width:4;stroke-dasharray:none"
     sodipodi:nodetypes="csssssssc" />
  <path
     d="m 53.911024,76 c 2.17,0.33 7.76377,0.558085 13,0.70539 4.35705,0.122572 10.34093,-0.95705 13.64731,-1.11617 C 84.530654,75.398051 79.411024,61.67 78.911024,59 c -0.5,-2.67 -2,-2 -2,-2 0,0 1.17,2 2,2 0.83,0 0.17,1.33 3,-2 2.83,-3.33 12.67,-13 14,-18 1.33,-5 -2.5,-7.33 -6,-12 -3.5,-4.67 -10.5,-11.67 -15,-16 -4.5,-4.33 -9,-8.33 -12,-10 -3,-1.67 -4.33,-0.67 -6,0 -1.67,0.67 -2.67,1.5 -4,4 -1.33,2.5 -3.17,4 -4,11 -0.83,7 -0.83,25.83 -1,31"
     fill="none"
     stroke="#000000"
     stroke-width="4.00"
     stroke-linecap="round"
     stroke-linejoin="round"
     id="path10"
     style="stroke-width:4;stroke-dasharray:none"
     sodipodi:nodetypes="cssscsssssssssc" />
  <path
     d="m 38.277194,78 c 2,-0.17 9.96383,-0.83 11.63383,-1 1.67,-0.17 -2,-0.17 -2,0 0,0.17 1.83,-0.33 2,1 0.17,1.33 -1.83,4.83 -1,7 0.83,2.17 5.33,5 6,6 0.67,1 -1.3592,1.595883 -1.3592,2.425883 0,0.83 0.67,3.5 2,5 1.33,1.5 3.95686,0.730832 4.62686,1.230832 0,0 0.57602,-0.619651 0.36617,1.441795 -0.17,1.67 -2.80383,5.57149 -2.63383,7.90149 0.17,2.33 1.17,5 4,5 2.83,0 10.83,-4.17 13,-5"
     fill="none"
     stroke="#000000"
     stroke-width="6.32"
     stroke-linecap="round"
     stroke-linejoin="round"
     id="path11"
     style="stroke-width:4;stroke-dasharray:none"
     sodipodi:nodetypes="csssssssssssc" />
  <path
     d="m 25.270224,78.725372 c -1.83,2.17 -7.0292,7.604628 -10.3592,13.274628 -3.33,5.67 -11.3300001,14.67 -9.0000001,21 2.33,6.33 18.1700001,13.83 23.0000001,17 4.83,3.17 3.17,1.67 6,2 2.83,0.33 8,2.17 11,0 3,-2.17 5.83,-10.83 7,-13"
     fill="none"
     stroke="#000000"
     stroke-width="2.83"
     stroke-linecap="round"
     stroke-linejoin="round"
     id="path12"
     style="stroke-width:4;stroke-dasharray:none"
     sodipodi:nodetypes="csssssc" />
  <path
     d="m 132.91102,87 -4,8"
     fill="none"
     stroke="#000000"
     stroke-width="4.47"
     stroke-linecap="round"
     stroke-linejoin="round"
     id="path13"
     style="stroke-width:4;stroke-dasharray:none" />
  <path
     d="m 90.911024,94 c 0,0.33 -0.83,1.67 0,2"
     fill="none"
     stroke="#000000"
     stroke-width="8.25"
     stroke-linecap="round"
     stroke-linejoin="round"
     id="path14"
     style="stroke-width:4;stroke-dasharray:none"
     sodipodi:nodetypes="cc" />
  <path
     d="m 85.911024,100 c 0.33,0.83 1.83,-0.83 2,5 0.17,5.83 -0.17,24.67 -1,30 -0.83,5.33 -2.17,-0.33 -4,2 -1.83,2.33 -4.33,8.5 -7,12 -2.67,3.5 -4.67,5.83 -9,9 -4.33,3.17 -13.5,8.33 -17,10 -3.5,1.67 -2.83,0.5 -4,0 -1.17,-0.5 -3,1.5 -3,-3 0,-4.5 2.67,-18.5 3,-24 0.33,-5.5 -0.83,-7.5 -1,-9"
     fill="none"
     stroke="#000000"
     stroke-width="4.00"
     stroke-linecap="round"
     stroke-linejoin="round"
     id="path15"
     style="stroke-width:4;stroke-dasharray:none" />
  <path
     d="m 151.43807,114.76729 c 0.17,1.33 1.68017,3.82382 3.95158,9.75409 2.36895,6.18495 3.97375,10.91874 5.52137,16.47862 2.33,8.17 7,24 10,38 3,14 5.65216,31.70054 7.48216,45.87054 1.83,14.17 3.3415,33.79461 3.8415,40.29461"
     fill="none"
     stroke="#000000"
     stroke-width="4.00"
     stroke-linecap="round"
     stroke-linejoin="round"
     id="path16"
     style="stroke-width:4;stroke-dasharray:none"
     sodipodi:nodetypes="cssssc" />
  <path
     d="m 146.23537,118.47955 c -0.33,0.67 3.59108,8.32428 4.59108,13.15428 1,4.83 4.25457,14.36617 7.08457,25.36617 2.83,11 6.17,23.33 9,41 2.83,17.67 6.52006,56.93706 8,68.8394"
     fill="none"
     stroke="#000000"
     stroke-width="2.00"
     stroke-linecap="round"
     stroke-linejoin="round"
     id="path17"
     style="stroke-width:4;stroke-dasharray:none"
     sodipodi:nodetypes="csssc" />
  <path
     d="m 174.68119,265.24842 c 1.726,20.8024 3.14791,32.497 3.44433,51.27481 0.33129,20.98673 -1.00276,47.55479 -1.28591,50.78467"
     fill="none"
     stroke="#000000"
     stroke-width="8.25"
     stroke-linecap="round"
     stroke-linejoin="round"
     id="path19"
     style="stroke-width:4;stroke-dasharray:none"
     sodipodi:nodetypes="csc" />
  <path
     d="m 176.84629,367.57593 c -0.83,15 -3.34149,75.24982 -3.84149,91.24982"
     fill="none"
     stroke="#000000"
     stroke-width="4.00"
     stroke-linecap="round"
     stroke-linejoin="round"
     id="path20"
     style="stroke-width:4;stroke-dasharray:none"
     sodipodi:nodetypes="cc" />
</svg>
