<?xml version="1.0" encoding="UTF-8" standalone="no"?>
<svg
   viewBox="0 0 315 980"
   width="315"
   height="980"
   version="1.1"
   id="svg29"
   sodipodi:docname="march_right.svg"
   inkscape:version="1.4.2 (f4327f4, 2025-05-13)"
   xmlns:inkscape="http://www.inkscape.org/namespaces/inkscape"
   xmlns:sodipodi="http://sodipodi.sourceforge.net/DTD/sodipodi-0.dtd"
   xmlns="http://www.w3.org/2000/svg"
   xmlns:svg="http://www.w3.org/2000/svg">
  <defs
     id="defs29" />
  <sodipodi:namedview
     id="namedview29"
     pagecolor="#ffffff"
     bordercolor="#000000"
     borderopacity="0.25"
     inkscape:showpageshadow="2"
     inkscape:pageopacity="0.0"
     inkscape:pagecheckerboard="0"
     inkscape:deskcolor="#d1d1d1"
     inkscape:zoom="0.4117347"
     inkscape:cx="508.8228"
     inkscape:cy="261.09046"
     inkscape:window-width="1920"
     inkscape:window-height="1009"
     inkscape:window-x="1912"
     inkscape:window-y="-8"
     inkscape:window-maximized="1"
     inkscape:current-layer="svg29" />
  <path
     d="m 91.555799,748.24629 c 10.097531,-29.32118 24.310801,-25.69416 31.729421,-46.54317 1.6243,-4.56487 3.86397,-11.67814 7.03397,-20.50814 3.17,-8.83 9.66177,-22.72627 12.99177,-36.72627 3.18655,-13.39689 6.27795,-39.26527 5.60806,-49.99992 -0.22407,-3.59061 -0.13682,-7.47353 -1.47858,-10.52762 -1.39329,-3.17138 -1.67511,0.36854 -1.7331,-0.28028 -0.0409,-0.45811 0.0966,-1.94726 2.93386,-10.58097 5.65112,-17.19612 12.33,-81.40992 15,-109.07992 2.67,-27.67 2.80393,-37.79905 1.91078,-49.93742 -0.92898,-12.62539 -1.41078,-14.11625 -2.48143,-23.38459 -1.04704,-9.06387 -2.92944,-17.65677 -4.31752,-24.01225 -1.27859,-5.85419 -2.92627,-11.02594 -4.68273,-15.62465 -0.92342,-2.41767 -8.52583,-25.00296 -9.12576,-20.04235 -0.46782,3.87033 2.19666,24.67126 2.69666,37.00126 0.5,12.33 1.67,30.5 0,54 -1.67,23.5 -8,60.17 -10,87 -2,26.83 -3.163,79.50321 -2.993,92.83321"
     fill="none"
     stroke="#000000"
     stroke-width="4.00"
     stroke-linecap="round"
     stroke-linejoin="round"
     id="path12"
     style="stroke-width:4;stroke-dasharray:none"
     sodipodi:nodetypes="cssssssssssssssssc" />
  <path
     d="m 145.09659,330.46748 c -1.26386,9.67928 -6.55413,20.34517 -7.88413,28.51517 -1.33,8.17 -3.94672,19.50891 -6.94672,39.83891 -3,20.33 -4.62454,48.50844 -8.62454,75.17844 -4,26.67 -7.5,60.67 -9,83 -1.5,22.33 -0.22463,40.94243 -0.22546,50.12605 -7.7e-4,8.54693 0.75018,23.50192 1.8221,31.23577 0.3118,2.24957 11.69907,-20.63183 13.18899,-23.19268 5.18044,-8.90405 9.21483,-16.82532 16.31298,-28.72656 0.42856,-0.71855 1.56421,-2.19719 1.95862,-3.87281"
     fill="none"
     stroke="#000000"
     stroke-width="4.00"
     stroke-linecap="round"
     stroke-linejoin="round"
     id="path11"
     style="stroke-width:4;stroke-dasharray:none"
     sodipodi:nodetypes="cssssssssc" />
  <path
     d="m 193.6412,64 c -1,1.67 -4.17,5.83 -6,10 -1.83,4.17 -4.17,11.33 -5,15 -0.83,3.67 0.83,5.17 0,7 -0.83,1.83 -4.33,0.83 -5,4 -0.67,3.17 0.33,11.83 1,15 0.67,3.17 1.17,4.83 3,4 1.83,-0.83 6,-4.33 8,-9 2,-4.67 2.5,-14.17 4,-19 1.5,-4.83 4.17,-8.33 5,-10"
     fill="none"
     stroke="#000000"
     stroke-width="5.66"
     stroke-linecap="round"
     stroke-linejoin="round"
     id="path1"
     style="stroke-width:4;stroke-dasharray:none" />
  <path
     d="m 246.6412,113 c -3.17,3.17 -14.67,16.17 -19,19 -4.33,2.83 -5.67,-1 -7,-2 -1.33,-1 -2.17,-0.5 -1,-4 1.17,-3.5 6.5,-12 8,-17 1.5,-5 0,-8.5 1,-13 1,-4.5 4.5,-11 5,-14 0.5,-3 -2,1.5 -2,-4 0,-5.5 2.33,-19.67 2,-29 -0.33,-9.33 -2.17,-20.33 -4,-27 -1.83,-6.67 -5,-10.33 -7,-13 -2,-2.67 -2,-2.83 -5,-3 -3,-0.17 -6.5,-2.33 -13,2 -6.5,4.33 -18.5,16.33 -26,24 -7.5,7.67 -15.17,15.83 -19,22 -3.83,6.17 -3.33,12.5 -4,15"
     fill="none"
     stroke="#000000"
     stroke-width="5.66"
     stroke-linecap="round"
     stroke-linejoin="round"
     id="path2"
     style="stroke-width:4;stroke-dasharray:none" />
  <path
     d="m 132.6412,125 c 2.83,2.17 11.5,10.67 17,13 5.5,2.33 14,-2.83 16,1 2,3.83 -3.33,18.33 -4,22"
     fill="none"
     stroke="#000000"
     stroke-width="6.00"
     stroke-linecap="round"
     stroke-linejoin="round"
     id="path3"
     style="stroke-width:4;stroke-dasharray:none"
     sodipodi:nodetypes="cssc" />
  <path
     d="m 207.6412,150 c 1.67,0.33 7.5,1 10,2 2.5,1 3.5,3.67 5,4 1.5,0.33 2.67,-1 4,-2 1.33,-1 3.17,-2.5 4,-4 0.83,-1.5 1.33,-2.17 1,-5 -0.33,-2.83 -2.83,-10 -3,-12 -0.17,-2 1.67,0 2,0"
     fill="none"
     stroke="#000000"
     stroke-width="7.21"
     stroke-linecap="round"
     stroke-linejoin="round"
     id="path4"
     style="stroke-width:4;stroke-dasharray:none" />
  <path
     d="m 252.81964,159.18773 c -0.17,-1.67 3.50953,-9.92875 2.33953,-12.42875 -1.17,-2.5 -6.51797,-3.75898 -7.51797,-5.75898 -1,-2 -3.5,-5.83 0,-7 3.5,-1.17 17.5,0 21,0"
     fill="none"
     stroke="#000000"
     stroke-width="6.00"
     stroke-linecap="round"
     stroke-linejoin="round"
     id="path5"
     style="stroke-width:4;stroke-dasharray:none"
     sodipodi:nodetypes="csssc" />
  <path
     d="m 198.6412,166 c 2.17,1.5 10.33,8.67 13,9 2.67,0.33 1,-4.83 3,-7 2,-2.17 7.67,-4 9,-6 1.33,-2 -0.83,-5 -1,-6"
     fill="none"
     stroke="#000000"
     stroke-width="10.00"
     stroke-linecap="round"
     stroke-linejoin="round"
     id="path6"
     style="stroke-width:4;stroke-dasharray:none" />
  <path
     d="m 238.6412,167 c 2.17,0.5 10.67,1.83 13,3 2.33,1.17 2.33,2 1,4 -1.33,2 -7,4.83 -9,8 -2,3.17 -1.67,8.67 -3,11 -1.33,2.33 -2.83,2.67 -5,3 -2.17,0.33 -6.17,-2 -8,-1 -1.83,1 -1.33,5.5 -3,7 -1.67,1.5 -4.33,2 -7,2 -2.67,0 -6.67,-0.33 -9,-2 -2.33,-1.67 -4.17,-6.67 -5,-8"
     fill="none"
     stroke="#000000"
     stroke-width="5.66"
     stroke-linecap="round"
     stroke-linejoin="round"
     id="path7"
     style="stroke-width:4;stroke-dasharray:none" />
  <path
     d="m 274.6412,183 c -3.5,-1.33 -13.56523,-6.42935 -17.56523,-8.42935 -4,-2 -5.02399,-3.81143 -5.52399,-4.48143"
     fill="none"
     stroke="#000000"
     stroke-width="4.00"
     stroke-linecap="round"
     stroke-linejoin="round"
     id="path8"
     style="stroke-width:4;stroke-dasharray:none"
     sodipodi:nodetypes="csc" />
  <path
     d="m 123.6412,213 c 1.83,-4.17 7,-18.17 11,-25 4,-6.83 10,-12.83 13,-16 0.85764,-0.90624 2.77026,-2.03714 4.98565,-3.20283 5.02402,-2.64352 11.60513,-5.46591 10.97036,-6.25256 -2.91054,-3.60695 -6.65265,-3.73258 -11.58984,-1.54461 -4.0058,1.77521 -14.86617,5.67 -23.36617,6 -8.5,0.33 -24,-4.17 -29.000001,-4"
     fill="none"
     stroke="#000000"
     stroke-width="6.00"
     stroke-linecap="round"
     stroke-linejoin="round"
     id="path9"
     style="stroke-width:4;stroke-dasharray:none"
     sodipodi:nodetypes="cssssssc" />
  <path
     d="m 193.6412,214 c -0.83,-1.83 -3.83,-5.83 -5,-11 -1.17,-5.17 -1.67,-17 -2,-20 -0.33,-3 0,1.67 0,2"
     fill="none"
     stroke="#000000"
     stroke-width="5.83"
     stroke-linecap="round"
     stroke-linejoin="round"
     id="path10"
     style="stroke-width:4;stroke-dasharray:none" />
  <path
     d="m 70.469979,796.87298 c -3,9.83 -6.82265,21.3903 -12.09742,32.0583 -3.11461,6.29918 -25.81079,40.91826 -20.48632,26.50676 5.30474,-14.35807 22.70157,-81.62382 28.54058,-102.12112 5.83905,-20.49743 8.40235,-23.48823 13.21438,-39.05057 4.2263,-13.66807 9.96548,-26.87548 17.00531,-43.5287 7.303591,-17.27718 12.147991,-23.38251 20.889861,-36.30282"
     fill="none"
     stroke="#000000"
     stroke-width="4.00"
     stroke-linecap="round"
     stroke-linejoin="round"
     id="path13"
     style="stroke-width:4;stroke-dasharray:none"
     sodipodi:nodetypes="csssssc" />
  <path
     d="m 99.641199,163 c -0.67,-1.83 -2.5,-8.5 -4,-11 -1.5,-2.5 -2.67,1.83 -5,-4 -2.33,-5.83 -6.17,-19.67 -9,-31 -2.83,-11.33 -7,-30 -8,-37 -1,-7 -4,-3.5 2,-5 6,-1.5 26.670001,-2.67 34.000001,-4 7.33,-1.33 4.5,-3.33 10,-4 5.5,-0.67 17,-0.5 23,0 6,0.5 8.83,0.17 13,3 4.17,2.83 9,9.5 12,14 3,4.5 4.17,10.17 6,13 1.83,2.83 4.17,3.33 5,4"
     fill="none"
     stroke="#000000"
     stroke-width="6.00"
     stroke-linecap="round"
     stroke-linejoin="round"
     id="path14"
     style="stroke-width:4;stroke-dasharray:none" />
  <path
     d="m 234.6412,81 c 7.17,-3.33 34.5,-16.67 43,-20 8.5,-3.33 6,-0.67 8,0 2,0.67 3.5,1 4,4 0.5,3 0.33,7.83 -1,14 -1.33,6.17 -5.67,17.17 -7,23 -1.33,5.83 1.17,6.5 -1,12 -2.17,5.5 -12.5,15 -12,21 0.5,6 10,7.83 15,15 5,7.17 11.83,21.17 15,28 3.17,6.83 7.67,7.33 4,13 -3.67,5.67 -19.33,16 -26,21 -6.67,5 -10,7 -14,9 -4,2 -5.5,2.67 -10,3 -4.5,0.33 -12.17,2.67 -17,-1 -4.83,-3.67 -10,-17.5 -12,-21"
     fill="none"
     stroke="#000000"
     stroke-width="5.06"
     stroke-linecap="round"
     stroke-linejoin="round"
     id="path15"
     style="stroke-width:4;stroke-dasharray:none" />
  <path
     d="m 181.6412,119 c 0.17,1 2.17,4.67 1,6 -1.17,1.33 -6.33,0.5 -8,2 -1.67,1.5 -0.5,5.17 -2,7 -1.5,1.83 -5.83,3.33 -7,4"
     fill="none"
     stroke="#000000"
     stroke-width="12.00"
     stroke-linecap="round"
     stroke-linejoin="round"
     id="path16"
     style="stroke-width:4;stroke-dasharray:none" />
  <path
     d="m 182.6412,125 c 1.17,1 3.83,4.5 7,6 3.17,1.5 8,2.5 12,3 4,0.5 8.67,0.5 12,0 3.33,-0.5 7,-2.5 8,-3 1,-0.5 -1.67,0 -2,0"
     fill="none"
     stroke="#000000"
     stroke-width="5.66"
     stroke-linecap="round"
     stroke-linejoin="round"
     id="path17"
     style="stroke-width:4;stroke-dasharray:none" />
  <path
     d="m 227.6412,132 c 2.17,0 9.67,-0.5 13,0 3.33,0.5 5.83,2.5 7,3"
     fill="none"
     stroke="#000000"
     stroke-width="6.00"
     stroke-linecap="round"
     stroke-linejoin="round"
     id="path18"
     style="stroke-width:4;stroke-dasharray:none" />
  <path
     d="m 90.641199,148 c -1.5,1.17 -4.5,0.83 -9,7 -4.5,6.17 -14.9186,23.66249 -17.30231,30.80502 -2.59453,7.77422 -4.46391,14.68283 -6.69769,22.19498 -2.5,7.67 -8.33,17.33 -14,37 -5.67,19.67 -17.37658,64.33814 -20,81 -0.84785,5.38488 -1.81178,7.70237 -3.91078,19.54461 -1.06688,6.01919 -1.91922,10.62539 -4.08922,34.45539 -2.17,23.83 -6.3300002,80 -8.0000002,109 -1.67,29 -1.83,37 -2,65 -0.17,28 1.29815,83.54047 0.54461,102.69641 -0.56771,14.43191 0.22364,15.50898 0.45539,27.30359 0,10.5 2.10611,33.65893 2.37159,45.82722 0.38339,17.57243 0.1556,21.85945 0.85327,29.76411 1.1345602,12.85457 0.9356202,19.48721 3.3823202,19.3021 4.94735,-0.3743 10.9818,2.20446 11.08923,-5.00929 C 24.554209,759.33862 20.811199,713.5 19.641199,684 c -1.17,-29.5 -2,-55.33 -2,-90 0,-34.67 0.83,-87.67 2,-118 1.17,-30.33 3.15151,-52.92205 5,-64 1.08757,-6.51778 3.48198,-26.46307 5,-39 1.17,-8.33 0.96383,-5.71437 2.63383,-15.21437 1.67,-9.5 3.19617,-21.61563 7.36617,-41.78563 4.17,-20.17 14.92898,-63.30824 19.75898,-80.80824 4.83,-17.5 8.87747,-26.70732 11.61005,-33.22552"
     fill="none"
     stroke="#000000"
     stroke-width="5.66"
     stroke-linecap="round"
     stroke-linejoin="round"
     id="path19"
     style="stroke-width:4;stroke-dasharray:none"
     sodipodi:nodetypes="csssssssssssssssssssssssc" />
  <path
     d="m 151.08729,161.48203 c 1,-0.5 8.05391,-2.65203 10.55391,-1.48203 2.5,1.17 8.17,6 9,10 0.83,4 -3.83,4.33 -4,14 -0.17,9.67 2.5,36.67 3,44"
     fill="none"
     stroke="#000000"
     stroke-width="6.16"
     stroke-linecap="round"
     stroke-linejoin="round"
     id="path20"
     style="stroke-width:4;stroke-dasharray:none"
     sodipodi:nodetypes="csssc" />
  <path
     d="m 71.123229,201.64312 c 3.56282,-7.61671 12.08078,-21.88414 15.91078,-26.88414 3.83,-5 12.51566,-13.14993 12.79331,-11.15978 0.816861,5.85512 -8.85993,50.43188 -8.18612,68.4008 0.33,8.17 1.17,-3.67 2,3 0.83,6.67 2.17,30.5 3,37 0.83,6.5 -5.67,5 2,2 7.670001,-3 34.830001,-15.33 44.000001,-20 9.17,-4.67 6.33,-3.5 11,-8 4.67,-4.5 13,-17.17 17,-19 4,-1.83 5,4.83 7,8 2,3.17 2,6.67 5,11 3,4.33 5.33,8.83 13,15 7.67,6.17 26.17,18.17 33,22 6.83,3.83 5.83,1.83 8,1 2.17,-0.83 4.5,0.17 5,-6 0.5,-6.17 -1,-23.17 -2,-31 -1,-7.83 -3.5,-12 -4,-16 -0.5,-4 0.83,-6.67 1,-8"
     fill="none"
     stroke="#000000"
     stroke-width="5.66"
     stroke-linecap="round"
     stroke-linejoin="round"
     id="path22"
     style="stroke-width:4;stroke-dasharray:none"
     sodipodi:nodetypes="csssssssssssssssssc" />
  <path
     d="m 169.6412,171 c 1.17,0 4.33,-1.5 7,0 2.67,1.5 7.33,6.83 9,9 1.67,2.17 -0.67,3 1,4 1.67,1 6.17,0.33 9,2 2.83,1.67 5.33,7 8,8 2.67,1 6.17,-1 8,-2 1.83,-1 2.5,-2.17 3,-4 0.5,-1.83 0.67,-4.67 0,-7 -0.67,-2.33 -3.33,-5.83 -4,-7"
     fill="none"
     stroke="#000000"
     stroke-width="6.00"
     stroke-linecap="round"
     stroke-linejoin="round"
     id="path23"
     style="stroke-width:4;stroke-dasharray:none" />
  <path
     d="m 123.28522,701.85327 c -1.33,4.83 -2.81402,11.31673 -8.64402,25.14673 -5.83,13.83 -18.021261,50.19086 -23.565231,66.65486 -5.78261,17.17272 -15.14944,29.23095 -21.64944,43.23095 -6.5,14 -24.36954,30.93634 -31.08964,31.53811"
     fill="none"
     stroke="#000000"
     stroke-width="4.47"
     stroke-linecap="round"
     stroke-linejoin="round"
     id="path24"
     style="stroke-width:4;stroke-dasharray:none"
     sodipodi:nodetypes="csssc" />
  <path
     d="m 11.586669,777.07187 c 0.5,2.33 0.75462,5.739 1.48204,11.87485 2.74822,23.18158 2.14171,26.0307 3.17968,33.66047 1.79568,13.19941 9.39281,47.06281 12.39281,64.39281 3,17.33 3.79577,29.4298 5,39 2.08637,16.58065 3.78975,29.79359 7,43 1.5,4.5 4.83,2.33 7,2 2.17,-0.33 5,-1.17 6,-4 1.04717,-7.67879 -2.15506,-15.61094 -4,-23 -1.33,-5.5 -2.33,-10.17 -4,-23 -1.67,-12.83 -9.5539,-63.8228 -10.5539,-72.8228"
     fill="none"
     stroke="#000000"
     stroke-width="6.00"
     stroke-linecap="round"
     stroke-linejoin="round"
     id="path25"
     style="stroke-width:4;stroke-dasharray:none"
     sodipodi:nodetypes="csssssssssc" />
  <path
     d="m 24.364239,773.47955 c -0.51797,19.97484 4.21462,44.21197 5.54462,50.38197 1.33,6.17 5.2239,22.42008 5.56722,27.14777"
     fill="none"
     stroke="#000000"
     stroke-width="6.00"
     stroke-linecap="round"
     stroke-linejoin="round"
     id="path27"
     style="stroke-width:4;stroke-dasharray:none"
     sodipodi:nodetypes="csc" />
</svg>
