<?xml version="1.0" encoding="UTF-8" standalone="no"?>
<svg
   viewBox="0 0 621 1699"
   width="621"
   height="1699"
   version="1.1"
   id="svg81"
   sodipodi:docname="november_left.svg"
   inkscape:version="1.4.2 (f4327f4, 2025-05-13)"
   xmlns:inkscape="http://www.inkscape.org/namespaces/inkscape"
   xmlns:sodipodi="http://sodipodi.sourceforge.net/DTD/sodipodi-0.dtd"
   xmlns="http://www.w3.org/2000/svg"
   xmlns:svg="http://www.w3.org/2000/svg">
  <defs
     id="defs81" />
  <sodipodi:namedview
     id="namedview81"
     pagecolor="#ffffff"
     bordercolor="#000000"
     borderopacity="0.25"
     inkscape:showpageshadow="2"
     inkscape:pageopacity="0.0"
     inkscape:pagecheckerboard="0"
     inkscape:deskcolor="#d1d1d1"
     inkscape:zoom="0.23749264"
     inkscape:cx="313.69393"
     inkscape:cy="170.5316"
     inkscape:window-width="1920"
     inkscape:window-height="1009"
     inkscape:window-x="1912"
     inkscape:window-y="-8"
     inkscape:window-maximized="1"
     inkscape:current-layer="svg81" />
  <path
     d="m 455,628 c -2.83,-3.33 -0.5,-6.17 -3,-10 -2.5,-3.83 -8.33,-9.83 -12,-13 -3.67,-3.17 -6.83,-4.67 -10,-6 -3.17,-1.33 -5.67,-2.17 -9,-2 -3.33,0.17 -7.17,0.33 -11,3 -3.83,2.67 -9.5,9.5 -12,13 -2.5,3.5 -1.17,5.5 -3,8 -1.83,2.5 -5.83,7 -8,7 -2.17,0 -4,-3.83 -5,-7 -1,-3.17 0.17,-8.33 -1,-12 -1.17,-3.67 -5,-8.33 -6,-10"
     fill="none"
     stroke="#000000"
     stroke-width="8.49"
     stroke-linecap="round"
     stroke-linejoin="round"
     id="path1"
     sodipodi:nodetypes="cssssssssssc"
     style="stroke-width:4;stroke-dasharray:none" />
  <path
     d="m 187,736 c 0.67,1.67 3.67,0.5 4,2 0.33,1.5 -7.33,1.5 -2,7 5.33,5.5 24.83,19.67 34,26 9.17,6.33 15.67,9.67 21,12 5.33,2.33 9.5,3.5 11,2 1.5,-1.5 0,-7 -2,-11 -2,-4 -6.17,-6.67 -10,-13 -3.83,-6.33 -10.67,-18.33 -13,-25 -2.33,-6.67 -0.83,-12.5 -1,-15"
     fill="none"
     stroke="#000000"
     stroke-width="8.49"
     stroke-linecap="round"
     stroke-linejoin="round"
     id="path2"
     sodipodi:nodetypes="cssssssssc"
     style="stroke-width:4;stroke-dasharray:none" />
  <path
     d="m 327,742 c 1,2.67 4,2 4,2 0,0 -1.83,-2.5 -4,-2 -2.17,0.5 -7,0 -9,5 -2,5 -3.33,19.5 -3,25 0.33,5.5 4.17,5.17 5,8 0.83,2.83 0.67,6.5 0,9 -0.67,2.5 -1.67,5.17 -4,6 -2.33,0.83 -7,0.5 -10,-1 -3,-1.5 -4.33,-0.83 -8,-8 -3.67,-7.17 -10.17,-27.5 -14,-35 -3.83,-7.5 -6.33,-8.17 -9,-10 -2.67,-1.83 -4.83,-1.83 -7,-1 -2.17,0.83 -0.83,9 -6,6 -5.17,-3 -19.33,-20 -25,-24 -5.67,-4 -6.5,0.67 -9,0 -2.5,-0.67 -4.17,-3.5 -6,-4 -1.83,-0.5 -2.5,-0.83 -5,1 -2.5,1.83 -8,7.5 -10,10 -2,2.5 0,4 -2,5 -2,1 -7.67,0.33 -10,1 -2.33,0.67 -3.33,2.5 -4,3"
     fill="none"
     stroke="#000000"
     stroke-width="8.49"
     stroke-linecap="round"
     stroke-linejoin="round"
     id="path3"
     sodipodi:nodetypes="ccsssssssssssssssssssc"
     style="stroke-width:4;stroke-dasharray:none" />
  <path
     d="m 189,791 c 2.5,-0.83 7.5,-5.83 9,-8 1.5,-2.17 1.33,-2.33 0,-5 -1.33,-2.67 -6.17,-7.67 -8,-11 -1.83,-3.33 -2.33,-6.17 -3,-9 -0.67,-2.83 -1.5,-5.67 -1,-8 0.5,-2.33 3.33,-5 4,-6"
     fill="none"
     stroke="#000000"
     stroke-width="8.94"
     stroke-linecap="round"
     stroke-linejoin="round"
     id="path4"
     sodipodi:nodetypes="csssssc"
     style="stroke-width:4;stroke-dasharray:none" />
  <path
     d="m 317,1673 c -0.17,-1.17 -2.17,-2.83 -1,-7 1.17,-4.17 3.17,-0.33 8,-18 4.83,-17.67 17.34381,-70.6325 21,-88 4.50562,-21.4024 9.44868,-39.4193 13,-61 3.5,-18.83 14.5,-69.67 20,-99 5.5,-29.33 7.83,-35.83 13,-77 5.17,-41.17 14.33,-124 18,-170 3.67,-46 3.67,-70.83 4,-106 0.33,-35.17 -2.3931,-82.96334 -2,-105 0.25066,-14.05171 0.21229,-18.90643 -1.07892,-30.73683 C 409.49922,907.39796 409.40892,902.75085 409,892 c -0.66062,-17.3684 -6.17,-61 -8,-85 -1.83,-24 -1.33,-37.33 -3,-59 -1.67,-21.67 -5.17,-55.83 -7,-71 -1.83,-15.17 -3.5,-11.67 -4,-20 -0.5,-8.33 0.83,-25 1,-30"
     fill="none"
     stroke="#000000"
     stroke-width="12"
     stroke-linecap="round"
     stroke-linejoin="round"
     id="path5"
     sodipodi:nodetypes="csssssssssssssssc"
     style="stroke-width:4;stroke-dasharray:none" />
  <path
     d="m 311,62 c -1.17,3.17 -5.17,15.33 -7,19 -1.83,3.67 -2.67,2.67 -4,3 -1.33,0.33 -0.5,2 -4,-1 -3.5,-3 -11.5,-12.5 -17,-17 -5.5,-4.5 -14.5,-4.83 -16,-10 -1.5,-5.17 4.67,-16.33 7,-21 2.33,-4.67 4.83,-5.83 7,-7 2.17,-1.17 0.33,-5.67 6,0 5.67,5.67 21.67,29.67 28,34 6.33,4.33 7.33,-6.67 10,-8 2.67,-1.33 3,-2.33 6,0 3,2.33 10,7.83 12,14 2,6.17 -1,18 0,23 1,5 5,5.83 6,7"
     fill="none"
     stroke="#000000"
     stroke-width="8.49"
     stroke-linecap="round"
     stroke-linejoin="round"
     id="path6"
     style="stroke-width:4;stroke-dasharray:none"
     sodipodi:nodetypes="csssssssssssssc" />
  <path
     d="m 263,56 c -1.5,-0.17 -6.33,-2 -9,-1 -2.67,1 -5.17,2.33 -7,7 -1.83,4.67 -3.5,15.5 -4,21 -0.5,5.5 -1.33,9.67 1,12 2.33,2.33 7.67,-1.5 13,2 5.33,3.5 14.67,15.67 19,19 4.33,3.33 5.83,0.5 7,1 1.17,0.5 -0.5,4.5 0,2 0.5,-2.5 1.5,-13.17 3,-17 1.5,-3.83 4.17,-4.83 6,-6 1.83,-1.17 4.17,-0.83 5,-1"
     fill="none"
     stroke="#000000"
     stroke-width="8.49"
     stroke-linecap="round"
     stroke-linejoin="round"
     id="path7"
     style="stroke-width:4;stroke-dasharray:none"
     sodipodi:nodetypes="cssssssssssc" />
  <path
     d="m 393,61 c 1.33,-0.5 4,0 8,-3 4,-3 12.17,-12 16,-15 3.83,-3 4.5,-3.33 7,-3 2.5,0.33 5.83,2 8,5 2.17,3 2.33,11.67 5,13 2.67,1.33 7.33,-4.17 11,-5 3.67,-0.83 7.83,-2 11,0 3.17,2 5.83,5 8,12 2.17,7 4.17,25 5,30"
     fill="none"
     stroke="#000000"
     stroke-width="8.25"
     stroke-linecap="round"
     stroke-linejoin="round"
     id="path8"
     style="stroke-width:4;stroke-dasharray:none"
     sodipodi:nodetypes="cssssssssc" />
  <path
     d="m 437,58 c -0.5,1.67 -1.83,7.83 -3,10 -1.17,2.17 -3.5,0.67 -4,3 -0.5,2.33 1.83,3.5 1,11 -0.83,7.5 -5.17,26.67 -6,34 -0.83,7.33 0.83,8.33 1,10"
     fill="none"
     stroke="#000000"
     stroke-width="8.00"
     stroke-linecap="round"
     stroke-linejoin="round"
     id="path9"
     style="stroke-width:4;stroke-dasharray:none"
     sodipodi:nodetypes="cssssc" />
  <path
     d="m 383,77 c 0.83,-0.5 3.33,-0.33 5,-3 1.67,-2.67 4.67,-7.5 5,-13 0.33,-5.5 -1.17,-15 -3,-20 -1.83,-5 -4.33,-8.67 -8,-10 -3.67,-1.33 -7.83,-3.5 -14,2 -6.17,5.5 -18.17,25 -23,31 -4.83,6 -5,4.17 -6,5"
     fill="none"
     stroke="#000000"
     stroke-width="8.49"
     stroke-linecap="round"
     stroke-linejoin="round"
     id="path10"
     style="stroke-width:4;stroke-dasharray:none"
     sodipodi:nodetypes="cssssssc" />
  <path
     d="m 431,72 c -0.33,-0.33 0.17,-2 -2,-2 -2.17,0 -5.5,-2.83 -11,2 -5.5,4.83 -16.67,21.5 -22,27 -5.33,5.5 -7.67,7.17 -10,6 -2.33,-1.17 -3.5,-8.33 -4,-13 -0.5,-4.67 3,-11.5 1,-15 -2,-3.5 -9.17,-6.17 -13,-6 -3.83,0.17 -7,3.5 -10,7 -3,3.5 -5.5,10.83 -8,14 -2.5,3.17 -5.33,0.17 -7,5 -1.67,4.83 -1.67,19.33 -3,24 -1.33,4.67 -4.67,2 -5,4 -0.33,2 2.17,2.5 3,8 0.83,5.5 0.67,19.67 2,25 1.33,5.33 5,5.83 6,7"
     fill="none"
     stroke="#000000"
     stroke-width="8.49"
     stroke-linecap="round"
     stroke-linejoin="round"
     id="path11"
     style="stroke-width:4;stroke-dasharray:none"
     sodipodi:nodetypes="cssssssssssssssc" />
  <path
     d="m 193,82 c -3.67,-2.67 -17,-12.83 -22,-16 -5,-3.17 -6,-2.67 -8,-3 -2,-0.33 -2.17,-0.67 -4,1 -1.83,1.67 -6.33,1.83 -7,9 -0.67,7.17 -1.5,25.83 3,34 4.5,8.17 18.17,12 24,15 5.83,3 8.83,3.17 11,3 2.17,-0.17 1.33,3.17 2,-4 0.67,-7.17 0.5,-31.17 2,-39 1.5,-7.83 4.83,-6.67 7,-8 2.17,-1.33 0.5,-4.33 6,0 5.5,4.33 21.5,21.5 27,26 5.5,4.5 5,0.83 6,1"
     fill="none"
     stroke="#000000"
     stroke-width="8.25"
     stroke-linecap="round"
     stroke-linejoin="round"
     id="path12"
     style="stroke-width:4;stroke-dasharray:none"
     sodipodi:nodetypes="cssssssssssssc" />
  <path
     d="m 298,84 c 0.33,0 2,-1.83 2,0 0,1.83 -3.67,6.83 -2,11 1.67,4.17 10,11.67 12,14"
     fill="none"
     stroke="#000000"
     stroke-width="10.00"
     stroke-linecap="round"
     stroke-linejoin="round"
     id="path13"
     style="stroke-width:4;stroke-dasharray:none"
     sodipodi:nodetypes="cssc" />
  <path
     d="m 244,95 c -0.83,1 -5.17,1.83 -5,6 0.17,4.17 8.17,16 6,19 -2.17,3 -14.83,-1.83 -19,-1 -4.17,0.83 -5.33,0.67 -6,6 -0.67,5.33 1.67,21.67 2,26"
     fill="none"
     stroke="#000000"
     stroke-width="8.37"
     stroke-linecap="round"
     stroke-linejoin="round"
     id="path14"
     style="stroke-width:4;stroke-dasharray:none"
     sodipodi:nodetypes="cssssc" />
  <path
     d="m 472,99 c 1.33,2.17 6.5,9.5 8,13 1.5,3.5 4.83,0.33 1,8 -3.83,7.67 -19.5,30 -24,38 -4.5,8 -3.33,8.33 -3,10 0.33,1.67 0.33,1.67 5,0 4.67,-1.67 15.17,-7.5 23,-10 7.83,-2.5 19.17,-3.67 24,-5 4.83,-1.33 3.83,-1.33 5,-3 1.17,-1.67 1,-5.5 2,-7 1,-1.5 3.33,0.17 4,-2 0.67,-2.17 -1.17,-6.17 0,-11 1.17,-4.83 5.83,-12.83 7,-18 1.17,-5.17 1.33,-9 0,-13 -1.33,-4 -5.33,-8.83 -8,-11 -2.67,-2.17 -4.67,-2 -8,-2 -3.33,0 -6,0.33 -12,2 -6,1.67 -19.83,6 -24,8 -4.17,2 2,2.17 -1,4 -3,1.83 -10.83,3.17 -17,7 -6.17,3.83 -15.5,13 -20,16 -4.5,3 -1,-5.33 -7,2 -6,7.33 -22.5,34 -29,42 -6.5,8 -8,5.5 -10,6 -2,0.5 -1.67,3.5 -2,-3 -0.33,-6.5 0.83,-26.5 0,-36 -0.83,-9.5 -4.17,-17.5 -5,-21"
     fill="none"
     stroke="#000000"
     stroke-width="8.25"
     stroke-linecap="round"
     stroke-linejoin="round"
     id="path15"
     style="stroke-width:4;stroke-dasharray:none"
     sodipodi:nodetypes="csssssssssssssssssssssssssc" />
  <path
     d="m 387,104 c -0.83,1.5 -1.67,8 -5,9 -3.33,1 -11.67,-3.33 -15,-3 -3.33,0.33 -2.83,-3.17 -5,5 -2.17,8.17 -5.67,35.83 -8,44 -2.33,8.17 -5,2.83 -6,5 -1,2.17 0.67,5.33 0,8 -0.67,2.67 -2.17,7.17 -4,8 -1.83,0.83 -2.67,0.5 -7,-3 -4.33,-3.5 -15.83,-15 -19,-18"
     fill="none"
     stroke="#000000"
     stroke-width="8.49"
     stroke-linecap="round"
     stroke-linejoin="round"
     id="path16"
     style="stroke-width:4;stroke-dasharray:none"
     sodipodi:nodetypes="cssssssssc" />
  <path
     d="m 155,107 c -3.5,0 -17,-0.33 -21,0 -4,0.33 -0.17,2.83 -3,2 -2.83,-0.83 -8.17,-6.5 -14,-7 -5.83,-0.5 -16.33,2.17 -21,4 -4.67,1.83 -5.83,4.5 -7,7 -1.17,2.5 -1,4.67 0,8 1,3.33 2.5,7.33 6,12 3.5,4.67 12.17,12.33 15,16 2.83,3.67 2.17,4.67 2,6 -0.17,1.33 3,1.33 -3,2 -6,0.67 -26.33,0.67 -33,2 -6.67,1.33 -5.83,4 -7,6 -1.17,2 -3,0.83 0,6 3,5.17 14.67,19.83 18,25 3.33,5.17 2.17,4.67 2,6 -0.17,1.33 -3,-0.67 -3,2 0,2.67 -1.5,8.33 3,14 4.5,5.67 18.5,16.17 24,20 5.5,3.83 7.17,3.83 9,3 1.83,-0.83 0.83,-5.67 2,-8 1.17,-2.33 2.17,-4.5 5,-6 2.83,-1.5 2,-3.83 12,-3 10,0.83 35.33,5 48,8 12.67,3 22.67,7.33 28,10 5.33,2.67 4.5,4.33 4,6 -0.5,1.67 -5.33,2.5 -7,4 -1.67,1.5 -4.17,1 -3,5 1.17,4 8.5,14.33 10,19 1.5,4.67 -4.83,6.83 -1,9 3.83,2.17 19.33,2.67 24,4 4.67,1.33 -1.5,5.17 4,4 5.5,-1.17 23.5,-8.5 29,-11 5.5,-2.5 3,-1.83 4,-4 1,-2.17 -1.17,-7.33 2,-9 3.17,-1.67 14.83,-0.67 17,-1 2.17,-0.33 -3.67,-0.83 -4,-1 -0.33,-0.17 4.17,9.83 2,0 -2.17,-9.83 -12.67,-47 -15,-59 -2.33,-12 -0.17,-9.83 1,-13 1.17,-3.17 4,-4.83 6,-6 2,-1.17 5.33,2.83 6,-1 0.67,-3.83 -2.17,-18 -2,-22 0.17,-4 2.5,-1.67 3,-2"
     fill="none"
     stroke="#000000"
     stroke-width="8.25"
     stroke-linecap="round"
     stroke-linejoin="round"
     id="path17"
     style="stroke-width:4;stroke-dasharray:none"
     sodipodi:nodetypes="cssssssssssssssssssssssssssssssssssssssssssc" />
  <path
     d="m 132,108 c 0,2 -2.17,6.5 0,12 2.17,5.5 10.33,16 13,21 2.67,5 5.67,7.33 3,9 -2.67,1.67 -14.83,-0.17 -19,1 -4.17,1.17 -5,5 -6,6"
     fill="none"
     stroke="#000000"
     stroke-width="8.25"
     stroke-linecap="round"
     stroke-linejoin="round"
     id="path18"
     style="stroke-width:4;stroke-dasharray:none"
     sodipodi:nodetypes="cssssc" />
  <path
     d="m 337,125 c -1,-0.67 -3.5,-1.17 -6,-4 -2.5,-2.83 -6.5,-10.67 -9,-13 -2.5,-2.33 -4.17,-1.17 -6,-1 -1.83,0.17 -5,-6.33 -5,2 0,8.33 3.83,39.67 5,48 1.17,8.33 2.17,1.67 2,2 -0.17,0.33 -1.67,-1 -3,0 -1.33,1 -2.67,5 -5,6 -2.33,1 -6.67,0.17 -9,0 -2.33,-0.17 -2,6.67 -5,-1 -3,-7.67 -10.83,-37.5 -13,-45"
     fill="none"
     stroke="#000000"
     stroke-width="8.25"
     stroke-linecap="round"
     stroke-linejoin="round"
     id="path19"
     style="stroke-width:4;stroke-dasharray:none"
     sodipodi:nodetypes="cssssssssssc" />
  <path
     d="m 244,120 c 1.17,1.83 3,6.17 7,11 4,4.83 13.17,13.33 17,18 3.83,4.67 5,7.17 6,10 1,2.83 -0.33,5.83 0,7 0.33,1.17 3.5,-0.17 2,0 -1.5,0.17 -8.33,0.33 -11,1 -2.67,0.67 -2,-0.33 -5,3 -3,3.33 -10.5,9.5 -13,17 -2.5,7.5 -0.5,23.5 -2,28 -1.5,4.5 -4.67,0 -7,-1 -2.33,-1 1.83,4 -7,-5 -8.83,-9 -36.83,-41 -46,-49 -9.17,-8 -4.67,1.67 -9,1 -4.33,-0.67 -12.33,-3.17 -17,-5 -4.67,-1.83 -9.17,-5 -11,-6"
     fill="none"
     stroke="#000000"
     stroke-width="8.49"
     stroke-linecap="round"
     stroke-linejoin="round"
     id="path20"
     style="stroke-width:4;stroke-dasharray:none"
     sodipodi:nodetypes="cssssssssssssssc" />
  <path
     d="m 190,125 c 0.5,1.17 2.67,4.33 3,7 0.33,2.67 -1.17,7.5 -1,9 0.17,1.5 1.67,0 2,0"
     fill="none"
     stroke="#000000"
     stroke-width="9.47"
     stroke-linecap="round"
     stroke-linejoin="round"
     id="path21"
     style="stroke-width:4;stroke-dasharray:none"
     sodipodi:nodetypes="cssc" />
  <path
     d="m 185,160 c -0.17,-2.83 -1.17,-13.83 -1,-17 0.17,-3.17 0.17,-1.67 2,-2 1.83,-0.33 4.67,-1.5 9,0 4.33,1.5 12.5,7.33 17,9 4.5,1.67 5.5,-4 10,1 4.5,5 12.67,23.17 17,29 4.33,5.83 7.5,5 9,6"
     fill="none"
     stroke="#000000"
     stroke-width="8.49"
     stroke-linecap="round"
     stroke-linejoin="round"
     id="path22"
     style="stroke-width:4;stroke-dasharray:none"
     sodipodi:nodetypes="cssssssc" />
  <path
     d="m 517,141 c 1.67,0 4,1 10,0 6,-1 20.5,-5.5 26,-6 5.5,-0.5 5.67,1.33 7,3 1.33,1.67 1.33,4.67 1,7 -0.33,2.33 -0.5,3.5 -3,7 -2.5,3.5 -9.5,10.17 -12,14 -2.5,3.83 -2.83,7.5 -3,9 -0.17,1.5 1.67,0 2,0"
     fill="none"
     stroke="#000000"
     stroke-width="8.25"
     stroke-linecap="round"
     stroke-linejoin="round"
     id="path23"
     style="stroke-width:4;stroke-dasharray:none"
     sodipodi:nodetypes="csssssssc" />
  <path
     d="m 510,151 c 1,1 5,3.67 6,6 1,2.33 0.83,4.33 0,8 -0.83,3.67 -4.33,11 -5,14 -0.67,3 4.5,-0.17 1,4 -3.5,4.17 -16.5,16.17 -22,21 -5.5,4.83 -6.33,7.5 -11,8 -4.67,0.5 -11.83,-4.17 -17,-5 -5.17,-0.83 -8.83,-0.67 -14,0 -5.17,0.67 -14.17,3.33 -17,4"
     fill="none"
     stroke="#000000"
     stroke-width="8.25"
     stroke-linecap="round"
     stroke-linejoin="round"
     id="path24"
     style="stroke-width:4;stroke-dasharray:none"
     sodipodi:nodetypes="cssssssssc" />
  <path
     d="m 112,155 c 1.83,0.33 8.5,-0.67 11,2 2.5,2.67 0.67,8.33 4,14 3.33,5.67 13.17,15.5 16,20 2.83,4.5 0.5,5.83 1,7 0.5,1.17 1.67,0 2,0"
     fill="none"
     stroke="#000000"
     stroke-width="8.49"
     stroke-linecap="round"
     stroke-linejoin="round"
     id="path25"
     style="stroke-width:4;stroke-dasharray:none"
     sodipodi:nodetypes="cssssc" />
  <path
     d="m 311,164 c 0.17,0.83 -1.17,1.5 1,5 2.17,3.5 8.67,8.83 12,16 3.33,7.17 5.67,21.67 8,27 2.33,5.33 4.17,5.33 6,5 1.83,-0.33 4,-0.83 5,-7 1,-6.17 0.83,-25 1,-30"
     fill="none"
     stroke="#000000"
     stroke-width="8.25"
     stroke-linecap="round"
     stroke-linejoin="round"
     id="path26"
     style="stroke-width:4;stroke-dasharray:none"
     sodipodi:nodetypes="csssssc" />
  <path
     d="m 295,167 c -2,-0.17 -9,-1.17 -12,-1 -3,0.17 -4.67,2 -6,2 -1.33,0 -2.17,-1.83 -2,-2 0.17,-0.17 2.83,-0.33 3,1 0.17,1.33 -0.33,3.83 -2,7 -1.67,3.17 -6,7.33 -8,12 -2,4.67 -3.67,9.5 -4,16 -0.33,6.5 -0.67,14.17 2,23 2.67,8.83 11.17,22.83 14,30 2.83,7.17 2.5,10.83 3,13"
     fill="none"
     stroke="#000000"
     stroke-width="8.25"
     stroke-linecap="round"
     stroke-linejoin="round"
     id="path27"
     style="stroke-width:4;stroke-dasharray:none"
     sodipodi:nodetypes="csssssssssc" />
  <path
     d="m 456,168 c -2.17,1.83 -8.17,5.17 -13,11 -4.83,5.83 -6.17,17.5 -16,24 -9.83,6.5 -34,12.5 -43,15 -9,2.5 -8.83,0.17 -11,0 -2.17,-0.17 -2,0.67 -2,-1 0,-1.67 -0.33,-4 2,-9 2.33,-5 9.5,-15.17 12,-21 2.5,-5.83 2.5,-11.67 3,-14"
     fill="none"
     stroke="#000000"
     stroke-width="8.25"
     stroke-linecap="round"
     stroke-linejoin="round"
     id="path28"
     style="stroke-width:4;stroke-dasharray:none"
     sodipodi:nodetypes="csssssssc" />
  <path
     d="m 512,183 c 3,-0.33 13,-0.67 18,-2 5,-1.33 6.67,-4.83 12,-6 5.33,-1.17 16.17,-1.33 20,-1 3.83,0.33 2.5,1.17 3,3 0.5,1.83 1.83,4 0,8 -1.83,4 -9,12.5 -11,16 -2,3.5 -7.67,-1.83 -1,5 6.67,6.83 33.5,28.67 41,36 7.5,7.33 3.67,5.17 4,8 0.33,2.83 0,6.67 -2,9 -2,2.33 -4.67,4.33 -10,5 -5.33,0.67 -17.33,-1.5 -22,-1 -4.67,0.5 -4,3.33 -6,4 -2,0.67 -4,0.17 -6,0 -2,-0.17 -3.5,0.33 -6,-1 -2.5,-1.33 -3,-5 -9,-7 -6,-2 -17.5,-5.33 -27,-5 -9.5,0.33 -22.17,4.67 -30,7 -7.83,2.33 -14.17,5.83 -17,7"
     fill="none"
     stroke="#000000"
     stroke-width="8.49"
     stroke-linecap="round"
     stroke-linejoin="round"
     id="path29"
     style="stroke-width:4;stroke-dasharray:none"
     sodipodi:nodetypes="cssssssssssssssssssc" />
  <path
     d="m 296,188 c 1.83,3.17 8,10.67 11,19 3,8.33 6,25.17 7,31 1,5.83 -1.17,3.33 -1,4 0.17,0.67 1.67,0 2,0"
     fill="none"
     stroke="#000000"
     stroke-width="13.71"
     stroke-linecap="round"
     stroke-linejoin="round"
     id="path30"
     style="stroke-width:4;stroke-dasharray:none"
     sodipodi:nodetypes="csssc" />
  <path
     d="m 244,215 c 0,1.67 -0.33,8.33 0,10 0.33,1.67 2.5,-0.33 2,0 -0.5,0.33 -1,1.67 -5,2 -4,0.33 -11.5,1.17 -19,0 -7.5,-1.17 -15,-2.5 -26,-7 -11,-4.5 -31.83,-16.33 -40,-20 -8.17,-3.67 1.83,-2.17 -9,-2 -10.83,0.17 -46,2 -56,3 -10,1 5.17,2.67 -4,3 -9.17,0.33 -41,-2.5 -51,-1 -10,1.5 -7.33,6.17 -9,10 -1.67,3.83 -2,9.67 -1,13 1,3.33 0.17,3.67 7,7 6.83,3.33 27.67,9.83 34,13 6.33,3.17 3.33,5 4,6"
     fill="none"
     stroke="#000000"
     stroke-width="8.25"
     stroke-linecap="round"
     stroke-linejoin="round"
     id="path31"
     style="stroke-width:4;stroke-dasharray:none"
     sodipodi:nodetypes="cssssssssssssssc" />
  <path
     d="m 428,202 c 0.67,1.5 3.67,6.67 4,9 0.33,2.33 2.17,-0.17 -2,5 -4.17,5.17 -19.17,21.67 -23,26"
     fill="none"
     stroke="#000000"
     stroke-width="8.49"
     stroke-linecap="round"
     stroke-linejoin="round"
     id="path32"
     style="stroke-width:4;stroke-dasharray:none"
     sodipodi:nodetypes="cssc" />
  <path
     d="m 552,206 c -6,4 -27.5,20.67 -36,24 -8.5,3.33 -8.67,-1.33 -15,-4 -6.33,-2.67 -17.67,-12.5 -23,-12 -5.33,0.5 -5.83,11.33 -9,15 -3.17,3.67 -4.67,4.33 -10,7 -5.33,2.67 -17.67,6.67 -22,9 -4.33,2.33 -3.83,3.17 -4,5 -0.17,1.83 0.67,4.5 3,6 2.33,1.5 6.5,1 11,3 4.5,2 13,4.33 16,9 3,4.67 1.67,15.83 2,19"
     fill="none"
     stroke="#000000"
     stroke-width="8.25"
     stroke-linecap="round"
     stroke-linejoin="round"
     id="path33"
     style="stroke-width:4;stroke-dasharray:none"
     sodipodi:nodetypes="cssssssssssc" />
  <path
     d="m 479,212 c -0.17,0.33 -1.17,1.67 -1,2 0.17,0.33 1.67,0 2,0"
     fill="none"
     stroke="#000000"
     stroke-width="14.07"
     stroke-linecap="round"
     stroke-linejoin="round"
     id="path34"
     style="stroke-width:4;stroke-dasharray:none"
     sodipodi:nodetypes="csc" />
  <path
     d="m 337,216 c 0.17,4.17 0.5,20.5 1,25 0.5,4.5 0.83,1.67 2,2 1.17,0.33 -0.17,4.5 5,0 5.17,-4.5 21.67,-22.5 26,-27"
     fill="none"
     stroke="#000000"
     stroke-width="14.00"
     stroke-linecap="round"
     stroke-linejoin="round"
     id="path35"
     style="stroke-width:4;stroke-dasharray:none"
     sodipodi:nodetypes="csssc" />
  <path
     d="m 246,225 c 0.83,2.33 4.33,10.67 5,14 0.67,3.33 -1.17,5 -1,6 0.17,1 1.67,0 2,0"
     fill="none"
     stroke="#000000"
     stroke-width="9.47"
     stroke-linecap="round"
     stroke-linejoin="round"
     id="path36"
     style="stroke-width:4;stroke-dasharray:none"
     sodipodi:nodetypes="cssc" />
  <path
     d="m 516,231 c 0.17,1.33 2,4.17 1,8 -1,3.83 -5.83,12.5 -7,15"
     fill="none"
     stroke="#000000"
     stroke-width="8.25"
     stroke-linecap="round"
     stroke-linejoin="round"
     id="path37"
     style="stroke-width:4;stroke-dasharray:none"
     sodipodi:nodetypes="csc" />
  <path
     d="m 122,241 c -0.17,1.17 -1.17,5.83 -1,7 0.17,1.17 1.67,0 2,0"
     fill="none"
     stroke="#000000"
     stroke-width="12.65"
     stroke-linecap="round"
     stroke-linejoin="round"
     id="path38"
     style="stroke-width:4;stroke-dasharray:none"
     sodipodi:nodetypes="csc" />
  <path
     d="m 338,243 c -1,1 -4,4.67 -6,6 -2,1.33 -4.5,1.67 -6,2 -1.5,0.33 -1.17,1.5 -3,0 -1.83,-1.5 -5.83,-8 -8,-9 -2.17,-1 -4.17,0.5 -5,3 -0.83,2.5 -0.5,9.33 0,12 0.5,2.67 4.67,2.33 3,4 -1.67,1.67 -10.67,3.17 -13,6 -2.33,2.83 1.33,4.33 -1,11 -2.33,6.67 -11.17,24 -13,29 -1.83,5 2,-2.5 2,1 0,3.5 -0.5,16.33 -2,20 -1.5,3.67 -3.67,-1.33 -7,2 -3.33,3.33 -10.83,15 -13,18"
     fill="none"
     stroke="#000000"
     stroke-width="10.00"
     stroke-linecap="round"
     stroke-linejoin="round"
     id="path39"
     style="stroke-width:4;stroke-dasharray:none"
     sodipodi:nodetypes="csssssssssssssc" />
  <path
     d="m 345,243 c 1.17,1 2.17,4.67 7,6 4.83,1.33 17.83,0 22,2 4.17,2 -1.17,3.83 3,10 4.17,6.17 18.33,22.5 22,27"
     fill="none"
     stroke="#000000"
     stroke-width="8.49"
     stroke-linecap="round"
     stroke-linejoin="round"
     id="path40"
     style="stroke-width:4;stroke-dasharray:none"
     sodipodi:nodetypes="csssc" />
  <path
     d="m 374,251 c 2.67,-1 10.5,-4.67 16,-6 5.5,-1.33 13.5,-2.33 17,-2 3.5,0.33 -0.33,2.83 4,4 4.33,1.17 18.33,2.17 22,3 3.67,0.83 0,1.67 0,2"
     fill="none"
     stroke="#000000"
     stroke-width="8.25"
     stroke-linecap="round"
     stroke-linejoin="round"
     id="path41"
     style="stroke-width:4;stroke-dasharray:none"
     sodipodi:nodetypes="cssssc" />
  <path
     d="m 231,248 c 0.67,-0.5 0.5,-2.5 4,-3 3.5,-0.5 13.33,-1 17,0 3.67,1 3.5,3.17 5,6 1.5,2.83 3.67,8.83 4,11 0.33,2.17 0.67,2 -2,2 -2.67,0 -10.33,-1 -14,-2 -3.67,-1 -5.67,-2.17 -8,-4 -2.33,-1.83 -5,-5.33 -6,-7 -1,-1.67 1.67,-2.5 0,-3 -1.67,-0.5 -8.33,0 -10,0"
     fill="none"
     stroke="#000000"
     stroke-width="8.49"
     stroke-linecap="round"
     stroke-linejoin="round"
     id="path42"
     style="stroke-width:4;stroke-dasharray:none"
     sodipodi:nodetypes="csssssssssc" />
  <path
     d="m 64,264 c 1.33,-2.17 0.67,-11.17 8,-13 7.33,-1.83 27.33,2.5 36,2 8.67,-0.5 10,-8 16,-5 6,3 19.5,17.67 20,23 0.5,5.33 -9.67,6.5 -17,9 -7.33,2.5 -18.67,6.17 -27,6 -8.33,-0.17 -17.67,-4.5 -23,-7 -5.33,-2.5 -6.83,-5.5 -9,-8 -2.17,-2.5 -2.67,-6 -4,-7 -1.33,-1 1.83,-3.17 -4,1 -5.83,4.17 -25.83,18.67 -31,24 -5.17,5.33 -1,5.33 0,8 1,2.67 5,6.67 6,8"
     fill="none"
     stroke="#000000"
     stroke-width="8.49"
     stroke-linecap="round"
     stroke-linejoin="round"
     id="path43"
     style="stroke-width:4;stroke-dasharray:none"
     sodipodi:nodetypes="cssssssssssssc" />
  <path
     d="m 323,252 c -1.17,1.5 -5.33,7.5 -7,9 -1.67,1.5 -3.33,-0.33 -3,0 0.33,0.33 3.83,-0.5 5,2 1.17,2.5 0.17,8.83 2,13 1.83,4.17 7.5,10 9,12"
     fill="none"
     stroke="#000000"
     stroke-width="10.00"
     stroke-linecap="round"
     stroke-linejoin="round"
     id="path44"
     style="stroke-width:4;stroke-dasharray:none"
     sodipodi:nodetypes="cssssc" />
  <path
     d="m 260,263 20,3"
     fill="none"
     stroke="#000000"
     stroke-width="10.20"
     stroke-linecap="round"
     stroke-linejoin="round"
     id="path45"
     style="stroke-width:4;stroke-dasharray:none"
     sodipodi:nodetypes="cc" />
  <path
     d="m 546,266 c -0.5,0.5 -3.17,-0.67 -3,3 0.17,3.67 3.5,14.83 4,19 0.5,4.17 0.83,4.17 -1,6 -1.83,1.83 -7.33,4.17 -10,5 -2.67,0.83 -4,-1 -6,0 -2,1 1.33,7.5 -6,6 -7.33,-1.5 -28.17,-11.83 -38,-15 -9.83,-3.17 -13.5,-4.33 -21,-4 -7.5,0.33 -12.83,5.67 -24,6 -11.17,0.33 -35.67,-4.17 -43,-4 -7.33,0.17 0.33,2.67 -1,5 -1.33,2.33 -3.33,6.5 -7,9 -3.67,2.5 -13.5,1.33 -15,6 -1.5,4.67 5,18.33 6,22"
     fill="none"
     stroke="#000000"
     stroke-width="8.25"
     stroke-linecap="round"
     stroke-linejoin="round"
     id="path46"
     style="stroke-width:4;stroke-dasharray:none"
     sodipodi:nodetypes="csssssssssssssc" />
  <path
     d="m 558,267 c 1,1.33 1.17,4.83 6,8 4.83,3.17 16.83,6.33 23,11 6.17,4.67 11.83,12.67 14,17 2.17,4.33 1,6.67 -1,9 -2,2.33 -1.67,4.33 -11,5 -9.33,0.67 -40.67,-6.67 -45,-1 -4.33,5.67 15.33,26.17 19,35 3.67,8.83 2.83,12.5 3,18 0.17,5.5 0.17,11.33 -2,15 -2.17,3.67 -5.67,6.17 -11,7 -5.33,0.83 -16.33,-2 -21,-2 -4.67,0 -5.17,2.33 -7,2 -1.83,-0.33 1,-1.17 -4,-4 -5,-2.83 -20.5,-10.67 -26,-13 -5.5,-2.33 -5.83,-0.83 -7,-1"
     fill="none"
     stroke="#000000"
     stroke-width="8.25"
     stroke-linecap="round"
     stroke-linejoin="round"
     id="path47"
     style="stroke-width:4;stroke-dasharray:none"
     sodipodi:nodetypes="cssssssssssssssc" />
  <path
     d="m 144,271 c 2.83,1.17 13.17,4.67 17,7 3.83,2.33 2.67,5.67 6,7 3.33,1.33 7.33,1.5 14,1 6.67,-0.5 20.33,-3.83 26,-4 5.67,-0.17 6.67,2.5 8,3"
     fill="none"
     stroke="#000000"
     stroke-width="8.25"
     stroke-linecap="round"
     stroke-linejoin="round"
     id="path48"
     style="stroke-width:4;stroke-dasharray:none"
     sodipodi:nodetypes="cssssc" />
  <path
     d="m 167,285 c -0.83,0.83 -1,3.67 -5,5 -4,1.33 -14.33,1.83 -19,3 -4.67,1.17 -3.83,-0.67 -9,4 -5.17,4.67 -17.5,19.67 -22,24 -4.5,4.33 -0.67,5.17 -5,2 -4.33,-3.17 -19.33,-16 -21,-21 -1.67,-5 8.67,-6.5 11,-9 2.33,-2.5 2.5,-5 3,-6"
     fill="none"
     stroke="#000000"
     stroke-width="8.49"
     stroke-linecap="round"
     stroke-linejoin="round"
     id="path49"
     style="stroke-width:4;stroke-dasharray:none"
     sodipodi:nodetypes="csssssssc" />
  <path
     d="m 220,285 c -0.83,0 -3.17,-1.5 -5,0 -1.83,1.5 -2,6.17 -6,9 -4,2.83 -12.5,5 -18,8 -5.5,3 -8.67,4.67 -15,10 -6.33,5.33 -18.5,17.17 -23,22 -4.5,4.83 -1,5.5 -4,7 -3,1.5 -8.5,2 -14,2 -5.5,0 -14.83,-0.67 -19,-2 -4.17,-1.33 -4.33,-3.67 -6,-6 -1.67,-2.33 -3.5,-6 -4,-8 -0.5,-2 1.17,-3.33 1,-4 -0.17,-0.67 -1.67,0 -2,0"
     fill="none"
     stroke="#000000"
     stroke-width="8.49"
     stroke-linecap="round"
     stroke-linejoin="round"
     id="path50"
     style="stroke-width:4;stroke-dasharray:none"
     sodipodi:nodetypes="csssssssssssc" />
  <path
     d="m 376,308 c -2.83,-0.67 -10.5,-1 -17,-4 -6.5,-3 -16.83,-11.33 -22,-14 -5.17,-2.67 -7.5,-3.5 -9,-2 -1.5,1.5 -1.83,5 0,11 1.83,6 9.17,19.5 11,25 1.83,5.5 0.83,4.83 0,8 -0.83,3.17 -3.17,9 -5,11 -1.83,2 -3.83,0 -6,1 -2.17,1 -2.67,4.17 -7,5 -4.33,0.83 -14,1.5 -19,0 -5,-1.5 -8.33,-5.5 -11,-9 -2.67,-3.5 -4.17,-10 -5,-12"
     fill="none"
     stroke="#000000"
     stroke-width="8.25"
     stroke-linecap="round"
     stroke-linejoin="round"
     id="path51"
     style="stroke-width:4;stroke-dasharray:none"
     sodipodi:nodetypes="csssssssssssc" />
  <path
     d="m 249,292 c -1.17,1.67 -0.83,4.33 -7,10 -6.17,5.67 -24.67,18.83 -30,24 -5.33,5.17 -0.17,5.67 -2,7 -1.83,1.33 -4.83,-1.67 -9,1 -4.17,2.67 -10.33,8.17 -16,15 -5.67,6.83 -15,21.67 -18,26"
     fill="none"
     stroke="#000000"
     stroke-width="8.49"
     stroke-linecap="round"
     stroke-linejoin="round"
     id="path52"
     style="stroke-width:4;stroke-dasharray:none"
     sodipodi:nodetypes="csssssc" />
  <path
     d="m 439,292 c 0.33,0 1.5,-1.33 2,0 0.5,1.33 0,5.5 1,8 1,2.5 3.17,2.83 5,7 1.83,4.17 2.33,14.5 6,18 3.67,3.5 12,1.83 16,3 4,1.17 1.67,3.5 8,4 6.33,0.5 23.5,-0.33 30,-1 6.5,-0.67 7.17,-2 9,-3 1.83,-1 1.67,0.33 2,-3 0.33,-3.33 -0.5,-13.67 0,-17 0.5,-3.33 2.5,-2.5 3,-3"
     fill="none"
     stroke="#000000"
     stroke-width="8.25"
     stroke-linecap="round"
     stroke-linejoin="round"
     id="path53"
     style="stroke-width:4;stroke-dasharray:none"
     sodipodi:nodetypes="cssssssssssc" />
  <path
     d="m 85,302 c -3.67,0.67 -14.33,3.17 -22,4 -7.67,0.83 -19.33,1.17 -24,1 -4.67,-0.17 -0.5,-4 -4,-2 -3.5,2 -14.17,10.83 -17,14 -2.83,3.17 -0.67,3.5 0,5 0.67,1.5 1.67,2.83 4,4 2.33,1.17 4.83,1.83 10,3 5.17,1.17 15.33,3.33 21,4 5.67,0.67 9.5,-0.5 13,0 3.5,0.5 1.5,4.33 8,3 6.5,-1.33 25.83,-9.17 31,-11"
     fill="none"
     stroke="#000000"
     stroke-width="8.25"
     stroke-linecap="round"
     stroke-linejoin="round"
     id="path54"
     style="stroke-width:4;stroke-dasharray:none"
     sodipodi:nodetypes="cssssssssssc" />
  <path
     d="m 525,304 c 1,1.17 2.67,4.83 6,7 3.33,2.17 11.67,5 14,6"
     fill="none"
     stroke="#000000"
     stroke-width="11.83"
     stroke-linecap="round"
     stroke-linejoin="round"
     id="path55"
     style="stroke-width:4;stroke-dasharray:none"
     sodipodi:nodetypes="csc" />
  <path
     d="m 287,306 c -1.33,0.67 -3.5,0 -8,4 -4.5,4 -15,15.5 -19,20 -4,4.5 -3.5,3.67 -5,7 -1.5,3.33 -5.83,11 -4,13 1.83,2 12.17,-1.33 15,-1 2.83,0.33 2.17,-2.83 2,3 -0.17,5.83 -2.67,24.17 -3,32 -0.33,7.83 0,11.5 1,15 1,3.5 1.33,4.67 5,6 3.67,1.33 12.83,3.17 17,2 4.17,-1.17 5.67,-7 8,-9 2.33,-2 5,-2.5 6,-3"
     fill="none"
     stroke="#000000"
     stroke-width="8.49"
     stroke-linecap="round"
     stroke-linejoin="round"
     id="path56"
     style="stroke-width:4;stroke-dasharray:none"
     sodipodi:nodetypes="csssssssssssc" />
  <path
     d="m 455,326 c -0.83,2.33 -3.17,11.17 -5,14 -1.83,2.83 -1,2.33 -6,3 -5,0.67 -19.33,0.83 -24,1 -4.67,0.17 0.33,2 -4,0 -4.33,-2 -16.33,-9.5 -22,-12 -5.67,-2.5 -9.5,-3.5 -12,-3 -2.5,0.5 -2.67,2 -3,6 -0.33,4 1.83,13.67 1,18 -0.83,4.33 -3.5,6.17 -6,8 -2.5,1.83 -7.5,2.5 -9,3"
     fill="none"
     stroke="#000000"
     stroke-width="8.25"
     stroke-linecap="round"
     stroke-linejoin="round"
     id="path57"
     style="stroke-width:4;stroke-dasharray:none"
     sodipodi:nodetypes="csssssssssc" />
  <path
     d="m 477,332 c 1.67,4.33 8.17,19.17 10,26 1.83,6.83 2.5,11 1,15 -1.5,4 -5.5,6.33 -10,9 -4.5,2.67 -13,5.5 -17,7 -4,1.5 -2.33,1.83 -7,2 -4.67,0.17 -17.33,-4.83 -21,-1 -3.67,3.83 -0.83,20.33 -1,24 -0.17,3.67 1.83,-2.17 0,-2 -1.83,0.17 -6.83,2.83 -11,3 -4.17,0.17 -8.83,0 -14,-2 -5.17,-2 -12.33,-6.67 -17,-10 -4.67,-3.33 -8.17,-8 -11,-10 -2.83,-2 -5,-1.67 -6,-2"
     fill="none"
     stroke="#000000"
     stroke-width="8.25"
     stroke-linecap="round"
     stroke-linejoin="round"
     id="path58"
     style="stroke-width:4;stroke-dasharray:none"
     sodipodi:nodetypes="cssssssssssssc" />
  <path
     d="m 210,333 c 0.5,1.33 1,5.5 3,8 2,2.5 5.83,5.67 9,7 3.17,1.33 5.67,1.33 10,1 4.33,-0.33 12.5,-3 16,-3 3.5,0 4.5,2.33 5,3 0.5,0.67 -1.17,-1.17 -2,1 -0.83,2.17 -0.83,8.33 -3,12 -2.17,3.67 -8.17,6.17 -10,10 -1.83,3.83 0.33,8.67 -1,13 -1.33,4.33 -5.5,9.17 -7,13 -1.5,3.83 -1.67,8.33 -2,10"
     fill="none"
     stroke="#000000"
     stroke-width="16.49"
     stroke-linecap="round"
     stroke-linejoin="round"
     id="path59"
     style="stroke-width:4;stroke-dasharray:none"
     sodipodi:nodetypes="cssssssssssc" />
  <path
     d="m 75,337 c -0.83,1.83 0.17,6.67 -5,11 -5.17,4.33 -20.67,11.5 -26,15 -5.33,3.5 -5,3.33 -6,6 -1,2.67 -1.33,7 0,10 1.33,3 4.67,5.83 8,8 3.33,2.17 6.17,4.17 12,5 5.83,0.83 13.67,1.83 23,0 9.33,-1.83 25.5,-9 33,-11 7.5,-2 5.83,2.33 12,-1 6.17,-3.33 21.33,-12.5 25,-19 3.67,-6.5 -2.5,-16.67 -3,-20"
     fill="none"
     stroke="#000000"
     stroke-width="8.25"
     stroke-linecap="round"
     stroke-linejoin="round"
     id="path60"
     style="stroke-width:4;stroke-dasharray:none"
     sodipodi:nodetypes="cssssssssssc" />
  <path
     d="m 333,343 c 2.67,2.67 10.5,12.5 16,16 5.5,3.5 13,-0.33 17,5 4,5.33 6.33,22.17 7,27 0.67,4.83 -1.83,-1 -3,2 -1.17,3 -2,10.5 -4,16 -2,5.5 -6.17,11.33 -8,17 -1.83,5.67 -3.33,13.83 -3,17 0.33,3.17 -1.5,-3.83 5,2 6.5,5.83 26.83,26.83 34,33 7.17,6.17 6.17,3.33 9,4 2.83,0.67 5.83,0.33 8,0 2.17,-0.33 3,-0.33 5,-2 2,-1.67 4.5,-2.83 7,-8 2.5,-5.17 6.5,-13.17 8,-23 1.5,-9.83 0.83,-30 1,-36"
     fill="none"
     stroke="#000000"
     stroke-width="8.25"
     stroke-linecap="round"
     stroke-linejoin="round"
     id="path61"
     style="stroke-width:4;stroke-dasharray:none"
     sodipodi:nodetypes="cssssssssssssssc" />
  <path
     d="m 419,344 c -0.33,0 -2.17,-1.83 -2,0 0.17,1.83 0.33,3.5 3,11 2.67,7.5 10.83,28.33 13,34"
     fill="none"
     stroke="#000000"
     stroke-width="8.25"
     stroke-linecap="round"
     stroke-linejoin="round"
     id="path62"
     style="stroke-width:4;stroke-dasharray:none"
     sodipodi:nodetypes="cssc" />
  <path
     d="m 320,349 c 0.17,2.17 3.5,6.83 1,13 -2.5,6.17 -12.67,18.33 -16,24 -3.33,5.67 -4.17,7.67 -4,10 0.17,2.33 2.67,-1.67 5,4 2.33,5.67 7.5,23.67 9,30 1.5,6.33 -3,4.5 0,8 3,3.5 13.5,10.5 18,13 4.5,2.5 6.67,1.67 9,2 2.33,0.33 4,0.83 5,0 1,-0.83 -0.33,-3.33 1,-5 1.33,-1.67 5.83,-4.17 7,-5"
     fill="none"
     stroke="#000000"
     stroke-width="8.49"
     stroke-linecap="round"
     stroke-linejoin="round"
     id="path63"
     style="stroke-width:4;stroke-dasharray:none"
     sodipodi:nodetypes="cssssssssssc" />
  <path
     d="m 151,361 c 2.67,2.33 13.67,10.33 16,14 2.33,3.67 -2,6.67 -2,8 0,1.33 1.67,0 2,0"
     fill="none"
     stroke="#000000"
     stroke-width="10.20"
     stroke-linecap="round"
     stroke-linejoin="round"
     id="path64"
     style="stroke-width:4;stroke-dasharray:none"
     sodipodi:nodetypes="cssc" />
  <path
     d="m 239,373 c -2.33,0.17 -8.83,-1.17 -14,1 -5.17,2.17 -10.67,8.5 -17,12 -6.33,3.5 -15.5,7.67 -21,9 -5.5,1.33 -8.5,1.17 -12,-1 -3.5,-2.17 -6.33,-10.83 -9,-12 -2.67,-1.17 -3.67,-0.67 -7,5 -3.33,5.67 -6.5,21.5 -13,29 -6.5,7.5 -20.17,13.33 -26,16 -5.83,2.67 -6.83,0.5 -9,0 -2.17,-0.5 -3.33,-0.83 -4,-3 -0.67,-2.17 -2.67,-3.67 0,-10 2.67,-6.33 13.17,-21.5 16,-28 2.83,-6.5 0.5,-9.17 1,-11 0.5,-1.83 1.67,0 2,0"
     fill="none"
     stroke="#000000"
     stroke-width="8.25"
     stroke-linecap="round"
     stroke-linejoin="round"
     id="path65"
     style="stroke-width:4;stroke-dasharray:none"
     sodipodi:nodetypes="csssssssssssssc" />
  <path
     d="m 452,391 c 0.33,0 1.5,-1.17 2,0 0.5,1.17 -1.83,3.33 1,7 2.83,3.67 12,11.67 16,15 4,3.33 3.17,3 8,5 4.83,2 14.17,5.83 21,7 6.83,1.17 15.5,0.83 20,0 4.5,-0.83 5.67,-1.33 7,-5 1.33,-3.67 1.33,-12.17 1,-17 -0.33,-4.83 -2.5,-10 -3,-12"
     fill="none"
     stroke="#000000"
     stroke-width="8.25"
     stroke-linecap="round"
     stroke-linejoin="round"
     id="path66"
     style="stroke-width:4;stroke-dasharray:none"
     sodipodi:nodetypes="cssssssssc" />
  <path
     d="m 286,407 c 0.33,0 2.33,-2 2,0 -0.33,2 -0.83,7.17 -4,12 -3.17,4.83 -12.5,13.17 -15,17 -2.5,3.83 -1.5,3.67 0,6 1.5,2.33 5.83,6.67 9,8 3.17,1.33 5.83,0.5 10,0 4.17,-0.5 10.5,-1 15,-3 4.5,-2 10,-7.5 12,-9"
     fill="none"
     stroke="#000000"
     stroke-width="8.49"
     stroke-linecap="round"
     stroke-linejoin="round"
     id="path67"
     style="stroke-width:4;stroke-dasharray:none"
     sodipodi:nodetypes="csssssssc" />
  <path
     d="m 146,416 c 0.5,0.5 1.83,-2.33 3,3 1.17,5.33 2.33,23 4,29 1.67,6 3.83,5.83 6,7 2.17,1.17 4.33,0.83 7,0 2.67,-0.83 2.67,-0.17 9,-5 6.33,-4.83 22.67,-19.5 29,-24 6.33,-4.5 6.5,-1 9,-3 2.5,-2 3.5,-6.5 6,-9 2.5,-2.5 6.33,-6.17 9,-6 2.67,0.17 5.33,2.17 7,7 1.67,4.83 1.5,17 3,22 1.5,5 3.83,6.17 6,8 2.17,1.83 3.17,3.83 7,3 3.83,-0.83 13.33,-6.67 16,-8"
     fill="none"
     stroke="#000000"
     stroke-width="8.49"
     stroke-linecap="round"
     stroke-linejoin="round"
     id="path68"
     style="stroke-width:4;stroke-dasharray:none"
     sodipodi:nodetypes="csssssssssssssc" />
  <path
     d="m 214,422 c -0.17,1.83 0,7.67 -1,11 -1,3.33 -3.17,3.67 -5,9 -1.83,5.33 -5,17 -6,23 -1,6 -0.67,9.5 0,13 0.67,3.5 2.33,6.5 4,8 1.67,1.5 2.17,2.33 6,1 3.83,-1.33 12.67,-7.17 17,-9 4.33,-1.83 6.33,0.17 9,-2 2.67,-2.17 4.67,-6.17 7,-11 2.33,-4.83 5.83,-15 7,-18"
     fill="none"
     stroke="#000000"
     stroke-width="8.49"
     stroke-linecap="round"
     stroke-linejoin="round"
     id="path69"
     style="stroke-width:4;stroke-dasharray:none"
     sodipodi:nodetypes="csssssssssc" />
  <path
     d="m 301,447 c 0.33,0 2.33,-1.83 2,0 -0.33,1.83 3,1.83 -4,11 -7,9.17 -29.17,34.5 -38,44 -8.83,9.5 -11.83,10.83 -15,13 -3.17,2.17 -2.33,1 -4,0 -1.67,-1 -4.83,-3.83 -6,-6 -1.17,-2.17 -1.5,-2 -1,-7 0.5,-5 3.67,-18.67 4,-23 0.33,-4.33 -1.67,-2.5 -2,-3"
     fill="none"
     stroke="#000000"
     stroke-width="8.49"
     stroke-linecap="round"
     stroke-linejoin="round"
     id="path70"
     style="stroke-width:4;stroke-dasharray:none"
     sodipodi:nodetypes="cssssssssc" />
  <path
     d="m 346,453 c 0.83,1.33 2,-2.33 5,8 3,10.33 9.17,36.5 13,54 3.83,17.5 8.33,40.67 10,51 1.67,10.33 0.5,8.83 0,11 -0.5,2.17 -1.33,2.17 -3,2 -1.67,-0.17 -2.83,0.67 -7,-3 -4.17,-3.67 -13,-14.67 -18,-19 -5,-4.33 -7.83,-5.17 -12,-7 -4.17,-1.83 -9.67,-3.5 -13,-4 -3.33,-0.5 -5.83,1.17 -7,1 -1.17,-0.17 0,-3 0,-2 0,1 -0.5,5.5 0,8 0.5,2.5 0.67,4 3,7 2.33,3 3.5,5 11,11 7.5,6 27,20.33 34,25 7,4.67 5.67,2.5 8,3 2.33,0.5 5.5,3.5 6,0 0.5,-3.5 -2.5,-17.5 -3,-21"
     fill="none"
     stroke="#000000"
     stroke-width="10.00"
     stroke-linecap="round"
     stroke-linejoin="round"
     id="path71"
     style="stroke-width:4;stroke-dasharray:none"
     sodipodi:nodetypes="csssssssssssssssssc" />
  <path
     d="m 456,629 c -4.67,-0.5 -21.17,-3 -28,-3 -6.83,0 -8.33,0.83 -13,3 -4.67,2.17 -10.5,8.17 -15,10 -4.5,1.83 -10,0.83 -12,1"
     fill="none"
     stroke="#000000"
     stroke-width="8.25"
     stroke-linecap="round"
     stroke-linejoin="round"
     id="path72"
     style="stroke-width:4;stroke-dasharray:none"
     sodipodi:nodetypes="csssc" />
  <path
     d="m 332,744 c 3.17,1 14.17,1.33 19,6 4.83,4.67 10,16.17 10,22 0,5.83 -8,9.17 -10,13 -2,3.83 -0.67,7.17 -2,10 -1.33,2.83 -4,6.67 -6,7 -2,0.33 -4.83,-3.5 -6,-5 -1.17,-1.5 0.17,3.5 -1,-4 -1.17,-7.5 -5.17,-33 -6,-41 -0.83,-8 0.83,-5.83 1,-7"
     fill="none"
     stroke="#000000"
     stroke-width="8.25"
     stroke-linecap="round"
     stroke-linejoin="round"
     id="path73"
     style="stroke-width:4;stroke-dasharray:none"
     sodipodi:nodetypes="cssssssssc" />
  <path
     d="m 361,772 c 0.83,0 3.33,-1.17 5,0 1.67,1.17 4.17,3 5,7 0.83,4 0.67,12 0,17 -0.67,5 -4,10.67 -4,13 0,2.33 2.67,-0.33 4,1 1.33,1.33 4.17,0 4,7 -0.17,7 -3.33,28.17 -5,35 -1.67,6.83 -1.33,5.17 -5,6 -3.67,0.83 -9.83,0.5 -17,-1 -7.17,-1.5 -19.17,-6.83 -26,-8 -6.83,-1.17 -11.17,0.33 -15,1 -3.83,0.67 -2.83,-0.67 -8,3 -5.17,3.67 -19.17,14.83 -23,19 -3.83,4.17 3.33,-1 0,6 -3.33,7 -15.17,29 -20,36 -4.83,7 -7,5.83 -9,6 -2,0.17 -2.5,-1 -3,-5 -0.5,-4 0.33,-15.5 0,-19 -0.33,-3.5 -0.5,-1.67 -2,-2 -1.5,-0.33 -6.17,3 -7,0 -0.83,-3 1.67,-15 2,-18"
     fill="none"
     stroke="#000000"
     stroke-width="8.25"
     stroke-linecap="round"
     stroke-linejoin="round"
     id="path74"
     style="stroke-width:4;stroke-dasharray:none"
     sodipodi:nodetypes="cssssssssssssssssssssc" />
  <path
     d="m 256,784 c 0.5,1.67 -1,7.5 3,10 4,2.5 7.5,-1.33 21,5 13.5,6.33 49.17,27.83 60,33 10.83,5.17 4.5,3 5,-2 0.5,-5 -1.67,-23.33 -2,-28"
     fill="none"
     stroke="#000000"
     stroke-width="8.49"
     stroke-linecap="round"
     stroke-linejoin="round"
     id="path75"
     style="stroke-width:4;stroke-dasharray:none"
     sodipodi:nodetypes="cssssc" />
  <path
     d="m 188,790 c 0.33,1.17 1.17,5.67 2,7 0.83,1.33 2.67,0.33 3,1 0.33,0.67 -1.33,1.5 -1,3 0.33,1.5 1,3.83 3,6 2,2.17 5,4.83 9,7 4,2.17 11.83,4.33 15,6 3.17,1.67 3.17,2 4,4 0.83,2 -5.17,8.33 1,8 6.17,-0.33 27.67,-8.83 36,-10 8.33,-1.17 10.83,1.5 14,3 3.17,1.5 4.5,3.17 5,6 0.5,2.83 0,8.17 -2,11 -2,2.83 -4.17,4.17 -10,6 -5.83,1.83 -19.5,2.67 -25,5 -5.5,2.33 -6.5,6.33 -8,9 -1.5,2.67 -1.5,4.67 -1,7 0.5,2.33 -0.67,6.83 4,7 4.67,0.17 18.5,-5 24,-6 5.5,-1 6.33,-0.5 9,0 2.67,0.5 5.83,2.5 7,3"
     fill="none"
     stroke="#000000"
     stroke-width="8.25"
     stroke-linecap="round"
     stroke-linejoin="round"
     id="path76"
     style="stroke-width:4;stroke-dasharray:none"
     sodipodi:nodetypes="csssssssssssssssssssc" />
  <path
     d="m 261,794 c -1.17,0.83 4.33,4.33 -7,5 -11.33,0.67 -50.83,-0.83 -61,-1"
     fill="none"
     stroke="#000000"
     stroke-width="8.00"
     stroke-linecap="round"
     stroke-linejoin="round"
     id="path77"
     style="stroke-width:4;stroke-dasharray:none"
     sodipodi:nodetypes="csc" />
  <path
     d="m 344,831 c 0.67,1.5 2.17,6.17 4,9 1.83,2.83 5.5,5.33 7,8 1.5,2.67 1.67,6.67 2,8"
     fill="none"
     stroke="#000000"
     stroke-width="12.40"
     stroke-linecap="round"
     stroke-linejoin="round"
     id="path78"
     style="stroke-width:4;stroke-dasharray:none"
     sodipodi:nodetypes="cssc" />
  <path
     d="m 364,858 c 1,1.5 5,6 6,9 1,3 -0.5,7.5 0,9 0.5,1.5 0.33,-2.67 3,0 2.67,2.67 9.5,10.83 13,16 3.5,5.17 4.67,11 8,15 3.33,4 10,7.5 12,9"
     fill="none"
     stroke="#000000"
     stroke-width="11.66"
     stroke-linecap="round"
     stroke-linejoin="round"
     id="path79"
     sodipodi:nodetypes="csssssc"
     style="stroke-width:4;stroke-dasharray:none" />
  <path
     d="m 372,876 c -2.17,0.33 -8.83,0.5 -13,2 -4.17,1.5 -8.5,5.83 -12,7 -3.5,1.17 -6.67,0.67 -9,0 -2.33,-0.67 -3.17,-3.17 -5,-4 -1.83,-0.83 -2.5,-6.67 -6,-1 -3.5,5.67 -11.33,27.5 -15,35 -3.67,7.5 -4.17,7 -7,10 -2.83,3 -6.5,5.83 -10,8 -3.5,2.17 -6.67,3.83 -11,5 -4.33,1.17 -9.67,2 -15,2 -5.33,0 -13,-0.83 -17,-2 -4,-1.17 -6.17,-2 -7,-5 -0.83,-3 1.67,-10.83 2,-13"
     fill="none"
     stroke="#000000"
     stroke-width="8.25"
     stroke-linecap="round"
     stroke-linejoin="round"
     id="path80"
     style="stroke-width:4;stroke-dasharray:none"
     sodipodi:nodetypes="cssssssssssssc" />
  <path
     d="m 327,880 1,-1"
     fill="none"
     stroke="#000000"
     stroke-width="10.77"
     stroke-linecap="round"
     stroke-linejoin="round"
     id="path81"
     style="stroke-width:4;stroke-dasharray:none"
     sodipodi:nodetypes="cc" />
</svg>
