<?xml version="1.0" encoding="UTF-8" standalone="no"?>
<svg
   viewBox="0 0 649 1627"
   width="649"
   height="1627"
   version="1.1"
   id="svg30"
   sodipodi:docname="october_right.svg"
   inkscape:version="1.4.2 (f4327f4, 2025-05-13)"
   xmlns:inkscape="http://www.inkscape.org/namespaces/inkscape"
   xmlns:sodipodi="http://sodipodi.sourceforge.net/DTD/sodipodi-0.dtd"
   xmlns="http://www.w3.org/2000/svg"
   xmlns:svg="http://www.w3.org/2000/svg">
  <defs
     id="defs30" />
  <sodipodi:namedview
     id="namedview30"
     pagecolor="#ffffff"
     bordercolor="#000000"
     borderopacity="0.25"
     inkscape:showpageshadow="2"
     inkscape:pageopacity="0.0"
     inkscape:pagecheckerboard="0"
     inkscape:deskcolor="#d1d1d1"
     inkscape:zoom="0.35072844"
     inkscape:cx="-411.99967"
     inkscape:cy="466.17263"
     inkscape:window-width="1920"
     inkscape:window-height="1009"
     inkscape:window-x="1912"
     inkscape:window-y="-8"
     inkscape:window-maximized="1"
     inkscape:current-layer="svg30" />
  <path
     d="M409.00,769.00 C410.17,767.00 414.00,763.67 416.00,757.00 C418.00,750.33 421.50,734.83 421.00,729.00 C420.50,723.17 416.50,723.67 413.00,722.00 C409.50,720.33 402.00,721.00 400.00,719.00 C398.00,717.00 399.17,712.50 401.00,710.00 C402.83,707.50 407.67,705.17 411.00,704.00 C414.33,702.83 417.17,703.17 421.00,703.00 C424.83,702.83 430.00,702.50 434.00,703.00 C438.00,703.50 443.00,707.00 445.00,706.00 C447.00,705.00 446.17,699.50 446.00,697.00 C445.83,694.50 445.00,692.50 444.00,691.00 C443.00,689.50 442.67,688.83 440.00,688.00 C437.33,687.17 432.33,685.67 428.00,686.00 C423.67,686.33 418.83,689.67 414.00,690.00 C409.17,690.33 403.00,687.50 399.00,688.00 C395.00,688.50 393.17,690.17 390.00,693.00 C386.83,695.83 381.67,703.00 380.00,705.00"
     fill="none"
     stroke="black"
     stroke-width="10.00"
     stroke-linecap="round"
     stroke-linejoin="round"
     id="path1"
     style="stroke-width:4;stroke-dasharray:none" />
  <path
     d="m 351,787 c 2.5,-5.17 8.5,-21 15,-31 6.5,-10 19.5,-22.83 24,-29 4.5,-6.17 4.33,-5.33 3,-8 -1.33,-2.67 -8.83,-5.67 -11,-8 -2.17,-2.33 1,-5.33 -2,-6 -3,-0.67 -9.33,-2.17 -16,2 -6.67,4.17 -18.5,15.83 -24,23 -5.5,7.17 -6.5,12.17 -9,20 -2.5,7.83 -4.83,18.17 -6,27 -1.17,8.83 -2,18.17 -1,26 1,7.83 3.83,15 7,21 3.17,6 6,10.17 12,15 6,4.83 20.17,10 24,14 3.83,4 2.17,1.5 -1,10 -3.17,8.5 -10.17,26.83 -18,41 -7.83,14.17 -19.33,31 -29,44 -9.67,13 -17,21.33 -29,34 -12,12.67 -29.83,30 -43,42 -13.17,12 -29.17,23.83 -36,30 -6.83,6.17 -9.4009,8.5017 -11.68885,10.2598 -4.59866,3.5337 -1.96181,11.06 -5.31115,-5.2598 -4.7868,-23.3239 -15.67,-102.83 -20,-136 -4.33,-33.17 -4.33,-39 -6,-63 -1.67,-24 -3.33,-55.83 -4,-81 -0.67,-25.17 -0.67,-47 0,-70 0.67,-23 2,-46.67 4,-68 2,-21.33 4.33,-38.67 8,-60 3.67,-21.33 8.67,-56.83 14,-68 5.33,-11.17 13.83,-0.33 18,1 4.17,1.33 4.17,5.67 7,7 2.83,1.33 7.5,0.33 10,1 2.5,0.67 2,2.5 5,3 3,0.5 9.17,1.17 13,0 3.83,-1.17 7,-2.5 10,-7 3,-4.5 6,-16 8,-20 2,-4 4.17,-2.17 4,-4 -0.17,-1.83 -2.17,-4.5 -5,-7 -2.83,-2.5 -9.5,-5.33 -12,-8 -2.5,-2.67 -2.67,-3 -3,-8 -0.33,-5 -0.33,-14.17 1,-22 1.33,-7.83 3.83,-20.67 7,-25 3.17,-4.33 8,0 12,-1 4,-1 8,-2.33 12,-5 4,-2.67 9,-7.5 12,-11 3,-3.5 3.83,-7.5 6,-10 2.17,-2.5 4.83,-4.83 7,-5 2.17,-0.17 4.17,0.83 6,4 1.83,3.17 1.83,8.5 5,15 3.17,6.5 8.83,17.5 14,24 5.17,6.5 11.33,11.33 17,15 5.67,3.67 11,5.5 17,7 6,1.5 15.33,2 19,2 3.67,0 -2.17,-1.5 3,-2 5.17,-0.5 20.33,1.33 28,-1 7.67,-2.33 10.5,-11 18,-13 7.5,-2 21.5,1.17 27,1 5.5,-0.17 4.5,-0.83 6,-2 1.5,-1.17 2.5,-2.5 3,-5 0.5,-2.5 1.5,-5.67 0,-10 -1.5,-4.33 -5,-10.83 -9,-16 -4,-5.17 -8,-10 -15,-15 -7,-5 -21.33,-10.67 -27,-15 -5.67,-4.33 -5.83,-9.17 -7,-11"
     fill="none"
     stroke="#000000"
     stroke-width="10.00"
     stroke-linecap="round"
     stroke-linejoin="round"
     id="path2"
     style="stroke-width:4;stroke-dasharray:none"
     sodipodi:nodetypes="cssssssssssssssssssssssssssssssssssssssssssssssssssssssssssssssc" />
  <path
     d="M421.00,816.00 C423.50,811.83 432.67,798.00 436.00,791.00 C439.33,784.00 440.00,780.33 441.00,774.00 C442.00,767.67 442.67,759.83 442.00,753.00 C441.33,746.17 436.67,737.00 437.00,733.00 C437.33,729.00 442.50,731.17 444.00,729.00 C445.50,726.83 443.50,721.50 446.00,720.00 C448.50,718.50 456.83,720.00 459.00,720.00"
     fill="none"
     stroke="black"
     stroke-width="10.00"
     stroke-linecap="round"
     stroke-linejoin="round"
     id="path3"
     style="stroke-width:4;stroke-dasharray:none" />
  <path
     d="M381.00,40.00 C382.00,39.33 382.67,36.33 387.00,36.00 C391.33,35.67 401.00,38.33 407.00,38.00 C413.00,37.67 416.50,34.67 423.00,34.00 C429.50,33.33 434.67,31.67 446.00,34.00 C457.33,36.33 479.17,40.83 491.00,48.00 C502.83,55.17 510.33,67.17 517.00,77.00 C523.67,86.83 528.50,99.00 531.00,107.00 C533.50,115.00 532.67,118.33 532.00,125.00 C531.33,131.67 528.33,143.00 527.00,147.00 C525.67,151.00 526.50,148.83 524.00,149.00 C521.50,149.17 517.00,151.50 512.00,148.00 C507.00,144.50 498.50,132.00 494.00,128.00 C489.50,124.00 488.17,124.33 485.00,124.00 C481.83,123.67 478.83,123.50 475.00,126.00 C471.17,128.50 465.67,136.17 462.00,139.00 C458.33,141.83 455.00,143.17 453.00,143.00 C451.00,142.83 451.17,144.00 450.00,138.00 C448.83,132.00 448.50,117.00 446.00,107.00 C443.50,97.00 439.67,86.50 435.00,78.00 C430.33,69.50 422.83,60.17 418.00,56.00 C413.17,51.83 408.00,53.50 406.00,53.00"
     fill="none"
     stroke="black"
     stroke-width="10.77"
     stroke-linecap="round"
     stroke-linejoin="round"
     id="path4"
     style="stroke-width:4;stroke-dasharray:none" />
  <path
     d="M408.00,37.00 C407.83,39.50 407.67,49.17 407.00,52.00 C406.33,54.83 406.83,53.67 404.00,54.00 C401.17,54.33 393.17,54.83 390.00,54.00 C386.83,53.17 386.50,51.33 385.00,49.00 C383.50,46.67 384.83,41.17 381.00,40.00 C377.17,38.83 369.00,40.17 362.00,42.00 C355.00,43.83 342.83,49.50 339.00,51.00"
     fill="none"
     stroke="black"
     stroke-width="10.77"
     stroke-linecap="round"
     stroke-linejoin="round"
     id="path5"
     style="stroke-width:4;stroke-dasharray:none" />
  <path
     d="M78.00,245.00 C76.17,243.67 70.50,240.83 67.00,237.00 C63.50,233.17 60.17,227.83 57.00,222.00 C53.83,216.17 50.00,208.50 48.00,202.00 C46.00,195.50 44.00,189.67 45.00,183.00 C46.00,176.33 51.00,167.83 54.00,162.00 C57.00,156.17 57.50,154.33 63.00,148.00 C68.50,141.67 81.17,130.50 87.00,124.00 C92.83,117.50 95.00,112.17 98.00,109.00 C101.00,105.83 101.83,105.83 105.00,105.00 C108.17,104.17 113.50,103.67 117.00,104.00 C120.50,104.33 122.83,105.00 126.00,107.00 C129.17,109.00 133.17,114.17 136.00,116.00 C138.83,117.83 140.83,119.67 143.00,118.00 C145.17,116.33 144.00,111.00 149.00,106.00 C154.00,101.00 168.00,93.83 173.00,88.00 C178.00,82.17 176.83,75.00 179.00,71.00 C181.17,67.00 181.67,66.33 186.00,64.00 C190.33,61.67 197.00,61.00 205.00,57.00 C213.00,53.00 227.83,43.17 234.00,40.00 C240.17,36.83 237.33,38.00 242.00,38.00 C246.67,38.00 256.83,40.00 262.00,40.00 C267.17,40.00 266.33,41.83 273.00,38.00 C279.67,34.17 295.50,20.67 302.00,17.00 C308.50,13.33 308.67,15.50 312.00,16.00 C315.33,16.50 318.83,17.50 322.00,20.00 C325.17,22.50 328.67,26.33 331.00,31.00 C333.33,35.67 334.67,44.67 336.00,48.00 C337.33,51.33 340.17,45.33 339.00,51.00 C337.83,56.67 331.83,74.67 329.00,82.00 C326.17,89.33 325.17,90.33 322.00,95.00 C318.83,99.67 312.83,104.67 310.00,110.00 C307.17,115.33 306.17,117.17 305.00,127.00 C303.83,136.83 302.83,152.33 303.00,169.00 C303.17,185.67 305.83,217.00 306.00,227.00 C306.17,237.00 305.67,229.17 304.00,229.00 C302.33,228.83 308.33,238.67 296.00,226.00 C283.67,213.33 242.50,166.33 230.00,153.00 C217.50,139.67 224.50,147.83 221.00,146.00 C217.50,144.17 213.00,142.17 209.00,142.00 C205.00,141.83 200.00,143.33 197.00,145.00 C194.00,146.67 192.50,146.33 191.00,152.00 C189.50,157.67 189.33,172.50 188.00,179.00 C186.67,185.50 186.33,186.33 183.00,191.00 C179.67,195.67 172.33,203.67 168.00,207.00 C163.67,210.33 158.83,210.33 157.00,211.00"
     fill="none"
     stroke="black"
     stroke-width="10.77"
     stroke-linecap="round"
     stroke-linejoin="round"
     id="path6"
     style="stroke-width:4;stroke-dasharray:none" />
  <path
     d="M142.00,118.00 C141.50,119.67 140.83,125.00 139.00,128.00 C137.17,131.00 132.83,133.17 131.00,136.00 C129.17,138.83 127.17,140.00 128.00,145.00 C128.83,150.00 134.50,158.83 136.00,166.00 C137.50,173.17 136.17,183.00 137.00,188.00 C137.83,193.00 137.50,192.17 141.00,196.00 C144.50,199.83 155.83,207.00 158.00,211.00 C160.17,215.00 154.33,213.50 154.00,220.00 C153.67,226.50 154.00,242.17 156.00,250.00 C158.00,257.83 161.50,261.67 166.00,267.00 C170.50,272.33 174.67,277.33 183.00,282.00 C191.33,286.67 203.50,292.67 216.00,295.00 C228.50,297.33 246.50,296.33 258.00,296.00 C269.50,295.67 278.00,294.33 285.00,293.00 C292.00,291.67 297.83,292.33 300.00,288.00 C302.17,283.67 297.83,271.83 298.00,267.00 C298.17,262.17 299.83,260.83 301.00,259.00 C302.17,257.17 302.67,254.33 305.00,256.00 C307.33,257.67 312.17,266.50 315.00,269.00 C317.83,271.50 320.17,271.67 322.00,271.00 C323.83,270.33 323.50,266.00 326.00,265.00 C328.50,264.00 334.33,265.83 337.00,265.00 C339.67,264.17 341.83,263.00 342.00,260.00 C342.17,257.00 338.67,249.17 338.00,247.00"
     fill="none"
     stroke="black"
     stroke-width="10.77"
     stroke-linecap="round"
     stroke-linejoin="round"
     id="path7"
     style="stroke-width:4;stroke-dasharray:none" />
  <path
     d="M453.00,143.00 C449.67,150.67 445.17,172.33 433.00,189.00 C420.83,205.67 390.67,235.50 380.00,243.00 C369.33,250.50 372.33,236.00 369.00,234.00 C365.67,232.00 362.83,231.50 360.00,231.00 C357.17,230.50 354.00,230.50 352.00,231.00 C350.00,231.50 347.50,232.50 348.00,234.00 C348.50,235.50 353.83,237.67 355.00,240.00 C356.17,242.33 354.00,246.33 355.00,248.00 C356.00,249.67 358.83,248.33 361.00,250.00 C363.17,251.67 364.83,258.33 368.00,258.00 C371.17,257.67 377.83,250.67 380.00,248.00 C382.17,245.33 380.83,243.00 381.00,242.00"
     fill="none"
     stroke="black"
     stroke-width="11.31"
     stroke-linecap="round"
     stroke-linejoin="round"
     id="path8"
     style="stroke-width:4;stroke-dasharray:none" />
  <path
     d="M526.00,148.00 C529.00,148.17 539.83,147.67 544.00,149.00 C548.17,150.33 549.33,152.17 551.00,156.00 C552.67,159.83 553.67,163.17 554.00,172.00 C554.33,180.83 553.17,202.83 553.00,209.00"
     fill="none"
     stroke="black"
     stroke-width="10.77"
     stroke-linecap="round"
     stroke-linejoin="round"
     id="path9"
     style="stroke-width:4;stroke-dasharray:none" />
  <path
     d="M387.00,277.00 C395.50,280.33 424.33,292.83 438.00,297.00 C451.67,301.17 459.17,301.17 469.00,302.00 C478.83,302.83 489.33,303.33 497.00,302.00 C504.67,300.67 511.33,296.83 515.00,294.00 C518.67,291.17 514.67,290.17 519.00,285.00 C523.33,279.83 536.00,270.17 541.00,263.00 C546.00,255.83 547.00,250.83 549.00,242.00 C551.00,233.17 549.67,215.17 553.00,210.00 C556.33,204.83 563.67,209.50 569.00,211.00 C574.33,212.50 580.00,215.33 585.00,219.00 C590.00,222.67 594.00,226.67 599.00,233.00 C604.00,239.33 612.00,252.00 615.00,257.00 C618.00,262.00 616.67,257.00 617.00,263.00 C617.33,269.00 614.50,283.00 617.00,293.00 C619.50,303.00 629.50,316.17 632.00,323.00 C634.50,329.83 634.33,328.67 632.00,334.00 C629.67,339.33 620.83,348.17 618.00,355.00 C615.17,361.83 616.17,370.33 615.00,375.00 C613.83,379.67 616.00,377.33 611.00,383.00 C606.00,388.67 592.33,402.83 585.00,409.00 C577.67,415.17 572.33,417.67 567.00,420.00 C561.67,422.33 558.00,424.83 553.00,423.00 C548.00,421.17 542.17,414.83 537.00,409.00 C531.83,403.17 528.33,392.83 522.00,388.00 C515.67,383.17 503.67,382.83 499.00,380.00 C494.33,377.17 494.83,372.50 494.00,371.00"
     fill="none"
     stroke="black"
     stroke-width="10.77"
     stroke-linecap="round"
     stroke-linejoin="round"
     id="path10"
     style="stroke-width:4;stroke-dasharray:none" />
  <path
     d="M155.00,221.00 C149.50,221.00 132.00,219.50 122.00,221.00 C112.00,222.50 101.50,226.33 95.00,230.00 C88.50,233.67 85.83,240.50 83.00,243.00 C80.17,245.50 78.83,242.83 78.00,245.00 C77.17,247.17 78.33,253.83 78.00,256.00 C77.67,258.17 79.00,257.50 76.00,258.00 C73.00,258.50 65.17,257.83 60.00,259.00 C54.83,260.17 49.17,262.00 45.00,265.00 C40.83,268.00 37.33,272.17 35.00,277.00 C32.67,281.83 31.67,288.17 31.00,294.00 C30.33,299.83 29.83,304.00 31.00,312.00 C32.17,320.00 37.83,332.67 38.00,342.00 C38.17,351.33 32.83,362.33 32.00,368.00 C31.17,373.67 32.17,373.33 33.00,376.00 C33.83,378.67 32.00,378.67 37.00,384.00 C42.00,389.33 55.17,402.17 63.00,408.00 C70.83,413.83 77.83,416.83 84.00,419.00 C90.17,421.17 95.83,423.83 100.00,421.00 C104.17,418.17 106.00,406.67 109.00,402.00 C112.00,397.33 113.33,396.17 118.00,393.00 C122.67,389.83 132.83,386.50 137.00,383.00 C141.17,379.50 142.00,373.83 143.00,372.00"
     fill="none"
     stroke="black"
     stroke-width="10.77"
     stroke-linecap="round"
     stroke-linejoin="round"
     id="path11"
     style="stroke-width:4;stroke-dasharray:none" />
  <path
     d="M305.00,228.00 C305.17,228.83 305.00,231.50 306.00,233.00 C307.00,234.50 311.33,233.00 311.00,237.00 C310.67,241.00 305.17,253.67 304.00,257.00"
     fill="none"
     stroke="black"
     stroke-width="18.06"
     stroke-linecap="round"
     stroke-linejoin="round"
     id="path12"
     style="stroke-width:4;stroke-dasharray:none" />
  <path
     d="M311.00,237.00 C311.67,236.33 310.67,234.17 315.00,233.00 C319.33,231.83 332.00,230.50 337.00,230.00 C342.00,229.50 343.17,229.33 345.00,230.00 C346.83,230.67 348.83,232.17 348.00,234.00 C347.17,235.83 341.67,238.83 340.00,241.00 C338.33,243.17 341.83,246.17 338.00,247.00 C334.17,247.83 321.83,247.17 317.00,246.00 C312.17,244.83 310.33,241.00 309.00,240.00"
     fill="none"
     stroke="black"
     stroke-width="12.81"
     stroke-linecap="round"
     stroke-linejoin="round"
     id="path13"
     style="stroke-width:4;stroke-dasharray:none" />
  <path
     d="M357.00,248.00 C356.33,248.33 354.00,248.00 353.00,250.00 C352.00,252.00 350.33,257.33 351.00,260.00 C351.67,262.67 353.83,266.33 357.00,266.00 C360.17,265.67 367.17,258.50 370.00,258.00 C372.83,257.50 373.17,259.83 374.00,263.00 C374.83,266.17 374.83,274.67 375.00,277.00"
     fill="none"
     stroke="black"
     stroke-width="12.17"
     stroke-linecap="round"
     stroke-linejoin="round"
     id="path14"
     style="stroke-width:4;stroke-dasharray:none" />
  <path
     d="M380.00,248.00 C381.50,250.17 387.67,256.33 389.00,261.00 C390.33,265.67 388.50,273.17 388.00,276.00 C387.50,278.83 388.17,277.67 386.00,278.00 C383.83,278.33 378.33,275.83 375.00,278.00 C371.67,280.17 369.33,288.17 366.00,291.00 C362.67,293.83 356.83,294.33 355.00,295.00"
     fill="none"
     stroke="black"
     stroke-width="12.65"
     stroke-linecap="round"
     stroke-linejoin="round"
     id="path15"
     style="stroke-width:4;stroke-dasharray:none" />
  <path
     d="M77.00,257.00 C77.50,258.33 78.50,256.17 80.00,265.00 C81.50,273.83 82.50,296.00 86.00,310.00 C89.50,324.00 97.33,340.67 101.00,349.00 C104.67,357.33 100.83,356.17 108.00,360.00 C115.17,363.83 134.50,371.17 144.00,372.00 C153.50,372.83 159.33,367.67 165.00,365.00 C170.67,362.33 170.00,352.33 178.00,356.00 C186.00,359.67 205.17,379.00 213.00,387.00 C220.83,395.00 220.83,399.00 225.00,404.00 C229.17,409.00 233.17,413.67 238.00,417.00 C242.83,420.33 251.33,422.83 254.00,424.00"
     fill="none"
     stroke="black"
     stroke-width="10.77"
     stroke-linecap="round"
     stroke-linejoin="round"
     id="path16"
     style="stroke-width:4;stroke-dasharray:none" />
  <path
     d="M350.00,260.00 L342.00,260.00"
     fill="none"
     stroke="black"
     stroke-width="10.77"
     stroke-linecap="round"
     stroke-linejoin="round"
     id="path17"
     style="stroke-width:4;stroke-dasharray:none" />
  <path
     d="M357.00,266.00 C355.17,269.17 346.17,280.17 346.00,285.00 C345.83,289.83 355.33,292.00 356.00,295.00 C356.67,298.00 351.83,301.33 350.00,303.00 C348.17,304.67 347.33,305.33 345.00,305.00 C342.67,304.67 338.33,303.33 336.00,301.00 C333.67,298.67 332.50,292.67 331.00,291.00 C329.50,289.33 328.33,294.50 327.00,291.00 C325.67,287.50 323.67,273.50 323.00,270.00"
     fill="none"
     stroke="black"
     stroke-width="12.00"
     stroke-linecap="round"
     stroke-linejoin="round"
     id="path18"
     style="stroke-width:4;stroke-dasharray:none" />
  <path
     d="M346.00,285.00 C343.50,286.00 336.00,289.83 331.00,291.00 C326.00,292.17 318.50,291.83 316.00,292.00"
     fill="none"
     stroke="black"
     stroke-width="13.03"
     stroke-linecap="round"
     stroke-linejoin="round"
     id="path19"
     style="stroke-width:4;stroke-dasharray:none" />
  <path
     d="M301.00,288.00 C302.67,288.17 308.67,288.33 311.00,289.00 C313.33,289.67 316.17,282.50 315.00,292.00 C313.83,301.50 306.17,329.50 304.00,346.00 C301.83,362.50 302.33,383.50 302.00,391.00"
     fill="none"
     stroke="black"
     stroke-width="10.77"
     stroke-linecap="round"
     stroke-linejoin="round"
     id="path20"
     style="stroke-width:4;stroke-dasharray:none" />
  <path
     d="M515.00,294.00 C515.33,294.33 512.17,295.33 517.00,296.00 C521.83,296.67 537.33,296.50 544.00,298.00 C550.67,299.50 552.67,301.33 557.00,305.00 C561.33,308.67 567.50,316.50 570.00,320.00 C572.50,323.50 572.00,323.33 572.00,326.00 C572.00,328.67 571.17,333.50 570.00,336.00 C568.83,338.50 570.33,338.67 565.00,341.00 C559.67,343.33 546.00,346.17 538.00,350.00 C530.00,353.83 523.67,361.17 517.00,364.00 C510.33,366.83 502.00,365.67 498.00,367.00 C494.00,368.33 495.00,371.33 493.00,372.00 C491.00,372.67 490.50,370.67 486.00,371.00 C481.50,371.33 472.33,373.50 466.00,374.00 C459.67,374.50 455.83,375.33 448.00,374.00 C440.17,372.67 425.33,367.33 419.00,366.00 C412.67,364.67 412.00,365.33 410.00,366.00 C408.00,366.67 411.67,370.83 407.00,370.00 C402.33,369.17 389.00,364.67 382.00,361.00 C375.00,357.33 369.83,352.33 365.00,348.00 C360.17,343.67 356.17,339.83 353.00,335.00 C349.83,330.17 347.17,324.17 346.00,319.00 C344.83,313.83 346.00,306.50 346.00,304.00"
     fill="none"
     stroke="black"
     stroke-width="10.77"
     stroke-linecap="round"
     stroke-linejoin="round"
     id="path21"
     style="stroke-width:4;stroke-dasharray:none" />
  <path
     d="M216.00,296.00 C215.50,297.17 219.00,296.00 213.00,303.00 C207.00,310.00 185.83,329.17 180.00,338.00 C174.17,346.83 178.33,353.00 178.00,356.00"
     fill="none"
     stroke="black"
     stroke-width="11.31"
     stroke-linecap="round"
     stroke-linejoin="round"
     id="path22"
     style="stroke-width:4;stroke-dasharray:none" />
  <path
     d="M101.00,420.00 C101.83,422.33 102.50,429.17 106.00,434.00 C109.50,438.83 114.67,443.67 122.00,449.00 C129.33,454.33 143.83,461.67 150.00,466.00 C156.17,470.33 155.50,470.33 159.00,475.00 C162.50,479.67 165.67,488.00 171.00,494.00 C176.33,500.00 187.67,508.17 191.00,511.00"
     fill="none"
     stroke="black"
     stroke-width="10.77"
     stroke-linecap="round"
     stroke-linejoin="round"
     id="path23"
     style="stroke-width:4;stroke-dasharray:none" />
  <path
     d="M554.00,422.00 C553.67,428.67 555.00,448.00 552.00,462.00 C549.00,476.00 540.00,496.33 536.00,506.00 C532.00,515.67 531.00,516.50 528.00,520.00 C525.00,523.50 525.83,523.33 518.00,527.00 C510.17,530.67 490.67,537.33 481.00,542.00 C471.33,546.67 470.67,553.33 460.00,555.00 C449.33,556.67 425.67,554.00 417.00,552.00 C408.33,550.00 411.17,547.17 408.00,543.00 C404.83,538.83 400.50,530.33 398.00,527.00 C395.50,523.67 393.83,527.33 393.00,523.00 C392.17,518.67 395.17,509.67 393.00,501.00 C390.83,492.33 382.33,478.00 380.00,471.00 C377.67,464.00 379.50,461.00 379.00,459.00 C378.50,457.00 377.33,459.00 377.00,459.00"
     fill="none"
     stroke="black"
     stroke-width="10.77"
     stroke-linecap="round"
     stroke-linejoin="round"
     id="path24"
     style="stroke-width:4;stroke-dasharray:none" />
  <path
     d="M265.00,494.00 C266.33,494.33 269.33,493.50 273.00,496.00 C276.67,498.50 283.17,506.17 287.00,509.00 C290.83,511.83 289.00,512.67 296.00,513.00 C303.00,513.33 317.33,509.00 329.00,511.00 C340.67,513.00 355.50,523.00 366.00,525.00 C376.50,527.00 387.67,523.33 392.00,523.00"
     fill="none"
     stroke="black"
     stroke-width="10.20"
     stroke-linecap="round"
     stroke-linejoin="round"
     id="path25"
     style="stroke-width:4;stroke-dasharray:none" />
  <path
     d="M215.00,521.00 C214.33,523.83 211.33,532.67 211.00,538.00 C210.67,543.33 208.67,546.67 213.00,553.00 C217.33,559.33 230.83,571.00 237.00,576.00 C243.17,581.00 243.67,581.67 250.00,583.00 C256.33,584.33 267.83,583.00 275.00,584.00 C282.17,585.00 285.83,588.33 293.00,589.00 C300.17,589.67 310.67,587.17 318.00,588.00 C325.33,588.83 331.50,593.00 337.00,594.00 C342.50,595.00 345.17,595.33 351.00,594.00 C356.83,592.67 364.17,588.17 372.00,586.00 C379.83,583.83 392.00,583.83 398.00,581.00 C404.00,578.17 404.83,573.67 408.00,569.00 C411.17,564.33 415.50,555.67 417.00,553.00"
     fill="none"
     stroke="black"
     stroke-width="10.77"
     stroke-linecap="round"
     stroke-linejoin="round"
     id="path26"
     style="stroke-width:4;stroke-dasharray:none" />
  <path
     d="M446.00,720.00 C446.00,717.67 446.33,708.33 446.00,706.00 C445.67,703.67 442.33,705.67 444.00,706.00 C445.67,706.33 453.50,707.17 456.00,708.00 C458.50,708.83 458.50,709.00 459.00,711.00 C459.50,713.00 458.17,717.67 459.00,720.00 C459.83,722.33 462.67,722.33 464.00,725.00 C465.33,727.67 466.50,730.00 467.00,736.00 C467.50,742.00 468.00,752.67 467.00,761.00 C466.00,769.33 463.17,779.17 461.00,786.00 C458.83,792.83 458.17,795.17 454.00,802.00 C449.83,808.83 442.50,820.00 436.00,827.00 C429.50,834.00 421.83,839.83 415.00,844.00 C408.17,848.17 402.83,850.50 395.00,852.00 C387.17,853.50 372.50,852.83 368.00,853.00"
     fill="none"
     stroke="black"
     stroke-width="10.00"
     stroke-linecap="round"
     stroke-linejoin="round"
     id="path27"
     style="stroke-width:4;stroke-dasharray:none" />
  <path
     d="M398.00,718.00 L392.00,720.00"
     fill="none"
     stroke="black"
     stroke-width="13.42"
     stroke-linecap="round"
     stroke-linejoin="round"
     id="path28"
     style="stroke-width:4;stroke-dasharray:none" />
  <path
     d="M421.00,730.00 C421.00,730.33 418.67,731.67 421.00,732.00 C423.33,732.33 432.17,731.67 435.00,732.00 C437.83,732.33 437.50,733.67 438.00,734.00"
     fill="none"
     stroke="black"
     stroke-width="10.00"
     stroke-linecap="round"
     stroke-linejoin="round"
     id="path29"
     style="stroke-width:4;stroke-dasharray:none" />
  <path
     d="m 195.73993,1067.7172 c 1,6 4.26007,17.7828 7.26007,32.2828 3,14.5 9.21736,39.7739 12,51 3.93201,15.8631 5.22267,21.397 8,33 3.67,14.33 12.17,44.17 20,69 7.83,24.83 18,55.17 27,80 9,24.83 16.83,44.83 27,69 10.17,24.17 21.83,50.5 34,76 12.17,25.5 27.33,55.17 39,77 11.67,21.83 25.83,45 31,54"
     fill="none"
     stroke="#000000"
     stroke-width="10.77"
     stroke-linecap="round"
     stroke-linejoin="round"
     id="path30"
     style="stroke-width:4;stroke-dasharray:none"
     sodipodi:nodetypes="cssssssssc" />
</svg>
